<?xml version="1.0" encoding="UTF-8" standalone="no"?>
<!-- Created with Inkscape (http://www.inkscape.org/) -->

<svg
   xmlns:dc="http://purl.org/dc/elements/1.1/"
   xmlns:cc="http://creativecommons.org/ns#"
   xmlns:rdf="http://www.w3.org/1999/02/22-rdf-syntax-ns#"
   xmlns:svg="http://www.w3.org/2000/svg"
   xmlns="http://www.w3.org/2000/svg"
   xmlns:sodipodi="http://sodipodi.sourceforge.net/DTD/sodipodi-0.dtd"
   xmlns:inkscape="http://www.inkscape.org/namespaces/inkscape"
   version="1.1"
   id="svg3807"
   width="14"
   height="14"
   viewBox="0 0 14 14"
   sodipodi:docname="adit__.svg"
   inkscape:version="0.92.4 (5da689c313, 2019-01-14)">
  <metadata
     id="metadata3813">
    <rdf:RDF>
      <cc:Work
         rdf:about="">
        <dc:format>image/svg+xml</dc:format>
        <dc:type
           rdf:resource="http://purl.org/dc/dcmitype/StillImage" />
        <dc:title></dc:title>
      </cc:Work>
    </rdf:RDF>
  </metadata>
  <defs
     id="defs3811" />
  <sodipodi:namedview
     pagecolor="#ffffff"
     bordercolor="#666666"
     borderopacity="1"
     objecttolerance="10"
     gridtolerance="10"
     guidetolerance="10"
     inkscape:pageopacity="0"
     inkscape:pageshadow="2"
     inkscape:window-width="1920"
     inkscape:window-height="1137"
     id="namedview3809"
     showgrid="false"
     inkscape:zoom="4.984375"
     inkscape:cx="96"
     inkscape:cy="96"
     inkscape:window-x="-8"
     inkscape:window-y="-8"
     inkscape:window-maximized="1"
     inkscape:current-layer="svg3807" />
  <g
     id="g3817"
     transform="scale(0.07290645,0.07352941)">
    <path
       style="fill:#000000;stroke-width:0.31999999"
       d="M 52.27103,178.52264 41.76,166.64529 l -0.32,-0.57968 -0.32,-0.57968 -2.693974,-2.93671 -2.693975,-2.93671 -1.95143,-2.28626 -1.951428,-2.28625 -1.754597,-1.901 -1.754596,-1.901 -1.309157,-1.299 -1.309157,-1.299 -1.594076,-1.92 -1.594076,-1.92 -1.50676,-2.13464 -1.50676,-2.13464 L 18.03247,137.38536 16.564926,134.24 9.1948538,118.56 1.8247809,102.88 0.91239046,100.68684 0,98.493686 V 97.886845 97.28 h 0.4174199 0.41741991 l 12.62258019,6.50325 12.62258,6.50324 7.764624,3.94954 7.764627,3.94953 4.176973,4.58722 4.17697,4.58722 h 0.27774 0.277738 l 1.738157,-2 1.738153,-2 3.008253,-3.52 3.008253,-3.52 2.57519,-3.04 2.575188,-3.04 8.124956,-9.6 8.124957,-9.6 2.014109,-2.318403 L 85.44,86.403194 V 86.224829 86.046464 L 79.29831,79.423232 73.156624,72.8 69.61831,68.970083 66.08,65.140166 63.52,62.399306 60.96,59.658442 55.52,53.75847 50.08,47.858496 45.44,42.875696 40.8,37.892899 35.36,32.003398 29.92,26.113897 25.484758,21.353158 21.049516,16.592418 21.250217,15.576209 21.450917,14.56 22.519363,12.32 23.587808,10.08 25.081195,8.106384 26.574582,6.132768 29.105489,3.751873 31.636395,1.3709779 33.09471,0.68548896 34.553024,0 h 1.559853 1.559849 l 0.883172,0.88 0.883168,0.88 4.680467,5.4161158 L 48.8,12.592231 55.20671,19.976116 61.613421,27.36 65.601555,32 l 3.988135,4.64 5.445155,6.25984 5.445155,6.25984 4,4.62016 4,4.62016 5.049776,5.68 5.049776,5.68 h 0.284915 0.284915 l 5.065308,-5.974115 5.06531,-5.974115 3.2,-3.746724 3.2,-3.74672 4,-4.745059 4,-4.745059 3.68899,-4.334102 3.68899,-4.334106 3.83101,-4.51026 3.83101,-4.510259 4,-4.736419 4,-4.736418 3.95729,-4.6733221 3.95729,-4.6733219 1.76743,-2.0272246 1.76742,-2.02722459 1.15528,0.21106122 1.15529,0.21106122 1.44,0.82556565 1.44,0.8255657 2.41101,2.4305976 2.41101,2.4305978 1.4113,1.9106813 1.4113,1.9106817 1.38251,3.141355 1.38251,3.141356 -0.35422,0.661858 -0.35422,0.661858 -6.31945,7.086105 -6.31946,7.086105 -3.33114,3.691494 -3.33115,3.691492 -8.32,9.253497 -8.32,9.253498 -7.04,7.885001 -7.04,7.884999 -5.04,5.615936 -5.04,5.615933 v 0.387334 0.387334 l 4.25345,4.846743 4.25346,4.846739 5.10654,5.91832 5.10655,5.91831 5.6,6.40797 5.6,6.40796 1.35617,1.59372 1.35617,1.59372 11.0329,-11.02733 11.03289,-11.02733 0.36976,-0.89267 0.36975,-0.89267 h 0.46222 0.46221 l 0.69897,0.36286 0.69896,0.36285 2.08,1.95003 2.08,1.95003 6.56,6.23763 6.56,6.23763 2,1.99337 2,1.99338 v 0.91969 0.9197 l -2.44111,2.85641 -2.44111,2.85642 -5.34588,5.92 -5.34588,5.92 -9.13935,10.08 -9.13934,10.08 -3.63367,3.70774 -3.63366,3.70775 -5.12,4.79024 -5.12,4.79024 -5.89211,5.35744 -5.89212,5.35744 -0.55237,-0.0954 -0.55239,-0.0954 -10.7555,-11.1312 L 106.24,166.05761 v -0.55992 -0.55992 l 8.72,-8.36641 8.72,-8.36641 4.88,-4.92575 4.88,-4.92575 v -0.30923 -0.30922 l -8.72,-9.45136 -8.72,-9.45136 -8.30235,-9.0276 -8.302344,-9.0276 -0.374983,0.0915 -0.374982,0.0915 -11.343069,12.64 -11.343069,12.64 -6.776233,7.52 -6.776234,7.52 -0.0034,0.42234 -0.0034,0.42235 0.921904,1.33765 0.921901,1.33766 2.386147,2.72 2.386144,2.72 6.082781,6.45141 6.082781,6.45141 1.489171,1.74309 1.489171,1.74309 v 0.62409 0.62409 L 74.212694,179.13859 64.265376,190.4 H 63.523725 62.782074 L 52.271046,178.52264 Z"
       id="path3821"
       inkscape:connector-curvature="0" />
    <path
       style="fill:#000000;stroke-width:0.31999999"
       d="M 52.574902,177.89972 42.08,166.03944 41.962758,165.65972 41.845517,165.28 l -1.831703,-1.92 -1.831702,-1.92 -3.326659,-3.84 -3.326659,-3.84 -2.897412,-3.04 -2.897411,-3.04 -1.603619,-1.92 -1.60362,-1.92 -1.192971,-1.65596 -1.192971,-1.65595 -3.940691,-8.42405 L 12.259408,123.68 6.5650237,111.53246 0.87063987,99.384925 0.43531994,98.949606 0,98.514285 V 98.076029 97.63777 L 0.32,97.44 0.64,97.24223 v 0.300544 0.300544 l 15.28,7.846882 15.28,7.84688 4.922982,2.51146 4.922983,2.51146 4.311843,4.72 4.31184,4.72 h 0.597862 0.597863 l 2.487312,-2.94109 2.487315,-2.9411 3.2,-3.72718 3.2,-3.72718 4.16,-4.9189 4.16,-4.9189 3.944557,-4.65282 3.94456,-4.65283 3.25544,-3.803312 L 84.96,87.913376 85.517891,87.076688 86.075782,86.24 l 0.0022,-0.243968 0.0022,-0.243968 -4.08,-4.383296 -4.08,-4.383296 -4.48,-4.827046 -4.48,-4.827047 -5.28,-5.736128 -5.28,-5.736128 -2.56,-2.731017 -2.56,-2.731018 -7.68,-8.312147 -7.68,-8.312147 -2.56,-2.731483 -2.56,-2.731483 L 27.36,22.41456 l -5.44,-5.895268 0.05267,-0.950056 0.05267,-0.950055 1.311726,-2.647174 1.311726,-2.6471728 3.172636,-3.3229769 3.172636,-3.3229772 1.382971,-0.93944 L 33.76,0.8 34.182858,0.4 34.605715,0 h 1.380339 1.38034 l 0.487884,0.7446079 0.487888,0.7446079 4.588916,5.2777989 L 47.52,12.044814 56.354458,22.262407 65.188918,32.48 69.908,37.92 l 4.719082,5.44 5.563123,6.448109 5.563126,6.448105 6.181507,6.991895 6.181511,6.991891 0.645238,0.09484 0.645239,0.09484 4.936584,-5.830489 4.93659,-5.830487 3.2,-3.74519 3.2,-3.745191 4,-4.745059 4,-4.745059 3.68886,-4.334102 3.68886,-4.334106 3.54287,-4.16 3.54288,-4.16 2.04826,-2.441252 2.04827,-2.441252 3.35164,-3.958748 L 148.94327,12 153.50614,6.6214022 158.06901,1.2428048 158.38865,0.7014024 158.70829,0.16 l 0.24585,0.32883216 0.24586,0.32883216 1.44,0.61922938 1.44,0.6192294 3.21079,3.2119383 3.2108,3.2119386 1.06774,1.553666 1.06774,1.553665 1.24146,2.862339 1.24147,2.86234 v 0.14486 0.144861 l -6.34885,7.119135 -6.34886,7.119134 -3.33114,3.691494 -3.33115,3.691492 -8.32,9.254924 -8.32,9.254922 -4.14946,4.653584 -4.14945,4.653584 -8.25055,9.18543 -8.25054,9.185428 v 0.642188 0.642192 l 4.5762,5.212381 4.5762,5.212381 5.2638,6.0987 5.2638,6.09869 6.53552,7.50131 6.53551,7.5013 0.46795,0.11183 0.46795,0.11184 3.98398,-3.95184 3.98398,-3.95183 7.57255,-7.83547 7.57256,-7.83547 0.48,0.10616 0.48,0.10617 1.92,1.79426 1.92,1.79426 6.4,6.10795 6.4,6.10795 2.56,2.38709 2.56,2.3871 0.0934,0.34802 0.0935,0.34802 -1.74815,1.89198 -1.74816,1.89198 -13.52516,15.04 -13.52516,15.04 -3.70014,3.96639 -3.70014,3.96639 -5.60006,5.31361 -5.60007,5.31361 -7.11516,6.48 -7.11515,6.48 h -0.27948 -0.27948 l -10.5253,-10.9098 -10.5253,-10.9098 -0.11733,-0.32219 -0.11733,-0.32218 13.71368,-13.51318 13.71368,-13.51318 -0.36558,-0.77483 L 133.50153,136.8 124.75077,127.33658 116,117.87317 107.85697,109.01658 99.713946,100.16 H 98.992874 98.271802 L 98.015901,100.59794 97.76,101.03587 80,120.76763 l -17.76,19.73175 -0.295094,0.77131 -0.295092,0.77132 0.835117,1.26195 0.83512,1.26195 1.965623,2.35704 1.965622,2.35705 6.294352,6.68894 6.294352,6.68894 1.84,2.07853 1.84,2.07853 v 0.42031 0.42031 L 73.745491,178.70778 63.970986,189.76 h -0.450592 -0.450592 z"
       id="path3819"
       inkscape:connector-curvature="0" />
  </g>
</svg>
