<?xml version="1.0" encoding="UTF-8" standalone="no"?>
<!-- Created with Inkscape (http://www.inkscape.org/) -->

<svg
   xmlns:dc="http://purl.org/dc/elements/1.1/"
   xmlns:cc="http://creativecommons.org/ns#"
   xmlns:rdf="http://www.w3.org/1999/02/22-rdf-syntax-ns#"
   xmlns:svg="http://www.w3.org/2000/svg"
   xmlns="http://www.w3.org/2000/svg"
   xmlns:sodipodi="http://sodipodi.sourceforge.net/DTD/sodipodi-0.dtd"
   xmlns:inkscape="http://www.inkscape.org/namespaces/inkscape"
   version="1.1"
   id="svg3768"
   width="14"
   height="14"
   viewBox="0 0 14 14"
   sodipodi:docname="adit_.svg"
   inkscape:version="0.92.4 (5da689c313, 2019-01-14)">
  <metadata
     id="metadata3774">
    <rdf:RDF>
      <cc:Work
         rdf:about="">
        <dc:format>image/svg+xml</dc:format>
        <dc:type
           rdf:resource="http://purl.org/dc/dcmitype/StillImage" />
        <dc:title></dc:title>
      </cc:Work>
    </rdf:RDF>
  </metadata>
  <defs
     id="defs3772" />
  <sodipodi:namedview
     pagecolor="#ffffff"
     bordercolor="#666666"
     borderopacity="1"
     objecttolerance="10"
     gridtolerance="10"
     guidetolerance="10"
     inkscape:pageopacity="0"
     inkscape:pageshadow="2"
     inkscape:window-width="1920"
     inkscape:window-height="1137"
     id="namedview3770"
     showgrid="false"
     inkscape:zoom="4.984375"
     inkscape:cx="96"
     inkscape:cy="96"
     inkscape:window-x="-8"
     inkscape:window-y="-8"
     inkscape:window-maximized="1"
     inkscape:current-layer="svg3768" />
  <g
     id="g3778"
     transform="matrix(0.07290388,0,0,0.07335877,0.00245523,-0.08488)">
    <path
       style="fill:#000000;stroke-width:0.31999999"
       d="m 153.21067,190.94544 -1.05067,-1.05457 -4.8,-5.55835 -4.8,-5.55835 -7.52,-8.68137 -7.52,-8.68137 -5.92,-6.83236 -5.92,-6.83237 -4.43964,-5.15335 -4.43963,-5.15335 -6.55715,-7.44 -6.557142,-7.44 -0.523219,0.003 -0.523219,0.003 -4.64,5.49348 -4.64,5.49348 -3.2,3.74427 -3.2,3.74428 -4,4.74506 -4,4.74506 -3.688861,4.3341 -3.688857,4.33411 -3.542874,4.16 -3.542877,4.16 -2.048265,2.44125 -2.048266,2.44125 -3.351635,3.95875 -3.351635,3.95875 -4.608029,5.44 -4.608026,5.44 -0.423494,0.24647 -0.423495,0.24648 -1.305916,-0.20883 -1.305918,-0.20882 -1.42646,-0.94485 -1.42646,-0.94485 -2.76268,-2.9328 -2.762679,-2.9328 -0.944382,-1.3705 -0.944382,-1.3705 -1.257405,-2.8328 L 18.24,175.1134 v -0.51757 -0.51756 l 6.348853,-7.11914 6.348853,-7.11913 3.331148,-3.69149 3.331146,-3.6915 8.32,-9.2556 8.32,-9.2556 6.867859,-7.6929 6.867859,-7.69291 5.532141,-6.15822 5.532141,-6.15822 v -0.3094 -0.3094 L 74.469005,100.41238 69.89801,95.2 65.756288,90.4 61.614563,85.6 54.139034,77.04 46.663504,68.48 H 46.263245 45.862982 L 35.011491,79.641315 24.16,90.80263 23.664758,91.525466 23.169516,92.248301 22.323572,91.80415 21.477628,91.36 14.658814,84.903488 7.84,78.446976 3.92,74.657424 0,70.867872 V 69.989594 69.111315 L 0.4,68.395658 0.8,67.68 2.72,65.435782 4.64,63.191562 19.231988,47.035782 33.823974,30.88 40.849418,24 47.874858,17.12 55.461574,10.24 63.048288,3.36 63.487802,3.263535 63.927315,3.1670701 74.923658,14.540685 85.92,25.914301 l 0.09296,0.428309 0.09296,0.428308 -5.37296,5.251802 -5.37296,5.251802 -8.38223,8.296979 -8.382234,8.296976 0.278061,0.505763 0.278057,0.50576 6.509255,7.04 6.509251,7.04 9.850726,10.72 9.850724,10.72 0.599264,0.422477 0.599264,0.42248 18.024932,-20.046093 18.02493,-20.046093 0.21788,-0.388445 0.21788,-0.388441 -0.4623,-0.947943 -0.4623,-0.947942 -2.25853,-2.72 -2.25853,-2.72 -6.29705,-6.688067 -6.29705,-6.688069 -2,-2.26594 -2,-2.26594 V 24.762501 24.393018 L 117.3859,13.236509 127.25181,2.08 l 0.56092,-0.4614436 0.56092,-0.4614436 0.53317,0.3278194 0.53318,0.3278194 10.08,11.3850244 10.08,11.385025 2.72,3.125856 2.72,3.125856 0.66929,0.662744 0.66929,0.662743 2.00695,2.4 2.00695,2.4 0.36376,0.323472 0.36376,0.323475 2.88608,3.196525 2.88608,3.196528 1.61055,1.92 1.61056,1.92 1.20679,1.674787 1.20679,1.674787 4.23719,9.045213 4.23719,9.045213 5.13176,11.04 5.13177,11.04 0.36762,1.14272 L 192,93.64544 v 0.503043 0.503043 l -0.4,0.134541 -0.4,0.134544 -11.36,-5.869997 -11.36,-5.87 -8.92744,-4.539635 -8.92743,-4.539638 -4.30098,-4.709722 -4.30098,-4.709725 -0.43506,0.166951 -0.43507,0.16695 -4.09652,4.829459 -4.09652,4.82946 -2.86896,3.382643 -2.86896,3.382643 -5.29743,6.24 -5.29743,6.24 -2.70594,3.2 -2.70594,3.2 -2.16767,2.51836 -2.16767,2.51837 v 0.49866 0.49866 l 2.32316,2.42297 2.32315,2.42298 7.51685,8.15572 7.51684,8.15572 2.56,2.73506 2.56,2.73506 5.44,5.89997 5.44,5.89997 4.64,4.9828 4.64,4.9828 5.44,5.89223 5.44,5.89223 4.06891,4.33422 4.0689,4.33422 0.0111,1.00747 0.0111,1.00747 -1.49732,2.99253 -1.49731,2.99253 -4.02269,4.00236 -4.02268,4.00237 -1.35496,0.39763 L 157.1301,192 h -1.43438 -1.43437 l -1.05067,-1.05456 z"
       id="path3782"
       inkscape:connector-curvature="0" />
    <path
       style="fill:#000000;stroke-width:0.31999999"
       d="m 153.74652,191.12 -0.56708,-0.88 -2.1378,-2.4 -2.13779,-2.4 -5.09192,-5.92841 -5.09193,-5.9284 -7.04,-8.13706 -7.04,-8.13705 -6.67948,-7.69454 -6.67948,-7.69454 -3.88052,-4.48 -3.88052,-4.48 -5.049776,-5.68 -5.049776,-5.68 h -0.284915 -0.284915 l -5.065309,5.97689 -5.065309,5.97689 -3.04,3.54669 -3.04,3.54668 -3.2,3.78562 -3.2,3.78562 -3.04,3.60938 -3.04,3.60937 -4.32,5.07082 -4.32,5.07081 -2.88,3.40951 -2.88,3.4095 -3.351635,3.96111 -3.351635,3.96111 -4.568365,5.38507 -4.568365,5.38507 v 0.29493 0.29493 H 33.469533 33.019062 L 31.309532,190.80691 29.6,189.93381 26.701385,187.04691 23.80277,184.16 22.506808,182.39515 21.210845,180.6303 20.045423,177.97965 18.88,175.329 v -0.61754 -0.61755 l 5.52,-6.19707 5.52,-6.19707 10.750026,-11.96989 10.750025,-11.96988 3.329975,-3.68931 3.329974,-3.6893 7.84,-8.76322 7.84,-8.76323 2.96,-3.29965 2.96,-3.29966 v -0.31543 -0.31544 L 75.103798,100.41238 70.527597,95.2 65.263798,89.101302 60,83.002608 53.464483,75.501302 46.92897,68 46.45903,67.887782 45.989088,67.775565 37.847187,75.887782 29.705288,84 26.579524,87.37936 23.453759,90.758723 23.311584,91.185248 23.169408,91.611776 22.384704,91.20247 21.6,90.793165 19.68,89.009971 17.76,87.226778 11.36,81.116112 4.96,75.00545 2.56,72.782723 0.16,70.56 0.0631612,69.885766 -0.0336776,69.211536 1.5533429,67.485766 3.1403634,65.76 6.1301818,62.375638 9.12,58.991274 20.760828,46.055638 32.401658,33.12 39.487597,26.08 46.573533,19.04 54.837376,11.52 63.101219,4 63.473398,3.9114061 63.845574,3.8228118 74.562787,14.916628 85.28,26.010444 85.391094,26.298505 85.502189,26.586567 71.871094,40.044115 58.24,53.501667 l 0.0016,0.529165 0.0016,0.529168 7.08536,7.68 7.085357,7.68 10.095667,10.971411 10.095664,10.971408 0.374387,-0.09141 L 93.353952,91.68 104.99698,78.708013 116.64,65.736026 l 6.56,-7.28457 6.56,-7.28457 0.0994,-0.601782 0.0994,-0.601786 -0.47228,-0.90166 -0.47228,-0.901658 -2.1302,-2.56 -2.1302,-2.56 -6.29694,-6.688067 -6.29694,-6.688069 -2,-2.26594 -2,-2.26594 V 24.762501 24.393018 L 118.09306,13.156509 128.02611,1.92 h 0.44803 0.44803 l 9.69891,10.967977 9.69892,10.967978 0.96,1.205208 0.96,1.205208 2.4,2.633158 2.4,2.633158 2.37223,2.713655 2.37223,2.713658 3.10374,3.36 3.10375,3.36 1.74265,2.08 1.74266,2.08 1.47094,2.08 1.47094,2.08 3.50858,7.52 3.50858,7.52 5.8467,12.48 5.8467,12.48 0.43515,0.631203 0.43515,0.6312 v 0.7288 V 94.72 h -0.256 -0.256 l -0.304,-0.279238 -0.304,-0.279236 -8.64,-4.409907 -8.64,-4.40991 -8.64,-4.428874 -8.64,-4.428877 -2.66625,-1.361977 L 150.9875,73.76 146.50635,68.88 142.02519,64 h -0.25184 -0.25184 l -1.24075,1.375379 -1.24076,1.375379 -5.01192,5.904621 -5.01192,5.904621 -3.94808,4.652826 -3.94808,4.652822 -4.16,4.913523 -4.16,4.91352 -3.28,3.834869 -3.28,3.83488 v 0.46746 0.46746 l 3.785,4.05132 3.78499,4.05132 4.61501,4.97431 4.615,4.97431 5.28,5.73613 5.28,5.73613 2.56,2.73101 2.56,2.73102 7.68,8.31215 7.68,8.31215 2.56,2.73148 2.56,2.73148 5.44,5.87772 5.44,5.87772 0.10226,0.76761 0.10226,0.7676 -0.52127,1.56938 -0.52126,1.56939 -1.24643,1.92847 -1.24643,1.92846 -2.49456,2.61706 -2.49457,2.61705 -2.04772,1.55469 L 157.66456,192 h -1.67548 -1.67547 z"
       id="path3780"
       inkscape:connector-curvature="0" />
  </g>
</svg>
