<?xml version="1.0" encoding="UTF-8" standalone="no"?>
<!-- Created with Inkscape (http://www.inkscape.org/) -->

<svg
   xmlns:dc="http://purl.org/dc/elements/1.1/"
   xmlns:cc="http://creativecommons.org/ns#"
   xmlns:rdf="http://www.w3.org/1999/02/22-rdf-syntax-ns#"
   xmlns:svg="http://www.w3.org/2000/svg"
   xmlns="http://www.w3.org/2000/svg"
   xmlns:sodipodi="http://sodipodi.sourceforge.net/DTD/sodipodi-0.dtd"
   xmlns:inkscape="http://www.inkscape.org/namespaces/inkscape"
   version="1.1"
   id="svg9"
   width="41.607746"
   height="41.607746"
   viewBox="0 0 41.607746 41.607746"
   sodipodi:docname="assembly8.svg"
   inkscape:version="0.92.3 (2405546, 2018-03-11)">
  <metadata
     id="metadata15">
    <rdf:RDF>
      <cc:Work
         rdf:about="">
        <dc:format>image/svg+xml</dc:format>
        <dc:type
           rdf:resource="http://purl.org/dc/dcmitype/StillImage" />
        <dc:title></dc:title>
      </cc:Work>
    </rdf:RDF>
  </metadata>
  <defs
     id="defs13" />
  <sodipodi:namedview
     pagecolor="#ffffff"
     bordercolor="#666666"
     borderopacity="1"
     objecttolerance="10"
     gridtolerance="10"
     guidetolerance="10"
     inkscape:pageopacity="0"
     inkscape:pageshadow="2"
     inkscape:window-width="1920"
     inkscape:window-height="1137"
     id="namedview11"
     showgrid="false"
     inkscape:zoom="16.042897"
     inkscape:cx="14.300624"
     inkscape:cy="21.607437"
     inkscape:window-x="-8"
     inkscape:window-y="-8"
     inkscape:window-maximized="1"
     inkscape:current-layer="svg9" />
  <g
     id="g37"
     transform="translate(2.9242679e-7,-1.0596595)">
    <path
       style="fill:#BF0000;stroke-width:0.07748184"
       d="M 6.016123,31.0052 C 5.9390906,30.92008 5.8489963,30.638613 5.8101094,30.361585 5.7193913,29.715315 5.5798456,26.735588 5.5792008,25.430981 5.5788277,24.676163 5.5528808,24.393713 5.4818399,24.371141 5.4285711,24.354216 4.4958835,24.303403 3.4092008,24.258223 1.2996292,24.170515 0.81656503,24.092657 0.3125463,23.759113 L 0,23.552279 1.3854372e-4,21.015849 2.7708822e-4,18.479418 0.32943635,18.27366 c 0.5277029,-0.329868 0.83455975,-0.377324 3.00228265,-0.464308 1.1292977,-0.04532 2.0912686,-0.0929 2.137713,-0.105749 0.057088,-0.01579 0.1019996,-0.797529 0.138635,-2.413117 0.057224,-2.52352 0.1523929,-3.811876 0.3052682,-4.13258 0.064638,-0.135599 0.1659451,-0.201369 0.3356207,-0.217891 0.2172145,-0.02115 0.3438435,0.07352 1.1918587,0.891041 2.1526648,2.075262 6.9194934,7.373214 7.7934994,8.661855 0.416908,0.614695 0.407923,0.638167 -0.816109,2.131785 -1.550766,1.892315 -3.647558,4.24256 -5.727898,6.420266 C 6.8596296,30.96132 6.3286512,31.350539 6.016123,31.0052 Z m 29.028433,-0.061 c -0.696912,-0.343635 -6.898207,-7.149643 -8.512817,-9.342935 -0.284074,-0.385886 -0.34674,-0.526262 -0.312148,-0.699223 0.05748,-0.287382 0.457156,-0.902734 1.032557,-1.589737 0.763035,-0.91103 5.810497,-6.262679 6.779072,-7.187617 0.995131,-0.950296 1.240591,-1.119822 1.441135,-0.995315 0.341387,0.211948 0.426425,0.794246 0.595138,4.075156 0.06632,1.289811 0.134052,2.383579 0.150505,2.430596 0.0198,0.0566 0.614811,0.104119 1.760679,0.140625 2.477671,0.07893 3.102751,0.185227 3.493476,0.594057 0.123475,0.129197 0.135593,0.368135 0.135593,2.673558 0,2.528012 -2.32e-4,2.531906 -0.174334,2.686191 -0.416443,0.369087 -0.938129,0.445616 -3.970944,0.582523 l -1.23971,0.05596 -0.05421,1.317192 c -0.100043,2.430689 -0.223214,4.413335 -0.29844,4.803874 -0.10946,0.568269 -0.339187,0.694909 -0.825549,0.455093 z M 19.686515,24.35648 c -0.512362,-0.178655 -0.867757,-0.429515 -1.307548,-0.922949 -0.82486,-0.925473 -1.204268,-2.018435 -1.034749,-2.98081 0.357358,-2.028755 2.516508,-3.334451 4.495467,-2.71853 1.008694,0.313942 2.069782,1.349797 2.261855,2.208069 0.057,0.254693 0.07892,0.76853 0.05696,1.33516 -0.04463,1.151772 -0.172072,1.450228 -0.920884,2.15662 -0.815835,0.769616 -1.218738,0.935222 -2.433746,1.000349 -0.585044,0.03136 -0.858716,0.01228 -1.117358,-0.07791 z"
       id="path51"
       inkscape:connector-curvature="0" />
    <path
       style="fill:#BF0000;stroke-width:0.07748184"
       d="M 6.0524048,30.964623 C 6.0042057,30.906547 5.9310866,30.671196 5.8899181,30.441621 5.7992054,29.935764 5.6578649,27.233266 5.6517088,25.886944 5.6492529,25.349851 5.6225644,24.770943 5.592401,24.600483 L 5.5375585,24.290556 3.5242271,24.204281 C 1.2359384,24.106225 1.1300355,24.092058 0.53053677,23.80381 L 0.09255059,23.593219 0.03713936,22.263459 C 0.00666319,21.53209 0.00707277,20.376547 0.03804955,19.695584 L 0.09437097,18.457471 0.50669671,18.248854 C 1.0217458,17.988263 1.5612786,17.919915 3.7778303,17.834468 c 0.9485089,-0.03657 1.7468414,-0.08876 1.7740723,-0.115992 0.027231,-0.02723 0.076892,-1.035198 0.1103593,-2.239926 0.119101,-4.287374 0.2092535,-4.774678 0.8151596,-4.406204 0.9452845,0.574862 7.6006225,7.818934 8.7106125,9.481158 0.359064,0.537703 0.363408,0.519995 -0.356782,1.454283 -1.447936,1.878375 -6.5803554,7.558032 -7.6346656,8.448701 -0.7545108,0.637402 -0.9608488,0.729038 -1.1441816,0.508135 z m 29.0468672,-0.05795 c -0.79683,-0.313639 -8.83293,-9.356362 -8.83293,-9.939366 0,-0.393763 0.820825,-1.437313 2.749181,-3.495148 4.959077,-5.292055 6.020902,-6.345968 6.346547,-6.299254 0.372267,0.0534 0.464546,0.631059 0.634966,3.974799 0.0695,1.36368 0.157307,2.51241 0.195122,2.552733 0.03781,0.04032 0.844673,0.101274 1.793019,0.135449 2.136101,0.07698 2.756668,0.158142 3.246196,0.424576 l 0.376373,0.204848 v 2.570658 2.570657 l -0.411476,0.208188 c -0.503264,0.254629 -1.12381,0.330059 -3.319229,0.403469 -0.879975,0.02942 -1.632216,0.07516 -1.671646,0.10163 -0.03943,0.02647 -0.113218,1.181302 -0.163974,2.56629 -0.144954,3.955401 -0.226236,4.30226 -0.942149,4.020471 z M 19.664675,24.266416 c -1.130167,-0.405766 -2.177665,-1.824649 -2.284073,-3.093882 -0.169831,-2.025741 1.86763,-3.832314 3.944824,-3.497792 0.741846,0.119471 1.266143,0.410429 1.930258,1.071198 0.73443,0.730728 0.841167,1.021356 0.841167,2.290379 0,1.251805 -0.110574,1.562062 -0.802154,2.250738 -0.79798,0.794631 -1.298317,1.01637 -2.413342,1.06954 -0.680898,0.03247 -0.925579,0.01433 -1.21668,-0.09018 z"
       id="path49"
       inkscape:connector-curvature="0" />
    <path
       style="fill:#BF0000;stroke-width:0.07748184"
       d="M 6.0410558,30.833048 C 5.9059078,30.580522 5.8230158,29.515605 5.7308213,26.847456 5.6837011,25.483776 5.6166378,24.33879 5.5817916,24.303042 5.5469456,24.267295 4.7213393,24.206128 3.7471109,24.167116 1.517374,24.077829 0.94165643,24.001003 0.4552966,23.727845 l -0.37765721,-0.212108 -7.878e-5,-2.53753 c -5.778e-5,-1.861152 0.02367867,-2.53753 0.08905078,-2.53753 0.0490213,0 0.27250547,-0.08972 0.49663159,-0.199372 C 1.095707,18.02972 0.92251013,18.047374 4.6101692,17.838998 l 1.0072639,-0.05692 0.056002,-1.433414 c 0.2108663,-5.397332 0.2424206,-5.600064 0.8133946,-5.225947 1.193848,0.782239 8.9320553,9.372369 8.9320553,9.915412 0,0.400248 -4.58916,5.692823 -7.3991698,8.533297 -1.3707507,1.385611 -1.7745187,1.643059 -1.978659,1.261619 z M 34.897822,30.693156 c -0.608287,-0.447074 -3.310965,-3.323878 -5.651442,-6.015548 -2.186948,-2.515103 -2.902556,-3.432445 -2.902556,-3.720804 0,-0.214619 0.60513,-1.137049 1.167743,-1.78005 0.984139,-1.124755 5.948742,-6.363704 6.709803,-7.08059 0.87974,-0.828675 1.142307,-0.979377 1.309052,-0.75134 0.205591,0.281162 0.350562,1.77984 0.467242,4.830241 0.0316,0.826094 0.08969,1.461481 0.139606,1.527023 0.06733,0.08841 0.48863,0.129551 1.983793,0.19372 2.312474,0.09924 2.480571,0.120179 3.039285,0.378495 l 0.443642,0.205115 0.0019,2.525938 0.0019,2.525937 -0.488544,0.247972 c -0.485963,0.246662 -0.497523,0.248383 -2.188861,0.325807 -0.935176,0.04281 -1.948961,0.09593 -2.252858,0.118037 l -0.552537,0.0402 -0.04709,0.284809 c -0.0259,0.156644 -0.04766,0.70321 -0.04834,1.214591 -0.0029,2.157921 -0.2145,4.827429 -0.400395,5.05142 -0.134893,0.162536 -0.406734,0.117566 -0.73129,-0.120975 z M 19.391707,24.099089 c -0.614474,-0.311963 -1.251601,-1.005887 -1.634049,-1.779719 -0.271769,-0.549887 -0.285504,-0.615146 -0.285504,-1.356515 0,-0.715922 0.02008,-0.821234 0.248609,-1.303685 0.682513,-1.44088 2.398504,-2.276907 3.869536,-1.88523 0.91753,0.244301 1.895312,1.031759 2.263727,1.823094 0.183712,0.394601 0.201261,0.519265 0.202609,1.439285 0.0014,0.946353 -0.01156,1.033808 -0.214093,1.446233 -0.270097,0.550006 -1.043802,1.288264 -1.651324,1.575668 -0.387313,0.183228 -0.57006,0.21609 -1.381737,0.248463 -0.929337,0.03707 -0.938512,0.03572 -1.417774,-0.207594 z"
       id="path47"
       inkscape:connector-curvature="0" />
    <path
       style="fill:#BF0000;stroke-width:0.07748184"
       d="M 6.1254584,30.881805 C 6.0748237,30.820795 6.0023145,30.550577 5.9643266,30.281321 5.8782646,29.671319 5.7355203,26.622005 5.7344529,25.37074 5.7339165,24.741962 5.7019815,24.395959 5.6368036,24.312749 5.5557776,24.209306 5.2044335,24.174912 3.4866826,24.102269 1.3092389,24.010185 0.86226366,23.950465 0.52613983,23.706718 c -0.11546569,-0.08373 -0.2636497,-0.15224 -0.32929781,-0.15224 -0.10508534,0 -0.11936018,-0.306338 -0.11936018,-2.561473 0,-1.663663 0.02677745,-2.544924 0.07639669,-2.514258 0.0420182,0.02597 0.22506902,-0.03976 0.40677964,-0.146061 0.42153149,-0.246601 1.13246983,-0.333574 3.29991843,-0.403701 1.271312,-0.04113 1.6777951,-0.07891 1.7627117,-0.163828 0.084253,-0.08425 0.1105413,-0.351971 0.1111019,-1.131467 0.00122,-1.698103 0.1493492,-4.715228 0.2517452,-5.127637 0.1595132,-0.642455 0.276627,-0.595943 1.4991644,0.595386 2.1993292,2.143188 6.7517982,7.21268 7.6864792,8.559431 0.281542,0.405666 0.260062,0.45881 -0.637162,1.576417 -2.154636,2.683869 -7.0339188,7.977984 -7.8526849,8.520313 -0.406441,0.269215 -0.4314871,0.274805 -0.5564737,0.124205 z m 29.0125546,-0.0749 c -0.708281,-0.311662 -8.047554,-8.434957 -8.67721,-9.604157 l -0.144537,-0.26839 0.265595,-0.439196 c 0.431314,-0.713234 1.004175,-1.369425 3.7758,-4.325051 2.572352,-2.743122 4.362484,-4.55235 4.765729,-4.816566 0.498147,-0.326397 0.602653,0.194275 0.792653,3.949118 0.09641,1.905324 0.144864,2.41985 0.234347,2.488581 0.06953,0.05341 0.758948,0.10784 1.797188,0.141898 2.145305,0.07037 2.738761,0.144167 3.253366,0.404533 l 0.406802,0.205823 v 2.486244 2.486243 l -0.452686,0.21376 c -0.520549,0.245806 -1.199733,0.32524 -3.460147,0.404685 -0.76707,0.02696 -1.451667,0.06547 -1.521327,0.08559 -0.109955,0.03175 -0.133393,0.253337 -0.177759,1.680673 -0.0996,3.20413 -0.2472,4.821218 -0.451942,4.951255 -0.122313,0.07768 -0.128549,0.07699 -0.405872,-0.04504 z M 19.777441,24.21049 c -0.476832,-0.140792 -0.821617,-0.382399 -1.299856,-0.91087 -1.042796,-1.152327 -1.294221,-2.515203 -0.685587,-3.716286 0.79926,-1.577263 2.862494,-2.295983 4.40755,-1.535354 0.628596,0.309457 1.371207,1.015455 1.608139,1.528853 0.152854,0.331213 0.172941,0.500735 0.172941,1.459486 0,0.939654 -0.02176,1.131382 -0.162723,1.433413 -0.240077,0.514414 -0.977309,1.202476 -1.618476,1.510533 -0.48122,0.231207 -0.632368,0.264617 -1.32362,0.292567 -0.478857,0.01936 -0.903229,-0.0047 -1.098368,-0.06234 z"
       id="path45"
       inkscape:connector-curvature="0" />
    <path
       style="fill:#BF0000;stroke-width:0.07748184"
       d="M 6.0889224,30.788285 C 5.9868565,30.522306 5.8923056,29.161874 5.809647,26.769974 5.7625213,25.406294 5.6951533,24.261308 5.6599404,24.22556 5.6247275,24.189813 4.7988211,24.128268 3.8245928,24.088794 1.5730279,23.997566 1.0224893,23.929121 0.54906715,23.681576 0.34217655,23.573396 0.15143279,23.506354 0.12519213,23.532595 0.09895146,23.558836 0.07748184,22.435511 0.07748184,21.036319 c 0,-1.399193 0.02202403,-2.521964 0.0489423,-2.495045 0.0269183,0.02692 0.19517109,-0.03675 0.37389515,-0.141493 0.46603371,-0.273114 0.84978291,-0.32535 3.10418171,-0.422542 1.1071127,-0.04773 2.0368652,-0.111167 2.0661167,-0.14097 0.029251,-0.0298 0.091109,-1.270848 0.1374609,-2.757878 0.1021482,-3.277043 0.1876056,-3.998488 0.4736327,-3.998488 0.5108575,0 9.0596927,9.394747 9.0596927,9.956154 0,0.329038 -3.659096,4.585599 -6.6700816,7.75919 -1.8057781,1.903296 -2.4315186,2.386229 -2.5824,1.993038 z m 28.6430856,-0.32733 c -0.73944,-0.615369 -3.976938,-4.125963 -6.226299,-6.751513 -1.343688,-1.568411 -2.084403,-2.543348 -2.084403,-2.743516 0,-0.212913 0.446338,-0.907748 1.024873,-1.595467 0.388326,-0.461614 3.139374,-3.415213 5.196117,-5.578692 1.169259,-1.229939 2.528774,-2.479419 2.697766,-2.479419 0.280246,0 0.396502,0.894857 0.543667,4.184789 0.05617,1.255621 0.132273,2.225354 0.179524,2.287442 0.06317,0.08301 0.536132,0.126726 2.05781,0.190207 2.144962,0.08948 2.560853,0.143978 3.115634,0.408238 l 0.365029,0.173876 0.003,2.498789 c 0.0026,2.126886 -0.01363,2.498789 -0.108784,2.498789 -0.06149,0 -0.228496,0.06886 -0.371133,0.153014 -0.356572,0.210382 -1.11355,0.3007 -3.18393,0.379887 -1.16696,0.04463 -1.799511,0.0986 -1.859565,0.158646 -0.06195,0.06194 -0.108335,0.726911 -0.145259,2.082295 -0.05479,2.011278 -0.177906,3.847071 -0.285078,4.250936 -0.09767,0.368073 -0.377885,0.332002 -0.918979,-0.118301 z m -15.261854,-6.39423 c -0.734756,-0.350258 -1.557555,-1.358765 -1.839264,-2.254389 -0.209436,-0.665853 -0.141471,-1.509259 0.17312,-2.148282 0.638266,-1.296504 2.16793,-2.109985 3.501321,-1.862014 0.69,0.128319 1.219637,0.39952 1.763407,0.902955 0.61691,0.57115 0.848287,1.043081 0.9164,1.869147 0.05779,0.700837 -0.05791,1.626835 -0.249571,1.997467 -0.204856,0.39615 -0.97108,1.104158 -1.46414,1.352902 -0.411473,0.207584 -0.563008,0.23765 -1.428813,0.283491 -0.925887,0.04902 -0.986305,0.0428 -1.37246,-0.141277 z"
       id="path43"
       inkscape:connector-curvature="0" />
    <path
       style="fill:#BF0000;stroke-width:0.07748184"
       d="M 6.1242269,30.729864 C 6.0128647,30.43696 5.8954214,28.653225 5.8405463,26.421306 5.8127807,25.292008 5.7610078,24.311311 5.7254954,24.241979 5.6706217,24.134847 5.4308142,24.10796 4.1282845,24.062899 1.6460459,23.977027 1.0544711,23.90584 0.57516962,23.635339 0.28995542,23.474374 0.15463177,23.433081 0.12796006,23.498876 c -0.0210343,0.05189 -0.0409969,-1.049603 -0.04436123,-2.44776 -0.0041072,-1.706861 0.01980497,-2.526082 0.0727779,-2.493343 0.0433922,0.02682 0.1915762,-0.02023 0.32929781,-0.104562 0.44675187,-0.273546 0.91336916,-0.339358 3.05505346,-0.430887 1.1590227,-0.04953 2.1352939,-0.117951 2.1694914,-0.152038 0.034198,-0.03409 0.071157,-0.451414 0.082131,-0.927391 0.05611,-2.433508 0.179323,-5.029048 0.2556233,-5.384824 0.063812,-0.297547 0.1208971,-0.400687 0.2217673,-0.400687 0.5437375,0 8.994181,9.269256 8.994181,9.865679 0,0.395398 -3.263159,4.200895 -6.8341512,7.969988 -1.0354136,1.092853 -1.9688018,1.922202 -2.1633374,1.922202 -0.039447,0 -0.1034404,-0.08342 -0.1422065,-0.185389 z M 35.138013,30.716994 C 34.825738,30.556017 34.117823,29.856032 32.436866,28.046106 30.152103,25.58605 27.277494,22.27056 26.673789,21.399145 l -0.285424,-0.411995 0.176258,-0.332251 c 0.329899,-0.621864 1.143094,-1.55262 4.185413,-4.79048 2.735776,-2.911616 4.390251,-4.552068 4.590978,-4.552068 0.224152,0 0.34109,0.941507 0.495607,3.990315 0.106253,2.096479 0.145071,2.494377 0.251338,2.576271 0.07881,0.06073 0.38742,0.09754 0.827575,0.0987 1.190332,0.0031 3.438989,0.143503 3.783041,0.236147 0.17965,0.04838 0.414123,0.149111 0.521051,0.223858 0.106928,0.07475 0.237999,0.120537 0.291268,0.101755 0.0762,-0.02687 0.09685,0.504894 0.09685,2.493863 0,1.981991 -0.02092,2.523463 -0.09685,2.506949 -0.05327,-0.01159 -0.25531,0.05626 -0.448981,0.150776 -0.423837,0.206837 -1.26132,0.297576 -3.42257,0.370828 -0.993483,0.03367 -1.552523,0.08272 -1.598637,0.140262 -0.039,0.04866 -0.110389,1.169354 -0.15864,2.49042 -0.113062,3.095534 -0.228772,4.146761 -0.456222,4.1448 -0.03046,-2.32e-4 -0.159986,-0.0544 -0.287831,-0.120301 z M 19.677198,24.095772 c -0.51106,-0.173011 -0.874513,-0.471209 -1.367767,-1.122195 -0.953743,-1.258727 -1.017405,-2.577779 -0.18295,-3.790618 0.845639,-1.229095 2.719505,-1.723854 4.049375,-1.069161 0.699989,0.344604 1.474718,1.156131 1.642243,1.720244 0.162678,0.547798 0.165074,1.848686 0.0044,2.38973 -0.173971,0.585826 -0.885928,1.324544 -1.613742,1.6744 -0.493698,0.237318 -0.637185,0.269057 -1.346472,0.297829 -0.610837,0.02478 -0.884089,0.0017 -1.185087,-0.100229 z"
       id="path41"
       inkscape:connector-curvature="0" />
    <path
       style="fill:#BF0000;stroke-width:0.07748184"
       d="M 6.166935,30.712186 C 6.0782791,30.481153 5.9658802,28.728015 5.8945496,26.463666 5.8312574,24.454493 5.8095371,24.209824 5.6864772,24.119841 5.5983844,24.055425 5.2971819,24.018705 4.8471761,24.01752 3.6700673,24.01442 1.4098046,23.874453 1.0732184,23.78382 0.89856452,23.736791 0.63837286,23.622365 0.49501479,23.529543 l -0.26065105,-0.168769 -9.5911e-4,-2.36332 -9.5912e-4,-2.36332 0.44552056,-0.207942 C 1.1795828,18.192067 1.4315353,18.164012 4.02137,18.053905 c 0.9119957,-0.03877 1.6907871,-0.103109 1.7306477,-0.14297 0.039861,-0.03986 0.1048088,-1.218331 0.1443294,-2.618823 0.072852,-2.581649 0.1597198,-3.799896 0.2871964,-4.027684 0.059094,-0.105595 0.169514,-0.0383 0.6906486,0.420917 1.3863014,1.221591 6.5917539,6.941519 7.9326399,8.716652 0.389472,0.515602 0.444926,0.628497 0.373904,0.761203 -0.559862,1.04611 -7.4391607,8.671313 -8.5095529,9.432219 C 6.280003,30.873497 6.2330114,30.884378 6.166935,30.712186 Z M 34.89719,30.467061 c -1.196695,-0.945933 -7.969342,-8.550689 -8.340452,-9.365187 -0.06263,-0.137458 -0.03718,-0.242354 0.126647,-0.521896 0.295228,-0.503768 0.994181,-1.359007 1.876132,-2.295636 0.422047,-0.448212 1.791731,-1.904516 3.043743,-3.236231 2.045518,-2.175734 3.559483,-3.658281 3.735811,-3.658281 0.186728,0 0.325649,1.312981 0.46319,4.377724 0.06298,1.403461 0.120003,2.0461 0.187975,2.118616 0.0723,0.07713 0.566495,0.122276 1.908386,0.174317 2.124245,0.08238 2.866833,0.170888 3.209219,0.382494 0.137494,0.08498 0.30622,0.132923 0.374947,0.106549 0.113381,-0.04351 0.124958,0.186101 0.124958,2.478499 0,1.632645 -0.02741,2.526449 -0.07748,2.526449 -0.04262,0 -0.07748,-0.03634 -0.07748,-0.08075 0,-0.04441 -0.148184,0.0038 -0.329297,0.107057 -0.181114,0.103294 -0.433899,0.212594 -0.561744,0.242892 -0.127845,0.0303 -1.202105,0.09679 -2.387245,0.147756 -1.58848,0.06831 -2.170959,0.118818 -2.216288,0.19216 -0.03382,0.05472 -0.08514,0.977342 -0.114048,2.050271 -0.05251,1.948828 -0.165796,3.724977 -0.270196,4.236086 -0.03101,0.151809 -0.108398,0.281001 -0.176145,0.294048 -0.06646,0.0128 -0.291743,-0.111823 -0.500629,-0.276939 z M 19.525423,23.975342 c -0.576634,-0.266074 -1.249504,-0.991323 -1.612368,-1.737878 -0.260365,-0.535673 -0.282671,-0.636015 -0.284237,-1.278627 -0.0015,-0.626135 0.02369,-0.750938 0.246961,-1.222296 0.765293,-1.615646 2.767823,-2.335369 4.315593,-1.551054 0.557865,0.282691 1.312555,1.034342 1.517982,1.511866 0.152199,0.353797 0.166692,0.500657 0.142847,1.44747 -0.02473,0.981982 -0.04085,1.078078 -0.236834,1.411448 -0.27742,0.471906 -0.96863,1.095648 -1.475114,1.331132 -0.325873,0.151511 -0.583503,0.198526 -1.297639,0.236809 -0.843021,0.04519 -0.914008,0.03717 -1.317191,-0.14887 z M 0.11215953,21.036319 c -2.94e-5,-1.406296 0.0104426,-1.99253 0.0232711,-1.302742 0.0128285,0.689787 0.0128525,1.840393 5.344e-5,2.5569 -0.0127991,0.716508 -0.0232951,0.152137 -0.0233245,-1.254158 z"
       id="path39"
       inkscape:connector-curvature="0" />
  </g>
</svg>
