<?xml version="1.0" encoding="UTF-8" standalone="no"?>
<!-- Created with Inkscape (http://www.inkscape.org/) -->

<svg
   xmlns:dc="http://purl.org/dc/elements/1.1/"
   xmlns:cc="http://creativecommons.org/ns#"
   xmlns:rdf="http://www.w3.org/1999/02/22-rdf-syntax-ns#"
   xmlns:svg="http://www.w3.org/2000/svg"
   xmlns="http://www.w3.org/2000/svg"
   xmlns:sodipodi="http://sodipodi.sourceforge.net/DTD/sodipodi-0.dtd"
   xmlns:inkscape="http://www.inkscape.org/namespaces/inkscape"
   version="1.1"
   id="svg31"
   width="102"
   height="102"
   viewBox="0 0 102 102"
   sodipodi:docname="assembly3.svg"
   inkscape:version="0.92.3 (2405546, 2018-03-11)">
  <metadata
     id="metadata37">
    <rdf:RDF>
      <cc:Work
         rdf:about="">
        <dc:format>image/svg+xml</dc:format>
        <dc:type
           rdf:resource="http://purl.org/dc/dcmitype/StillImage" />
        <dc:title></dc:title>
      </cc:Work>
    </rdf:RDF>
  </metadata>
  <defs
     id="defs35" />
  <sodipodi:namedview
     pagecolor="#ffffff"
     bordercolor="#666666"
     borderopacity="1"
     objecttolerance="10"
     gridtolerance="10"
     guidetolerance="10"
     inkscape:pageopacity="0"
     inkscape:pageshadow="2"
     inkscape:window-width="1013"
     inkscape:window-height="891"
     id="namedview33"
     showgrid="false"
     inkscape:zoom="4.627451"
     inkscape:cx="28.366528"
     inkscape:cy="43.463608"
     inkscape:window-x="0"
     inkscape:window-y="0"
     inkscape:window-maximized="0"
     inkscape:current-layer="svg31" />
  <g
     id="g99"
     transform="translate(-0.32415532,0.29025808)">
    <path
       style="fill:#BF0000"
       d="M 6.5,100.10011 C 2.7779714,97.924321 0.80073439,94.285263 1.5555677,91 1.8714924,89.625 4.1484624,86.436465 6.6155011,83.914367 10.615267,79.825334 10.927887,79.185041 9.5022559,78.001872 8.6229324,77.272099 8.0377015,75.735633 8.2017429,74.587505 8.4596379,72.782495 9.7856034,72.270056 18,70.800824 c 12.245995,-2.190325 14.904183,-2.214093 15.699942,-0.140381 0.695022,1.8112 -1.407568,18.440357 -2.792014,22.081724 -0.957889,2.51944 -2.956285,2.869092 -5.898012,1.031953 -1.704437,-1.064439 -2.459893,-0.767979 -5.736431,2.25112 -3.853179,3.550434 -7.642562,6.03255 -9.009916,5.90167 C 9.843606,101.88671 8.15,101.06465 6.5,100.10011 Z m 82.668458,0.41897 c -1.282348,-0.706645 -3.882379,-2.787944 -5.777846,-4.625103 -2.988571,-2.896637 -3.706441,-3.177832 -5.404889,-2.117133 -2.357068,1.472012 -4.648891,1.577179 -5.468552,0.250939 -0.884434,-1.431045 -3.514215,-16.996063 -3.515804,-20.809168 -8.18e-4,-1.964536 0.58816,-3.507607 1.467643,-3.845097 2.3113,-0.886928 21.867308,2.534228 23.432374,4.099294 1.209644,1.209645 1.18401,1.747914 -0.182564,3.833571 -1.529476,2.334275 -1.457637,2.554432 1.893358,5.802344 1.915736,1.856805 4.14617,4.70505 4.956522,6.329435 1.30456,2.615049 1.29727,3.324516 -0.0636,6.19234 -0.845333,1.781402 -2.948934,3.943294 -4.674672,4.804208 -3.600126,1.79598 -3.556943,1.79543 -6.66197,0.0844 z M 41.5,71.836808 C 35.848628,68.90544 34.137413,67.186611 31.208981,61.5 c -3.453003,-6.705256 -3.453003,-13.294744 0,-20 1.416166,-2.75 3.427456,-5.770338 4.469532,-6.711862 3.195724,-2.887361 8.997398,-4.789218 14.539368,-4.766176 C 66.290021,30.088787 77.571021,46.553604 71.10015,60.5 65.790975,71.94264 51.935013,77.24945 41.5,71.836808 Z M 19.710807,32.050759 C 14.326751,31.099729 9.4242869,29.824287 8.8164421,29.216442 8.0095457,28.409546 8.0598266,27.269779 9.0027428,24.993378 10.245359,21.993437 10.139831,21.717064 6.2132221,17.687743 -0.3431222,10.9599 -0.12178479,5.6782568 6.8799445,1.7781438 9.9607735,0.06205615 10.536005,0.02700116 13.379944,1.3820294 c 1.716031,0.8176228 4.642694,3.0621182 6.503696,4.9877675 3.256143,3.3692544 3.475065,3.4412762 5.809977,1.9113833 2.200948,-1.4421161 2.571633,-1.4445019 3.990451,-0.025683 1.526848,1.5268478 4.256035,15.1142208 4.295939,21.3875138 0.01798,2.826787 -1.585713,4.613555 -3.811794,4.246941 -0.367517,-0.06053 -5.07335,-0.888164 -10.457406,-1.839193 z m 50.312619,0.977365 C 68.724003,32.213028 68.739706,30.764655 70.15431,20.955783 72.003681,8.1322322 73.373682,5.7043754 77.306383,8.2811802 c 2.334912,1.5298929 2.553834,1.4578711 5.809977,-1.9113833 1.861002,-1.9256493 4.792672,-4.1725207 6.514822,-4.9930476 2.872214,-1.36847996 3.396404,-1.33057629 6.337962,0.4582918 1.763728,1.0725873 3.856227,3.2019717 4.649996,4.7319654 1.25996,2.4285727 1.25713,3.1723458 -0.0223,5.8574005 -0.806017,1.691576 -3.024045,4.58178 -4.92895,6.422676 -3.427572,3.312398 -3.446388,3.37768 -1.815692,6.299632 1.538332,2.756448 1.533966,3.037823 -0.06573,4.236472 -0.942427,0.706159 -5.667427,1.844262 -10.5,2.529118 C 78.453923,32.597161 73.825,33.336788 73,33.555921 c -0.825,0.219132 -2.164458,-0.01838 -2.976574,-0.527797 z"
       id="path113"
       inkscape:connector-curvature="0" />
    <path
       style="fill:#BF0000"
       d="M 5.0421068,98.154836 C 2.818948,96.039996 1,93.538059 1,92.594976 1,91.651892 3.3221506,88.424947 6.1603346,85.423986 11.093912,80.207455 11.259892,79.85413 9.9375591,77.383328 8.7200664,75.108422 8.7563364,74.65134 10.240458,73.566123 c 2.312402,-1.690869 21.547808,-4.177857 22.780345,-2.94532 0.826556,0.826556 -0.533155,12.06361 -2.556685,21.129197 -0.5553,2.487794 -2.49546,2.871884 -5.386554,1.066367 -1.643311,-1.026265 -2.649374,-0.49445 -7.567018,4 C 14.391099,99.667365 11.219038,102 10.461519,102 9.7040011,102 7.2652655,100.26968 5.0421068,98.154836 Z M 85.489454,96.816367 c -4.917644,-4.49445 -5.923707,-5.026265 -7.567018,-4 -2.891094,1.805517 -4.831254,1.421427 -5.386554,-1.066367 -1.533238,-6.869039 -3.408915,-20.14642 -2.950777,-20.887703 0.766153,-1.239661 4.738049,-1.066669 14.35086,0.625035 9.786513,1.722273 10.983722,2.496078 8.843298,5.715776 -1.462365,2.199739 -1.299651,2.542514 3.846893,8.103892 C 99.58177,88.50085 102,91.76335 102,92.557 102,94.419624 94.438559,102 92.580587,102 91.79991,102 88.608901,99.667365 85.489454,96.816367 Z M 42.466031,71.599966 c -3.719069,-1.620214 -8.949074,-6.734808 -11.203312,-10.956085 -2.228183,-4.172489 -2.228183,-14.115273 0,-18.287762 2.164909,-4.054001 7.399823,-9.277319 10.466424,-10.443239 3.700693,-1.407001 15.03177,-1.090531 18.070517,0.504699 4.008684,2.104411 9.778202,8.610943 11.067813,12.481644 4.616039,13.854809 -5.625223,28.168575 -20.077635,28.061635 -2.909411,-0.02153 -6.655124,-0.633929 -8.323807,-1.360892 z M 19.5,31.336205 C 14.55,30.516758 10.097536,29.455919 9.6056349,28.978786 9.0815735,28.470457 9.2383087,26.838885 9.9841849,25.038181 11.218912,22.057286 11.103241,21.802409 6.12855,16.542407 3.3078475,13.55993 1,10.348108 1,9.4050244 1,7.387561 8.450465,0 10.485107,0 11.255598,0 14.49915,2.41823 17.693,5.3738444 c 5.622018,5.2026606 5.88241,5.3237146 8.174285,3.8001538 2.177667,-1.4476396 2.470469,-1.4325774 3.655497,0.1880449 1.43094,1.9569269 3.838685,17.0477429 3.312964,20.7643749 C 32.414359,33.105443 30.97573,33.235952 19.5,31.336205 Z m 51.166667,0.997128 c -1.577061,-1.57706 0.702893,-20.088896 2.832964,-23.0019408 1.162497,-1.58981 1.458995,-1.602655 3.633084,-0.157394 C 79.42459,10.697559 79.684982,10.576505 85.307,5.3738444 88.50085,2.41823 91.672699,0 92.355554,0 94.080128,0 102,7.7655656 102,9.4565387 c 0,0.7602573 -2.30165,3.9006583 -5.114778,6.9786683 -4.934515,5.399146 -5.070401,5.703517 -3.855635,8.636223 0.736776,1.778733 0.888107,3.394746 0.364778,3.895325 -0.491901,0.470516 -5.448063,1.570481 -11.013694,2.444365 -11.740639,1.843449 -10.861946,1.774272 -11.714004,0.922213 z"
       id="path111"
       inkscape:connector-curvature="0" />
    <path
       style="fill:#BF0000"
       d="M 5.208208,97.712148 C 2.8936936,95.35383 1,93.004379 1,92.491146 1,91.977913 3.5588936,88.972119 6.6864302,85.811604 12.129514,80.311126 12.314394,79.955967 11.006636,77.5124 c -0.840945,-1.571321 -1.0087414,-2.906712 -0.43643,-3.473287 1.683111,-1.66624 20.473905,-4.395002 21.715435,-3.153472 1.305565,1.305565 -1.451776,20.680494 -3.190604,22.419322 -0.730373,0.730373 -1.652981,0.50008 -3.045587,-0.760211 C 24.098334,90.779016 23.909479,90.86838 17.968822,96.36838 14.62327,99.465771 11.330344,102 10.651208,102 c -0.6791356,0 -3.1284856,-1.92953 -5.443,-4.287852 z m 79.82297,-1.343768 c -5.940657,-5.5 -6.129512,-5.589364 -8.080628,-3.823628 -1.392606,1.260291 -2.315214,1.490584 -3.045587,0.760211 -1.670411,-1.670411 -4.498503,-21.111423 -3.252364,-22.357562 1.198499,-1.198499 20.175128,1.480326 21.767614,3.072812 0.585833,0.585833 0.425184,1.900149 -0.426849,3.492187 -1.307758,2.443567 -1.122878,2.798726 4.320206,8.299204 C 99.441106,88.972119 102,91.977913 102,92.491146 102,93.891692 93.770305,102 92.348792,102 91.669656,102 88.37673,99.465771 85.031178,96.36838 Z M 44.238879,71.665132 C 28.696082,66.028221 25.098123,45.483287 37.817636,34.998789 41.238431,32.179082 41.971742,32 50.097215,32 c 8.574607,0 8.680346,0.03091 13.654142,3.991102 C 71.407916,42.087345 73.89916,51.312153 70.10015,59.5 65.26596,69.918926 54.015878,75.21096 44.238879,71.665132 Z M 17.984683,30.591934 C 9.2317146,29.001543 8.4671382,28.462195 10.521314,25.327126 12.124385,22.88053 12.059229,22.742921 6.5756511,16.993962 3.509043,13.778944 1,10.533761 1,9.7824452 1,8.2664175 9.0352259,0 10.508854,0 c 0.513233,0 3.519027,2.5588936 6.679542,5.6864302 5.500478,5.4430838 5.855637,5.6279638 8.299204,4.3202058 3.628716,-1.9420298 4.532878,-0.5870658 6.119222,9.170179 2.1061,12.954148 2.131158,12.842655 -2.856822,12.71106 -2.3375,-0.06167 -7.181893,-0.644842 -10.765317,-1.295941 z m 52.433203,0.05468 C 69.688936,28.746997 72.66795,10.93205 73.924707,9.6752927 74.637881,8.9621191 75.753164,9.0651218 77.5124,10.006636 79.955967,11.314394 80.311126,11.129514 85.811604,5.6864302 88.972119,2.5588936 92.013752,0 92.570789,0 93.940484,0 102,8.2890184 102,9.6977158 c 0,0.6171072 -2.061733,3.0750742 -4.581628,5.4621482 -6.203863,5.876865 -6.850412,7.251126 -4.848716,10.306101 1.560799,2.38208 1.530594,2.52755 -0.72027,3.468912 C 89.447802,29.939274 76.793282,32 73.027062,32 71.877655,32 70.703525,31.390975 70.417886,30.64661 Z"
       id="path109"
       inkscape:connector-curvature="0" />
    <path
       style="fill:#BF0000"
       d="M 5.5791962,97.440937 0.65839243,92.903205 6.5482844,86.951206 c 5.7657716,-5.826569 5.8644546,-6.01939 4.6827846,-9.14999 -0.801898,-2.124472 -0.866379,-3.408573 -0.192085,-3.825309 1.950997,-1.205783 20.085301,-3.251941 20.925599,-2.36111 0.903044,0.95735 -1.978761,19.755434 -3.21609,20.978628 -0.413328,0.408607 -1.890501,0.13335 -3.282606,-0.611682 -2.415385,-1.292674 -2.793811,-1.094634 -8.277491,4.331827 -3.160515,3.127536 -5.958342,5.68163 -6.217393,5.67576 -0.259052,-0.006 -2.6853647,-2.05264 -5.3918068,-4.548393 z M 85.784826,96.306565 c -5.445812,-5.445812 -5.804089,-5.634215 -8.237624,-4.331827 -1.399304,0.748885 -2.882367,1.027294 -3.295695,0.618687 -1.307012,-1.292082 -4.114246,-20.026727 -3.152939,-21.041779 0.849963,-0.897484 20.413792,1.62738 21.570215,2.783804 0.270063,0.270062 -0.265866,1.646181 -1.190953,3.058042 -1.674788,2.556049 -1.656,2.594071 4.396735,8.897366 l 6.078715,6.330346 -4.760991,4.689398 C 94.573746,99.889771 92.216867,102 91.954781,102 91.692695,102 88.916215,99.437954 85.784826,96.306565 Z M 42.5,70.427407 C 34.615757,66.326887 30.625,59.90753 30.625,51.3258 c 0,-5.407652 0.433989,-6.948861 2.974659,-10.563793 C 38.372036,33.971743 42.107112,32 50.197543,32 57.944716,32 60.996805,33.220309 65.615892,38.164681 74.211489,47.365594 72.350809,61.466376 61.579983,68.75 57.561786,71.467251 55.84994,71.99899 51.136986,71.993839 47.989862,71.9904 44.174897,71.298505 42.5,70.427407 Z M 20.029567,30.377785 C 10.992668,28.86426 8.8155643,27.784436 10.8,25.8 12.971647,23.628353 12.071,21.629744 6.2865694,15.784319 L 0.57313883,10.010643 4.9947774,5.5053215 C 7.4266786,3.0273947 9.8445365,1 10.367795,1 c 0.523259,0 3.591926,2.5186552 6.819261,5.5970115 5.824965,5.5560755 5.886601,5.5847465 8.427177,3.9200975 1.407612,-0.9223032 2.844483,-1.3917264 3.193046,-1.043163 0.902967,0.902967 3.927048,19.774048 3.409477,21.276054 -0.512287,1.486669 -1.216684,1.465156 -12.187189,-0.372215 z M 71,29.040848 c 0,-4.313403 2.069608,-17.535443 2.973766,-18.9984 0.601476,-0.9732094 1.355488,-0.8728181 3.37297,0.449087 2.591667,1.698125 2.613363,1.688145 8.466208,-3.8945235 C 89.040279,3.5186552 92.108946,1 92.632205,1 c 0.523258,0 2.941116,2.0273947 5.373018,4.5053215 l 4.421637,4.5053215 -5.713429,5.773676 C 90.929,21.629744 90.028353,23.628353 92.2,25.8 c 0.763506,0.763506 0.852124,1.547876 0.243628,2.156372 C 91.686673,28.713327 74.958821,31.978774 71.75,31.995979 71.3375,31.99819 71,30.668382 71,29.040848 Z"
       id="path107"
       inkscape:connector-curvature="0" />
    <path
       style="fill:#BF0000"
       d="M 5.7436851,97.270001 1.013686,92.540002 7.1941024,86.304157 C 13.111128,80.334065 13.316754,79.960378 12.019086,77.535663 11.273598,76.142706 10.9046,74.762067 11.19909,74.467576 c 0.860021,-0.86002 19.907957,-3.693863 20.54522,-3.0566 0.766121,0.766121 -1.71933,17.5737 -2.945999,19.921988 -0.895029,1.713409 -1.077314,1.724517 -2.794709,0.170296 -2.3931,-2.165726 -4.368573,-1.115665 -10.28872,5.468963 C 13.22866,99.7375 11.0323,102 10.834081,102 10.635863,102 8.3451846,99.8715 5.7436851,97.270001 Z m 81.8907029,0.144506 c -2.126087,-2.485948 -4.950117,-5.2305 -6.275623,-6.099005 -2.211984,-1.449348 -2.565704,-1.4382 -4.304803,0.135663 -1.792796,1.622458 -1.946333,1.616095 -2.852273,-0.118201 -1.248265,-2.38963 -3.705631,-19.162356 -2.922243,-19.945743 0.605699,-0.6057 19.789373,2.348265 20.615559,3.174451 0.242738,0.242738 -0.168603,1.581034 -0.914091,2.973991 -1.297755,2.424877 -1.091919,2.798526 4.837186,8.780806 l 6.19262,6.248157 -4.78971,4.717687 c -2.634339,2.594728 -4.999251,4.702927 -5.255359,4.684897 -0.256108,-0.018 -2.205177,-2.066756 -4.331263,-4.552703 z M 41.907284,69.692997 C 39.202411,68.277126 36.244616,65.529566 34.25,62.579983 29.944547,56.213195 29.654183,47.972178 33.503858,41.403205 37.617869,34.383175 40.406761,33 50.447211,33 h 8.638471 l 4.794202,4.484415 C 70.942924,44.091062 72.737296,51.652747 69.104137,59.5 64.084104,70.342757 51.883835,74.915246 41.907284,69.692997 Z M 21.5,30.300538 C 9.2492827,28.414107 9.4391418,28.504923 11.421395,25.479622 13.47871,22.339762 12.779863,20.938537 5.9881459,14.585681 L 0.82390117,9.7551347 5.1201586,5.3775674 C 7.4831001,2.9699053 9.8721735,1 10.429211,1 c 0.557037,0 3.59867,2.5588936 6.759185,5.6864302 5.534272,5.4765248 5.842279,5.6351128 8.344034,4.2962138 2.124601,-1.137052 2.744573,-1.1524781 3.40449,-0.08471 1.288177,2.084314 3.35271,19.223336 2.414449,20.0439 C 30.883116,31.351348 26.45,31.062765 21.5,30.300538 Z M 71.019993,29.25 c 0.03665,-3.208519 2.704344,-18.30767 3.348344,-18.951671 0.349072,-0.3490714 1.773671,-0.0251 3.165776,0.719928 2.415385,1.292674 2.793811,1.094634 8.277491,-4.3318268 C 88.972119,3.5588936 92.013752,1 92.570789,1 c 0.557037,0 2.960971,1.9850464 5.342074,4.4112143 l 4.329277,4.4112142 -6.35292,5.9713085 c -6.191982,5.820035 -6.317162,6.03813 -4.941278,8.608992 1.860662,3.476679 1.01053,4.083767 -7.640571,5.456207 C 73.1785,31.465816 70.995914,31.357651 71.019993,29.25 Z"
       id="path105"
       inkscape:connector-curvature="0" />
    <path
       style="fill:#BF0000"
       d="M 6.75,97.547411 C 4.6875,95.13456 3,92.769901 3,92.292613 3,91.815325 5.25,89.208649 8,86.5 c 4.911953,-4.838093 6.119101,-7.980899 3.912868,-10.187132 -0.597923,-0.597923 -0.710423,-1.314142 -0.25,-1.591598 1.302973,-0.785187 19.234469,-3.157266 19.775695,-2.61604 C 32.189907,72.856574 28.789856,92 27.905066,92 27.472199,92 26.839919,91.55 26.5,91 c -1.409131,-2.280022 -4.601286,-0.657912 -9.839515,5 -3.055218,3.3 -5.691189,5.98524 -5.857713,5.96721 C 10.636247,101.94917 8.8125,99.960261 6.75,97.547411 Z M 86.147054,95.936019 C 81.105387,90.345184 77.913917,88.712234 76.5,91 76.160081,91.55 75.527801,92 75.094934,92 74.204271,92 70.81267,72.853997 71.5693,72.097367 c 0.656781,-0.656781 17.425055,1.800094 19.24785,2.820181 1.009369,0.564871 1.102405,1.014136 0.311266,1.503086 -2.683854,1.658714 -1.041985,5.453255 4.621584,10.680992 l 5.75,5.307516 -4.797619,4.795429 c -2.638691,2.637486 -4.888691,4.766639 -5,4.731449 -0.11131,-0.0352 -2.611206,-2.735191 -5.555327,-6.000001 z M 41.984398,69.148008 C 34.227786,65.025293 29.882552,55.351681 31.91238,46.725097 c 1.097728,-4.665246 5.238256,-10.234514 9.089653,-12.226148 3.71522,-1.921215 15.185953,-1.975052 18.797627,-0.08823 8.235051,4.302191 12.448963,15.494792 9.139006,24.274176 -1.287973,3.416242 -6.453379,8.969557 -10.139006,10.900419 -3.859776,2.022098 -12.616517,1.794363 -16.815262,-0.437311 z M 19.638851,29.433613 c -8.630479,-1.452012 -9.578194,-1.89427 -7.822184,-3.65028 2.229341,-2.229341 1.177202,-4.48474 -4.7130815,-10.103119 L 1.207171,10.055987 5.7351644,5.5279935 C 8.2255608,3.0375971 10.397083,1 10.560769,1 c 0.163685,0 2.872974,2.7 6.020641,6 3.147667,3.3 6.181598,6 6.74207,6 0.560471,0 1.83259,-0.736254 2.82693,-1.636119 1.504346,-1.361415 1.898551,-1.3998645 2.347852,-0.229005 0.940253,2.450258 3.288633,18.332209 2.826453,19.115124 -0.549131,0.930207 -1.840791,0.83997 -11.685864,-0.816387 z m 52.235392,1.107297 c -0.521128,-0.521129 1.708068,-16.72441 2.67271,-19.427029 0.405714,-1.1366833 0.820081,-1.091695 2.302637,0.25 C 77.84393,12.263746 79.116049,13 79.67652,13 c 0.560472,0 3.594403,-2.7 6.74207,-6 3.147667,-3.3 5.835661,-6 5.97332,-6 0.137659,0 2.372417,2.0333569 4.96613,4.5185709 l 4.71584,4.5185711 -6.036939,5.589142 C 90.34595,20.895138 88.716719,24.088855 91,25.5 c 2.310325,1.427859 0.5834,2.385096 -6.25,3.464384 -3.9875,0.629797 -8.39669,1.361265 -9.798201,1.625484 -1.40151,0.264218 -2.78641,0.242187 -3.077556,-0.04896 z"
       id="path103"
       inkscape:connector-curvature="0" />
    <path
       style="fill:#BF0000"
       d="m 9.8815789,101.33333 c -0.065131,-0.45833 -0.087371,-1.10411 -0.049422,-1.435065 0.03795,-0.330954 -1.4894061,-2.1122 -3.3941237,-3.958325 l -3.4631229,-3.356591 5.7316329,-5.79207 c 5.4708618,-5.52855 5.6805858,-5.92731 4.6096378,-8.764576 -1.081258,-2.864578 -1.007518,-2.991053 2.030912,-3.483312 1.734099,-0.280943 5.8166,-0.966944 9.072225,-1.524447 3.255625,-0.557503 6.113739,-0.81922 6.351366,-0.581594 0.429672,0.429672 -1.441941,13.380245 -2.444307,16.913313 -0.382047,1.346613 -0.82483,1.550884 -1.625714,0.75 C 26.095298,89.495298 24.887128,89 24.01584,89 c -1.72201,0 -11.981454,9.884908 -11.909785,11.475 0.05412,1.20082 -2.05989,2.01653 -2.2244761,0.85833 z M 90.532624,101.05279 C 90.174762,100.47375 90.230652,100 90.656823,100 91.082994,100 88.987424,97.525 86,94.5 c -5.448514,-5.517046 -7.614755,-6.485245 -9.744645,-4.355355 -1.262056,1.262056 -1.449392,0.706313 -3.228758,-9.578304 -1.491152,-8.618757 -1.45064,-8.810817 1.723403,-8.170346 1.5125,0.305198 5.824808,1.068644 9.582907,1.696548 4.904023,0.819364 6.52721,1.44734 5.75,2.22455 -2.259666,2.259666 -0.971198,5.361548 4.451683,10.717067 3.044024,3.006212 5.74402,5.35334 6,5.21584 C 100.79057,92.1125 101,92.225 101,92.5 c 0,0.275 -0.3375,0.520764 -0.75,0.546143 -1.280045,0.07875 -7.162482,6.195236 -6.950578,7.227127 0.286628,1.39576 -1.989592,2.03706 -2.766798,0.77952 z M 41.984398,68.146538 C 40.067979,67.127134 37.178125,64.428387 35.5625,62.149323 33.058126,58.616555 32.625,57.072027 32.625,51.6742 c 0,-4.827156 0.536458,-7.199377 2.258001,-9.984892 C 38.693548,35.523714 41.750515,34 50.309757,34 c 7.126877,0 7.717718,0.178409 11.845629,3.576885 4.834526,3.980226 6.703979,7.865553 6.788172,14.108015 0.09759,7.23559 -3.677115,13.525971 -10.143898,16.904376 -3.865239,2.019295 -12.620135,1.788783 -16.815262,-0.442738 z M 18.25,28.721238 C 12.286904,27.766825 10.804196,26.857081 13,25.5 15.148554,24.17212 13.767065,21.322604 8.2926853,15.790499 L 2.5853705,10.023004 5.988852,6.5115018 C 7.8607669,4.5801758 9.8258727,3 10.355754,3 c 0.529881,0 3.603967,2.5186552 6.831302,5.5970115 5.743117,5.4780055 5.920001,5.5628625 8.319083,3.9909235 2.339089,-1.532631 2.474625,-1.502765 2.963357,0.652988 0.569281,2.511051 2.5111,14.832635 2.52295,16.009077 0.0096,0.949854 -4.734011,0.753013 -12.742446,-0.528762 z M 72.38267,27.25 c 0.297869,-1.5125 0.82145,-5 1.163514,-7.75 1.057864,-8.504629 1.184208,-8.72276 3.98819,-6.88552 2.346051,1.537191 2.568021,1.429473 8.27857,-4.0174685 C 89.040279,5.5186552 92.118449,3 92.653322,3 c 0.534872,0 2.245499,1.3287292 3.801392,2.9527316 1.555893,1.6240024 3.327584,2.8615024 3.937096,2.75 C 101.00131,8.5912292 101.5,9.175 101.5,10 c 0,0.825 -0.54374,1.393754 -1.20831,1.263897 C 98.623372,10.937908 89,20.885267 89,22.93574 c 0,0.915343 0.525248,2.189508 1.167217,2.831477 1.443897,1.443897 0.810959,1.668137 -8.859846,3.138905 C 71.565874,30.38764 71.757737,30.423243 72.38267,27.25 Z M 9.8125,1.316886 c 0.721875,-0.2888706 1.584375,-0.2533443 1.916667,0.078947 0.332291,0.3322917 -0.258334,0.5686404 -1.3125,0.5252193 C 9.2517237,1.8730687 9.0147673,1.6361123 9.8125,1.316886 Z m 82,0 c 0.721875,-0.2888706 1.584375,-0.2533443 1.916667,0.078947 0.332291,0.3322917 -0.258334,0.5686404 -1.3125,0.5252193 -1.164943,-0.047984 -1.4019,-0.28494 -0.604167,-0.6041663 z"
       id="path101"
       inkscape:connector-curvature="0" />
  </g>
</svg>
