<?xml version="1.0" encoding="UTF-8" standalone="no"?>
<!-- Created with Inkscape (http://www.inkscape.org/) -->

<svg
   xmlns:dc="http://purl.org/dc/elements/1.1/"
   xmlns:cc="http://creativecommons.org/ns#"
   xmlns:rdf="http://www.w3.org/1999/02/22-rdf-syntax-ns#"
   xmlns:svg="http://www.w3.org/2000/svg"
   xmlns="http://www.w3.org/2000/svg"
   xmlns:sodipodi="http://sodipodi.sourceforge.net/DTD/sodipodi-0.dtd"
   xmlns:inkscape="http://www.inkscape.org/namespaces/inkscape"
   version="1.1"
   id="svg3767"
   width="14"
   height="14"
   viewBox="0 0 14 14"
   sodipodi:docname="beacon.svg"
   inkscape:version="0.92.3 (2405546, 2018-03-11)">
  <metadata
     id="metadata3773">
    <rdf:RDF>
      <cc:Work
         rdf:about="">
        <dc:format>image/svg+xml</dc:format>
        <dc:type
           rdf:resource="http://purl.org/dc/dcmitype/StillImage" />
        <dc:title></dc:title>
      </cc:Work>
    </rdf:RDF>
  </metadata>
  <defs
     id="defs3771" />
  <sodipodi:namedview
     pagecolor="#ffffff"
     bordercolor="#666666"
     borderopacity="1"
     objecttolerance="10"
     gridtolerance="10"
     guidetolerance="10"
     inkscape:pageopacity="0"
     inkscape:pageshadow="2"
     inkscape:window-width="1920"
     inkscape:window-height="1137"
     id="namedview3769"
     showgrid="false"
     inkscape:zoom="1.0552351"
     inkscape:cx="316.05458"
     inkscape:cy="119.61458"
     inkscape:window-x="-8"
     inkscape:window-y="-8"
     inkscape:window-maximized="1"
     inkscape:current-layer="svg3767" />
  <g
     id="g3777"
     transform="matrix(0.08560896,0,0,0.08747408,-1.5591279e-4,0.01940268)">
    <path
       style="fill:#000000;stroke-width:0.32000002"
       d="m 43.865264,159.81334 c 0.01536,-0.37278 0.09118,-0.4486 0.193331,-0.19333 0.09244,0.231 0.08107,0.507 -0.02525,0.61333 -0.106336,0.10634 -0.181965,-0.0827 -0.16807,-0.42 z m 7.409373,0.0222 c -0.321747,-0.36516 -0.387757,-6.00096 -0.32,-27.32124 0.04695,-14.77365 0.205363,-26.98115 0.352029,-27.12777 0.348614,-0.3485 60.878054,-0.3485 61.226664,0 0.14667,0.14662 0.30509,12.35849 0.35204,27.13749 0.0734,23.08692 0.0203,26.93604 -0.37714,27.33342 -0.69415,0.69414 -60.621571,0.67272 -61.233593,-0.0219 z M 51.093334,96.426656 C 50.976,96.309324 50.881008,90.657324 50.882243,83.866655 50.884803,69.688612 51.052534,68.408027 53.592547,63.172583 57.943466,54.204531 65.498515,48.218611 75.350186,45.933859 78.530861,45.196211 85.529939,45.27406 88.8,46.083459 c 11.98265,2.96592 20.72072,11.835978 23.40692,23.760469 0.79426,3.525891 0.80607,3.775232 0.70048,14.791204 -0.0591,6.162672 -0.2239,11.384858 -0.36629,11.604858 -0.20412,0.315389 -6.70784,0.4 -30.746662,0.4 -16.768278,0 -30.583782,-0.096 -30.701114,-0.213334 z M 0.4,86.509436 C 0.09985311,86.387305 0,84.837084 0,80.299435 c 0,-6.006147 0.00489226,-6.048422 0.72,-6.221821 0.396,-0.09602 8.784,-0.134761 18.64,-0.0861 l 17.92,0.08849 v 6.24 6.24 l -18.24,0.0561 C 9.008,86.646953 0.62,86.598953 0.4,86.509436 Z m 125.50247,-0.199725 c -0.0866,-0.225664 -0.11808,-3.069664 -0.07,-6.32 L 125.92,74.080005 144,73.991531 c 9.944,-0.04866 18.404,-0.0099 18.8,0.0861 0.71507,0.173376 0.72,0.215936 0.72,6.214237 0,5.212189 -0.0694,6.066279 -0.50617,6.233905 -0.2784,0.106832 -8.70691,0.194236 -18.73004,0.194236 -14.52779,0 -18.25581,-0.08321 -18.38132,-0.410294 z M 28.944705,44.128896 C 13.562439,31.321467 13.693945,31.436709 13.821307,30.875836 c 0.213239,-0.939059 7.304471,-9.115835 7.905623,-9.115835 0.694284,0 28.619249,23.13324 28.774219,23.83677 0.142454,0.646701 -7.215491,9.443232 -7.898883,9.443232 -0.304071,0 -6.449975,-4.91 -13.657561,-10.911107 z M 116.59016,50.876 c -3.70461,-4.484416 -4.23274,-5.289437 -3.76372,-5.737028 0.16146,-0.15408 6.54403,-5.484454 14.18349,-11.845271 9.86875,-8.216988 14.07971,-11.537417 14.54545,-11.469413 0.96936,0.141538 7.98829,8.724025 7.73042,9.452466 -0.27274,0.770438 -27.77739,23.578657 -28.58193,23.701553 -0.48757,0.07448 -1.48468,-0.919872 -4.11371,-4.102307 z M 75.737373,32.560002 C 75.234835,32.191132 75.198944,30.927223 75.276211,16.320001 L 75.36,0.48000003 h 6.24 6.24 L 87.92379,16.320001 c 0.07727,14.607222 0.04138,15.871131 -0.461162,16.240001 -0.384313,0.28209 -2.112457,0.4 -5.862627,0.4 -3.75017,0 -5.478314,-0.11791 -5.862628,-0.4 z"
       id="path3791"
       inkscape:connector-curvature="0" />
    <path
       style="fill:#000000;stroke-width:0.32000002"
       d="M 51.394237,159.81384 C 51.287405,159.53544 51.2,147.32424 51.2,132.67784 c 0,-20.28543 0.09148,-26.72132 0.384,-27.01383 0.556781,-0.55678 60.11522,-0.55678 60.672,0 0.29252,0.29251 0.384,6.7284 0.384,27.01383 0,14.6464 -0.0874,26.8576 -0.19424,27.136 -0.17523,0.45663 -3.16257,0.50617 -30.52576,0.50617 -27.363187,0 -30.350534,-0.0495 -30.525763,-0.50617 z M 51.024573,95.57246 c -0.103194,-0.411148 -0.134173,-6.063149 -0.06884,-12.56 0.134039,-13.329812 0.272589,-14.300472 2.794218,-19.575467 1.678441,-3.511136 2.84975,-5.181169 5.748265,-8.19577 4.618871,-4.803866 9.57705,-7.652254 15.751373,-9.048894 3.165069,-0.715942 9.855757,-0.715942 13.020826,0 11.383977,2.575072 20.354975,11.155643 23.469075,22.447675 0.65648,2.380445 0.71433,3.388506 0.82478,14.372456 0.0653,6.496851 0.0344,12.148852 -0.0688,12.56 l -0.18762,0.747546 H 81.76 51.212192 Z M 0.4,86.508076 C 0.09978515,86.386937 0,84.836591 0,80.293339 v -6.053334 h 18.56 18.56 v 6.045763 c 0,5.217751 -0.06932,6.072365 -0.506173,6.240001 C 36.00903,86.757852 0.97659104,86.740735 0.4,86.508073 Z m 126.08,0 c -0.30021,-0.121139 -0.4,-1.671485 -0.4,-6.214737 v -6.053334 h 18.72 18.72 v 6.045763 c 0,5.217751 -0.0693,6.072365 -0.50617,6.240001 -0.60481,0.232086 -35.95724,0.214966 -36.53383,-0.0177 z M 28.140704,43.120003 C 20.035085,36.355945 14.24,31.297987 14.24,30.987454 c 0,-0.555538 7.005359,-9.227453 7.454134,-9.227453 0.447671,0 28.381168,23.408891 28.48936,23.874715 0.142951,0.615488 -6.951372,9.085287 -7.609856,9.085287 -0.292726,0 -6.787545,-5.22 -14.432934,-11.6 z m 88.362866,7.28016 c -1.97481,-2.375914 -3.54399,-4.520365 -3.48706,-4.765447 0.10819,-0.465824 28.04169,-23.874715 28.48936,-23.874715 0.44877,0 7.45413,8.671915 7.45413,9.227453 0,0.645543 -27.56294,23.732549 -28.33364,23.732549 -0.29272,0 -2.14798,-1.943929 -4.12279,-4.31984 z M 75.531258,32.021039 c -0.455056,-0.850284 -0.455056,-30.2317918 0,-31.08207622 C 75.839856,0.36234396 76.255024,0.32000002 81.6,0.32000002 c 5.344976,0 5.760144,0.0423439 6.068742,0.61896276 C 87.883501,1.340246 88,6.8057873 88,16.480001 88,26.154215 87.883501,31.619756 87.668742,32.021039 87.360144,32.59766 86.944976,32.640002 81.6,32.640002 c -5.344976,0 -5.760144,-0.04234 -6.068742,-0.618963 z"
       id="path3789"
       inkscape:connector-curvature="0" />
    <path
       style="fill:#000000;stroke-width:0.32000002"
       d="m 51.52,132.96001 v -27.36 h 30.4 30.4 v 27.36 27.36 H 81.92 51.52 Z M 51.6,96.108076 C 51.289878,95.98294 51.200502,93.238291 51.202243,83.89334 c 0.0026,-13.978584 0.168759,-15.181797 2.857677,-20.693336 4.044109,-8.289313 11.07649,-14.134951 19.909808,-16.549956 3.598906,-0.98393 11.704768,-1.057172 15.097853,-0.136419 11.174109,3.03222 19.768439,11.514167 22.474099,22.180218 0.75652,2.982292 0.77832,3.406663 0.77832,15.152955 0,10.724497 -0.057,12.106593 -0.50617,12.278967 -0.60527,0.232266 -59.63736,0.214919 -60.21383,-0.0177 z M 0,80.320005 v -6.0852 l 18.48,0.0826 18.48,0.0826 v 5.92 5.92 l -18.48,0.0826 -18.48,0.0826 z m 126.22211,5.668759 c -0.0868,-0.226186 -0.11828,-2.926186 -0.07,-6.000001 l 0.0878,-5.588758 h 18.56 18.56 l 0.0871,6 0.0871,6 h -18.5771 c -14.83734,0 -18.60888,-0.08279 -18.73491,-0.411241 z M 28.564601,43.341875 C 21.03807,37.083903 14.702554,31.714201 14.485675,31.409204 c -0.341927,-0.480854 0.07964,-1.12689 3.17257,-4.861871 1.961793,-2.369033 3.797726,-4.307332 4.079851,-4.307332 0.758602,0 28.181904,22.873928 28.181904,23.50668 0,0.590704 -6.879462,8.973322 -7.36424,8.973322 -0.168608,0 -6.46463,-5.120157 -13.991159,-11.378128 z m 88.231929,7.142263 c -2.05882,-2.462717 -3.50252,-4.465793 -3.44884,-4.785134 0.10743,-0.639248 27.53062,-23.627761 28.15398,-23.601134 0.23008,0.0098 2.03684,1.982532 4.01501,4.383786 3.12512,3.793506 3.54467,4.438772 3.2,4.92161 -0.55943,0.783683 -27.67984,23.316737 -28.06364,23.316737 -0.17345,0 -1.90888,-1.906141 -3.85651,-4.235865 z M 75.669421,31.927249 c -0.08583,-0.223986 -0.11856,-7.391247 -0.07274,-15.927248 L 75.68,0.48000003 h 5.92 5.92 V 16.320001 32.160002 l -5.847261,0.08725 c -4.502758,0.06718 -5.883145,-0.0064 -6.003318,-0.320001 z"
       id="path3787"
       inkscape:connector-curvature="0" />
    <path
       style="fill:#000000;stroke-width:0.32000002"
       d="m 51.598202,133.04001 0.0818,-27.28 h 30.24 H 112.16 l 0.0818,27.28 0.0818,27.28 H 81.92 51.516406 Z m -0.26881,-37.484375 c -0.09447,-0.246189 -0.118592,-5.826922 -0.0536,-12.401623 0.133552,-13.509918 0.263984,-14.42435 2.820096,-19.77109 1.756605,-3.674365 3.594045,-6.154874 6.787312,-9.162739 8.379059,-7.892577 19.894947,-10.422004 30.687351,-6.740375 4.391747,1.498163 7.585395,3.424502 10.918129,6.585575 3.44815,3.270547 5.2282,5.700109 7.07911,9.662135 2.49425,5.339184 2.59221,6.093168 2.59221,19.952487 v 12.160001 l -30.329424,0.08163 c -25.743277,0.06928 -30.355392,0.01395 -30.501187,-0.365997 z M 0,80.320005 v -6.08 l 18,0.0049 c 9.9,0.0026 18.188077,0.124185 18.417946,0.269977 0.316854,0.20096 0.419699,1.590532 0.425193,5.744893 0.004,3.013898 -0.08459,5.628407 -0.196829,5.810023 -0.136393,0.220691 -6.247424,0.330211 -18.425195,0.330211 H 0 Z m 126.56343,5.765549 c -0.10866,-0.175821 -0.21502,-2.780966 -0.23634,-5.789216 -0.0313,-4.415034 0.0491,-5.525453 0.41707,-5.759549 0.26236,-0.166912 8.13006,-0.257492 18.53584,-0.213396 l 18.08,0.07661 v 5.92 5.92 l -18.2995,0.08261 c -11.93196,0.05387 -18.36825,-0.02861 -18.49707,-0.237063 z M 28.23754,42.889286 C 20.626893,36.545087 14.4,31.198852 14.4,31.008765 c 0,-0.483639 7.090881,-8.965865 7.404482,-8.85736 0.568837,0.196817 27.841003,23.034787 27.99906,23.446678 0.205415,0.535302 -6.449955,8.600004 -7.207718,8.734016 -0.300662,0.05317 -6.368883,-4.782886 -14.358284,-11.442813 z m 88.45964,7.319748 c -1.90455,-2.3037 -3.39359,-4.368958 -3.30897,-4.58946 0.14939,-0.389312 27.47353,-23.290749 28.00031,-23.468169 0.31916,-0.107491 7.41148,8.368451 7.41148,8.85736 0,0.496573 -27.5473,23.391478 -28.14303,23.390026 -0.27333,-6.4e-4 -2.05524,-1.886058 -3.95979,-4.189757 z M 75.677357,31.600002 c -0.09616,-0.396 -0.134903,-7.488 -0.0861,-15.760001 L 75.68,0.80000005 h 5.92 5.92 L 87.60874,15.840001 c 0.04881,8.272001 0.01008,15.364001 -0.0861,15.760001 -0.173248,0.713453 -0.227091,0.72 -5.922643,0.72 -5.695552,0 -5.749395,-0.0066 -5.922643,-0.72 z"
       id="path3785"
       inkscape:connector-curvature="0" />
    <path
       style="fill:#000000;stroke-width:0.32000002"
       d="m 51.52,133.34401 c 0,-20.55467 0.09141,-27.06741 0.384,-27.36 0.556742,-0.55675 59.47526,-0.55675 60.032,0 0.29259,0.29259 0.384,6.80533 0.384,27.36 v 26.976 H 81.92 51.52 Z M 51.733334,95.786672 C 51.616,95.66934 51.520365,90.16134 51.520806,83.546671 51.521446,71.769544 51.538022,71.458817 52.311658,68.571095 55.153395,57.96408 63.38135,49.817821 74.303514,46.797606 c 2.871286,-0.793974 12.041686,-0.793974 14.912972,0 11.637694,3.218074 20.086574,12.141962 22.497564,23.762398 0.51391,2.476932 0.59813,4.387844 0.60175,13.653828 0.002,5.925607 -0.0832,11.001608 -0.19004,11.280001 -0.1752,0.456583 -3.13268,0.506173 -30.186662,0.506173 -16.495837,0 -30.088432,-0.096 -30.205764,-0.213334 z M 0,80.511621 v -5.956858 l 18.32,0.08262 18.32,0.08262 0.08738,5.68 0.08739,5.68 H 18.913556 c -9.8456667,0 -18.12898941,0.08741 -18.407384,0.194237 C 0.05578071,86.447074 0,85.812025 0,80.511621 Z m 144.71263,5.64576 -18.32738,-0.08262 0.0874,-5.677376 0.0874,-5.677376 18.48,-0.0826 18.48,-0.0826 v 5.743715 c 0,3.159044 -0.108,5.788212 -0.24,5.842599 -0.132,0.05439 -8.48732,0.06171 -18.56737,0.01626 z M 28.32,42.844201 C 20.752,36.514553 14.523157,31.230676 14.478126,31.102253 c -0.11254,-0.320951 6.583088,-8.37978 7.139772,-8.593399 0.476069,-0.182685 28.386092,22.849338 28.229606,23.295747 -0.244618,0.697828 -7.035229,8.592042 -7.373408,8.571726 C 42.257344,54.363306 35.888,49.173849 28.32,42.844201 Z m 88.5659,7.382916 c -1.89524,-2.295088 -3.48525,-4.285133 -3.53334,-4.422324 -0.15373,-0.438541 27.7706,-23.472051 28.23837,-23.29255 0.55069,0.211316 7.24237,8.272223 7.13095,8.590041 -0.13869,0.395572 -27.73465,23.297719 -28.0726,23.297719 -0.17461,0 -1.86813,-1.877798 -3.76338,-4.172886 z M 75.989536,31.927589 c -0.08591,-0.224173 -0.118701,-7.319587 -0.07287,-15.767588 L 76,0.80000005 h 5.6 5.6 V 16.480001 32.160002 l -5.527133,0.08759 c -4.246297,0.06729 -5.563328,-0.0068 -5.683331,-0.32 z"
       id="path3783"
       inkscape:connector-curvature="0" />
    <path
       style="fill:#000000;stroke-width:0.32000002"
       d="m 51.645763,159.81384 c 0.106832,-0.2784 0.194237,-12.5184 0.194237,-27.2 V 105.92001 H 81.92 112 v 26.69383 c 0,14.6816 0.0874,26.9216 0.19424,27.2 0.17628,0.45938 -2.62245,0.50617 -30.27424,0.50617 -27.651792,0 -30.450515,-0.0468 -30.274237,-0.50617 z M 51.524205,84.240005 c 0.0049,-13.429329 0.247453,-15.275098 2.682393,-20.415313 1.820484,-3.843079 3.647546,-6.417277 6.477722,-9.126644 4.049286,-3.876438 8.660208,-6.450615 13.860202,-7.73785 3.278796,-0.811651 10.225648,-0.956499 13.295478,-0.277225 5.951226,1.316854 10.58713,3.79471 14.99568,8.015075 2.79327,2.674036 4.59152,5.191057 6.43941,9.013303 2.4574,5.082938 2.71575,7.032292 2.72071,20.528654 L 112,95.680006 H 81.76 51.52 L 51.5242,84.240005 Z M 0,80.322626 v -5.762621 h 18.040818 c 14.967489,0 18.103387,0.07539 18.408107,0.442556 0.251808,0.303412 0.339587,2.089265 0.279181,5.680001 L 36.64,85.920005 18.32,86.002626 0,86.085247 Z m 126.61333,5.544045 c -0.26663,-0.266634 -0.28404,-10.110065 -0.0191,-10.800494 0.17397,-0.453356 2.09392,-0.506172 18.4,-0.506172 H 163.2 v 5.76 5.76 h -18.18667 c -10.00266,0 -18.28266,-0.096 -18.4,-0.213334 z M 120.4479,54.136647 c -0.59536,-0.410378 -6.8479,-8.017799 -6.8479,-8.33178 0,-0.286141 27.20092,-23.135474 27.76984,-23.327235 0.28586,-0.09635 7.11016,8.047322 7.11016,8.484804 0,0.162659 -5.42999,4.818654 -12.06665,10.346655 -6.63666,5.528003 -12.87316,10.724403 -13.8589,11.547555 -0.98574,0.823156 -1.93369,1.399156 -2.10655,1.280001 z M 28.64,42.874467 C 21.248,36.717356 15.067664,31.481109 14.90592,31.238359 14.690987,30.915782 15.550303,29.6664 18.098813,26.59613 20.016648,24.285653 21.695754,22.432329 21.830159,22.477632 22.389715,22.666237 49.6,45.516246 49.6,45.797532 c 0,0.558989 -6.550464,8.241652 -7.04,8.256814 -0.264,0.0082 -6.528,-5.022772 -13.92,-11.179879 z M 76.06063,31.793965 C 75.939283,31.672619 75.84,24.685335 75.84,16.266668 V 0.96000006 l 1.84,-0.0302067 c 1.968726,-0.0323201 9.03871,-0.0253094 9.443072,0.009364 0.133693,0.0114637 0.205693,6.96884344 0.16,15.46084364 L 87.2,31.840002 l -5.45937,0.0873 c -3.002656,0.04801 -5.558656,-0.01199 -5.68,-0.133333 z"
       id="path3781"
       inkscape:connector-curvature="0" />
    <path
       style="fill:#000000;stroke-width:0.32000002"
       d="m 51.52,160.00001 c 0,-0.176 0.144,-0.32 0.32,-0.32 0.210778,0 0.32,-9.12 0.32,-26.72 v -26.72 h 29.76 29.76 v 26.72 c 0,17.6 0.10922,26.72 0.32,26.72 0.176,0 0.32,0.144 0.32,0.32 0,0.21109 -10.34667,0.32 -30.4,0.32 -20.053334,0 -30.4,-0.10891 -30.4,-0.32 z M 52.054982,95.46832 C 51.936742,95.35008 51.84,90.15927 51.84,83.933183 c 0,-9.093201 0.09998,-11.805383 0.508234,-13.78667 2.241955,-10.880426 10.869856,-19.916651 21.741328,-22.770254 3.332592,-0.874755 8.208883,-1.159792 11.748908,-0.686765 12.47272,1.666634 22.65296,11.064756 25.3371,23.39051 0.44016,2.021264 0.50857,4.21794 0.43353,13.920001 l -0.0891,11.520001 -29.625018,0.08165 c -16.29376,0.04491 -29.72176,-0.0151 -29.84,-0.133334 z M -8.6311158e-5,80.434242 -1.7262232e-4,74.720005 17.839914,74.802613 C 27.651961,74.848049 35.86,74.951528 36.08,75.032571 c 0.297926,0.109747 0.4,1.497274 0.4,5.437392 v 5.290042 H 18.746172 c -9.7536053,0 -17.96160541,0.0874 -18.24,0.194237 -0.44991505,0.17265 -0.5061815927917,-0.440854 -0.506258311158,-5.52 z M 144.87228,85.840057 l -18.16773,-0.08534 0.0877,-5.357354 0.0877,-5.357354 18.16009,-0.16 18.16008,-0.16 -8e-5,5.68 c -5e-5,3.124 -0.0361,5.645213 -0.0801,5.602695 -0.044,-0.04252 -8.25548,-0.115706 -18.24772,-0.162643 z M 28.8,42.67431 C 21.32,36.439359 15.151928,31.198764 15.093173,31.02854 c -0.121364,-0.351616 6.287002,-8.148539 6.697362,-8.148539 0.402817,0 27.489465,22.611503 27.489465,22.947768 0,0.285882 -6.17264,7.757956 -6.641382,8.039492 C 42.507379,53.946087 36.28,48.909257 28.8,42.67431 Z m 90.99026,10.35762 C 117.98172,51.087158 113.92,46.094953 113.92,45.816883 c 0,-0.325399 27.11076,-22.936882 27.50091,-22.936882 0.14501,0 1.74267,1.784944 3.55038,3.966541 2.31591,2.794931 3.20136,4.088478 2.99771,4.379367 -0.15895,0.227054 -5.617,4.839908 -12.129,10.250785 -6.512,5.410877 -12.57127,10.456528 -13.46505,11.21256 l -1.62505,1.374605 z M 76.236896,16.400001 76.32,1.1200001 h 5.28 5.28 l 0.0831,15.2800009 0.0831,15.280001 H 81.6 76.153795 Z"
       id="path3779"
       inkscape:connector-curvature="0" />
  </g>
</svg>
