<?xml version="1.0" encoding="UTF-8" standalone="no"?>
<!-- Created with Inkscape (http://www.inkscape.org/) -->

<svg
   xmlns:dc="http://purl.org/dc/elements/1.1/"
   xmlns:cc="http://creativecommons.org/ns#"
   xmlns:rdf="http://www.w3.org/1999/02/22-rdf-syntax-ns#"
   xmlns:svg="http://www.w3.org/2000/svg"
   xmlns="http://www.w3.org/2000/svg"
   xmlns:sodipodi="http://sodipodi.sourceforge.net/DTD/sodipodi-0.dtd"
   xmlns:inkscape="http://www.inkscape.org/namespaces/inkscape"
   version="1.1"
   id="svg192"
   width="37.759998"
   height="37.759998"
   viewBox="0 0 37.759998 37.759998"
   sodipodi:docname="bump_gate.svg"
   inkscape:version="0.92.3 (2405546, 2018-03-11)">
  <metadata
     id="metadata198">
    <rdf:RDF>
      <cc:Work
         rdf:about="">
        <dc:format>image/svg+xml</dc:format>
        <dc:type
           rdf:resource="http://purl.org/dc/dcmitype/StillImage" />
        <dc:title></dc:title>
      </cc:Work>
    </rdf:RDF>
  </metadata>
  <defs
     id="defs196" />
  <sodipodi:namedview
     pagecolor="#ffffff"
     bordercolor="#666666"
     borderopacity="1"
     objecttolerance="10"
     gridtolerance="10"
     guidetolerance="10"
     inkscape:pageopacity="0"
     inkscape:pageshadow="2"
     inkscape:window-width="1920"
     inkscape:window-height="1137"
     id="namedview194"
     showgrid="false"
     inkscape:zoom="6.2235172"
     inkscape:cx="23.563185"
     inkscape:cy="-4.8689138"
     inkscape:window-x="-8"
     inkscape:window-y="-8"
     inkscape:window-maximized="1"
     inkscape:current-layer="svg192" />
  <g
     id="g202"
     transform="translate(0.32136137,0.16068084)">
    <path
       style="fill:#000000;stroke-width:0.31999999"
       d="M 1.1999999,36.579412 C 0.67533561,36.442305 0.63999997,35.336261 0.63999997,19.050772 c 0,-19.60280259 -0.28075292,-17.7707721 2.72331473,-17.7707721 2.6214875,0 2.716685,0.1914279 2.716685,5.462857 V 11.199999 H 21.093827 c 8.257605,0 15.241605,0.08741 15.519998,0.194237 0.443098,0.170032 0.506173,1.202546 0.506173,8.285763 0,7.083217 -0.06308,8.115731 -0.506173,8.285763 -0.278393,0.10683 -7.262393,0.194237 -15.519998,0.194237 H 6.0799997 v 3.988742 c 0,3.616044 -0.057834,4.019692 -0.6189629,4.319999 -0.6118297,0.32744 -3.1766342,0.394058 -4.2610369,0.110672 z M 24.959999,23.636501 c -0.792,-0.351059 -2.324147,-0.946876 -3.404772,-1.324037 l -1.964771,-0.685748 -3.315228,1.328643 -3.315229,1.328644 6.72,-0.0046 6.72,-0.0046 z M 8.5696418,22.289589 c 1.0066969,-0.412726 2.7334172,-1.079427 3.8371572,-1.481559 1.103739,-0.402132 2.072737,-0.837839 2.153328,-0.968238 0.08059,-0.130399 -1.614469,-0.917938 -3.766799,-1.750086 -2.1523307,-0.832149 -4.0933284,-1.586164 -4.3133283,-1.675589 -0.3050784,-0.124007 -0.4,0.642875 -0.4,3.231645 0,2.115681 0.1241712,3.394237 0.3296422,3.394237 0.1813034,0 1.1533033,-0.337685 2.1599999,-0.75041 z M 33.279998,19.687919 V 16.33584 l -0.88,0.334253 c -4.626376,1.757253 -7.439691,2.935114 -7.438189,3.114172 0.002,0.232235 7.254221,3.192331 7.918189,3.231897 0.296061,0.01764 0.4,-0.8472 0.4,-3.328243 z m -9.759999,-3.197916 3.52,-1.410335 -7.173333,-0.01983 c -3.945333,-0.01091 -7.108832,0.04467 -7.029996,0.123503 0.210679,0.210679 6.467884,2.678974 6.843329,2.699504 0.176,0.0096 1.904,-0.617153 3.84,-1.392837 z"
       id="path216"
       inkscape:connector-curvature="0" />
    <path
       style="fill:#000000;stroke-width:0.31999999"
       d="M 1.0239999,36.095998 C 0.51817332,35.590171 0.46768452,3.1598997 0.97125876,2.2189626 1.2399546,1.7168998 1.650923,1.5999999 3.1472586,1.5999999 c 1.0146077,0 2.0175411,0.1728 2.2287411,0.384 0.2628624,0.2628624 0.384,1.8275554 0.384,4.9599997 v 4.5759994 l 15.2799993,0.0049 c 8.403999,0.0027 15.462617,0.120811 15.68582,0.262482 0.313581,0.199037 0.386313,2.034383 0.32,8.075099 L 36.959999,27.679999 21.36,27.763039 5.7600007,27.846079 v 4.122719 c 0,3.464184 -0.080852,4.153746 -0.5061718,4.316955 -0.8875747,0.340595 -3.831546,0.208519 -4.229828,-0.189763 z M 27.343999,24.360514 c -0.373595,-0.343467 -7.069523,-2.920515 -7.588356,-2.920515 -0.468354,0 -7.915644,2.885438 -7.915644,3.066901 0,0.0732 3.5568,0.133099 7.904,0.133099 4.524179,0 7.774007,-0.11951 7.6,-0.279485 z M 8.2606776,22.73523 c 0.8246269,-0.343624 2.6846574,-1.073063 4.1334004,-1.620976 1.448743,-0.547914 2.707662,-1.115268 2.797597,-1.260787 0.13913,-0.225116 -8.5192136,-3.853468 -9.1955393,-3.853468 -0.1298749,0 -0.236136,1.656 -0.236136,3.68 0,4.170287 -0.044567,4.115837 2.5006779,3.055231 z M 33.599998,19.858884 c 0,-1.925613 -0.108,-3.566579 -0.24,-3.646591 -0.332646,-0.201636 -8.82829,3.15258 -8.956101,3.536011 -0.105813,0.317439 7.621493,3.519836 8.636101,3.579026 0.5012,0.02924 0.56,-0.334939 0.56,-3.468446 z M 23.585781,16.782283 c 2.07582,-0.801744 3.911018,-1.593744 4.078218,-1.76 0.190833,-0.189756 -2.777306,-0.302284 -7.973333,-0.302284 -4.552533,0 -8.170281,0.108 -8.03944,0.24 0.228818,0.230845 7.472385,3.201761 7.934556,3.254323 0.12418,0.01412 1.92418,-0.630295 3.999999,-1.432039 z"
       id="path214"
       inkscape:connector-curvature="0" />
    <path
       style="fill:#000000;stroke-width:0.31999999"
       d="M 1.106748,35.759998 C 1.022507,35.539998 0.99102635,27.871999 1.036791,18.719999 L 1.1199999,2.0799999 3.237123,1.9863565 5.3542461,1.8927131 5.5715994,3.8138616 c 0.1195443,1.0566319 0.121119,2.9831284 0.0035,4.2811037 -0.14156,1.5621699 -0.089115,2.5930317 0.1551408,3.0494267 l 0.3689942,0.689473 15.4303816,0.08307 15.430381,0.08307 v 7.68 7.68 l -15.430382,0.08307 c -17.5967725,0.09473 -16.1659751,-0.175294 -16.0211351,3.02355 0.042171,0.93136 0.044014,2.593382 0.0041,3.693382 l -0.072577,2 H 3.3499566 c -1.3770127,0 -2.1422963,-0.136461 -2.2432086,-0.4 z M 27.983041,24.667436 c 0.09945,-0.160909 -1.699469,-1.023586 -3.997592,-1.917061 l -4.178405,-1.624498 -4.299705,1.633795 c -2.364838,0.898587 -4.220924,1.761265 -4.124637,1.917061 0.233187,0.377303 16.366991,0.368268 16.600339,-0.0093 z M 8.2496418,22.930473 c 1.0066969,-0.41224 3.0932422,-1.231586 4.6367672,-1.820771 1.543525,-0.589185 2.762734,-1.202271 2.709353,-1.362413 -0.05338,-0.160143 -2.219632,-1.125036 -4.813892,-2.144208 -4.3878307,-1.723788 -4.7386361,-1.81231 -5.0293541,-1.269099 -0.340136,0.635551 -0.4332323,6.019092 -0.1182797,6.839845 0.2540793,0.66212 0.4483664,0.644042 2.6154056,-0.243354 z m 25.4761192,0.243354 c 0.106832,-0.278395 0.194237,-1.778617 0.194237,-3.333828 0,-2.979908 -0.165046,-3.84 -0.736873,-3.84 -0.910794,0 -9.52436,3.626767 -9.254495,3.896632 0.325679,0.325678 8.645531,3.707099 9.237131,3.754229 0.201172,0.01603 0.453172,-0.198639 0.56,-0.477033 z M 23.662063,16.946458 c 5.139364,-1.96806 5.015061,-1.905827 4.481247,-2.243545 -0.580969,-0.367549 -16.31029,-0.390129 -16.887397,-0.02424 -0.452127,0.286649 7.23768,3.53665 8.40615,3.552754 0.342136,0.0047 2.142136,-0.573519 4,-1.284967 z"
       id="path212"
       inkscape:connector-curvature="0" />
    <path
       style="fill:#000000;stroke-width:0.31999999"
       d="M 1.1597004,35.668065 C 1.0498652,35.381838 0.95999995,27.833064 0.95999995,18.893009 0.95999995,5.2481466 1.0328962,2.5778659 1.4140237,2.2615582 1.6755676,2.0444961 2.5912826,1.9261389 3.5740235,1.982376 L 5.2799997,2.08 l 0.16,4.7999997 0.16,4.7999993 15.5199993,0.16 15.519999,0.16 v 7.68 7.68 l -15.519999,0.16 -15.5199993,0.16 -0.16,4.159999 -0.16,4.16 -1.9602994,0.09424 c -1.5727802,0.07561 -1.999777,-0.0086 -2.1599999,-0.426173 z M 28.479998,24.665202 c 0,-0.321217 -7.947609,-3.545203 -8.739457,-3.545203 -0.776682,0 -8.860542,3.245666 -8.860542,3.557504 0,0.156479 3.925523,0.282496 8.8,0.282496 5.151761,0 8.799999,-0.122215 8.799999,-0.294797 z M 8.2064927,23.091985 c 1.2064287,-0.499407 3.4580533,-1.385768 5.0036093,-1.969691 1.545557,-0.583923 2.762601,-1.204182 2.704544,-1.378354 -0.148583,-0.445749 -9.5612847,-4.114517 -10.0626869,-3.922111 -0.6564627,0.251909 -0.5713024,8.17817 0.087867,8.17817 0.040238,0 1.060238,-0.408606 2.2666666,-0.908014 z M 33.919998,19.858884 c 0,-2.174533 -0.136409,-3.90542 -0.316557,-4.016758 -0.46822,-0.289374 -9.763442,3.466953 -9.763442,3.94554 0,0.447987 8.203459,3.842677 9.359999,3.873281 0.707533,0.01872 0.72,-0.04711 0.72,-3.802063 z m -9.623025,-3.001478 c 2.363336,-0.923589 4.355336,-1.854338 4.426666,-2.06833 0.0998,-0.299403 -1.984549,-0.389077 -9.04364,-0.389077 -6.478565,0 -9.139177,0.102469 -9.05706,0.348817 0.105896,0.31769 8.30846,3.7334 9.05706,3.77154 0.176,0.009 2.253638,-0.73936 4.616974,-1.66295 z"
       id="path210"
       inkscape:connector-curvature="0" />
    <path
       style="fill:#000000;stroke-width:0.31999999"
       d="M 1.475658,35.897694 C 1.348012,35.69116 1.1827921,10.763107 1.2625524,3.7447304 l 0.017448,-1.5352697 1.9999999,0.09527 1.9999999,0.09527 0.089194,4.6267962 c 0.061873,3.2095721 0.2089005,4.7028541 0.48,4.8751001 C 6.0641375,12.038464 13.116,12.152405 21.52,12.1551 L 36.799999,12.16 v 7.52 7.52 H 21.626171 c -8.345605,0 -15.4016046,0.08741 -15.6799995,0.194236 -0.4232668,0.162423 -0.5061718,0.833299 -0.5061718,4.096 0,2.608038 -0.1273245,4.029088 -0.384,4.285763 -0.4305084,0.430509 -3.3286048,0.529014 -3.5803417,0.121695 z M 28.591022,25.002437 c 0.480074,-0.188918 0.51011,-0.295102 0.16,-0.565637 -0.708234,-0.547262 -8.296015,-3.397188 -9.031096,-3.392027 -0.901787,0.0063 -9.159927,3.243934 -9.159927,3.591147 0,0.14891 0.18,0.343377 0.4,0.432149 0.630517,0.254419 16.972304,0.193587 17.631023,-0.06563 z M 10.444876,22.401143 c 4.735862,-1.840033 5.646226,-2.277373 5.664312,-2.721144 0.01478,-0.362521 -10.0587003,-4.328804 -10.4291883,-4.10634 -0.132,0.07926 -0.24,2.007612 -0.24,4.285225 0,3.32235 0.087959,4.141115 0.4448768,4.141115 0.2446822,0 2.2966821,-0.719485 4.5599995,-1.598856 z M 33.84956,19.756074 c 0.08928,-4.063259 0.08727,-4.07598 -0.64,-4.046063 -1.229531,0.05058 -9.689561,3.612533 -9.689561,4.079627 0,0.453658 8.906092,4.191365 9.759999,4.096076 0.39345,-0.04391 0.496151,-0.78854 0.569562,-4.12964 z m -8.986924,-2.985997 c 2.517549,-0.984457 4.577362,-1.920457 4.577362,-2.08 0,-0.167009 -4.084226,-0.290078 -9.626666,-0.290078 -6.957341,0 -9.593573,0.09928 -9.507321,0.358036 0.135806,0.407417 8.405557,3.749339 9.356625,3.781143 0.342451,0.01145 2.682451,-0.784644 5.2,-1.769101 z"
       id="path208"
       inkscape:connector-curvature="0" />
    <path
       style="fill:#000000;stroke-width:0.31999999"
       d="M 1.426719,35.439998 C 1.342462,35.219998 1.3109813,27.695999 1.356762,18.719999 L 1.4399999,2.3999999 h 1.7599999 1.7599999 l 0.078151,4.1599998 c 0.042983,2.2879998 0.1537264,4.4839993 0.2460966,4.8799993 l 0.1679456,0.72 H 20.931859 c 13.820235,0 15.500488,0.05426 15.673902,0.506172 0.253315,0.66013 0.253315,13.367526 0,14.027656 -0.17336,0.451772 -1.834464,0.506172 -15.455999,0.506172 -11.443593,0 -15.3578312,0.09607 -15.6457624,0.384 -0.2570406,0.25704 -0.384,1.685333 -0.384,4.319999 v 3.936 h -1.770043 c -1.1209972,0 -1.8262169,-0.146672 -1.9232376,-0.4 z M 29.439998,24.826687 c 0,-0.406034 -6.846203,-3.324596 -9.162163,-3.905864 -0.550145,-0.138078 -2.14451,0.320884 -5.176425,1.490113 -4.615019,1.779738 -5.2832838,2.125343 -4.999002,2.585321 0.09645,0.156058 4.486864,0.283742 9.756476,0.283742 8.052514,0 9.581114,-0.07232 9.581114,-0.453312 z M 11.037865,22.306874 c 3.223429,-1.266115 5.153134,-2.193356 5.213144,-2.504965 0.07089,-0.368092 -1.217359,-1.009278 -5.032327,-2.504688 -2.8201842,-1.10547 -5.346099,-1.926101 -5.6131447,-1.823626 -0.397728,0.152622 -0.4855376,0.899962 -0.4855376,4.132361 0,2.642478 0.1268535,4.072896 0.384,4.330043 0.2112,0.2112 0.3912,0.383347 0.4,0.382548 0.0088,-8e-4 2.3190392,-0.906051 5.1338653,-2.011673 z m 23.131743,-2.553231 c 0.07267,-3.313871 0.0029,-4.119657 -0.36945,-4.262513 -0.533984,-0.204909 -9.728273,3.278123 -10.440159,3.954999 -0.426667,0.405683 -0.426667,0.490948 0,0.767384 1.191093,0.771704 9.202892,3.755585 9.919999,3.694563 l 0.8,-0.06808 z m -9.008193,-2.929966 c 2.372553,-0.941689 4.392244,-1.790672 4.488202,-1.886629 0.720939,-0.72094 -0.86907,-0.857049 -10.011967,-0.857049 -8.934034,0 -9.7557776,0.04527 -9.6611142,0.532283 0.1370672,0.705162 9.0761052,4.309532 10.1273042,4.0835 0.409113,-0.08797 2.685022,-0.930417 5.057575,-1.872105 z"
       id="path206"
       inkscape:connector-curvature="0" />
    <path
       style="fill:#000000;stroke-width:0.31999999"
       d="M 1.5999999,19.039999 V 2.5599999 h 1.5583832 1.5583831 l 0.1734991,1.5199999 c 0.095425,0.8359999 0.094592,2.7529176 -0.00186,4.259817 -0.11536,1.8024842 -0.04715,2.9793602 0.1993764,3.4400002 l 0.3747318,0.700182 h 15.5087405 15.50874 v 7.2 7.2 h -15.50874 c -15.0055316,0 -15.519489,0.02008 -15.8399994,0.618962 -0.1821923,0.34043 -0.3312589,2.28443 -0.3312589,4.32 v 3.701037 H 3.1999998 1.5999999 Z M 30.0135,24.909503 c 0.07967,-0.414085 -0.988976,-0.958292 -4.869897,-2.48 -2.734578,-1.072227 -5.143434,-1.949504 -5.353014,-1.949504 -0.521537,0 -9.641076,3.510806 -9.9930801,3.847099 -0.1553696,0.148435 -0.1950998,0.497617 -0.088289,0.775961 0.1723136,0.449043 1.3216991,0.496549 10.1982101,0.42151 9.020264,-0.07625 10.014045,-0.136737 10.10607,-0.615066 z M 12.959999,21.907701 c 3.743842,-1.414129 4.366384,-1.842964 3.668572,-2.52707 C 16.09198,18.854581 6.5101632,15.04598 5.7142362,15.042378 c -0.7887331,-0.0036 -0.9142365,0.655488 -0.9142365,4.800936 0,4.890884 0.1527549,5.097664 2.9746085,4.026642 1.0919654,-0.41445 3.4253908,-1.297465 5.1853908,-1.962255 z m 21.405762,1.906126 c 0.106832,-0.278395 0.194237,-2.204763 0.194237,-4.280818 0,-2.986391 -0.101542,-3.858917 -0.486243,-4.17819 -0.402515,-0.334059 -1.408086,-0.04503 -5.839998,1.678608 -7.093194,2.758645 -7.089317,2.727095 -0.649041,5.282521 5.158492,2.046828 6.460066,2.334335 6.781045,1.497879 z M 24.031574,17.565382 c 5.432308,-2.070631 6.114733,-2.4246 5.984053,-3.103891 -0.09463,-0.491896 -0.983051,-0.549698 -9.699898,-0.631092 -5.277651,-0.04928 -9.91973,-0.01054 -10.3157295,0.0861 -1.0432726,0.254583 -0.8830541,1.059559 0.3199995,1.607756 1.221131,0.556434 8.951619,3.613218 9.231575,3.650343 0.105367,0.01397 2.121367,-0.710174 4.48,-1.609213 z"
       id="path204"
       inkscape:connector-curvature="0" />
  </g>
</svg>
