<?xml version="1.0" encoding="UTF-8" standalone="no"?>
<!-- Created with Inkscape (http://www.inkscape.org/) -->

<svg
   xmlns:dc="http://purl.org/dc/elements/1.1/"
   xmlns:cc="http://creativecommons.org/ns#"
   xmlns:rdf="http://www.w3.org/1999/02/22-rdf-syntax-ns#"
   xmlns:svg="http://www.w3.org/2000/svg"
   xmlns="http://www.w3.org/2000/svg"
   xmlns:sodipodi="http://sodipodi.sourceforge.net/DTD/sodipodi-0.dtd"
   xmlns:inkscape="http://www.inkscape.org/namespaces/inkscape"
   version="1.1"
   id="svg282"
   width="156.48"
   height="156.48"
   viewBox="0 0 156.48 156.48"
   sodipodi:docname="bump_gate.svg"
   inkscape:version="0.92.3 (2405546, 2018-03-11)">
  <metadata
     id="metadata288">
    <rdf:RDF>
      <cc:Work
         rdf:about="">
        <dc:format>image/svg+xml</dc:format>
        <dc:type
           rdf:resource="http://purl.org/dc/dcmitype/StillImage" />
        <dc:title></dc:title>
      </cc:Work>
    </rdf:RDF>
  </metadata>
  <defs
     id="defs286" />
  <sodipodi:namedview
     pagecolor="#ffffff"
     bordercolor="#666666"
     borderopacity="1"
     objecttolerance="10"
     gridtolerance="10"
     guidetolerance="10"
     inkscape:pageopacity="0"
     inkscape:pageshadow="2"
     inkscape:window-width="1920"
     inkscape:window-height="1137"
     id="namedview284"
     showgrid="false"
     inkscape:zoom="2.1238509"
     inkscape:cx="212.24068"
     inkscape:cy="64.399968"
     inkscape:window-x="-8"
     inkscape:window-y="-8"
     inkscape:window-maximized="1"
     inkscape:current-layer="svg282" />
  <g
     id="g292"
     transform="translate(0.33293235,-0.16646769)">
    <path
       style="fill:#000000;stroke-width:0.31999999"
       d="m 1.28,156.16 c 0,-0.176 -0.216,-0.32 -0.48,-0.32 -0.42410522,0 -0.48,-4.65524 -0.48,-39.97714 C 0.32,79.946666 0.3710812,75.834634 0.82285715,75.382858 1.2740096,74.931706 5.0083632,74.88 37.14152,74.88 H 72.957322 L 73.038662,37.84 73.12,0.8 h 4.96 4.96 l 0.08134,37.04 0.08134,37.04 h 35.93466 c 27.52251,0 36.02455,0.08989 36.31866,0.384 0.29457,0.294566 0.384,9.690413 0.384,40.34286 0,34.20434 -0.0658,40.02469 -0.45714,40.416 C 154.98921,156.41651 144.256,156.48 78.102858,156.48 27.100952,156.48 1.28,156.37244 1.28,156.16 Z M 72.96,136.48 V 121.92 H 41.44 9.92 v 14.56 14.56 h 31.52 31.52 z m 72.64,0 V 121.92 H 114.4 83.2 v 14.56 14.56 h 31.2 31.2 z M 72.96,98.08 V 83.52 H 41.44 9.92 v 14.56 14.56 h 31.52 31.52 z m 72.64,0 V 83.52 H 114.4 83.2 v 14.56 14.56 h 31.2 31.2 z"
       id="path306"
       inkscape:connector-curvature="0" />
    <path
       style="fill:#000000;stroke-width:0.31999999"
       d="m 1.28,156.16 c 0,-0.176 -0.216,-0.32 -0.48,-0.32 -0.42410595,0 -0.48,-4.65653 -0.48,-39.98874 C 0.32,76.643069 0.3320817,75.856051 0.93896272,75.531258 1.3550667,75.308566 13.310579,75.2 37.417629,75.2 H 73.277334 L 73.358666,38 73.44,0.8 h 4.64 4.64 l 0.08133,37.2 0.08133,37.2 h 35.93466 c 27.52252,0 36.02456,0.08989 36.31867,0.384 0.29454,0.294544 0.384,9.643962 0.384,40.13383 0,21.8624 -0.0874,39.9776 -0.19424,40.256 C 155.14939,156.43345 148.0568,156.48 78.205763,156.48 27.135254,156.48 1.28,156.37244 1.28,156.16 Z m 72,-19.68 V 121.6 H 41.44 9.6 v 14.88 14.88 h 31.84 31.84 z m 72.64,0 V 121.6 H 114.4 82.88 v 14.88 14.88 h 31.52 31.52 z M 73.28,98.08 V 83.2 H 41.44 9.6 v 14.88 14.88 h 31.84 31.84 z m 72.64,0 V 83.2 H 114.4 82.88 v 14.88 14.88 h 31.52 31.52 z"
       id="path304"
       inkscape:connector-curvature="0" />
    <path
       style="fill:#000000;stroke-width:0.31999999"
       d="m 1.28,156.16 c 0,-0.176 -0.216,-0.32 -0.48,-0.32 -0.42410448,0 -0.48,-4.65397 -0.48,-39.96576 C 0.32,79.725885 0.3683481,75.88992 0.826172,75.714237 1.1045666,75.607405 17.419767,75.52 37.082173,75.52 64.460928,75.52 72.921917,75.430083 73.216,75.136 73.510227,74.841773 73.6,66.126221 73.6,37.856 V 0.96 h 4.48 4.48 v 36.896 c 0,28.270221 0.08977,36.985773 0.384,37.28 0.294109,0.294109 8.796445,0.384 36.32,0.384 H 155.2 V 116 156.48 H 78.24 c -51.093333,0 -76.96,-0.10756 -76.96,-0.32 z m 71.936,-4.864 c 0.552672,-0.55267 0.552672,-29.07933 0,-29.632 -0.556957,-0.55696 -62.995043,-0.55696 -63.552,0 -0.5526714,0.55267 -0.5526714,29.07933 0,29.632 0.556957,0.55696 62.995043,0.55696 63.552,0 z m 72.64,0 c 0.55267,-0.55267 0.55267,-29.07933 0,-29.632 -0.55692,-0.55692 -62.355082,-0.55692 -62.912,0 -0.552672,0.55267 -0.552672,29.07933 0,29.632 0.556918,0.55692 62.35508,0.55692 62.912,0 z m -72.64,-38.4 c 0.552672,-0.55267 0.552672,-29.079328 0,-29.632 -0.556957,-0.556957 -62.995043,-0.556957 -63.552,0 -0.5526714,0.552672 -0.5526714,29.07933 0,29.632 0.556957,0.55696 62.995043,0.55696 63.552,0 z m 72.64,0 c 0.55267,-0.55267 0.55267,-29.079328 0,-29.632 -0.55692,-0.556918 -62.355082,-0.556918 -62.912,0 -0.552672,0.552672 -0.552672,29.07933 0,29.632 0.556918,0.55692 62.35508,0.55692 62.912,0 z"
       id="path302"
       inkscape:connector-curvature="0" />
    <path
       style="fill:#000000;stroke-width:0.31999999"
       d="m 1.28,156.16 c 0,-0.176 -0.216,-0.32 -0.48,-0.32 -0.42410666,0 -0.48,-4.65778 -0.48,-40 0,-22 0.036,-40.033859 0.08,-40.075245 0.044,-0.04138 16.496,-0.149382 36.56,-0.24 L 73.44,75.36 73.6,38.24 73.76,1.12 h 4.32 4.32 l 0.16,37.12 0.16,37.12 36.16,0.16 36.16,0.16 0.0812,40.4 0.0812,40.4 H 78.241232 C 27.147077,156.48 1.28,156.37244 1.28,156.16 Z m 72.16,-19.68 v -15.04 h -32 -32 l -0.083401,14.72 c -0.04587,8.096 -0.014122,14.9007 0.07055,15.12155 0.1223447,0.3191 6.709203,0.3848 32.083401,0.32 L 73.44,151.52 Z m 72.64,0 V 121.44 H 114.4 82.72 l -0.0834,14.72 c -0.04587,8.096 -0.01411,14.9007 0.07056,15.12156 0.122343,0.3191 6.645223,0.38481 31.7634,0.32 L 146.08,151.52 Z M 73.44,98.08 V 83.04 h -32 -32 L 9.356599,97.76 c -0.04587,8.096 -0.014122,14.9007 0.07055,15.12155 0.1223447,0.3191 6.709203,0.3848 32.083401,0.32 L 73.44,113.12 Z m 72.64,0 V 83.04 H 114.4 82.72 l -0.0834,14.72 c -0.04587,8.096 -0.01411,14.9007 0.07056,15.12156 0.122343,0.3191 6.645223,0.38481 31.7634,0.32 L 146.08,113.12 Z"
       id="path300"
       inkscape:connector-curvature="0" />
    <path
       style="fill:#000000;stroke-width:0.31999999"
       d="M 1.1564965,155.97972 C 1.0509095,155.70456 0.81950317,155.56906 0.6422601,155.6786 0.42656957,155.81191 0.32,142.64552 0.32,115.86422 V 75.850678 l 36.370387,-0.008 c 26.251197,-0.0058 36.48992,-0.107177 36.8,-0.364521 C 73.845328,75.183606 73.92,68.70432 73.92,38.200819 V 1.28 h 4.16 4.16 v 36.896 c 0,28.270221 0.08977,36.985773 0.384,37.28 0.294109,0.294109 8.796445,0.384 36.32,0.384 h 35.936 v 39.81383 c 0,21.8976 0.0874,40.0416 0.19424,40.32 0.17678,0.46069 -6.71978,0.50617 -76.765766,0.50617 -69.5003969,0 -76.9786091,-0.0485 -77.1519775,-0.50028 z M 73.536,151.616 c 0.552845,-0.55284 0.552845,-29.71916 0,-30.272 -0.556995,-0.557 -63.6350061,-0.557 -64.192,0 -0.5528435,0.55284 -0.5528435,29.71916 0,30.272 0.5569939,0.557 63.635005,0.557 64.192,0 z m 72.64,0 c 0.55284,-0.55284 0.55284,-29.71916 0,-30.272 -0.55696,-0.55696 -62.995043,-0.55696 -63.552,0 -0.552845,0.55284 -0.552845,29.71916 0,30.272 0.556957,0.55696 62.99504,0.55696 63.552,0 z m -72.64,-38.4 c 0.552845,-0.55284 0.552845,-29.719155 0,-30.272 -0.556995,-0.556995 -63.6350061,-0.556995 -64.192,0 -0.5528435,0.552845 -0.5528435,29.71916 0,30.272 0.5569939,0.557 63.635005,0.557 64.192,0 z m 72.64,0 c 0.55284,-0.55284 0.55284,-29.719155 0,-30.272 -0.55696,-0.556957 -62.995043,-0.556957 -63.552,0 -0.552845,0.552845 -0.552845,29.71916 0,30.272 0.556957,0.55696 62.99504,0.55696 63.552,0 z"
       id="path298"
       inkscape:connector-curvature="0" />
    <path
       style="fill:#000000;stroke-width:0.31999999"
       d="m 1.1573302,155.76 c -0.16459858,-0.60062 -0.24955999,-0.64041 -0.51242198,-0.24 -0.20763068,0.31628 -0.30816259,-13.21781 -0.29474499,-39.68 0.0111997,-22.088 0.0932937,-39.979104 0.1824312,-39.758006 0.0891374,0.221097 0.32976903,0.293097 0.53473687,0.16 C 1.2722991,76.108896 17.712,75.928 37.6,75.84 L 73.76,75.68 73.92,38.56 74.08,1.44 h 4 4 l 0.16,37.12 0.16,37.12 36.09057,0.08137 c 28.45284,0.06415 36.12212,0.165734 36.23966,0.48 0.082,0.219245 0.18525,18.362637 0.22943,40.31865 l 0.0803,39.92002 -76.842678,-2e-5 -76.8426779,-2e-5 z M 73.76,136.48 V 121.12 H 41.44 9.12 l -0.083366,15.04 c -0.045851,8.272 -0.014106,15.22069 0.070545,15.44153 0.12232,0.31912 6.773133,0.3848 32.403365,0.32 L 73.76,151.84 Z m 72.64,0 v -15.36 h -32 -32 l -0.08337,15.04 c -0.04585,8.272 -0.01411,15.2207 0.07055,15.44155 0.122317,0.31911 6.709152,0.3848 32.08337,0.32 L 146.4,151.84 Z M 73.76,98.08 V 82.72 H 41.44 9.12 L 9.036634,97.76 c -0.045851,8.272 -0.014106,15.22069 0.070545,15.44153 0.12232,0.31912 6.773133,0.3848 32.403365,0.32 L 73.76,113.44 Z m 72.64,0 V 82.72 h -32 -32 l -0.08337,15.04 c -0.04585,8.272 -0.01411,15.2207 0.07055,15.44155 0.122317,0.31911 6.709152,0.3848 32.08337,0.32 L 146.4,113.44 Z"
       id="path296"
       inkscape:connector-curvature="0" />
    <path
       style="fill:#000000;stroke-width:0.31999999"
       d="M 1.3164424,156.08 C 1.3519163,155.86 1.2851803,155.464 1.1681402,155.2 1.0511001,154.936 0.99238851,137.08 1.03767,115.52 L 1.12,76.32 37.248874,76.238621 c 26.051763,-0.05868 36.249123,-0.181178 36.56,-0.439181 C 74.165818,75.503203 74.24,69.088768 74.24,38.520819 V 1.6 h 3.84 3.84 v 36.896 c 0,28.270221 0.08977,36.985773 0.384,37.28 0.294109,0.294109 8.796445,0.384 36.32,0.384 H 154.56 V 116 c 0,26.34667 0.10838,39.84 0.32,39.84 0.176,0 0.32,0.144 0.32,0.32 0,0.21245 -25.87134,0.32 -76.974029,0.32 -61.400287,0 -76.960977,-0.0809 -76.9095286,-0.4 z M 73.856,151.936 c 0.553008,-0.55301 0.553008,-30.35899 0,-30.912 -0.55703,-0.55703 -64.2749699,-0.55703 -64.832,0 -0.5530086,0.55301 -0.5530086,30.35899 0,30.912 0.5570301,0.55703 64.27497,0.55703 64.832,0 z m 72.64,0 c 0.55301,-0.55301 0.55301,-30.35899 0,-30.912 -0.557,-0.557 -63.635005,-0.557 -64.192,0 -0.553008,0.55301 -0.553008,30.35899 0,30.912 0.556995,0.557 63.635,0.557 64.192,0 z m -72.64,-38.4 c 0.553008,-0.55301 0.553008,-30.358992 0,-30.912 -0.55703,-0.55703 -64.2749699,-0.55703 -64.832,0 -0.5530086,0.553008 -0.5530086,30.35899 0,30.912 0.5570301,0.55703 64.27497,0.55703 64.832,0 z m 72.64,0 c 0.55301,-0.55301 0.55301,-30.358992 0,-30.912 -0.557,-0.556995 -63.635005,-0.556995 -64.192,0 -0.553008,0.553008 -0.553008,30.35899 0,30.912 0.556995,0.557 63.635,0.557 64.192,0 z M 0.47510419,115.84 c 0,-22.088 0.0381835,-31.124 0.0848522,-20.08 0.0466687,11.044 0.0466687,29.116 0,40.16 -0.0466687,11.044 -0.0848522,2.008 -0.0848522,-20.08 z"
       id="path294"
       inkscape:connector-curvature="0" />
  </g>
</svg>
