<?xml version="1.0" encoding="UTF-8" standalone="no"?>
<!-- Created with Inkscape (http://www.inkscape.org/) -->

<svg
   xmlns:dc="http://purl.org/dc/elements/1.1/"
   xmlns:cc="http://creativecommons.org/ns#"
   xmlns:rdf="http://www.w3.org/1999/02/22-rdf-syntax-ns#"
   xmlns:svg="http://www.w3.org/2000/svg"
   xmlns="http://www.w3.org/2000/svg"
   xmlns:sodipodi="http://sodipodi.sourceforge.net/DTD/sodipodi-0.dtd"
   xmlns:inkscape="http://www.inkscape.org/namespaces/inkscape"
   version="1.1"
   id="svg552"
   width="14"
   height="14"
   viewBox="0 0 14 14"
   sodipodi:docname="cairn14.svg"
   inkscape:version="0.92.3 (2405546, 2018-03-11)">
  <metadata
     id="metadata558">
    <rdf:RDF>
      <cc:Work
         rdf:about="">
        <dc:format>image/svg+xml</dc:format>
        <dc:type
           rdf:resource="http://purl.org/dc/dcmitype/StillImage" />
        <dc:title></dc:title>
      </cc:Work>
    </rdf:RDF>
  </metadata>
  <defs
     id="defs556" />
  <sodipodi:namedview
     pagecolor="#ffffff"
     bordercolor="#666666"
     borderopacity="1"
     objecttolerance="10"
     gridtolerance="10"
     guidetolerance="10"
     inkscape:pageopacity="0"
     inkscape:pageshadow="2"
     inkscape:window-width="1144"
     inkscape:window-height="821"
     id="namedview554"
     showgrid="false"
     inkscape:zoom="22.627417"
     inkscape:cx="10.511716"
     inkscape:cy="10.139086"
     inkscape:window-x="0"
     inkscape:window-y="0"
     inkscape:window-maximized="1"
     inkscape:current-layer="svg552" />
  <path
     style="fill:#000000;stroke-width:0.1353275"
     d="M 0.61695921,13.473263 C 0.04417206,12.833601 -0.03704667,12.566172 0.01770767,11.500106 0.05616412,10.751399 0.08932955,10.679253 0.50826947,10.433056 1.2926745,9.9720845 2.5314998,9.7868795 5.8522581,9.6341235 c 5.2799699,-0.242877 5.2205239,-0.246404 6.3849989,0.3786625 1.084333,0.582046 1.76605,1.400253 1.76605,2.119636 0,0.46903 -0.664866,1.258025 -1.362839,1.61728 -0.482713,0.248459 -0.834278,0.263851 -6.0261608,0.263851 H 1.1007657 Z M 4.003034,8.9154055 C 3.3055673,8.5503405 3.139331,8.2105265 3.2677205,7.4123005 c 0.1076937,-0.669557 0.5563653,-1.236733 1.1292251,-1.427479 0.3138371,-0.104499 1.4949815,-0.169969 3.2419616,-0.179698 2.7338388,-0.01522 2.7496078,-0.01363 3.0069528,0.305593 0.64565,0.800881 0.04432,1.893898 -1.4334015,2.605438 -0.8134729,0.391697 -0.990578,0.422656 -2.7214259,0.475727 -1.7589168,0.05394 -1.883107,0.04013 -2.4879986,-0.276476 z M 5.3494716,5.1701435 C 4.8249019,4.8907045 4.5340027,4.4583275 4.3776983,3.7257475 c -0.073289,-0.343497 -0.031058,-0.494773 0.204464,-0.732395 0.2880552,-0.290624 0.3541499,-0.296667 2.2354584,-0.204388 1.0662453,0.0523 2.1201395,0.158929 2.3419882,0.236955 0.9723681,0.341993 0.8861131,1.684176 -0.1427288,2.220955 C 8.4024244,5.5674555 6.001,5.5172115 5.3494716,5.1701435 Z m 1.1646661,-2.974682 c -0.616539,-0.148706 -0.7292437,-0.2552 -0.7292437,-0.689051 0,-0.60153797 0.2614253,-1.05098897 0.7463512,-1.28315397 0.9602931,-0.459753 1.9790555,-0.135966 2.2083466,0.701866 C 9.0341891,2.0015795 8.0468859,2.5651555 6.5141377,2.1954615 Z"
     id="path562"
     inkscape:connector-curvature="0" />
</svg>
