<?xml version="1.0" encoding="UTF-8" standalone="no"?>
<!-- Created with Inkscape (http://www.inkscape.org/) -->

<svg
   xmlns:dc="http://purl.org/dc/elements/1.1/"
   xmlns:cc="http://creativecommons.org/ns#"
   xmlns:rdf="http://www.w3.org/1999/02/22-rdf-syntax-ns#"
   xmlns:svg="http://www.w3.org/2000/svg"
   xmlns="http://www.w3.org/2000/svg"
   xmlns:sodipodi="http://sodipodi.sourceforge.net/DTD/sodipodi-0.dtd"
   xmlns:inkscape="http://www.inkscape.org/namespaces/inkscape"
   version="1.1"
   id="svg552"
   width="14"
   height="14"
   viewBox="0 0 33.599998 33.599998"
   sodipodi:docname="cairn.svg"
   inkscape:version="0.92.3 (2405546, 2018-03-11)">
  <metadata
     id="metadata558">
    <rdf:RDF>
      <cc:Work
         rdf:about="">
        <dc:format>image/svg+xml</dc:format>
        <dc:type
           rdf:resource="http://purl.org/dc/dcmitype/StillImage" />
        <dc:title></dc:title>
      </cc:Work>
    </rdf:RDF>
  </metadata>
  <defs
     id="defs556" />
  <sodipodi:namedview
     pagecolor="#ffffff"
     bordercolor="#666666"
     borderopacity="1"
     objecttolerance="10"
     gridtolerance="10"
     guidetolerance="10"
     inkscape:pageopacity="0"
     inkscape:pageshadow="2"
     inkscape:window-width="1144"
     inkscape:window-height="821"
     id="namedview554"
     showgrid="false"
     inkscape:zoom="6.9940479"
     inkscape:cx="29.43139"
     inkscape:cy="5.2314782"
     inkscape:window-x="0"
     inkscape:window-y="0"
     inkscape:window-maximized="0"
     inkscape:current-layer="svg552" />
  <path
     style="fill:#000000;stroke-width:0.32412785"
     d="M 1.4796268,32.325212 C 0.10161973,30.799922 -0.09377569,30.16223 0.03795189,27.620166 0.13047013,25.834851 0.21025927,25.662819 1.2181418,25.075753 3.1052576,23.976556 6.0856142,23.534929 14.07467,23.170679 c 12.702512,-0.579148 12.559497,-0.587556 15.360984,0.90293 2.608679,1.387904 4.248749,3.338941 4.248749,5.054333 0,1.118413 -1.599529,2.999794 -3.278708,3.856448 -1.161308,0.592458 -2.007101,0.629161 -14.497693,0.629161 H 2.6435648 Z M 9.6258204,21.456874 C 7.9478602,20.586366 7.54793,19.776069 7.8568086,17.872678 8.1158972,16.276101 9.1953078,14.923654 10.57349,14.468814 c 0.755027,-0.24918 3.596615,-0.405296 7.799487,-0.428496 6.577048,-0.03631 6.614986,-0.03249 7.234104,0.728697 1.5533,1.909723 0.106622,4.516052 -3.448466,6.212739 -1.957047,0.934014 -2.383125,1.007838 -6.547186,1.134388 -4.231589,0.128606 -4.530365,0.0957 -5.9856086,-0.659268 z M 12.86507,12.526191 c -1.262006,-0.666328 -1.961849,-1.697345 -2.337885,-3.4442043 -0.176318,-0.819077 -0.07472,-1.179801 0.491898,-1.746415 0.693001,-0.6930004 0.852011,-0.70741 5.378049,-0.4873698 2.565165,0.1247092 5.100616,0.3789724 5.634338,0.5650278 2.339316,0.8154904 2.131804,4.0159633 -0.343376,5.2959283 -1.478253,0.764435 -7.255582,0.644627 -8.823024,-0.182967 z M 15.667015,5.4329777 C 14.18375,5.0783819 13.912606,4.8244471 13.912606,3.7899161 c 0,-1.4343842 0.628935,-2.506113 1.795566,-3.05971621 2.310266,-1.09629352 4.761197,-0.32421392 5.312824,1.67361681 0.70874,2.5668434 -1.666507,3.9107048 -5.353981,3.029161 z"
     id="path562"
     inkscape:connector-curvature="0" />
</svg>
