<?xml version="1.0" encoding="UTF-8" standalone="no"?>
<!-- Created with Inkscape (http://www.inkscape.org/) -->

<svg
   xmlns:dc="http://purl.org/dc/elements/1.1/"
   xmlns:cc="http://creativecommons.org/ns#"
   xmlns:rdf="http://www.w3.org/1999/02/22-rdf-syntax-ns#"
   xmlns:svg="http://www.w3.org/2000/svg"
   xmlns="http://www.w3.org/2000/svg"
   xmlns:sodipodi="http://sodipodi.sourceforge.net/DTD/sodipodi-0.dtd"
   xmlns:inkscape="http://www.inkscape.org/namespaces/inkscape"
   version="1.1"
   id="svg114"
   width="41.279999"
   height="41.279999"
   viewBox="0 0 41.279999 41.279999"
   sodipodi:docname="chain.svg"
   inkscape:version="0.92.3 (2405546, 2018-03-11)">
  <metadata
     id="metadata120">
    <rdf:RDF>
      <cc:Work
         rdf:about="">
        <dc:format>image/svg+xml</dc:format>
        <dc:type
           rdf:resource="http://purl.org/dc/dcmitype/StillImage" />
        <dc:title></dc:title>
      </cc:Work>
    </rdf:RDF>
  </metadata>
  <defs
     id="defs118" />
  <sodipodi:namedview
     pagecolor="#ffffff"
     bordercolor="#666666"
     borderopacity="1"
     objecttolerance="10"
     gridtolerance="10"
     guidetolerance="10"
     inkscape:pageopacity="0"
     inkscape:pageshadow="2"
     inkscape:window-width="1600"
     inkscape:window-height="1110"
     id="namedview116"
     showgrid="false"
     inkscape:zoom="11.058624"
     inkscape:cx="25.093971"
     inkscape:cy="12.128282"
     inkscape:window-x="-4"
     inkscape:window-y="-4"
     inkscape:window-maximized="0"
     inkscape:current-layer="svg114" />
  <path
     style="fill:#000000;stroke-width:0.43953413"
     d="M 0.99307544,39.937389 C 0.74443146,39.060872 0.66525446,33.416552 0.73592646,21.605842 L 0.83803946,4.5407594 1.7343244,2.3250803 c 0.851222,-2.10428183 0.989926,-2.21567942 2.758752,-2.21567942 1.780037,0 1.896157,0.0953887 2.623714,2.15545032 0.418687,1.1854973 1.418294,2.7943485 2.221349,3.5752221 1.6216406,1.5768491 2.0951956,2.4554185 2.2673886,4.2066077 0.100528,1.022356 0.394547,1.190201 2.161135,1.233713 1.918622,0.04726 2.100631,0.176589 2.950091,2.096259 0.831567,1.879231 0.968,1.982601 1.67482,1.268931 0.761905,-0.769288 3.17795,-0.653651 4.545375,0.217551 0.509215,0.324428 0.742255,0.07469 1.025774,-1.099275 0.410411,-1.699387 2.321584,-2.98042 3.98352,-2.670099 0.8152,0.152213 1.080929,-0.132083 1.520459,-1.6267079 0.292938,-0.9961373 1.215575,-2.51544 2.050304,-3.3762292 0.834729,-0.8607893 1.892441,-2.5587505 2.35047,-3.7732469 0.794454,-2.10655499 0.918035,-2.20817612 2.685385,-2.20817612 1.757469,0 1.898634,0.1137827 2.748893,2.21567012 l 0.896285,2.2156715 0.09746,17.6058135 c 0.08201,14.814694 0.02378,17.721164 -0.367229,18.333402 -0.311526,0.487778 -1.503814,0.670387 -3.617455,0.554047 L 33.15804,40.860474 33.07192,27.427714 32.9858,13.99495 31.711922,13.90439 c -0.700634,-0.04981 -1.442161,-0.117723 -1.64784,-0.15093 -0.205678,-0.0332 -0.612057,0.75465 -0.903062,1.750787 -0.660518,2.261005 -2.256185,3.408767 -4.182645,3.008573 -1.267315,-0.263265 -1.551678,-0.103574 -2.157884,1.211768 -0.573294,1.243939 -0.987592,1.514996 -2.315611,1.514996 -1.326189,0 -1.754709,-0.279531 -2.380049,-1.552535 -0.673509,-1.371064 -0.926953,-1.506052 -2.168291,-1.154855 -1.801796,0.509757 -3.539834,-0.796782 -4.126877,-3.102308 -0.387824,-1.523122 -0.593966,-1.695106 -2.0316196,-1.694995 l -1.6,1.26e-4 -0.16,13.562723 -0.16,13.562726 -3.262851,0.171683 c -3.034598,0.159683 -3.287984,0.0831 -3.62211296,-1.09477 z M 21.638039,17.617267 c 0,-1.062321 -1.675078,-1.609142 -2.1551,-0.703522 -0.538051,1.015102 0.08327,1.988512 1.145132,1.794055 0.640845,-0.117372 1.009968,-0.515926 1.009968,-1.090533 z m -6.000506,-2.260234 c 0.152204,-0.862426 -1.418725,-2.167939 -2.054677,-1.707531 -0.651334,0.471542 -0.505726,1.52963 0.295184,2.145 0.909093,0.698493 1.588842,0.529483 1.759493,-0.437469 z M 27.674157,15.17705 c 0.524314,-0.898493 -0.164286,-1.893735 -1.031028,-1.490154 -1.050358,0.489077 -1.462635,1.210923 -1.181596,2.068828 0.221603,0.676467 1.706865,0.288025 2.212624,-0.578674 z M 10.27804,10.321957 c 0,-0.288865 -0.3673942,-0.9793673 -0.8164316,-1.5344512 -1.130237,-1.3971557 -1.755598,-0.2487282 -0.822827,1.5110612 0.625224,1.17956 1.6392586,1.194031 1.6392586,0.02339 z m 22.12455,0.09351 c 0.568953,-0.8770866 0.665145,-1.3380819 0.389657,-1.8673629 -0.277753,-0.5336366 -0.566563,-0.4545893 -1.2,0.3284392 -0.852957,1.0543956 -0.99757,1.5903457 -0.620874,2.3010277 0.337382,0.636515 0.622401,0.484746 1.431217,-0.762104 z"
     id="path124"
     inkscape:connector-curvature="0" />
</svg>
