<?xml version="1.0" encoding="UTF-8" standalone="no"?>
<!-- Created with Inkscape (http://www.inkscape.org/) -->

<svg
   xmlns:dc="http://purl.org/dc/elements/1.1/"
   xmlns:cc="http://creativecommons.org/ns#"
   xmlns:rdf="http://www.w3.org/1999/02/22-rdf-syntax-ns#"
   xmlns:svg="http://www.w3.org/2000/svg"
   xmlns="http://www.w3.org/2000/svg"
   xmlns:sodipodi="http://sodipodi.sourceforge.net/DTD/sodipodi-0.dtd"
   xmlns:inkscape="http://www.inkscape.org/namespaces/inkscape"
   version="1.1"
   id="svg644"
   width="131.84"
   height="131.84"
   viewBox="0 0 131.84 131.84"
   sodipodi:docname="drehkreuz.svg"
   inkscape:version="0.92.3 (2405546, 2018-03-11)">
  <metadata
     id="metadata650">
    <rdf:RDF>
      <cc:Work
         rdf:about="">
        <dc:format>image/svg+xml</dc:format>
        <dc:type
           rdf:resource="http://purl.org/dc/dcmitype/StillImage" />
        <dc:title></dc:title>
      </cc:Work>
    </rdf:RDF>
  </metadata>
  <defs
     id="defs648" />
  <sodipodi:namedview
     pagecolor="#ffffff"
     bordercolor="#666666"
     borderopacity="1"
     objecttolerance="10"
     gridtolerance="10"
     guidetolerance="10"
     inkscape:pageopacity="0"
     inkscape:pageshadow="2"
     inkscape:window-width="1920"
     inkscape:window-height="1137"
     id="namedview646"
     showgrid="false"
     inkscape:zoom="7.1601944"
     inkscape:cx="49.180408"
     inkscape:cy="48.128109"
     inkscape:window-x="-8"
     inkscape:window-y="-8"
     inkscape:window-maximized="1"
     inkscape:current-layer="svg644" />
  <path
     style="fill:#000000;stroke-width:0.32189095"
     d="m 27.260035,131.1879 c -1.562098,-0.73045 -2.819343,-2.27659 -3.30908,-4.06947 -0.244416,-0.89477 -0.352249,-12.14482 -0.353497,-36.876881 l -0.002,-35.589318 -3.943164,-0.376482 C 12.410379,53.584306 6.7617474,51.26461 1.2502404,46.718665 0.3789521,46.000023 0.34557603,45.894112 0.79031866,45.25915 1.0540681,44.882599 6.1912762,39.536191 12.206331,33.378246 18.221397,27.220302 27.767698,17.438116 33.420344,11.640055 39.07298,5.8419947 43.773845,1.0981974 43.866701,1.0982879 c 0.09285,8.05e-5 0.800513,0.7336699 1.572588,1.6301966 4.657782,5.4085826 7.306915,11.8517835 7.733652,18.8097175 l 0.197419,3.21891 37.017459,0.160945 c 28.153341,0.12241 37.180311,0.254355 37.697571,0.551007 1.73104,0.992813 3.33563,3.708505 3.34172,5.655735 0.003,0.944911 -0.94006,2.906122 -1.86615,3.881089 -1.84277,1.940016 0.80251,1.822134 -40.888146,1.822134 -42.720873,0 -39.06739,-0.213533 -39.195262,2.290837 l -0.06478,1.26794 9.060374,7.454129 c 4.983204,4.099763 11.015863,9.066631 13.405904,11.037479 2.390039,1.970859 7.677099,6.316798 11.749019,9.657654 21.730181,17.828776 21.701361,17.804392 22.391991,18.940053 0.80575,1.324953 1.09426,3.450801 0.65071,4.794767 -0.53218,1.612553 -2.68087,3.694654 -4.24837,4.116744 -2.844284,0.765879 -3.483314,0.429674 -11.068949,-5.823469 -2.301522,-1.897236 -6.357348,-5.233756 -9.012948,-7.414487 -2.6556,-2.180731 -7.297821,-5.999183 -10.316051,-8.485448 -3.01822,-2.486266 -8.160428,-6.714585 -11.427129,-9.396259 -3.26669,-2.681673 -9.042239,-7.42554 -12.834546,-10.541928 -4.329625,-3.557931 -7.160274,-5.666156 -7.607783,-5.666156 -0.391972,0 -1.45042,0.470766 -2.352117,1.046145 l -1.63944,1.046146 -0.007,37.834459 -0.007,37.834442 -0.724255,1.41758 c -1.11503,2.18245 -2.761965,3.32256 -4.994259,3.45734 -1.332669,0.0805 -2.214328,-0.0608 -3.170857,-0.50809 z"
     id="path654"
     inkscape:connector-curvature="0" />
</svg>
