<?xml version="1.0" encoding="UTF-8" standalone="no"?>
<!-- Created with Inkscape (http://www.inkscape.org/) -->

<svg
   xmlns:dc="http://purl.org/dc/elements/1.1/"
   xmlns:cc="http://creativecommons.org/ns#"
   xmlns:rdf="http://www.w3.org/1999/02/22-rdf-syntax-ns#"
   xmlns:svg="http://www.w3.org/2000/svg"
   xmlns="http://www.w3.org/2000/svg"
   xmlns:sodipodi="http://sodipodi.sourceforge.net/DTD/sodipodi-0.dtd"
   xmlns:inkscape="http://www.inkscape.org/namespaces/inkscape"
   version="1.1"
   id="svg664"
   width="131.84"
   height="131.84"
   viewBox="0 0 131.84 131.84"
   sodipodi:docname="drehkreuz.svg"
   inkscape:version="0.92.3 (2405546, 2018-03-11)">
  <metadata
     id="metadata670">
    <rdf:RDF>
      <cc:Work
         rdf:about="">
        <dc:format>image/svg+xml</dc:format>
        <dc:type
           rdf:resource="http://purl.org/dc/dcmitype/StillImage" />
        <dc:title></dc:title>
      </cc:Work>
    </rdf:RDF>
  </metadata>
  <defs
     id="defs668" />
  <sodipodi:namedview
     pagecolor="#ffffff"
     bordercolor="#666666"
     borderopacity="1"
     objecttolerance="10"
     gridtolerance="10"
     guidetolerance="10"
     inkscape:pageopacity="0"
     inkscape:pageshadow="2"
     inkscape:window-width="1484"
     inkscape:window-height="1110"
     id="namedview666"
     showgrid="false"
     inkscape:zoom="5.0415685"
     inkscape:cx="53.9359"
     inkscape:cy="62.263635"
     inkscape:window-x="0"
     inkscape:window-y="0"
     inkscape:window-maximized="0"
     inkscape:current-layer="svg664" />
  <path
     style="fill:#000000;stroke-width:0.31999999"
     d="m 37.975886,130.33496 c -0.81137,-0.40162 -1.7402,-1.22111 -2.24,-1.9763 l -0.85384,-1.29017 -0.16,-36.343144 -0.16,-36.34313 -4,-0.39196 c -7.05189,-0.691 -13.4411,-3.30171 -18.05507,-7.37751 l -1.18733,-1.04883 1.3812,-1.56046 c 0.75966,-0.85825 10.45066,-10.85882 21.53555,-22.223499 l 20.15435,-20.6630516 1.23456,1.192339 c 1.84323,1.7801941 4.87999,6.5583801 5.97846,9.4067926 1.29117,3.348119 1.8631,5.933405 2.15559,9.743801 l 0.24269,3.161747 27.89042,0.160001 27.890434,0.16 1.22958,0.98275 c 0.67626,0.54052 1.48135,1.47652 1.78907,2.08 0.67911,1.3318 0.73657,4.15201 0.10907,5.35314 -0.60613,1.16022 -2.06584,2.5068 -3.1694,2.92375 -0.6126,0.23146 -10.29122,0.34036 -30.248894,0.34036 -28.40822,0 -29.36467,0.0194 -29.86718,0.60629 -0.48827,0.57027 -0.44971,0.67152 0.64889,1.70385 0.6424,0.60365 3.25601,2.80882 5.80801,4.90037 6.02896,4.94119 12.35399,10.13561 17.84,14.65107 2.42,1.99187 7.712,6.33674 11.76,9.65525 10.448754,8.56581 10.737604,8.81663 11.391944,9.89261 1.4208,2.33633 1.03961,4.76264 -1.12462,7.15818 -1.45103,1.60612 -3.3347,2.17599 -5.44015,1.64584 -1.422764,-0.35826 -1.314994,-0.27247 -31.867174,-25.36484 -2.376,-1.9514 -7.056,-5.79501 -10.4,-8.54136 -3.344,-2.74636 -6.30634,-5.07663 -6.58297,-5.17839 -0.29781,-0.10955 -0.65739,0.0622 -0.88155,0.4212 -0.20822,0.33341 -1.16988,1.05279 -2.13703,1.59861 l -1.75845,0.99241 -0.007,37.64946 c -0.007,35.919504 -0.0342,37.708274 -0.59779,38.929454 -1.49276,3.23438 -5.15012,4.55318 -8.30134,2.99337 z"
     id="path674"
     inkscape:connector-curvature="0" />
</svg>
