<?xml version="1.0" encoding="UTF-8" standalone="no"?>
<!-- Created with Inkscape (http://www.inkscape.org/) -->

<svg
   xmlns:dc="http://purl.org/dc/elements/1.1/"
   xmlns:cc="http://creativecommons.org/ns#"
   xmlns:rdf="http://www.w3.org/1999/02/22-rdf-syntax-ns#"
   xmlns:svg="http://www.w3.org/2000/svg"
   xmlns="http://www.w3.org/2000/svg"
   xmlns:sodipodi="http://sodipodi.sourceforge.net/DTD/sodipodi-0.dtd"
   xmlns:inkscape="http://www.inkscape.org/namespaces/inkscape"
   version="1.1"
   id="svg740"
   width="107.84"
   height="107.84"
   viewBox="0 0 107.84 107.84"
   sodipodi:docname="full.svg"
   inkscape:version="0.92.3 (2405546, 2018-03-11)">
  <metadata
     id="metadata746">
    <rdf:RDF>
      <cc:Work
         rdf:about="">
        <dc:format>image/svg+xml</dc:format>
        <dc:type
           rdf:resource="http://purl.org/dc/dcmitype/StillImage" />
        <dc:title></dc:title>
      </cc:Work>
    </rdf:RDF>
  </metadata>
  <defs
     id="defs744" />
  <sodipodi:namedview
     pagecolor="#ffffff"
     bordercolor="#666666"
     borderopacity="1"
     objecttolerance="10"
     gridtolerance="10"
     guidetolerance="10"
     inkscape:pageopacity="0"
     inkscape:pageshadow="2"
     inkscape:window-width="1484"
     inkscape:window-height="1110"
     id="namedview742"
     showgrid="false"
     inkscape:zoom="4.3583088"
     inkscape:cx="54.115955"
     inkscape:cy="32.121815"
     inkscape:window-x="0"
     inkscape:window-y="0"
     inkscape:window-maximized="0"
     inkscape:current-layer="svg740" />
  <path
     style="fill:#000000;stroke-width:0.31999999"
     d="m 79.995511,105.17689 v -2.70246 l 1.52,-0.0975 1.52,-0.0975 0.0961,-22.079997 c 0.0529,-12.14407 0.005,-23.12407 -0.1073,-24.40007 l -0.2034,-2.32 h -23.3327 -23.3327 v -4.32 -4.32 h 23.31441 23.31442 l 0.20558,-1.966938 c 0.26003,-2.487795 0.26353,-33.4642324 0.004,-34.4330585 -0.16289,-0.607815 -0.41151,-0.72 -1.59563,-0.72 h -1.40268 v -3.36 -3.36 h 10.08 10.079999 v 3.36 3.36 h -1.433899 c -1.22488,0 -1.45791,0.104957 -1.5986,0.72 -0.0906,0.396 -0.0573,21.6719995 0.0739,47.2799965 l 0.2386,46.559997 1.52,0.0975 1.519999,0.0975 v 2.70246 2.70247 h -10.239999 -10.24 z m -72.9599976,-0.32 v -2.70246 l 1.52,-0.0975 1.5199996,-0.0975 0.09068,-46.239997 c 0.04987,-25.432067 0.0073,-46.7080665 -0.0945,-47.2800665 -0.1762708,-0.989979 -0.2537388,-1.04 -1.6106766,-1.04 h -1.4255 v -3.36 -3.35999995 h 10.0799996 10.08 v 3.35999995 3.36 h -1.405764 c -0.986675,0 -1.463669,0.150901 -1.6,0.506172 -0.10683,0.278395 -0.194236,3.0863945 -0.194236,6.2399995 v 5.733828 h 23.839998 23.84 v 4.32 4.32 h -23.8901 -23.890096 l 0.209033,5.04 c 0.114968,2.772 0.209513,12.347997 0.210099,21.279997 l 0.0011,16.24 h 23.519998 23.52 v 4.32 4.32 H 47.831361 24.30722 l 0.08415,11.12 0.08415,11.119997 1.52,0.0975 1.52,0.0975 v 2.70246 2.70247 H 17.275513 7.0355134 Z"
     id="path750"
     inkscape:connector-curvature="0" />
</svg>
