<?xml version="1.0" encoding="UTF-8" standalone="no"?>
<!-- Created with Inkscape (http://www.inkscape.org/) -->

<svg
   xmlns:dc="http://purl.org/dc/elements/1.1/"
   xmlns:cc="http://creativecommons.org/ns#"
   xmlns:rdf="http://www.w3.org/1999/02/22-rdf-syntax-ns#"
   xmlns:svg="http://www.w3.org/2000/svg"
   xmlns="http://www.w3.org/2000/svg"
   xmlns:sodipodi="http://sodipodi.sourceforge.net/DTD/sodipodi-0.dtd"
   xmlns:inkscape="http://www.inkscape.org/namespaces/inkscape"
   version="1.1"
   id="svg872"
   width="29.120001"
   height="29.120001"
   viewBox="0 0 29.120001 29.120001"
   sodipodi:docname="hampshire_gate.svg"
   inkscape:version="0.92.3 (2405546, 2018-03-11)">
  <metadata
     id="metadata878">
    <rdf:RDF>
      <cc:Work
         rdf:about="">
        <dc:format>image/svg+xml</dc:format>
        <dc:type
           rdf:resource="http://purl.org/dc/dcmitype/StillImage" />
        <dc:title></dc:title>
      </cc:Work>
    </rdf:RDF>
  </metadata>
  <defs
     id="defs876" />
  <sodipodi:namedview
     pagecolor="#ffffff"
     bordercolor="#666666"
     borderopacity="1"
     objecttolerance="10"
     gridtolerance="10"
     guidetolerance="10"
     inkscape:pageopacity="0"
     inkscape:pageshadow="2"
     inkscape:window-width="1920"
     inkscape:window-height="1137"
     id="namedview874"
     showgrid="false"
     inkscape:zoom="22.825562"
     inkscape:cx="25.595322"
     inkscape:cy="9.054442"
     inkscape:window-x="-8"
     inkscape:window-y="-8"
     inkscape:window-maximized="1"
     inkscape:current-layer="svg872" />
  <g
     id="g882"
     transform="translate(0.17524173,0.08762137)">

    <path
       style="fill:#000000;stroke-width:0.32000002"
       d="m 2.8800001,25.120001 v -4 h -1.12 c -1.09333342,0 -1.12000008,-0.03048 -1.12000008,-1.28 0,-1.249524 0.0266667,-1.28 1.12000008,-1.28 h 1.12 v -3.2 V 12.16 h -1.12 c -1.09333342,0 -1.12000008,-0.03048 -1.12000008,-1.28 0,-1.2495235 0.0266667,-1.2799997 1.12000008,-1.2799997 h 1.12 V 6.7487922 c 0,-2.6245924 0.081627,-2.9933233 1.0270052,-4.6392619 L 4.9340104,0.32147636 5.9797778,2.0007382 c 0.982489,1.5776514 1.0462048,1.8583688 1.0529949,4.639262 l 0.00723,2.9600001 H 10.08 13.12 V 6.7487922 c 0,-2.6245924 0.08163,-2.9933233 1.027006,-4.6392619 l 1.027005,-1.78805394 1.045767,1.67926184 c 0.982489,1.5776514 1.046205,1.8583688 1.052995,4.639262 l 0.0072,2.9600001 h 2.4 2.4 V 6.7487922 c 0,-2.6245924 0.08163,-2.9933233 1.027005,-4.6392619 L 24.133983,0.32147636 25.17975,2.0007382 c 0.982489,1.5776514 1.046205,1.8583688 1.052995,4.639262 l 0.0072,2.9600001 h 0.96 c 0.906667,0 0.96,0.071111 0.96,1.2799997 0,1.208889 -0.05333,1.28 -0.96,1.28 h -0.96 v 3.200001 3.2 h 0.96 c 0.906667,0 0.96,0.07111 0.96,1.28 0,1.208889 -0.05333,1.28 -0.96,1.28 h -0.96 v 4 4 h -2.08 -2.08 v -4 -4 h -2.4 -2.4 v 4 4 h -2.08 H 13.12 v -4 -4 H 10.08 7.0400002 v 4 4 h -2.08 -2.0800001 z M 13.12,15.360001 V 12.16 H 10.08 7.0400002 v 3.200001 3.2 H 10.08 13.12 Z m 8.960001,0 V 12.16 h -2.4 -2.4 v 3.200001 3.2 h 2.4 2.4 z"
       id="path884"
       inkscape:connector-curvature="0" />
  </g>
</svg>
