<?xml version="1.0" encoding="UTF-8" standalone="no"?>
<!-- Created with Inkscape (http://www.inkscape.org/) -->

<svg
   xmlns:dc="http://purl.org/dc/elements/1.1/"
   xmlns:cc="http://creativecommons.org/ns#"
   xmlns:rdf="http://www.w3.org/1999/02/22-rdf-syntax-ns#"
   xmlns:svg="http://www.w3.org/2000/svg"
   xmlns="http://www.w3.org/2000/svg"
   xmlns:sodipodi="http://sodipodi.sourceforge.net/DTD/sodipodi-0.dtd"
   xmlns:inkscape="http://www.inkscape.org/namespaces/inkscape"
   version="1.1"
   id="svg764"
   width="163.84"
   height="163.84"
   viewBox="0 0 163.84 163.84"
   sodipodi:docname="hampshire_gate.svg"
   inkscape:version="0.92.3 (2405546, 2018-03-11)">
  <metadata
     id="metadata770">
    <rdf:RDF>
      <cc:Work
         rdf:about="">
        <dc:format>image/svg+xml</dc:format>
        <dc:type
           rdf:resource="http://purl.org/dc/dcmitype/StillImage" />
        <dc:title></dc:title>
      </cc:Work>
    </rdf:RDF>
  </metadata>
  <defs
     id="defs768" />
  <sodipodi:namedview
     pagecolor="#ffffff"
     bordercolor="#666666"
     borderopacity="1"
     objecttolerance="10"
     gridtolerance="10"
     guidetolerance="10"
     inkscape:pageopacity="0"
     inkscape:pageshadow="2"
     inkscape:window-width="1920"
     inkscape:window-height="1137"
     id="namedview766"
     showgrid="false"
     inkscape:zoom="4.0741505"
     inkscape:cx="116.80485"
     inkscape:cy="103.79125"
     inkscape:window-x="-8"
     inkscape:window-y="-8"
     inkscape:window-maximized="1"
     inkscape:current-layer="svg764" />
  <path
     style="fill:#000000;stroke-width:0.31999999"
     d="m 14.824402,160.23341 -0.92839,-0.99384 v -15.47925 -15.47925 l -6.1599995,-0.0869 -6.16,-0.0869 v -4.48 -4.48 l 6.08,-0.16 6.0799995,-0.16 v -2.71051 -2.7105 l -5.2799995,0.0976 c -2.904,0.0537 -5.676,-0.002 -6.16,-0.12419 l -0.88,-0.22174 v -4.1184 -4.1184 l 6.16,-0.0869 6.1599995,-0.0869 0.0828,-17.193082 0.0828,-17.193099 -6.1627695,-0.0869 -6.16278,-0.0869 -0.0899,-3.92 -0.0899,-3.92 5.60985,-0.04 c 3.0854195,-0.022 5.7538495,-0.076 5.9298495,-0.12 0.176,-0.044 0.47006,-0.098 0.65346,-0.12 0.20803,-0.025 0.2983,-0.96333 0.24,-2.49464 l -0.0935,-2.45464 -5.7599995,0.0627 c -3.168,0.0345 -5.94435,-0.0601 -6.16967,-0.21022 -0.30678,-0.2044 -0.38715,-1.35175 -0.32,-4.56809 l 0.0897,-4.29514 6.16,-0.0869 6.1599995,-0.0869 v -14.86195 -14.86196 l 1.03825,-1.21113 c 6.05515,-7.0634601 9.993751,-11.3171001 10.625791,-11.4757301 0.41404,-0.10392 1.11579,0.003 1.55944,0.23783 0.44365,0.23472 3.10216,3.05385 5.90781,6.2647501 4.65207,5.32402 5.11911,5.96887 5.30494,7.32466 0.11207,0.81767 0.20377,7.58658 0.20377,15.04201 v 13.55534 h 6.205759 c 5.36365,0 6.23212,-0.0687 6.4,-0.50617 0.10683,-0.2784 0.19424,-7.01864 0.19424,-14.97833 v -14.47215 l 5.15521,-5.90168 c 2.83537,-3.2459201 5.51358,-6.0937101 5.95158,-6.3284301 0.438,-0.23472 1.13615,-0.34149 1.55145,-0.23725 0.44511,0.11171 2.61927,2.32309 5.2961,5.3867601 2.49755,2.85849 4.91555,5.60257 5.37333,6.09796 l 0.83233,0.90071 0.16,14.93929 0.16,14.93929 h 6.24 6.24 l 0.16,-14.90697 0.16,-14.90698 1.09844,-1.25302 c 7.93816,-9.0553401 9.78659,-11.0422601 10.420648,-11.2013901 0.40576,-0.10184 1.10074,0.007 1.54439,0.2416 0.44365,0.23472 3.12186,3.07638 5.95158,6.3148101 l 5.14494,5.88805 v 14.48578 c 0,7.96718 0.0874,14.71355 0.19424,14.99195 0.16788,0.43748 1.03635,0.50617 6.4,0.50617 4.73874,0 6.21132,-0.0946 6.22927,-0.4 0.0129,-0.22 0.008,-6.232 -0.0106,-13.36 -0.0187,-7.128 0.0578,-13.70382 0.16998,-14.61293 0.19497,-1.5793 0.43153,-1.91427 5.31068,-7.52 2.80865,-3.2268901 5.47179,-6.0591101 5.9181,-6.2938301 0.44631,-0.23472 1.15023,-0.34175 1.56426,-0.23783 0.63205,0.15863 4.57064,4.41227 10.6258,11.4757301 l 1.03824,1.21113 v 14.86196 14.86195 l 6.16,0.0869 6.16,0.0869 0.0897,4.29514 c 0.0671,3.21633 -0.0132,4.36369 -0.32,4.56809 -0.22532,0.15012 -3.00167,0.24469 -6.16967,0.21015 l -5.76,-0.0628 -0.0951,2.34651 c -0.0673,1.66057 0.0263,2.42349 0.32,2.60982 0.22829,0.14481 3.0475,0.2655 6.26492,0.2682 l 5.84985,0.005 -0.0899,3.92 -0.0898,3.92 -6.16278,0.0869 -6.16277,0.0869 0.0828,17.193069 0.0828,17.193092 6.16,0.0869 6.16,0.0869 v 4.1184 4.1184 l -0.88,0.22174 c -0.484,0.12196 -3.256,0.17785 -6.16,0.12419 l -5.28,-0.0976 v 2.7105 2.71051 l 6.08,0.16 6.08,0.16 v 4.48 4.48 l -6.16,0.0869 -6.16,0.0869 v 15.47925 15.47925 l -0.92839,0.99384 -0.92839,0.99392 h -10.37175 -10.37175 l -0.93987,-0.9807 -0.93987,-0.9807 -0.097,-15.4993 -0.097,-15.4993 h -6.18881 c -5.34818,0 -6.21518,0.0687 -6.38303,0.50617 -0.10684,0.2784 -0.19424,7.30746 -0.19424,15.62013 v 15.11396 l -0.89751,0.85987 -0.89743,0.85987 H 100.8174 c -6.315538,0 -10.395088,-0.12393 -10.775148,-0.32733 -1.39064,-0.74425 -1.41898,-1.05004 -1.5863,-17.11267 l -0.16,-15.36 h -6.24 -6.24 l -0.16,15.36 c -0.16732,16.06263 -0.19566,16.36842 -1.5863,17.11267 -0.38019,0.20347 -4.47159,0.32733 -10.81279,0.32733 h -10.20117 l -0.85676,-0.89426 -0.85675,-0.89426 -0.0831,-15.50574 -0.0831,-15.50574 -6.30301,-0.0867 -6.303019,-0.0867 -0.097,15.50602 -0.097,15.506 -0.93987,0.9807 -0.93987,0.98068 H 26.124473 15.752722 Z m 36.31737,-41.75233 c 0.23573,-0.61431 0.25859,-4.07366 0.0308,-4.66766 -0.12927,-0.33717 -1.44914,-0.41466 -6.32,-0.37104 l -6.156599,0.0551 -0.0925,2.74487 -0.0925,2.74487 h 6.218229 c 5.37501,0 6.24456,-0.0686 6.41246,-0.50617 z m 37.15424,-2.33104 v -2.67721 l -6.24,-9.6e-4 -6.24,-9.6e-4 -0.095,2.32823 c -0.0523,1.28053 -0.0196,2.52483 0.0726,2.76512 0.13527,0.35251 1.35862,0.42009 6.33503,0.34994 l 6.16738,-0.087 z m 37.212458,0.0923 -0.0925,-2.74487 -6.1566,-0.0551 c -4.87085,-0.0436 -6.19072,0.0339 -6.32,0.37104 -0.22775,0.594 -0.20489,4.05335 0.0309,4.66766 0.1679,0.43753 1.03745,0.50617 6.41246,0.50617 h 6.21822 l -0.0925,-2.74487 z M 51.007642,104.28289 c 0.223,-0.41669 0.30658,-6.137612 0.25126,-17.200002 l -0.0829,-16.575639 -6.32,-0.0868 -6.319999,-0.0868 -0.0374,3.60677 c -0.14868,14.319269 0.086,30.479551 0.446,30.708261 0.2153,0.13678 2.94238,0.25091 6.060189,0.2536 5.29662,0.005 5.69068,-0.0361 6.00289,-0.61946 z m 37.05123,0.35881 c 0.31724,-0.2014 0.38525,-3.85568 0.32,-17.195102 l -0.0829,-16.939349 h -6.24 -6.24 l -0.0829,16.939349 c -0.0652,13.339422 0.003,16.993702 0.32,17.195102 0.22157,0.14066 2.92286,0.25575 6.00286,0.25575 3.08,0 5.78129,-0.11509 6.00286,-0.25575 z m 37.108168,0.007 c 0.34882,-0.22163 0.50251,-12.038492 0.41805,-32.141761 l -0.009,-2.15969 h -6.20576 c -5.36365,0 -6.23212,0.0687 -6.4,0.50617 -0.10684,0.2784 -0.19424,7.8816 -0.19424,16.895999 0,12.320982 0.0953,16.485162 0.384,16.773832 0.4373,0.4373 11.33701,0.55146 12.00703,0.12576 z M 50.776012,61.967319 c 0.44564,-0.22488 0.56,-0.70119 0.56,-2.33244 0,-1.12742 -0.14689,-2.14064 -0.32643,-2.2516 -0.17953,-0.11096 -3.02353,-0.20215 -6.32,-0.20264 l -5.993569,-9.6e-4 -0.093,2.39779 c -0.0807,2.08017 -0.0171,2.41807 0.48,2.5509 1.01299,0.2707 11.113069,0.13154 11.692989,-0.16111 z m 36.69269,0.17739 1.0127,-0.20254 -0.0927,-2.38068 -0.0927,-2.38068 h -6.24 -6.24 l -0.093,2.39925 c -0.0884,2.28047 -0.0567,2.40621 0.64,2.53965 1.1822,0.22641 9.99945,0.24626 11.10572,0.025 z m 35.671628,-0.006 2.46087,-0.20802 -0.0926,-2.37573 -0.0926,-2.37574 -5.99357,9.6e-4 c -3.29647,6.4e-4 -6.14047,0.0917 -6.32,0.20264 -0.17954,0.11096 -0.32643,1.12209 -0.32643,2.24696 0,1.61024 0.1191,2.11458 0.56,2.37138 0.63694,0.37099 6.13123,0.44811 9.80432,0.13762 z"
     id="path774"
     inkscape:connector-curvature="0" />
</svg>
