<?xml version="1.0" encoding="UTF-8" standalone="no"?>
<!-- Created with Inkscape (http://www.inkscape.org/) -->

<svg
   xmlns:dc="http://purl.org/dc/elements/1.1/"
   xmlns:cc="http://creativecommons.org/ns#"
   xmlns:rdf="http://www.w3.org/1999/02/22-rdf-syntax-ns#"
   xmlns:svg="http://www.w3.org/2000/svg"
   xmlns="http://www.w3.org/2000/svg"
   xmlns:sodipodi="http://sodipodi.sourceforge.net/DTD/sodipodi-0.dtd"
   xmlns:inkscape="http://www.inkscape.org/namespaces/inkscape"
   version="1.1"
   id="svg612"
   width="266.23999"
   height="266.23999"
   viewBox="0 0 266.23999 266.23999"
   sodipodi:docname="kissing.svg"
   inkscape:version="0.92.3 (2405546, 2018-03-11)">
  <metadata
     id="metadata618">
    <rdf:RDF>
      <cc:Work
         rdf:about="">
        <dc:format>image/svg+xml</dc:format>
        <dc:type
           rdf:resource="http://purl.org/dc/dcmitype/StillImage" />
        <dc:title></dc:title>
      </cc:Work>
    </rdf:RDF>
  </metadata>
  <defs
     id="defs616" />
  <sodipodi:namedview
     pagecolor="#ffffff"
     bordercolor="#666666"
     borderopacity="1"
     objecttolerance="10"
     gridtolerance="10"
     guidetolerance="10"
     inkscape:pageopacity="0"
     inkscape:pageshadow="2"
     inkscape:window-width="1484"
     inkscape:window-height="1110"
     id="namedview614"
     showgrid="false"
     inkscape:zoom="1.248273"
     inkscape:cx="121.71585"
     inkscape:cy="163.48162"
     inkscape:window-x="0"
     inkscape:window-y="0"
     inkscape:window-maximized="0"
     inkscape:current-layer="svg612" />
  <path
     style="fill:#000000;stroke-width:0.31999999"
     d="m 167.5514,264.58317 c -30.37398,-1.62856 -55.99857,-6.59564 -74.080002,-14.35971 -13.19113,-5.66421 -22.08512,-13.11359 -25.21083,-21.11598 -1.58236,-4.05113 -1.50917,0.61331 -1.50917,-96.1742 0,-96.2412 -0.0549,-92.63252 1.46914,-96.48722 1.94651,-4.92312 6.97866,-10.60941 12.857,-14.5283 12.96375,-8.6425 34.323262,-15.2268303 60.762582,-18.7308203 10.46388,-1.38677 28.06729,-2.58331001 37.92384,-2.57776001 5.13749,0.003 5.66568,0.0583 7.14744,0.74979001 4.14964,1.93648 5.94202,6.69518 4.14588,11.0070903 -0.23827,0.572 -0.58813,1.04 -0.77747,1.04 -0.18934,0 -0.47342,0.33974 -0.6313,0.75499 -0.18452,0.48534 -0.63886,0.82536 -1.27208,0.952 -0.5833,0.11666 -0.98503,0.39603 -0.98503,0.68501 0,0.3072 -0.29639,0.488 -0.8,0.488 -0.44,0 -0.8,0.144 -0.8,0.32 0,0.19826 -1.73469,0.32077 -4.56,0.32203 -7.93922,0.004 -23.6219,0.99292 -33.36,2.10459 -30.75935,3.51139 -55.915492,12.07283 -63.196182,21.50767 -2.17831,2.82282 -1.5252,5.69895 2.02372,8.91198 9.26916,8.39185 31.458952,15.59444 58.452462,18.97311 10.76481,1.34738 24.55087,2.25394 34.4,2.2621 5.37028,0.004 5.86826,0.0556 7.36,0.75568 3.11292,1.46096 4.81082,4.08686 4.68321,7.24284 -0.0391,0.968 -0.14732,40.424 -0.24041,87.67999 -0.12788,64.91537 -0.0774,86.51798 0.20655,88.36607 0.32135,2.09173 0.29969,2.70786 -0.14956,4.25323 -0.65183,2.2422 -2.32748,4.17406 -4.49979,5.18779 -1.52445,0.7114 -1.90974,0.74458 -8.16,0.70273 -3.608,-0.0242 -8.648,-0.15587 -11.2,-0.2927 z m 7.36,-40.61712 c 0,-19.24156 -0.0835,-24.32043 -0.4,-24.32207 -0.22,-0.001 -3.208,-0.14641 -6.64,-0.32282 -29.74677,-1.52907 -52.23777,-5.6133 -70.587422,-12.81825 -3.81091,-1.49635 -10.22335,-4.55508 -12.64676,-6.0325 -0.5972,-0.36408 -1.20046,-0.6625 -1.34058,-0.66316 -0.14013,-6.4e-4 -0.21189,9.6108 -0.15947,21.3588 0.0728,16.32667 0.19045,21.57496 0.49909,22.2722 0.62366,1.40892 4.04581,4.79562 6.52995,6.46229 12.878452,8.6405 38.390462,15.22566 68.105192,17.57932 6.83689,0.54154 8.84557,0.65216 13.52,0.74453 l 3.12,0.0617 z m -0.20854,-37.68 c 0.11219,-1.188 0.20502,-11.39356 0.20627,-22.67902 l 0.002,-20.51903 -4.88,-0.21646 c -14.2926,-0.63397 -29.2684,-2.19969 -40.11497,-4.19402 -17.75475,-3.26456 -34.091322,-8.68715 -43.830722,-14.54878 -1.46461,-0.88148 -2.75543,-1.60268 -2.86847,-1.60268 -0.14342,0 0.008,40.06752 0.16299,43.27614 0.0217,0.44803 4.68656,3.94982 7.31242,5.48925 8.51757,4.99351 23.099972,9.80274 38.299022,12.63091 12.33213,2.29471 30.45566,4.18018 42.91373,4.4645 l 2.59373,0.0592 z m 6.4e-4,-57.40915 c 0.11434,-1.61104 0.2079,-11.67433 0.2079,-22.36287 V 87.08032 l -6.48,-0.2142 c -31.96426,-1.05657 -63.37786,-7.83351 -81.748802,-17.63589 -1.79784,-0.9593 -3.34584,-1.74417 -3.44,-1.74417 -0.23377,0 -0.21506,19.79056 0.0297,31.359996 l 0.19967,9.440004 1.74549,1.67681 c 6.03546,5.798 18.618712,11.32207 34.797472,15.27614 13.84621,3.384 25.56649,4.99553 46.25652,6.36025 0.792,0.0522 2.96644,0.12014 4.83209,0.15089 l 3.39207,0.0559 0.20792,-2.92916 z"
     id="path622"
     inkscape:connector-curvature="0" />
</svg>
