<?xml version="1.0" encoding="UTF-8" standalone="no"?>
<!-- Created with Inkscape (http://www.inkscape.org/) -->

<svg
   xmlns:dc="http://purl.org/dc/elements/1.1/"
   xmlns:cc="http://creativecommons.org/ns#"
   xmlns:rdf="http://www.w3.org/1999/02/22-rdf-syntax-ns#"
   xmlns:svg="http://www.w3.org/2000/svg"
   xmlns="http://www.w3.org/2000/svg"
   xmlns:sodipodi="http://sodipodi.sourceforge.net/DTD/sodipodi-0.dtd"
   xmlns:inkscape="http://www.inkscape.org/namespaces/inkscape"
   version="1.1"
   id="svg720"
   width="85.440002"
   height="85.440002"
   viewBox="0 0 85.440002 85.440002"
   sodipodi:docname="kissing.svg"
   inkscape:version="0.92.3 (2405546, 2018-03-11)">
  <metadata
     id="metadata726">
    <rdf:RDF>
      <cc:Work
         rdf:about="">
        <dc:format>image/svg+xml</dc:format>
        <dc:type
           rdf:resource="http://purl.org/dc/dcmitype/StillImage" />
        <dc:title></dc:title>
      </cc:Work>
    </rdf:RDF>
  </metadata>
  <defs
     id="defs724" />
  <sodipodi:namedview
     pagecolor="#ffffff"
     bordercolor="#666666"
     borderopacity="1"
     objecttolerance="10"
     gridtolerance="10"
     guidetolerance="10"
     inkscape:pageopacity="0"
     inkscape:pageshadow="2"
     inkscape:window-width="1484"
     inkscape:window-height="1110"
     id="namedview722"
     showgrid="false"
     inkscape:zoom="5.5009362"
     inkscape:cx="58.019214"
     inkscape:cy="33.846325"
     inkscape:window-x="0"
     inkscape:window-y="0"
     inkscape:window-maximized="0"
     inkscape:current-layer="svg720" />
  <path
     style="fill:#000000;stroke-width:0.31999999"
     d="m 42.451652,84.661636 c -6.34952,-0.98766 -11.98541,-2.64296 -15.9601,-4.68757 -3.32426,-1.71003 -7.1205,-5.31862 -7.50221,-7.13138 -0.14814,-0.70351 -0.26934,-14.59911 -0.26934,-30.87911 0,-33.9033454 -0.29283,-30.764081 3.13695,-33.6299354 4.22273,-3.528429 11.64032,-6.076019 21.50305,-7.38527299 4.28113,-0.568311 16.4645,-0.56047 19.91027,0.01281 3.62013,0.60229299 3.73758,0.71895599 3.87995,3.85391799 0.13868,3.053967 0.62234,2.862672 -5.24351,2.073914 -11.97889,-1.610754 -30.3065,1.599105 -35.39877,6.1996674 -1.54103,1.392221 -1.59507,2.355176 -0.20504,3.653654 4.01762,3.753018 15.49093,6.41887 29.20464,6.78577 4.71669,0.126191 4.79838,0.140687 5.52,0.979624 l 0.73246,0.851536 v 29.190955 c 0,25.902187 -0.0561,29.271077 -0.49815,29.902157 -0.4925,0.70315 -0.58576,0.71085 -8.24,0.68021 -4.82714,-0.0193 -8.80669,-0.19663 -10.5702,-0.47095 z m 11.94835,-13.21005 v -6.67198 l -3.92,-0.217037 c -8.70394,-0.481901 -17.82525,-2.423613 -22.72561,-4.837745 -1.24629,-0.613977 -2.34888,-1.032515 -2.45019,-0.93008 -0.10131,0.102432 -0.16218,2.708045 -0.13527,5.79025 l 0.0489,5.604012 1.07107,1.11049 c 2.32562,2.41125 9.13599,4.75137 17.06478,5.86368 5.55744,0.77964 6.20154,0.84554 8.88628,0.90919 l 2.16,0.0512 z m 0,-17.462541 v -7.174528 l -2,-0.170445 c -12.77488,-1.088694 -19.12968,-2.426624 -24.6576,-5.191382 -1.19768,-0.599012 -2.24168,-1.089114 -2.32,-1.089114 -0.0783,0 -0.1424,3.088672 -0.1424,6.863715 v 6.863716 l 1.04,0.780489 c 4.36468,3.275572 15.87648,6.068416 25.76,6.249559 l 2.32,0.04252 z m 0,-16.985469 c 0,-5.795691 -0.041,-6.24 -0.57604,-6.24 -1.86992,0 -9.64329,-0.739556 -12.22396,-1.162984 -5.83317,-0.957084 -11.92412,-2.693252 -15.07741,-4.29767 l -1.15741,-0.588899 -0.1281,1.984776 c -0.0704,1.091627 -0.0536,3.627254 0.0374,5.634727 l 0.16551,3.649951 1.4988,1.031366 c 4.72762,3.253184 14.73406,5.581123 26.5812,6.183955 l 0.88,0.04478 z"
     id="path730"
     inkscape:connector-curvature="0" />
</svg>
