<?xml version="1.0" encoding="UTF-8" standalone="no"?>
<!-- Created with Inkscape (http://www.inkscape.org/) -->

<svg
   xmlns:dc="http://purl.org/dc/elements/1.1/"
   xmlns:cc="http://creativecommons.org/ns#"
   xmlns:rdf="http://www.w3.org/1999/02/22-rdf-syntax-ns#"
   xmlns:svg="http://www.w3.org/2000/svg"
   xmlns="http://www.w3.org/2000/svg"
   xmlns:sodipodi="http://sodipodi.sourceforge.net/DTD/sodipodi-0.dtd"
   xmlns:inkscape="http://www.inkscape.org/namespaces/inkscape"
   version="1.1"
   id="svg632"
   width="266.23999"
   height="266.23999"
   viewBox="0 0 266.23999 266.23999"
   sodipodi:docname="kissing.svg"
   inkscape:export-filename="C:\Users\martin\Documents\kissing2.png"
   inkscape:export-xdpi="5"
   inkscape:export-ydpi="5"
   inkscape:version="0.92.3 (2405546, 2018-03-11)">
  <metadata
     id="metadata638">
    <rdf:RDF>
      <cc:Work
         rdf:about="">
        <dc:format>image/svg+xml</dc:format>
        <dc:type
           rdf:resource="http://purl.org/dc/dcmitype/StillImage" />
        <dc:title></dc:title>
      </cc:Work>
    </rdf:RDF>
  </metadata>
  <defs
     id="defs636" />
  <sodipodi:namedview
     pagecolor="#ffffff"
     bordercolor="#666666"
     borderopacity="1"
     objecttolerance="10"
     gridtolerance="10"
     guidetolerance="10"
     inkscape:pageopacity="0"
     inkscape:pageshadow="2"
     inkscape:window-width="1484"
     inkscape:window-height="1110"
     id="namedview634"
     showgrid="false"
     inkscape:zoom="1.7653246"
     inkscape:cx="174.51846"
     inkscape:cy="130.0701"
     inkscape:window-x="0"
     inkscape:window-y="0"
     inkscape:window-maximized="0"
     inkscape:current-layer="svg632" />
  <path
     style="fill:#000000;stroke-width:0.31999999"
     d="m 142.13428,264.73751 c -24.96382,-2.9849 -46.594543,-8.71315 -59.839983,-15.84685 -9.46858,-5.09956 -16.11804,-11.51775 -18.65083,-18.00217 -1.58236,-4.05113 -1.50917,0.61331 -1.50917,-96.1742 0,-96.241208 -0.055,-92.632518 1.46913,-96.487228 1.94651,-4.92312 6.97867,-10.6094 12.857,-14.52829 C 91.579997,13.619062 118.03316,6.3759214 149.543,3.6880214 c 16.20708,-1.38252 28.08462,-1.65434 35.95128,-0.82275 7.6741,0.81123 21.43734,2.88251 23.6,3.55165 0.51298,0.15872 0.56,0.81848 0.56,7.8565006 v 7.68323 l -4.24,-0.12605 c -2.45071,-0.0729 -6.52815,-0.49371 -9.66214,-0.99728 -7.72815,-1.24177 -16.08646,-2.12053 -20.17786,-2.12142 -6.94179,-10e-4 -23.10001,1.04926 -32.32,2.10178 -30.75935,3.5114 -55.915473,12.07283 -63.196163,21.50768 -2.17831,2.82281 -1.52521,5.69895 2.02372,8.91197 9.26915,8.39185 31.458933,15.59444 58.452443,18.97311 10.76481,1.34739 24.55087,2.25394 34.4,2.2621 5.37028,0.004 5.86826,0.0556 7.36,0.75569 3.11292,1.46096 4.81082,4.08686 4.68321,7.24283 -0.0391,0.968 -0.14732,40.424008 -0.24041,87.679998 -0.12788,64.91537 -0.0774,86.51798 0.20655,88.36607 0.47715,3.10581 -0.0979,5.4217 -1.81937,7.32716 l -1.14445,1.26677 -19.72276,-0.0413 c -10.84752,-0.0227 -20.80277,-0.17043 -22.12277,-0.32826 z m 28.16,-38.99045 c 0,-19.24156 -0.0835,-24.32043 -0.4,-24.32207 -0.22,-0.001 -3.208,-0.14641 -6.64,-0.32282 -29.74677,-1.52907 -52.23777,-5.6133 -70.587403,-12.81825 -3.81091,-1.49635 -10.22335,-4.55508 -12.64676,-6.0325 -0.5972,-0.36408 -1.20047,-0.6625 -1.34059,-0.66316 -0.14012,-6.4e-4 -0.21188,9.6108 -0.15946,21.3588 0.0729,16.32667 0.19045,21.57496 0.49909,22.2722 0.62366,1.40892 4.04581,4.79562 6.52994,6.46229 12.87845,8.6405 38.390453,15.22566 68.105183,17.57932 6.83689,0.54154 8.84557,0.65216 13.52,0.74453 l 3.12,0.0617 z m -0.20854,-37.68 c 0.11219,-1.188 0.20502,-11.39356 0.20627,-22.67902 l 0.002,-20.51903 -4.88,-0.21646 c -14.2926,-0.63397 -29.2684,-2.19969 -40.11497,-4.19402 -17.75475,-3.26456 -34.091313,-8.68715 -43.830703,-14.54878 -1.46462,-0.88148 -2.75543,-1.60268 -2.86848,-1.60268 -0.14342,0 0.007,40.06752 0.16299,43.27614 0.0217,0.44803 4.68656,3.94982 7.31243,5.48925 8.51756,4.99351 23.099953,9.80274 38.299013,12.63091 12.33212,2.29471 30.45566,4.18018 42.91372,4.4645 l 2.59373,0.0592 z m 6.4e-4,-57.40915 c 0.11434,-1.61104 0.2079,-11.67433 0.2079,-22.36287 V 88.861322 l -6.48,-0.21419 c -31.96426,-1.05657 -63.37784,-7.83352 -81.748783,-17.6359 -1.79784,-0.95929 -3.34584,-1.74417 -3.44,-1.74417 -0.23377,0 -0.21506,19.79056 0.0297,31.360008 l 0.19967,9.44 1.74548,1.67681 c 6.03547,5.798 18.61871,11.32207 34.797463,15.27614 13.84621,3.384 25.56649,4.99553 46.25652,6.36025 0.792,0.0522 2.96644,0.12014 4.83209,0.15089 l 3.39207,0.0559 0.20792,-2.92915 z"
     id="path642"
     inkscape:connector-curvature="0" />
</svg>
