<?xml version="1.0" encoding="UTF-8" standalone="no"?>
<!-- Created with Inkscape (http://www.inkscape.org/) -->

<svg
   xmlns:dc="http://purl.org/dc/elements/1.1/"
   xmlns:cc="http://creativecommons.org/ns#"
   xmlns:rdf="http://www.w3.org/1999/02/22-rdf-syntax-ns#"
   xmlns:svg="http://www.w3.org/2000/svg"
   xmlns="http://www.w3.org/2000/svg"
   xmlns:sodipodi="http://sodipodi.sourceforge.net/DTD/sodipodi-0.dtd"
   xmlns:inkscape="http://www.inkscape.org/namespaces/inkscape"
   version="1.1"
   id="svg720"
   width="85.440002"
   height="85.440002"
   viewBox="0 0 85.440002 85.440002"
   sodipodi:docname="kissing.svg"
   inkscape:version="0.92.3 (2405546, 2018-03-11)"
   inkscape:export-filename="C:\Users\martin\Documents\kissing2.png"
   inkscape:export-xdpi="15.730336"
   inkscape:export-ydpi="15.730336">
  <metadata
     id="metadata726">
    <rdf:RDF>
      <cc:Work
         rdf:about="">
        <dc:format>image/svg+xml</dc:format>
        <dc:type
           rdf:resource="http://purl.org/dc/dcmitype/StillImage" />
        <dc:title></dc:title>
      </cc:Work>
    </rdf:RDF>
  </metadata>
  <defs
     id="defs724" />
  <sodipodi:namedview
     pagecolor="#ffffff"
     bordercolor="#666666"
     borderopacity="1"
     objecttolerance="10"
     gridtolerance="10"
     guidetolerance="10"
     inkscape:pageopacity="0"
     inkscape:pageshadow="2"
     inkscape:window-width="1484"
     inkscape:window-height="1110"
     id="namedview722"
     showgrid="false"
     inkscape:zoom="5.5009362"
     inkscape:cx="18.298702"
     inkscape:cy="33.846325"
     inkscape:window-x="0"
     inkscape:window-y="0"
     inkscape:window-maximized="0"
     inkscape:current-layer="svg720" />
  <path
     style="fill:#000000;stroke-width:0.40526938"
     d="M 41.863828,84.481911 C 31.635642,83.498495 22.557014,81.850307 16.154345,79.814483 10.799427,78.1118 4.6842172,74.518716 4.0693352,72.713745 3.8307029,72.013258 3.6354664,58.177364 3.6354664,41.967316 3.6354664,8.2096474 3.1637579,11.335423 8.6886519,8.4818826 15.490879,4.9686146 27.439579,2.4319711 43.327052,1.1283427 50.223353,0.56247369 69.849054,0.570281 75.399708,1.1410977 c 5.831522,0.599705 6.020718,0.7158668 6.250055,3.8373584 0.223394,3.0408447 1.002503,2.8503717 -8.446559,2.0650028 C 53.90689,5.439626 24.383679,8.6356929 16.180745,13.216487 c -2.482382,1.386239 -2.569434,2.345057 -0.330289,3.637955 6.471822,3.736892 24.953716,6.39129 47.044581,6.756613 7.597927,0.125649 7.729518,0.140083 8.891947,0.975415 l 1.17989,0.847877 v 29.065527 c 0,25.79089 -0.09037,29.145305 -0.80245,29.773673 -0.793349,0.700129 -0.943578,0.707796 -13.273485,0.677288 -7.775845,-0.01922 -14.186343,-0.195786 -17.027111,-0.468927 z M 61.110945,71.328622 V 64.68531 l -6.31457,-0.216104 c -14.020827,-0.47983 -28.713979,-2.413199 -36.607772,-4.816958 -2.007599,-0.611339 -3.783717,-1.028079 -3.946914,-0.926084 -0.163195,0.101992 -0.261249,2.696409 -0.217901,5.765371 l 0.07877,5.579932 1.725344,1.105719 c 3.746247,2.400889 14.7168,4.730954 27.488969,5.838485 8.952256,0.77629 9.989811,0.841906 14.314551,0.905283 l 3.479457,0.05098 z m 0,-17.387508 v -7.1437 L 57.889227,46.627701 C 37.310684,45.543685 27.073993,44.211504 18.169288,41.458626 c -1.929295,-0.596439 -3.611033,-1.084435 -3.737195,-1.084435 -0.126131,0 -0.229386,3.075401 -0.229386,6.834223 v 6.834224 l 1.675295,0.777136 c 7.030886,3.261497 25.574783,6.042341 41.495749,6.222705 l 3.737194,0.04234 z m 0,-16.912485 c 0,-5.770788 -0.06604,-6.213188 -0.927919,-6.213188 -3.012179,0 -15.533988,-0.736379 -19.691086,-1.157987 -9.396419,-0.952972 -19.208086,-2.68168 -24.287594,-4.279204 l -1.864427,-0.586369 -0.206351,1.976248 c -0.113408,1.086937 -0.08634,3.611669 0.06026,5.610516 l 0.266614,3.634268 2.414356,1.026934 c 7.615534,3.239206 23.734506,5.557142 42.818588,6.157384 l 1.417557,0.04459 z"
     id="path730"
     inkscape:connector-curvature="0" />
</svg>
