<?xml version="1.0" encoding="UTF-8" standalone="no"?>
<!-- Created with Inkscape (http://www.inkscape.org/) -->

<svg
   xmlns:dc="http://purl.org/dc/elements/1.1/"
   xmlns:cc="http://creativecommons.org/ns#"
   xmlns:rdf="http://www.w3.org/1999/02/22-rdf-syntax-ns#"
   xmlns:svg="http://www.w3.org/2000/svg"
   xmlns="http://www.w3.org/2000/svg"
   xmlns:sodipodi="http://sodipodi.sourceforge.net/DTD/sodipodi-0.dtd"
   xmlns:inkscape="http://www.inkscape.org/namespaces/inkscape"
   version="1.1"
   id="svg798"
   width="163.84"
   height="163.84"
   viewBox="0 0 163.84 163.84"
   sodipodi:docname="log2.svg"
   inkscape:version="0.92.3 (2405546, 2018-03-11)">
  <metadata
     id="metadata804">
    <rdf:RDF>
      <cc:Work
         rdf:about="">
        <dc:format>image/svg+xml</dc:format>
        <dc:type
           rdf:resource="http://purl.org/dc/dcmitype/StillImage" />
        <dc:title></dc:title>
      </cc:Work>
    </rdf:RDF>
  </metadata>
  <defs
     id="defs802" />
  <sodipodi:namedview
     pagecolor="#ffffff"
     bordercolor="#666666"
     borderopacity="1"
     objecttolerance="10"
     gridtolerance="10"
     guidetolerance="10"
     inkscape:pageopacity="0"
     inkscape:pageshadow="2"
     inkscape:window-width="1920"
     inkscape:window-height="1137"
     id="namedview800"
     showgrid="false"
     inkscape:zoom="2.8808594"
     inkscape:cx="99.330777"
     inkscape:cy="80.397572"
     inkscape:window-x="-8"
     inkscape:window-y="-8"
     inkscape:window-maximized="1"
     inkscape:current-layer="svg798" />
  <g
     id="g808"
     transform="translate(0.34712229,0.69423911)">
    <path
       style="fill:#fefefe;stroke-width:0.31999999"
       d="M 0,81.92 V 0 h 81.92 81.92 v 81.92 81.92 H 81.92 0 Z"
       id="path824"
       inkscape:connector-curvature="0" />
    <path
       style="fill:#000000;stroke-width:0.31999999"
       d="M 16.592046,136.71355 C 9.9934032,134.00473 4.618097,125.42736 1.6057886,112.8 0.60442512,108.60236 0.16324849,102.68143 0.16324849,93.44 c 0,-10.069491 0.44789922,-15.259008 1.76445181,-20.443562 C 4.8941923,61.314464 9.8419776,53.382029 16,50.435315 L 18.08,49.44 49.182653,49.35091 80.285306,49.26182 86.062653,40.02773 C 89.240192,34.948979 91.84,30.629852 91.84,30.429669 c 0,-0.200183 0.606726,-1.022189 1.348282,-1.82668 4.818496,-5.227452 17.505288,-6.384849 25.579208,-2.333553 1.90363,0.955197 3.15251,2.223383 3.15251,3.201253 0,0.321409 0.30099,0.864794 0.66886,1.207522 0.74523,0.694278 0.99562,2.083267 2.23871,12.418439 l 0.7381,6.136646 10.09717,0.103354 10.09716,0.10335 2.08,0.995315 c 6.14914,2.942464 11.26093,11.137648 14.10012,22.605197 1.26457,5.107654 1.72563,10.448275 1.73349,20.079488 0.008,10.06909 -0.32954,14.55192 -1.47593,19.58958 -2.70206,11.87381 -8.03914,20.76127 -14.32092,23.84764 L 146.08,137.44 82.4,137.5136 18.72,137.5871 Z"
       id="path822"
       inkscape:connector-curvature="0" />
    <path
       style="fill:#000000;stroke-width:0.31999999"
       d="m 16.875658,136.50844 c -3.19075,-1.31572 -5.070864,-2.86252 -7.5583006,-6.21833 C 3.330928,122.2138 0.0075823,109.05928 0.0075823,93.44 c 0,-12.95464 2.1499705,-23.71041 6.3891121,-31.963146 C 9.3153834,55.794765 12.181332,52.59657 16,50.760237 L 18.08,49.76 l 31.2,-0.16 31.2,-0.16 5.02264,-8 c 2.762454,-4.4 5.481725,-8.864 6.042829,-9.92 1.902701,-3.580909 4.130038,-5.191851 9.158791,-6.624179 2.05401,-0.585037 3.26036,-0.706272 6.81574,-0.68496 4.82245,0.02891 7.8552,0.660062 11.13574,2.317487 2.15806,1.090319 2.7944,1.741949 3.09882,3.173274 0.12419,0.583893 0.41708,1.135026 0.65087,1.224742 0.65639,0.25188 0.72423,0.595196 1.74896,8.851217 0.52854,4.258329 1.03915,8.20296 1.13469,8.765846 l 0.1737,1.023427 10.14861,0.09657 10.14861,0.09657 2.08,1.000237 c 1.144,0.550128 2.70242,1.542269 3.46315,2.204752 3.92993,3.422377 7.97449,10.951254 10.0108,18.634925 2.3643,8.921321 3.10694,20.438902 2.05268,31.835082 -1.49302,16.13905 -7.87858,29.34133 -16.00663,33.09403 -1.22928,0.56755 -3.8034,0.59392 -64.96,0.66545 l -63.68,0.0745 z"
       id="path820"
       inkscape:connector-curvature="0" />
    <path
       style="fill:#000000;stroke-width:0.31999999"
       d="m 21.12,136.9515 c -3.228736,-0.14784 -3.892578,-0.27936 -5.413544,-1.07253 C 6.4011437,131.02637 0.01264508,113.75069 0.01264508,93.44 0.01264508,80.88865 2.2225608,70.089658 6.5667008,61.412896 8.962248,56.628157 12.360418,52.75385 15.706456,50.992525 L 17.44,50.08 48.864118,49.92 c 20.327028,-0.103498 31.529856,-0.273005 31.723543,-0.48 0.585027,-0.625235 11.486966,-18.266898 11.696729,-18.927806 0.39074,-1.231111 2.523216,-3.065492 4.812631,-4.139884 3.463919,-1.62557 6.859829,-2.182996 11.691829,-1.919172 4.53238,0.247465 6.9941,0.785425 9.58556,2.094733 2.04746,1.034455 2.66797,1.65437 3.17886,3.175815 0.20014,0.596028 0.59896,1.255572 0.88627,1.465654 0.40764,0.298073 0.75914,2.274023 1.60038,8.996314 0.59291,4.737892 1.20196,8.830346 1.35345,9.094346 0.23284,0.40575 1.87885,0.504749 10.64104,0.64 l 10.36559,0.16 1.73355,0.912525 c 4.47343,2.354781 8.33776,7.629229 11.40128,15.561705 3.67404,9.5133 5.12351,23.39321 3.81386,36.52094 -0.82715,8.29119 -2.5642,14.91412 -5.58772,21.30451 -3.11173,6.57684 -6.92687,10.73267 -11.10845,12.10039 -1.49346,0.48849 -6.61934,0.53717 -61.7406,0.58632 C 51.850365,137.09588 23.144,137.04417 21.12,136.9515 Z"
       id="path818"
       inkscape:connector-curvature="0" />
    <path
       style="fill:#000000;stroke-width:0.31999999"
       d="M 17.92,136.66076 C 9.7071203,134.15346 3.2885846,122.36277 0.7500577,105.12 -0.03971733,99.755507 -0.0417587,87.14872 0.7462751,81.76 1.9082786,73.814006 3.9676259,66.844214 6.7659814,61.386506 9.5398973,55.976464 12.257943,52.915363 16.000094,50.986928 L 17.76,50.08 48.997264,49.992419 c 29.122,-0.08165 31.269987,-0.124985 31.720518,-0.64 0.697184,-0.796963 10.731114,-16.916429 11.616109,-18.661225 2.284503,-4.503975 9.565349,-6.959571 18.078949,-6.097448 5.8438,0.591769 10.3797,2.598639 10.95343,4.846254 0.15724,0.616 0.56603,1.421405 0.90842,1.78979 0.51559,0.554724 0.81211,2.172364 1.72606,9.416136 0.60694,4.810493 1.21631,8.859133 1.35416,8.996983 0.13785,0.137849 4.78538,0.292585 10.32786,0.343862 L 145.76,50.08 l 2.1284,1.0084 c 5.87648,2.784176 10.88292,11.134368 13.68893,22.8316 1.66453,6.938781 2.07795,10.822426 2.07795,19.52 0,8.69757 -0.41342,12.58122 -2.07795,19.52 -1.2115,5.05032 -2.4792,8.54162 -4.6477,12.8 -2.04223,4.01042 -4.31329,6.9076 -6.91766,8.82483 -3.50259,2.57846 2.31067,2.37843 -68.23005,2.34767 C 47.097862,136.91737 18.36,136.79508 17.92,136.66076 Z"
       id="path816"
       inkscape:connector-curvature="0" />
    <path
       style="fill:#000000;stroke-width:0.31999999"
       d="M 17.57086,136.35316 C 9.5452515,133.78541 3.4157162,122.16967 0.7516367,104.48 -0.12241483,98.676237 -0.0439641,87.439171 0.91248874,81.44 3.5753363,64.737786 9.3443869,53.713133 17.036485,50.627046 18.280099,50.128106 21.140969,50.06593 49.57032,49.92 l 31.170323,-0.16 5.406339,-8.64 c 2.973485,-4.752 5.847773,-9.462125 6.387306,-10.466945 1.712762,-3.189843 5.779456,-5.246807 11.869242,-6.003552 7.16562,-0.890433 16.09997,1.768357 16.94873,5.0438 0.14984,0.578268 0.55488,1.333839 0.90009,1.679046 0.34521,0.345208 0.62765,0.849792 0.62765,1.121296 0,0.688077 1.89511,15.823945 2.09175,16.706355 l 0.16044,0.72 9.35391,0.0078 c 5.14464,0.0043 9.97186,0.150368 10.72715,0.324589 7.00991,1.616969 13.09934,10.403273 16.18126,23.347587 1.74081,7.311574 2.25349,11.76969 2.26316,19.68 0.01,7.855404 -0.37507,11.561714 -1.92635,18.560004 -2.45507,11.07562 -7.12345,19.67844 -12.57803,23.17863 -3.21426,2.06259 0.98004,1.9431 -67.540522,1.92416 -58.895784,-0.0163 -62.349247,-0.0481 -64.041908,-0.58964 z"
       id="path814"
       inkscape:connector-curvature="0" />
    <path
       style="fill:#000000;stroke-width:0.31999999"
       d="M 17.004067,135.99965 C 8.3686464,132.89328 1.7735442,117.92428 0.26202972,98 -0.62139814,86.35495 2.0912617,71.316173 6.770056,61.92 9.4671162,56.503638 12.360155,53.187837 16.067213,51.264237 L 17.732725,50.4 49.159814,50.24 c 17.2849,-0.088 31.496868,-0.232 31.582148,-0.32 0.391686,-0.40417 11.251507,-17.923882 11.901369,-19.2 1.256477,-2.467316 3.490621,-3.974375 7.676669,-5.178363 3.5673,-1.026023 10.57125,-1.006759 14.43129,0.03969 3.56367,0.966108 5.92586,2.417093 6.29683,3.867855 0.15622,0.610949 0.57526,1.424012 0.93119,1.806808 0.54704,0.588334 0.81714,2.045742 1.74615,9.42195 0.60445,4.799277 1.24905,8.906749 1.43243,9.127716 0.25173,0.303308 2.85602,0.425353 10.62777,0.498051 L 146.08,50.4 l 1.68622,0.869917 c 3.71005,1.914009 6.59545,5.2144 9.31095,10.650083 4.65902,9.326077 7.38336,24.44641 6.5008,36.08 -1.305,17.20209 -6.40793,30.85936 -13.53101,36.21388 -3.50694,2.63622 2.39357,2.42751 -68.26504,2.41457 -61.465742,-0.0113 -63.105352,-0.0272 -64.777853,-0.6288 z"
       id="path812"
       inkscape:connector-curvature="0" />
    <path
       style="fill:#000000;stroke-width:0.31999999"
       d="M 16.690106,135.59017 C 11.737778,133.53332 7.1962506,127.10834 4.1881222,117.90338 2.7756467,113.58117 1.4192657,107.09035 1.0810456,103.0348 0.94881613,101.44925 0.76758237,100.59629 0.6401257,100.95964 0.52110125,101.29895 0.33721597,99.745843 0.23149172,97.508288 0.01815,92.993104 0.30159396,84.95528 0.6401257,85.920358 0.76758237,86.283709 0.94881613,85.430746 1.0810456,83.8452 1.6122348,77.475782 3.9545907,68.453027 6.5163341,62.90847 9.0816816,57.356112 13.328623,52.526291 16.781552,51.234384 c 1.78642,-0.668384 2.073525,-0.674422 32.270451,-0.678752 16.757399,-0.0026 30.795904,-0.09222 31.196679,-0.199594 0.530678,-0.142176 2.276035,-2.684358 6.42319,-9.355632 C 89.803853,35.962182 92.71783,31.192 93.147382,30.4 c 0.992788,-1.830496 3.084474,-3.246397 6.481687,-4.387575 2.454011,-0.824341 2.928271,-0.874701 7.890931,-0.837904 4.68302,0.03472 5.55889,0.129029 7.74667,0.834093 3.71124,1.196041 5.29913,2.230438 5.5602,3.622094 0.11758,0.62672 0.50915,1.414672 0.87015,1.751003 0.56481,0.526194 0.80338,1.761617 1.71001,8.8549 0.57949,4.533863 1.05797,8.485104 1.0633,8.780531 0.005,0.295431 0.23595,0.763431 0.51253,1.04 0.43543,0.43544 1.82817,0.502858 10.38799,0.502858 9.26963,0 9.99737,0.04199 11.6876,0.674384 3.17085,1.186368 7.35503,5.737402 9.82424,10.685616 2.78784,5.58673 5.29414,14.945059 5.87824,21.948925 0.1313,1.574384 0.31126,2.415433 0.43895,2.051433 0.11902,-0.339312 0.3029,1.213799 0.40863,3.451354 0.21334,4.515184 -0.0701,12.553008 -0.40863,11.587928 -0.12746,-0.36335 -0.3087,0.48961 -0.44093,2.07516 -0.33822,4.05555 -1.6946,10.54637 -3.10707,14.86858 -3.0429,9.31134 -7.77583,15.93643 -12.70388,17.78272 -1.66604,0.62417 -2.66559,0.63375 -65.120003,0.62407 L 18.4,136.30034 Z"
       id="path810"
       inkscape:connector-curvature="0" />
  </g>
</svg>
