<!DOCTYPE svg PUBLIC "-//W3C//DTD SVG 20010904//EN" "http://www.w3.org/TR/2001/REC-SVG-20010904/DTD/svg10.dtd">
<svg version="1.0" xmlns="http://www.w3.org/2000/svg" width="250px" height="642px" viewBox="0 0 2500 6420" preserveAspectRatio="xMidYMid meet">
<g id="layer101" fill="#010101" stroke="none">
 <path d="M0 3210 l0 -3210 1250 0 1250 0 0 3210 0 3210 -1250 0 -1250 0 0 -3210z"/>
 </g>
<g id="layer102" fill="#ffffff" stroke="none">
 <path d="M0 3210 l0 -3210 1250 0 1250 0 0 3210 0 3210 -1250 0 -1250 0 0 -3210z m1660 3114 c343 -43 533 -121 590 -239 30 -63 22 -89 -53 -157 l-62 -57 -2 -588 c-2 -323 -6 -1375 -11 -2338 -4 -962 -5 -1859 -2 -1993 l5 -244 36 -31 c20 -18 48 -40 63 -50 59 -41 59 -161 -1 -227 -61 -68 -329 -182 -513 -219 -225 -45 -844 -39 -1034 10 -230 58 -386 159 -386 249 0 34 50 110 88 132 28 17 30 21 36 110 3 51 9 1212 12 2581 l7 2487 -61 64 c-34 35 -66 76 -72 91 -29 75 4 168 78 219 88 60 347 154 528 191 181 36 510 41 754 9z"/>
 <path d="M1290 6254 c-303 -16 -607 -79 -753 -157 -71 -37 -132 -106 -123 -139 3 -13 31 -56 62 -97 l57 -75 -6 -2505 c-4 -1378 -10 -2559 -13 -2623 l-7 -118 -41 -32 c-23 -17 -51 -44 -64 -59 l-22 -27 50 -37 c61 -45 148 -76 306 -111 307 -66 528 -70 870 -13 296 49 480 125 530 221 19 37 3 75 -61 146 l-47 52 5 2603 c3 1431 9 2616 14 2633 5 21 28 48 67 80 l59 48 -39 34 c-85 74 -184 107 -444 146 -175 27 -294 35 -400 30z"/>
 </g>

</svg>