<?xml version="1.0" encoding="UTF-8" standalone="no"?>
<!-- Created with Inkscape (http://www.inkscape.org/) -->

<svg
   xmlns:dc="http://purl.org/dc/elements/1.1/"
   xmlns:cc="http://creativecommons.org/ns#"
   xmlns:rdf="http://www.w3.org/1999/02/22-rdf-syntax-ns#"
   xmlns:svg="http://www.w3.org/2000/svg"
   xmlns="http://www.w3.org/2000/svg"
   xmlns:sodipodi="http://sodipodi.sourceforge.net/DTD/sodipodi-0.dtd"
   xmlns:inkscape="http://www.inkscape.org/namespaces/inkscape"
   version="1.1"
   id="svg33"
   width="14"
   height="14"
   viewBox="0 0 14 14"
   sodipodi:docname="mill6.svg"
   inkscape:version="0.92.3 (2405546, 2018-03-11)">
  <metadata
     id="metadata39">
    <rdf:RDF>
      <cc:Work
         rdf:about="">
        <dc:format>image/svg+xml</dc:format>
        <dc:type
           rdf:resource="http://purl.org/dc/dcmitype/StillImage" />
        <dc:title></dc:title>
      </cc:Work>
    </rdf:RDF>
  </metadata>
  <defs
     id="defs37" />
  <sodipodi:namedview
     pagecolor="#ffffff"
     bordercolor="#666666"
     borderopacity="1"
     objecttolerance="10"
     gridtolerance="10"
     guidetolerance="10"
     inkscape:pageopacity="0"
     inkscape:pageshadow="2"
     inkscape:window-width="1920"
     inkscape:window-height="1137"
     id="namedview35"
     showgrid="false"
     inkscape:zoom="8.1711064"
     inkscape:cx="60.48"
     inkscape:cy="48.769406"
     inkscape:window-x="-8"
     inkscape:window-y="-8"
     inkscape:window-maximized="1"
     inkscape:current-layer="svg33" />
  <path
     style="fill:#000000;stroke-width:0.03594625"
     d="M 3.8435014,12.53305 C 3.1082229,12.11962 2.4621654,11.75982 2.4078191,11.73348 2.3125041,11.68728 2.2704313,11.70728 1.2194902,12.29714 0.62025559,12.63349 0.10072944,12.92339 0.06498674,12.94137 0.00394934,12.97206 0,12.9244 0,12.15706 v -0.81698 l 1.1477668,-0.64564 c 0.6312719,-0.3551 1.1563555,-0.64564 1.166852,-0.64564 0.010502,0 0.6595841,0.36012 1.4424178,0.80027 0.7828349,0.44015 1.4484012,0.8002 1.4790378,0.80009 0.030637,-10e-5 0.6979436,-0.3608 1.4829045,-0.80156 0.784962,-0.44075 1.4498727,-0.79322 1.4775814,-0.78326 0.027708,0.01 0.6739902,0.37067 1.4361825,0.80158 0.7621922,0.4309 1.4120752,0.78346 1.4441822,0.78346 0.03211,0 0.671437,-0.34489 1.420732,-0.76642 0.749295,-0.42153 1.393852,-0.78221 1.432349,-0.80151 0.06764,-0.0339 0.06999,-0.008 0.06999,0.78192 v 0.81702 l -1.426343,0.80219 c -0.78449,0.4412 -1.454467,0.80218 -1.488839,0.80218 -0.03437,0 -0.690983,-0.35351 -1.4591344,-0.78559 C 8.8575283,12.0671 8.2028844,11.71174 8.1709144,11.70949 8.1389454,11.70749 7.4810187,12.06074 6.7088567,12.49507 5.9366936,12.9294 5.2768983,13.28475 5.2426457,13.28474 5.2083927,13.28473 4.578776,12.94647 3.8434974,12.53305 Z m -0.04933,-2.7626299 c -0.7828338,-0.44015 -1.4459549,-0.80028 -1.4736022,-0.80028 -0.027647,0 -0.5401976,0.27588 -1.1390005,0.61306 C 0.58276702,9.9203901 0.0719491,10.20391 0.0464186,10.21324 0.00947155,10.22674 4.651996e-4,9.5531701 0.00228193,6.9122401 l 0.00228266,-3.31797 1.41374071,-1.13085 c 0.7775582,-0.621964 1.4438104,-1.130846 1.4805627,-1.130846 0.036751,0 0.4866822,0.336645 0.9998453,0.748096 0.5131632,0.41146 0.9497719,0.75362 0.9702416,0.76037 0.02047,0.007 0.1406905,-0.08 0.2671546,-0.19282 1.0441076,-0.931315 2.4158152,-1.418186 3.8276126,-1.358565 2.4283559,0.102551 4.4129209,1.685315 4.9319799,3.933435 0.108171,0.46851 0.11729,1.41239 0.01814,1.8775 -0.222687,1.0446 -0.785867,1.98843 -1.614788,2.7062 C 12.045967,10.02594 11.71019,10.24429 11.231071,10.50127 l -0.150895,0.0809 -0.582527,-0.32742 C 10.177259,10.07468 9.9155454,9.9116001 9.9160618,9.8923701 c 4.642e-4,-0.0192 0.1393482,-0.0853 0.3085102,-0.14689 0.535586,-0.19489 1.212772,-0.59959 1.241443,-0.74192 0.0056,-0.028 -0.346299,-0.38448 -0.78207,-0.79225 l -0.7923124,-0.74141 -0.2760532,0.13896 c -0.1518299,0.0764 -0.3596088,0.15788 -0.4617308,0.181 -0.102122,0.0231 -0.206565,0.0574 -0.2320955,0.0761 -0.034429,0.0252 -0.046419,0.21719 -0.046419,0.74307 0,0.38998 -0.00996,0.70905 -0.022122,0.70905 -0.012166,0 -0.070654,-0.0269 -0.1299734,-0.0597 l -0.1078513,-0.0597 v -0.6211 c 0,-0.62192 -0.02345,-0.75571 -0.1324511,-0.75571 -0.1099413,0 -0.503009,-0.14223 -0.6882862,-0.24904 l -0.1890684,-0.10901 -0.7948319,0.74415 c -0.4371577,0.40927 -0.7948319,0.76263 -0.7948319,0.78523 0,0.0638 0.3221787,0.30655 0.6014731,0.45326 0.1545083,0.0812 0.2487112,0.15235 0.2429506,0.18357 -0.00795,0.0431 -1.5539083,0.9406999 -1.6201437,0.9406499 -0.012479,-10e-6 -0.6631885,-0.36014 -1.4460234,-0.8002899 z m 2.812334,-1.7538 0.7941879,-0.74474 -0.1163356,-0.17716 c -0.1140018,-0.1736 -0.2657899,-0.5419 -0.2657899,-0.64491 0,-0.0286 -0.032323,-0.0683 -0.071829,-0.0881 -0.08883,-0.0445 -2.1519209,-0.0486 -2.226456,-0.004 -0.123136,0.0731 0.072095,0.9396 0.3261301,1.44754 0.2110143,0.42192 0.6150832,0.95645 0.72301,0.95645 0.023592,0 0.40028,-0.33514 0.8370825,-0.74475 z m 5.3065446,0.58367 c 0.201002,-0.22033 0.471085,-0.64645 0.606018,-0.95612 0.206792,-0.47459 0.353629,-1.22611 0.251417,-1.28676 -0.08605,-0.0511 -2.208088,-0.04 -2.251294,0.0118 -0.01998,0.0239 -0.05652,0.12179 -0.0812,0.21747 -0.02468,0.0957 -0.111611,0.29038 -0.193178,0.43264 l -0.148304,0.25866 0.790944,0.74171 c 0.435018,0.40793 0.810676,0.7417 0.834796,0.7417 0.02412,0 0.109979,-0.0725 0.190799,-0.16108 z m -4.9295472,-2.58775 c 0.015784,-0.0287 0.063129,-0.157 0.10521,-0.2851 0.042082,-0.1281 0.1295302,-0.31365 0.1943278,-0.41232 l 0.1178151,-0.17941 -0.8038256,-0.75318 c -0.6859385,-0.64271 -0.8133624,-0.74771 -0.8688622,-0.71593 -0.1276549,0.0731 -0.4622948,0.52495 -0.6427931,0.86796 -0.2769259,0.52626 -0.4965614,1.43745 -0.365417,1.51599 0.028559,0.0171 0.5430826,0.0273 1.1433871,0.0226 0.9264092,-0.007 1.0958006,-0.0164 1.1201579,-0.0606 z m 5.7869822,0.0379 c 0.111188,-0.066 -0.05637,-0.85312 -0.289521,-1.3601 -0.203881,-0.44333 -0.640915,-1.04386 -0.759671,-1.04386 -0.02359,0 -0.401925,0.33668 -0.840739,0.74818 -0.70633,0.66236 -0.792467,0.75515 -0.750977,0.80899 0.107343,0.13929 0.30149,0.54498 0.32566,0.68049 0.0143,0.0802 0.04485,0.15732 0.06788,0.17138 0.05987,0.0366 2.1853,0.0318 2.247369,-0.005 z m -4.8913733,-1.25348 c 0.1496447,-0.0753 0.3556364,-0.15588 0.4577584,-0.179 0.1021221,-0.0231 0.206565,-0.0574 0.2320955,-0.0761 0.055034,-0.0404 0.067158,-2.02868 0.012859,-2.109 -0.08263,-0.12224 -1.0611557,0.0844 -1.6180885,0.3417 -0.3659206,0.16905 -0.8483253,0.48267 -0.9262479,0.60216 -0.033799,0.0518 0.078215,0.17135 0.7581852,0.80899 0.4388137,0.4115 0.8008838,0.74818 0.8045996,0.74818 0.00371,0 0.1291925,-0.0616 0.2788387,-0.13695 z m 2.8062483,-0.60215 c 0.434192,-0.4065 0.789441,-0.75718 0.789441,-0.77929 0,-0.11275 -0.641652,-0.52095 -1.128269,-0.71777 -0.5330146,-0.21559 -1.3669303,-0.36951 -1.437355,-0.26531 -0.039302,0.0582 -0.044442,2.05064 -0.00543,2.10347 0.015006,0.0203 0.1191926,0.0559 0.2315268,0.0792 0.1123342,0.0232 0.3212202,0.10325 0.464191,0.17786 0.1429708,0.0746 0.2681608,0.13686 0.2781978,0.13832 0.010038,0.001 0.3734994,-0.32993 0.8076924,-0.73643 z"
     id="path43"
     inkscape:connector-curvature="0" />
</svg>
