<?xml version="1.0" encoding="UTF-8" standalone="no"?>
<!-- Created with Inkscape (http://www.inkscape.org/) -->

<svg
   xmlns:dc="http://purl.org/dc/elements/1.1/"
   xmlns:cc="http://creativecommons.org/ns#"
   xmlns:rdf="http://www.w3.org/1999/02/22-rdf-syntax-ns#"
   xmlns:svg="http://www.w3.org/2000/svg"
   xmlns="http://www.w3.org/2000/svg"
   xmlns:sodipodi="http://sodipodi.sourceforge.net/DTD/sodipodi-0.dtd"
   xmlns:inkscape="http://www.inkscape.org/namespaces/inkscape"
   version="1.1"
   id="svg141"
   width="14"
   height="14"
   viewBox="0 0 14 14"
   sodipodi:docname="mill4.svg"
   inkscape:version="0.92.3 (2405546, 2018-03-11)">
  <metadata
     id="metadata147">
    <rdf:RDF>
      <cc:Work
         rdf:about="">
        <dc:format>image/svg+xml</dc:format>
        <dc:type
           rdf:resource="http://purl.org/dc/dcmitype/StillImage" />
        <dc:title></dc:title>
      </cc:Work>
    </rdf:RDF>
  </metadata>
  <defs
     id="defs145" />
  <sodipodi:namedview
     pagecolor="#ffffff"
     bordercolor="#666666"
     borderopacity="1"
     objecttolerance="10"
     gridtolerance="10"
     guidetolerance="10"
     inkscape:pageopacity="0"
     inkscape:pageshadow="2"
     inkscape:window-width="1920"
     inkscape:window-height="1137"
     id="namedview143"
     showgrid="false"
     inkscape:zoom="9.4940473"
     inkscape:cx="50.400002"
     inkscape:cy="50.400002"
     inkscape:window-x="-8"
     inkscape:window-y="-8"
     inkscape:window-maximized="1"
     inkscape:current-layer="svg141" />
  <path
     style="fill:#000000;stroke-width:0.04559983"
     d="M 7.6632358,13.861697 C 6.5462151,13.586377 5.5894688,13.149198 3.5746345,11.993444 3.0092348,11.669119 2.378417,11.323519 2.1728171,11.225448 1.3426355,10.829448 0.72753523,10.702043 0.24531806,10.826204 0.11039313,10.860944 0,10.88089 0,10.87053 0,10.802481 0.32129394,10.429786 0.53996519,10.244178 1.1401834,9.7347159 1.7550385,9.5958339 2.5791994,9.7835579 c 0.4806224,0.109475 1.3052637,0.4726601 2.1880407,0.9636481 2.7446578,1.526543 3.7937897,1.914471 5.3200389,1.967143 1.29096,0.04455 2.177161,-0.189375 3.453214,-0.91153 0.238424,-0.134931 0.443989,-0.235339 0.456811,-0.223128 0.03579,0.03408 -0.289452,0.385331 -0.695357,0.750965 -0.685896,0.617849 -1.413584,1.077401 -2.153705,1.360101 -0.725234,0.27702 -0.852374,0.29732 -1.9196098,0.30649 -0.9683273,0.008 -0.9889793,0.007 -1.5653964,-0.13555 z M 6.2264065,10.783935 c -0.092174,-0.03542 -0.071763,-0.695176 0.036062,-1.1656591 0.051961,-0.22672 0.083253,-0.429507 0.069542,-0.450635 C 6.3182986,9.1465119 6.1969333,9.0948879 6.0623106,9.0529199 5.927688,9.0109519 5.7155346,8.9279569 5.5908575,8.8684869 5.4661804,8.8090159 5.3362261,8.7705709 5.30207,8.7830539 c -0.034158,0.01248 -0.1673099,0.171171 -0.2958945,0.352641 -0.2106888,0.297343 -0.6877638,0.785253 -0.8076016,0.825944 -0.04235,0.01438 -1.5178753,-1.32979 -1.6656682,-1.517385 -0.053308,-0.06767 -0.03273,-0.106411 0.163276,-0.307438 C 2.819531,8.0103069 3.0886712,7.8029419 3.294271,7.6760039 3.8321066,7.3439439 3.8261037,7.3552529 3.6548588,6.9966809 3.5761928,6.8319619 3.4797224,6.6220979 3.4404802,6.5303169 3.3565525,6.3340259 3.2716447,6.3217349 2.7620674,6.4321099 c -0.1904902,0.04126 -0.4739143,0.06346 -0.710133,0.05563 l -0.3931171,-0.01304 v -1.13474 -1.13474 l 0.3971817,-0.01377 c 0.2457337,-0.0085 0.5405018,0.01461 0.773048,0.06065 0.2067266,0.04093 0.4148153,0.06715 0.4624195,0.05827 0.059637,-0.01113 0.1434711,-0.147617 0.2695853,-0.438901 0.1006677,-0.232511 0.1938644,-0.454856 0.2071028,-0.4941 0.017426,-0.05166 -0.083371,-0.136159 -0.3650879,-0.306079 -0.3852866,-0.232389 -0.7960448,-0.569493 -0.8873874,-0.728267 -0.040457,-0.07032 0.06958,-0.194172 0.7610835,-0.856618 0.527382,-0.50521995 0.841979,-0.77440895 0.9050418,-0.77440895 0.1319432,0 0.5685611,0.43696695 0.8351021,0.83576795 0.1191092,0.178212 0.2459708,0.334769 0.2819143,0.347904 0.035943,0.01314 0.1673594,-0.02478 0.2920365,-0.08424 0.1246771,-0.05947 0.3385769,-0.143018 0.4753344,-0.185662 0.136759,-0.04264 0.2583973,-0.10172 0.2703098,-0.131283 0.011915,-0.02956 -0.021128,-0.228503 -0.073423,-0.442089 C 6.2107837,0.83880795 6.1679977,0.51464395 6.1679977,0.33203095 V -3.0517578e-6 H 7.4062695 8.6445416 V 0.33023095 c 0,0.181628 -0.043402,0.504266 -0.096448,0.71697195 -0.053047,0.212705 -0.086088,0.412451 -0.073425,0.443879 0.01266,0.03143 0.1349176,0.09203 0.2716766,0.134674 0.1367575,0.04264 0.3506573,0.126191 0.4753344,0.185662 0.1246771,0.05947 0.2560931,0.09738 0.2920366,0.08424 0.035945,-0.01314 0.162805,-0.169692 0.2819142,-0.347904 0.2665406,-0.398801 0.7031586,-0.83576795 0.8351016,-0.83576795 0.06306,0 0.37766,0.269189 0.905043,0.77440895 0.691503,0.662446 0.80154,0.786295 0.761083,0.856618 -0.09134,0.158774 -0.502102,0.495878 -0.887387,0.728267 -0.279191,0.168396 -0.38271,0.254888 -0.366335,0.306079 0.01256,0.03924 0.105806,0.26159 0.207226,0.4941 0.126592,0.290221 0.211494,0.427811 0.270831,0.438901 0.04754,0.0089 0.25557,-0.01734 0.462297,-0.05827 0.232546,-0.04604 0.527314,-0.06917 0.773049,-0.06065 l 0.397181,0.01377 v 1.13474 1.134741 l -0.397181,0.01217 c -0.262104,0.008 -0.535552,-0.01682 -0.804038,-0.07305 -0.478091,-0.100144 -0.502275,-0.09065 -0.642185,0.252206 -0.05293,0.129702 -0.139223,0.316071 -0.191765,0.414153 -0.05254,0.09808 -0.08413,0.212548 -0.07019,0.254369 0.01393,0.04182 0.177936,0.165172 0.364442,0.274113 0.33331,0.194694 0.798483,0.574018 0.878468,0.716345 0.03209,0.05711 -0.132114,0.236116 -0.776544,0.846545 -0.449483,0.425768 -0.845774,0.774124 -0.880647,0.774124 -0.112411,0 -0.568323,-0.443887 -0.818389,-0.796804 -0.1337159,-0.188711 -0.2710662,-0.353324 -0.3052224,-0.365806 -0.034158,-0.01248 -0.1641119,0.02596 -0.288789,0.08543 -0.1246771,0.05947 -0.3368304,0.142465 -0.4714531,0.184433 -0.1346227,0.04197 -0.2559879,0.09359 -0.2696995,0.114721 -0.013712,0.02113 0.017583,0.223915 0.069542,0.450635 0.1180768,0.5152161 0.1288708,1.1285381 0.020558,1.1681191 -0.088094,0.03219 -2.2599736,0.02992 -2.3442214,-0.0025 z M 8.3174509,7.9373409 C 8.8113287,7.7818199 9.1149974,7.5945389 9.5092527,7.2023189 10.061522,6.6529029 10.289891,6.1054729 10.286171,5.3399519 10.282257,4.5339029 10.045866,3.9957039 9.4436112,3.4216389 8.9759795,2.9758949 8.5507761,2.7527009 7.9663686,2.6462159 7.5177213,2.5644679 7.2961232,2.5642299 6.8527429,2.6450199 6.251848,2.7545089 5.8429233,2.9674209 5.3736532,3.4151279 c -0.4301419,0.410378 -0.6326329,0.720869 -0.7634546,1.170659 -0.2767173,0.951395 -0.00781,1.956199 0.7104922,2.654885 0.7875513,0.766039 1.9317541,1.032037 2.9967601,0.696671 z"
     id="path151"
     inkscape:connector-curvature="0" />
</svg>
