<?xml version="1.0" encoding="UTF-8" standalone="no"?>
<!-- Created with Inkscape (http://www.inkscape.org/) -->

<svg
   xmlns:dc="http://purl.org/dc/elements/1.1/"
   xmlns:cc="http://creativecommons.org/ns#"
   xmlns:rdf="http://www.w3.org/1999/02/22-rdf-syntax-ns#"
   xmlns:svg="http://www.w3.org/2000/svg"
   xmlns="http://www.w3.org/2000/svg"
   xmlns:sodipodi="http://sodipodi.sourceforge.net/DTD/sodipodi-0.dtd"
   xmlns:inkscape="http://www.inkscape.org/namespaces/inkscape"
   version="1.1"
   id="svg174"
   width="14"
   height="14"
   viewBox="0 0 14 14"
   sodipodi:docname="mill5.svg"
   inkscape:version="0.92.3 (2405546, 2018-03-11)">
  <metadata
     id="metadata180">
    <rdf:RDF>
      <cc:Work
         rdf:about="">
        <dc:format>image/svg+xml</dc:format>
        <dc:type
           rdf:resource="http://purl.org/dc/dcmitype/StillImage" />
        <dc:title></dc:title>
      </cc:Work>
    </rdf:RDF>
  </metadata>
  <defs
     id="defs178" />
  <sodipodi:namedview
     pagecolor="#ffffff"
     bordercolor="#666666"
     borderopacity="1"
     objecttolerance="10"
     gridtolerance="10"
     guidetolerance="10"
     inkscape:pageopacity="0"
     inkscape:pageshadow="2"
     inkscape:window-width="1920"
     inkscape:window-height="1137"
     id="namedview176"
     showgrid="false"
     inkscape:zoom="9.5008567"
     inkscape:cx="6.9999999"
     inkscape:cy="50.363882"
     inkscape:window-x="-8"
     inkscape:window-y="-8"
     inkscape:window-maximized="1"
     inkscape:current-layer="svg174" />
  <path
     style="fill:#000000;stroke-width:0.04558712"
     d="M 7.6629771,13.846567 C 6.5545579,13.578027 5.5900685,13.137979 3.5745142,11.981209 3.0091335,11.656726 2.3783369,11.311278 2.1727438,11.21355 1.3402474,10.817824 0.72710405,10.691054 0.24530979,10.815046 0.1103894,10.849768 0,10.869705 0,10.859349 0,10.800984 0.30009287,10.440455 0.48023275,10.282402 1.4994859,9.3881139 2.5344124,9.4974069 4.767079,10.735114 c 2.1509244,1.192392 2.8540583,1.509055 3.9706221,1.788216 0.5593312,0.139843 0.7154958,0.160201 1.3784079,0.179688 0.574914,0.0169 0.84162,0.0051 1.154582,-0.05097 0.762552,-0.136675 1.424852,-0.385329 2.223093,-0.834639 0.264375,-0.148811 0.491101,-0.260649 0.503834,-0.248529 0.02909,0.0277 -0.21206,0.300707 -0.517261,0.585597 -0.839653,0.783776 -1.654933,1.29717 -2.546549,1.60359 -0.592324,0.20355 -0.9673515,0.25179 -1.869027,0.24036 -0.7450672,-0.009 -0.8695838,-0.0229 -1.4018039,-0.15187 z M 7.3827238,11.022016 C 6.4267165,10.908407 5.4941173,10.56876 4.6866305,10.040117 4.3492375,9.8192339 3.7152256,9.2224939 3.4149986,8.8432419 3.0861024,8.4277769 2.7113625,7.7413919 2.5261697,7.2152399 1.8159618,5.1974569 2.3786772,3.0435589 4.0075385,1.5450259 4.8553554,0.76504395 5.8179175,0.28225295 7.0088512,0.03965995 c 0.3636469,-0.07408 1.938197,-0.03772 2.3362837,0.05394 1.7652731,0.406465 3.2469831,1.50704495 4.0300701,2.99343995 0.665914,1.263987 0.756758,2.883685 0.238729,4.256455 -0.557107,1.47633 -1.729311,2.6728201 -3.194109,3.2602841 -0.8617977,0.34563 -2.152463,0.523366 -3.0371012,0.418237 z M 7.1690443,9.7681809 c 0.011988,-0.05504 0.1224958,-0.777541 0.2455741,-1.605559 l 0.223778,-1.505487 -0.1096826,-0.08454 c -0.060327,-0.0465 -0.1546649,-0.08363 -0.2096406,-0.08251 -0.1013027,0.0021 -2.6963182,1.888706 -2.7274024,1.982895 -0.021602,0.06546 0.4304486,0.475135 0.797159,0.722435 0.4702238,0.317108 1.3153087,0.664534 1.6308121,0.670447 0.095772,0.0018 0.1330426,-0.02257 0.1494024,-0.097681 z m 2.4385489,-0.01145 c 0.4292828,-0.137168 0.8541048,-0.337389 1.1626748,-0.547976 0.40054,-0.273353 0.817749,-0.637942 0.816569,-0.713579 -5.84e-4,-0.04062 -0.360734,-0.33596 -0.82037,-0.672832 C 10.315884,7.4921049 9.7831808,7.1018249 9.5826809,6.9550529 9.3821811,6.8082819 9.1431062,6.6318899 9.0514027,6.5630719 8.892204,6.4436029 8.8784359,6.4410159 8.7467586,6.5058309 c -0.07585,0.03734 -0.1501719,0.0983 -0.1651592,0.135474 -0.014987,0.03717 0.077086,0.768182 0.204603,1.624461 0.1275187,0.856279 0.2318528,1.567134 0.2318528,1.579679 0,0.05455 0.2668401,0.01439 0.5895378,-0.08872 z M 5.2142349,6.3199139 c 0.8199947,-0.312634 1.5171826,-0.584008 1.5493065,-0.603055 0.032124,-0.01905 0.058407,-0.112325 0.058407,-0.207286 0,-0.09496 -0.026283,-0.188351 -0.058407,-0.207535 -0.105397,-0.06294 -3.0412003,-1.171231 -3.1025321,-1.171231 -0.087294,0 -0.1368011,0.112955 -0.2213878,0.505116 -0.167437,0.77628 -0.023372,2.252416 0.2198283,2.252416 0.035138,0 0.7347906,-0.255791 1.5547851,-0.568425 z m 7.4477381,0.39294 c 0.164017,-0.579793 0.21154,-1.563525 0.09788,-2.026093 -0.121023,-0.492519 -0.146916,-0.555954 -0.226934,-0.555954 -0.07461,0 -2.5580304,0.924653 -2.9891988,1.112971 -0.1747789,0.07634 -0.198498,0.104131 -0.1978687,0.23186 4.381e-4,0.07982 0.016163,0.167854 0.035044,0.195632 0.01888,0.02778 0.6651255,0.293275 1.4360995,0.589992 0.770973,0.296718 1.443823,0.55784 1.495221,0.580272 0.206484,0.09011 0.297317,0.0567 0.349757,-0.12868 z M 7.4644265,4.4871049 c 0.100707,-0.05845 0.1513461,-0.12206 0.1503384,-0.188858 -0.00295,-0.195466 -0.45137,-3.104027 -0.4832325,-3.134355 -0.1080298,-0.10283 -1.1438122,0.273016 -1.6447364,0.596812 -0.3409763,0.220405 -0.7515182,0.549536 -0.8465407,0.678668 -0.091137,0.123851 -0.072147,0.14395 0.5671226,0.600275 0.2840849,0.202786 0.8626276,0.631326 1.2856525,0.952312 0.4230236,0.320986 0.780475,0.583537 0.7943365,0.583445 0.013857,-8.9e-5 0.093538,-0.03983 0.1770596,-0.088299 z m 2.2077883,-0.491024 c 0.3983362,-0.293275 0.9911162,-0.728185 1.3172872,-0.966467 0.341642,-0.249584 0.594189,-0.465749 0.595752,-0.509929 0.0037,-0.105429 -0.678611,-0.649683 -1.107061,-0.883021 -0.422436,-0.230065 -1.1010173,-0.482262 -1.3030795,-0.484295 -0.1742956,-0.0018 -0.1261652,-0.20444995 -0.416374,1.753556 l -0.2172758,1.465935 0.1032944,0.07962 c 0.056813,0.04379 0.1482766,0.07922 0.2032523,0.07872 0.055295,-5e-4 0.4235521,-0.23914 0.8242044,-0.534119 z"
     id="path184"
     inkscape:connector-curvature="0" />
</svg>
