<?xml version="1.0" encoding="UTF-8" standalone="no"?>
<!-- Created with Inkscape (http://www.inkscape.org/) -->

<svg
   xmlns:dc="http://purl.org/dc/elements/1.1/"
   xmlns:cc="http://creativecommons.org/ns#"
   xmlns:rdf="http://www.w3.org/1999/02/22-rdf-syntax-ns#"
   xmlns:svg="http://www.w3.org/2000/svg"
   xmlns="http://www.w3.org/2000/svg"
   xmlns:sodipodi="http://sodipodi.sourceforge.net/DTD/sodipodi-0.dtd"
   xmlns:inkscape="http://www.inkscape.org/namespaces/inkscape"
   version="1.1"
   id="svg490"
   width="14"
   height="14"
   viewBox="0 0 14 14"
   sodipodi:docname="rock14.svg"
   inkscape:version="0.92.3 (2405546, 2018-03-11)">
  <metadata
     id="metadata496">
    <rdf:RDF>
      <cc:Work
         rdf:about="">
        <dc:format>image/svg+xml</dc:format>
        <dc:type
           rdf:resource="http://purl.org/dc/dcmitype/StillImage" />
        <dc:title></dc:title>
      </cc:Work>
    </rdf:RDF>
  </metadata>
  <defs
     id="defs494" />
  <sodipodi:namedview
     pagecolor="#ffffff"
     bordercolor="#666666"
     borderopacity="1"
     objecttolerance="10"
     gridtolerance="10"
     guidetolerance="10"
     inkscape:pageopacity="0"
     inkscape:pageshadow="2"
     inkscape:window-width="1920"
     inkscape:window-height="1137"
     id="namedview492"
     showgrid="false"
     inkscape:zoom="128"
     inkscape:cx="1.8128426"
     inkscape:cy="7.5080804"
     inkscape:window-x="-8"
     inkscape:window-y="-8"
     inkscape:window-maximized="1"
     inkscape:current-layer="svg490" />
  <g
     id="g500"
     transform="matrix(0.18265391,0,0,0.1804091,-0.07219979,-0.09202144)">
    <path
       style="fill:#000000;stroke-width:0.32000002"
       d="M 6.836149,76.720002 C 7.29034,73.637931 7.4048008,65.655746 7.0873775,59.200002 6.7766856,52.881166 6.6333816,51.811038 5.3304376,46.080001 4.2875979,41.493041 3.4323697,38.658718 2.1020677,35.380814 0.34174641,31.04333 0.30172435,30.877389 0.63568101,29.300813 1.2855518,26.232839 2.582944,22.39573 4.0100343,19.320976 5.633668,15.822759 8.0000002,9.5516809 8.0000002,8.7470649 c 0,-0.2948112 0.4500698,-1.5124596 1.0001552,-2.7058852 0.7986237,-1.7326362 1.3793916,-2.467809 2.8822166,-3.6484955 2.20933,-1.73574806 3.538775,-2.20774694 4.927491,-1.74942934 1.24335,0.41034254 3.657513,3.27017054 5.136544,6.08477224 0.628173,1.1954141 1.614046,2.7266413 2.190829,3.4027269 0.576784,0.676085 1.282393,1.683385 1.568021,2.238444 0.285627,0.555059 1.261188,1.923059 2.167913,3.04 0.906724,1.116941 2.141527,3.098871 2.744006,4.404289 0.602479,1.305417 1.389231,2.786114 1.748342,3.290436 0.772406,1.084745 6.276659,5.316863 8.173907,6.284767 0.729674,0.372252 1.607606,1.076082 1.950966,1.564066 1.579652,2.245024 5.933674,11.186602 6.910356,14.191357 2.698592,8.302208 3.9672,10.882615 6.355072,12.926548 1.608592,1.376893 3.436541,2.003321 7.109699,2.436454 1.591965,0.187722 3.340592,0.404835 3.885837,0.482474 1.017175,0.144838 1.893837,1.262502 5.703389,7.271309 1.558957,2.458937 4.665258,8.671542 4.665258,9.330515 0,0.435162 -3.853757,0.488589 -35.242135,0.488589 H 6.635732 Z"
       id="path508"
       inkscape:connector-curvature="0" />
    <path
       style="fill:#000000;stroke-width:0.32000002"
       d="M 7.0787285,76.880002 C 8.046894,72.892082 7.6088156,54.697064 6.4142082,49.280001 4.5783083,40.954935 3.1281837,36.267991 1.2450391,32.57275 0.91226761,31.91976 0.64000002,31.090675 0.64000002,30.730337 0.64000002,29.318874 2.7520403,22.97872 4.6408987,18.72 6.6342203,14.225752 8.0439608,10.410182 8.4833916,8.3200002 8.8227442,6.7058456 10.036497,4.4526536 11.090161,3.480833 c 1.84384,-1.700619 3.731124,-2.84083298 4.702151,-2.84083298 1.348114,0 4.279549,3.04552068 5.7588,5.98291948 0.611808,1.2148897 1.637878,2.8378724 2.280156,3.6066285 0.642277,0.768756 1.394158,1.841599 1.670845,2.384095 0.276687,0.542497 1.220605,1.904521 2.097596,3.026721 0.876991,1.122199 2.216776,3.299976 2.977301,4.839505 1.600399,3.239682 3.182114,4.816531 8.302991,8.277439 l 3.2,2.162698 2.925034,5.370385 c 1.608768,2.953712 3.238832,6.400711 3.622365,7.659997 0.880873,2.892256 3.127107,9.025652 3.768365,10.289613 2.255984,4.446682 5.31006,6.268785 11.284237,6.732311 4.045433,0.313878 3.317289,-0.306461 8.249008,7.02769 1.108806,1.64895 4.870992,9.185888 4.870992,9.758259 0,0.213693 -11.755789,0.321741 -35.006302,0.321741 H 6.7873992 Z"
       id="path506"
       inkscape:connector-curvature="0" />
    <path
       style="fill:#000000;stroke-width:0.32000002"
       d="M 7.1988968,77.520002 C 7.858437,75.895586 8.0873711,69.110687 7.7595986,60.902533 7.4212511,52.429553 7.3984706,52.24035 5.9749746,46.080001 4.6061467,40.156238 3.0992194,35.595662 1.4068536,32.255009 0.79253999,31.042381 0.70689685,30.585712 0.96599282,29.904239 1.1428531,29.439061 1.652516,27.760421 2.098577,26.173928 2.5446381,24.587436 3.6402484,21.685282 4.5332664,19.724698 6.2841931,15.880612 8.6398428,9.5515801 8.6402527,8.69027 8.6403916,8.3986217 9.0600975,7.2730667 9.5729324,6.1890366 10.248992,4.7599832 10.967368,3.8528769 12.185715,2.8898289 14.834063,0.7964302 15.495986,0.52840696 16.60336,1.1010524 c 1.349718,0.6979663 3.31136,3.0630402 4.644039,5.5991318 0.641639,1.2210416 1.722434,2.9232375 2.401767,3.7826578 0.679332,0.85942 1.470371,2.017449 1.757863,2.573398 0.287492,0.555948 1.185613,1.824678 1.995824,2.819398 0.810211,0.994721 2.09924,3.076054 2.864508,4.625185 0.765269,1.549131 1.894147,3.319353 2.508621,3.933826 1.257385,1.257384 7.293657,5.645352 7.765984,5.645352 0.63447,0 1.685632,1.590116 4.336544,6.56 1.958954,3.672611 3.202067,6.522157 4.397402,10.08 3.828086,11.394071 5.965673,13.639204 13.76409,14.45657 4.36639,0.457648 4.28231,0.424768 5.360701,2.096429 0.541788,0.839853 1.728707,2.607002 2.637596,3.927002 1.283754,1.864422 3.791917,6.543817 5.70306,10.64 0.06159,0.132 -15.611431,0.24 -34.828929,0.24 -33.1503338,0 -34.9292509,-0.0287 -34.7135332,-0.56 z"
       id="path504"
       inkscape:connector-curvature="0" />
    <path
       style="fill:#000000;stroke-width:0.32000002"
       d="m 7.5171781,77.520002 c 0.6582928,-1.633693 0.8534176,-6.039421 0.6554762,-14.8 C 7.9743506,53.943393 7.8938517,52.976414 7.0271624,48.960001 5.1341544,40.187419 4.3222827,37.528078 2.0272809,32.582554 L 1.1838834,30.765108 2.2345939,27.142554 c 0.5778909,-1.992404 1.9533931,-5.646465 3.0566718,-8.120135 1.1032785,-2.473669 2.4645332,-6.00167 3.0250104,-7.84 1.4716086,-4.8267875 2.1950619,-6.285009 3.8351219,-7.7302266 1.86742,-1.6455659 3.095411,-2.2699827 4.011851,-2.0399711 1.068108,0.2680782 3.394103,3.0007593 4.749277,5.5796592 0.646674,1.2306234 1.686689,2.8490266 2.311145,3.5964515 0.624456,0.747425 1.363289,1.802815 1.641851,2.345311 C 25.144085,13.47614 26.195187,15 27.201304,16.32 c 1.006117,1.32 2.30143,3.44117 2.878473,4.71371 0.766072,1.689402 1.538582,2.76872 2.862953,4 1.943872,1.807235 5.330423,4.324988 6.898026,5.128382 1.269107,0.650416 1.903306,1.385092 2.993696,3.467995 0.49808,0.951453 1.708976,3.241914 2.69088,5.089914 0.981904,1.848 2.099943,4.368 2.484528,5.6 0.963082,3.085184 3.165245,9.039306 3.854695,10.422167 1.035693,2.077347 3.034122,4.281005 4.707357,5.190784 1.806672,0.98233 5.595587,1.82705 8.195078,1.82705 0.918877,0 1.89746,0.18 2.174625,0.4 1.030412,0.817891 5.491993,7.879632 7.164624,11.340093 0.95175,1.969049 1.8752,3.669549 2.052109,3.778886 0.176908,0.109335 0.321654,0.334295 0.321654,0.499907 0,0.186295 -13.19121,0.301114 -34.594238,0.301114 -32.8195209,0 -34.5826605,-0.02873 -34.3685859,-0.56 z"
       id="path502"
       inkscape:connector-curvature="0" />
  </g>
</svg>
