<?xml version="1.0" encoding="UTF-8" standalone="no"?>
<!-- Created with Inkscape (http://www.inkscape.org/) -->

<svg
   xmlns:dc="http://purl.org/dc/elements/1.1/"
   xmlns:cc="http://creativecommons.org/ns#"
   xmlns:rdf="http://www.w3.org/1999/02/22-rdf-syntax-ns#"
   xmlns:svg="http://www.w3.org/2000/svg"
   xmlns="http://www.w3.org/2000/svg"
   xmlns:sodipodi="http://sodipodi.sourceforge.net/DTD/sodipodi-0.dtd"
   xmlns:inkscape="http://www.inkscape.org/namespaces/inkscape"
   version="1.1"
   id="svg110"
   width="66.879997"
   height="66.879997"
   viewBox="0 0 66.879997 66.879997"
   sodipodi:docname="sally_port.svg"
   inkscape:version="0.92.3 (2405546, 2018-03-11)">
  <metadata
     id="metadata116">
    <rdf:RDF>
      <cc:Work
         rdf:about="">
        <dc:format>image/svg+xml</dc:format>
        <dc:type
           rdf:resource="http://purl.org/dc/dcmitype/StillImage" />
        <dc:title></dc:title>
      </cc:Work>
    </rdf:RDF>
  </metadata>
  <defs
     id="defs114" />
  <sodipodi:namedview
     pagecolor="#ffffff"
     bordercolor="#666666"
     borderopacity="1"
     objecttolerance="10"
     gridtolerance="10"
     guidetolerance="10"
     inkscape:pageopacity="0"
     inkscape:pageshadow="2"
     inkscape:window-width="1920"
     inkscape:window-height="1137"
     id="namedview112"
     showgrid="false"
     inkscape:zoom="9.9384031"
     inkscape:cx="34.058887"
     inkscape:cy="27.310061"
     inkscape:window-x="-8"
     inkscape:window-y="-8"
     inkscape:window-maximized="1"
     inkscape:current-layer="svg110" />
  <g
     id="g120"
     transform="matrix(1,0,0,1.1208869,0.20123959,-3.5509384)">
    <path
       style="fill:#000000;stroke-width:0.31999999"
       d="M 3.3492302,62.325072 C 3.2642117,62.102282 3.2318546,50.327998 3.2773256,36.159998 L 3.3599998,10.4 H 33.599998 63.839997 v 26.079998 26.079999 h -8.959999 -8.96 l -0.16,-17.927282 -0.16,-17.92728 -1.03721,-2.106319 c -1.2492,-2.536817 -3.53846,-4.784183 -6.093007,-5.981499 -1.582183,-0.741568 -2.241146,-0.857618 -4.869783,-0.857618 -2.75124,0 -3.243672,0.09649 -5.184227,1.015807 -2.630123,1.245995 -4.647872,3.208854 -5.881624,5.721624 l -0.934148,1.902569 -0.16,18.079999 -0.16,18.079999 -8.888095,0.08507 c -6.9378873,0.06641 -8.922012,-0.0038 -9.0426738,-0.32 z M 0.55999997,9.3794153 C 0.08267482,9.2546773 0,8.8358729 0,6.5426327 0,4.0174273 0.04421902,3.8415086 0.71999997,3.6782229 1.1159999,3.582539 16.055999,3.5437957 33.919998,3.5921262 l 32.479999,0.087874 0.09187,2.759574 c 0.08791,2.6406021 0.06032,2.7680267 -0.64,2.9556306 C 65.017258,9.6187826 1.4171149,9.6034031 0.55999997,9.3794153 Z"
       id="path126"
       inkscape:connector-curvature="0" />
    <path
       style="fill:#000000;stroke-width:0.31999999"
       d="M 3.6692814,62.005239 C 3.584221,61.782356 3.5518354,50.151998 3.5973131,36.159998 L 3.6799998,10.72 H 33.599998 63.519997 v 25.759998 25.759999 h -8.639999 -8.64 l -0.16,-17.937237 -0.16,-17.937237 -1.100378,-2.167394 c -1.289052,-2.539021 -3.524147,-4.710876 -6.099622,-5.927041 -1.547196,-0.7306 -2.167075,-0.831089 -5.126729,-0.831089 -3.156771,0 -3.499448,0.06534 -5.494942,1.047716 -2.421005,1.191858 -4.841892,3.610848 -6.050728,6.045989 l -0.7676,1.546295 -0.16,18.079999 -0.16,18.079999 -8.568031,0.08524 c -6.6816646,0.06647 -8.6020808,-0.004 -8.7226866,-0.32 z M 0.06653944,6.4799997 0.15999999,3.9999998 33.359999,3.9185118 66.559997,3.8370238 V 6.3985117 8.9599996 H 33.266539 -0.02692112 Z"
       id="path124"
       inkscape:connector-curvature="0" />
    <path
       style="fill:#000000;stroke-width:0.31999999"
       d="M 3.9893365,61.685415 C 3.9042318,61.462436 3.8718155,49.975998 3.9173003,36.159998 L 3.9999998,11.04 H 33.599998 63.199997 v 25.439998 25.439999 h -8.319999 -8.32 l -0.16,-17.919999 -0.16,-17.919999 -0.96,-1.901847 c -1.226214,-2.429242 -3.505869,-4.71 -6.021469,-6.024384 -1.895526,-0.990399 -2.132918,-1.033769 -5.658531,-1.033769 -3.397727,0 -3.822548,0.06995 -5.538416,0.911951 -2.335966,1.146292 -4.988624,3.713 -6.183114,5.982772 l -0.918469,1.745277 -0.16,18.079999 -0.16,18.079999 -8.247963,0.08542 c -6.4254267,0.06654 -8.2821555,-0.0042 -8.4026995,-0.32 z M 0.31994065,6.3999997 V 3.9999998 l 32.88002935,0.16 32.880027,0.16 v 2.0799999 2.0799999 l -32.880027,0.16 -32.88002935,0.16 z"
       id="path122"
       inkscape:connector-curvature="0" />
  </g>
</svg>
