<?xml version="1.0" encoding="UTF-8" standalone="no"?>
<!-- Created with Inkscape (http://www.inkscape.org/) -->

<svg
   xmlns:dc="http://purl.org/dc/elements/1.1/"
   xmlns:cc="http://creativecommons.org/ns#"
   xmlns:rdf="http://www.w3.org/1999/02/22-rdf-syntax-ns#"
   xmlns:svg="http://www.w3.org/2000/svg"
   xmlns="http://www.w3.org/2000/svg"
   xmlns:sodipodi="http://sodipodi.sourceforge.net/DTD/sodipodi-0.dtd"
   xmlns:inkscape="http://www.inkscape.org/namespaces/inkscape"
   version="1.1"
   id="svg894"
   width="106.88"
   height="106.88"
   viewBox="0 0 106.88 106.88"
   sodipodi:docname="slide.svg"
   inkscape:version="0.92.3 (2405546, 2018-03-11)">
  <metadata
     id="metadata900">
    <rdf:RDF>
      <cc:Work
         rdf:about="">
        <dc:format>image/svg+xml</dc:format>
        <dc:type
           rdf:resource="http://purl.org/dc/dcmitype/StillImage" />
        <dc:title></dc:title>
      </cc:Work>
    </rdf:RDF>
  </metadata>
  <defs
     id="defs898" />
  <sodipodi:namedview
     pagecolor="#ffffff"
     bordercolor="#666666"
     borderopacity="1"
     objecttolerance="10"
     gridtolerance="10"
     guidetolerance="10"
     inkscape:pageopacity="0"
     inkscape:pageshadow="2"
     inkscape:window-width="1920"
     inkscape:window-height="1137"
     id="namedview896"
     showgrid="false"
     inkscape:zoom="6.2454044"
     inkscape:cx="54.406136"
     inkscape:cy="41.510014"
     inkscape:window-x="-8"
     inkscape:window-y="-8"
     inkscape:window-maximized="1"
     inkscape:current-layer="svg894" />
  <g
     id="g906"
     transform="translate(0.80059007,-0.32023523)">
    <path
       style="fill:#000000;stroke-width:0.31999999"
       d="m 44.8,106.56 c 0,-0.176 -0.396,-0.3221 -0.88,-0.32466 -0.812419,-0.004 -2.865613,-0.58697 -4.4,-1.24866 -0.352,-0.1518 -1.54688,-0.53278 -2.655286,-0.84663 -1.10841,-0.31385 -2.088909,-0.68976 -2.178887,-0.83534 C 34.59585,103.15912 34.035226,103.04 33.44,103.04 c -0.595226,0 -1.149341,-0.10859 -1.231366,-0.24131 -0.08203,-0.13272 -1.206523,-0.58586 -2.498885,-1.00698 -1.292362,-0.42112 -3.024444,-1.03254 -3.849071,-1.3587 C 25.036051,100.10686 23.990097,99.84 23.536336,99.84 23.082575,99.84 22.46127,99.708106 22.155658,99.546902 20.852371,98.859443 19.224421,98.24 18.721012,98.24 c -0.298246,0 -0.924483,-0.206643 -1.391639,-0.45921 -0.467155,-0.252563 -1.484544,-0.648563 -2.260865,-0.88 -2.561872,-0.76374 -2.733337,-1.272566 -2.847593,-8.450294 -0.06016,-3.779334 -0.217298,-6.151616 -0.4,-6.038701 C 11.64945,82.517766 11.52,85.318842 11.52,88.923104 c 0,6.151965 -0.01973,6.343309 -0.72,6.981126 C 9.547951,97.044627 8.8787706,97.206586 5.6,97.162765 3.0543047,97.128746 2.2200662,96.997971 1.52,96.523197 L 0.64,95.926394 V 57.230448 c 0,-37.575196 0.0178589,-38.730951 0.6166118,-39.904604 0.8980261,-1.760276 1.2746286,-1.958983 4.1301357,-2.179184 3.2167043,-0.248054 3.8540631,0.101641 5.1821045,2.843226 l 0.951148,1.963531 0.0049,8.983291 c 0.0029,5.247161 0.133912,9.182924 0.3151,9.463292 0.207495,0.321075 0.311822,-1.202902 0.3151,-4.602874 0.0027,-2.812884 0.165081,-5.61751 0.363571,-6.280011 0.197269,-0.658425 1.241269,-2.291155 2.32,-3.628288 6.107528,-7.570544 7.106045,-8.775518 8.009691,-9.665803 0.545401,-0.537338 1.496528,-1.545338 2.113615,-2.24 C 28.348585,8.1706758 33.837606,4.5441325 39.68,2.2589702 41.176,1.6738328 42.688,1.0813928 43.04,0.94243683 45.240384,0.07381099 46.384454,0.34290902 47.200538,1.9210411 47.63184,2.7550889 47.678086,8.7345101 47.60385,54.068554 L 47.52,105.274 46.653965,106.077 C 45.776374,106.89072 44.8,107.14508 44.8,106.56 Z M 58.263226,106.03684 57.6,105.19369 57.595632,54.436845 C 57.593072,26.52058 57.505619,3.3605328 57.400944,2.9700726 57.260928,2.4477926 57.473715,1.9970546 58.205978,1.2647928 59.230355,0.24041493 60.06319,0.16865662 61.92,0.94478797 62.272,1.0919212 63.28,1.4656996 64.16,1.7754067 65.04,2.0851137 66.93359,2.8923455 68.367981,3.569255 69.802368,4.2461648 71.068202,4.8 71.180938,4.8 c 1.089324,0 10.554726,8.352022 11.967715,10.56 0.281577,0.44 1.458723,1.88 2.615881,3.2 2.483968,2.833531 5.418714,6.496662 6.269808,7.82594 0.54152,0.845766 0.5976,1.51505 0.529572,6.319999 -0.0478,3.376352 0.04141,5.374061 0.24,5.374061 0.199011,0 0.319129,-2.814963 0.3243,-7.6 0.01098,-10.150443 0.569456,-12.800411 3.169696,-15.04 0.663028,-0.571067 4.63155,-0.514969 5.78554,0.08178 0.51241,0.264981 1.33326,1.164981 1.82411,2 L 104.8,19.04 l 0.0851,38.026832 0.0851,38.026832 -0.98804,0.922966 c -1.20735,1.127828 -2.46176,1.387306 -5.778494,1.195303 C 96.316125,97.102662 95.426874,96.896934 94.786118,96.421267 93.257955,95.286835 93.129779,94.668 93.124717,88.4 c -0.0034,-4.166064 -0.10961,-5.84 -0.370663,-5.84 -0.265824,0 -0.320905,1.340083 -0.201331,4.898061 0.09054,2.693933 0.0616,5.576816 -0.06429,6.406409 -0.28288,1.863965 -1.277648,2.983389 -2.893808,3.256439 -0.668576,0.112957 -1.480874,0.406381 -1.805107,0.652054 -0.324234,0.245677 -0.927751,0.451261 -1.341152,0.456861 -0.413402,0.0056 -1.277402,0.240858 -1.92,0.522803 -2.223706,0.975667 -2.454381,1.052007 -3.78994,1.254253 -0.737868,0.11173 -1.5115,0.40789 -1.719184,0.65813 -0.20768,0.25025 -0.755971,0.4564 -1.218419,0.45812 -0.462451,0.002 -1.613046,0.36261 -2.556877,0.80198 -0.94383,0.43937 -2.31183,0.89245 -3.04,1.00684 -0.728169,0.11439 -1.905686,0.45541 -2.616704,0.75782 -0.711017,0.30241 -1.791017,0.64832 -2.4,0.76867 -0.608982,0.12036 -1.395238,0.34799 -1.747238,0.50585 -2.018576,0.90527 -3.237904,1.27571 -4.199078,1.27571 -0.594509,0 -1.080922,0.144 -1.080922,0.32 0,0.64251 -1.251354,0.29737 -1.896774,-0.52316 z"
       id="path920"
       inkscape:connector-curvature="0" />
    <path
       style="fill:#000000;stroke-width:0.31999999"
       d="m 44.673162,106.29365 c -0.102976,-0.16661 -0.656564,-0.3728 -1.230196,-0.45817 -0.573632,-0.0854 -2.951145,-0.8213 -5.283363,-1.63536 -2.332221,-0.81407 -4.458176,-1.48012 -4.724342,-1.48012 -0.26617,0 -0.733991,-0.13103 -1.039603,-0.29119 -1.106267,-0.57973 -4.013033,-1.62885 -4.518331,-1.63078 -0.28453,-9.6e-4 -0.91941,-0.2117 -1.410844,-0.46804 -0.491434,-0.25633 -1.427434,-0.558937 -2.08,-0.672451 C 23.733917,99.544026 21.832,98.945466 20.16,98.327405 18.488,97.709347 16.463545,97.00744 15.661211,96.767613 c -0.802334,-0.239827 -1.810334,-0.809901 -2.24,-1.266829 -0.766689,-0.815331 -0.783048,-0.949648 -0.880045,-7.225616 -0.08968,-5.80233 -0.148976,-6.385206 -0.64,-6.290848 -0.483137,0.09284 -0.550495,0.78872 -0.628164,6.489629 l -0.087,6.385638 -0.852871,0.890208 C 9.4999558,96.619443 9.3976634,96.64 5.9032854,96.64 2.769098,96.64 2.2219367,96.557901 1.4831548,95.976774 L 0.64,95.313549 0.64702784,57.336774 C 0.65372054,21.170984 0.68208483,19.298961 1.241834,18.08 c 0.9019831,-1.964241 1.4754673,-2.291215 4.3913519,-2.503741 2.5143613,-0.183261 2.6183011,-0.162671 3.419425,0.677368 0.4544313,0.476505 1.1234981,1.562311 1.4868141,2.412903 0.612514,1.43401 0.660575,2.170303 0.660575,10.12 0,9.020868 0.123345,10.57347 0.84,10.57347 0.356111,0 0.44,-1.039133 0.44,-5.450278 0,-6.962667 -0.125303,-6.649771 5.121796,-12.789722 0.977643,-1.144 2.197345,-2.647313 2.710449,-3.340696 C 23.207956,13.866184 28.055525,9.2203088 32,6.5778442 35.392717,4.3050102 43.772672,0.64 45.576733,0.64 c 0.248089,0 0.750813,0.4849969 1.117168,1.0777709 L 47.36,2.7955418 47.35936,53.47777 c -3.2e-4,47.61067 -0.03441,50.75011 -0.56,51.80223 -0.547187,1.09534 -1.727968,1.65824 -2.126342,1.01365 z m 13.768361,-0.51519 C 57.9776,105.07042 57.928096,100.15935 57.915136,53.555322 l -0.0143,-51.441607 0.804762,-0.8047636 0.804764,-0.80476369 1.84482,0.61339349 C 66.797187,2.9270208 71.364397,5.165009 74.24,7.4312998 c 3.263978,2.5723702 5.410858,4.4173612 6.211226,5.3378172 0.367827,0.423015 1.136774,1.246215 1.708774,1.829334 0.572,0.583118 1.04,1.220308 1.04,1.415977 0,0.195668 0.54,0.907214 1.2,1.581212 1.36439,1.393327 3.452467,3.832298 4.4,5.139403 0.352,0.485577 1.216,1.566974 1.92,2.403105 l 1.28,1.520236 0.16,6.165008 c 0.088,3.390755 0.27583,6.280448 0.417398,6.421542 0.657914,0.655696 0.853053,-1.250742 0.856218,-8.364934 0.0042,-9.473685 0.448694,-12.299078 2.236854,-14.21883 L 96.8,15.448518 l 2.53384,0.05569 c 2.51622,0.0553 2.54125,0.06426 3.59953,1.288511 0.58613,0.678052 1.2091,1.749075 1.38437,2.380051 0.20315,0.73131 0.31934,14.670115 0.32047,38.44736 l 0.002,37.300131 -0.88,0.843044 c -0.82766,0.792908 -1.08932,0.848057 -4.399996,0.927347 -3.692278,0.08843 -4.83127,-0.241363 -5.490736,-1.58985 C 93.723802,94.80336 93.531712,91.752 93.442394,88.32 93.305475,83.058842 93.204704,82.08 92.8,82.08 c -0.409366,0 -0.481926,0.894704 -0.493088,6.08 -0.0161,7.482979 -0.07724,7.659181 -3.026912,8.724784 -1.144,0.413283 -2.635811,0.891555 -3.315133,1.062826 -0.679321,0.17127 -1.822371,0.595123 -2.540105,0.941897 C 82.707027,99.236278 81.748704,99.52 81.295155,99.52 c -0.453549,0 -1.361977,0.288 -2.018733,0.64 -0.656758,0.352 -1.518624,0.64141 -1.915264,0.64313 -0.396636,0.002 -1.493385,0.36261 -2.437216,0.80198 -0.94383,0.43937 -2.31183,0.88963 -3.04,1.00056 -0.728169,0.11094 -1.467942,0.29972 -1.643942,0.41952 -0.176,0.11979 -1.184,0.48235 -2.24,0.80568 -3.254845,0.99658 -4.787072,1.54356 -5.104,1.82202 -0.1672,0.14691 -0.770701,0.26711 -1.341114,0.26711 -0.570412,0 -1.126112,0.144 -1.234886,0.32 -0.358125,0.57946 -1.357232,0.33398 -1.878477,-0.46154 z"
       id="path918"
       inkscape:connector-curvature="0" />
    <path
       style="fill:#000000;stroke-width:0.31999999"
       d="m 44.982803,106.2769 c -0.09623,-0.15571 -0.572733,-0.35595 -1.058886,-0.44496 -1.131831,-0.20726 -8.386592,-2.6792 -9.119575,-3.10736 C 34.49873,102.54606 33.997786,102.4 33.69113,102.4 c -0.306653,0 -1.496608,-0.33606 -2.644342,-0.7468 C 28.733875,100.82548 24.616678,99.494614 22.4,98.858166 21.608,98.630771 20.816,98.343286 20.64,98.219312 20.464,98.095338 19.816,97.888646 19.2,97.76 18.584,97.631354 17.936,97.421069 17.76,97.292704 17.584,97.164336 16.766204,96.877107 15.942675,96.654416 15.119147,96.431725 14.111147,95.894301 13.702675,95.460138 12.99006,94.702704 12.953524,94.41375 12.8,88.321184 c -0.088,-3.492262 -0.261789,-6.450973 -0.386199,-6.574909 -0.124409,-0.123936 -0.448409,-0.14007 -0.72,-0.03585 C 11.271531,81.872464 11.2,82.826115 11.2,88.293738 v 6.393824 L 10.16,95.67937 9.12,96.671178 5.7049014,96.57559 C 2.6001388,96.488685 2.2148428,96.409504 1.4649015,95.704221 L 0.64,94.928438 0.64178461,57.624221 C 0.64303261,31.532296 0.74912714,19.939792 0.99476893,19.055016 1.1879287,18.359274 1.8207257,17.315274 2.4009843,16.735016 3.4082038,15.727796 3.5655603,15.68 5.8743578,15.68 c 2.3696768,0 2.4359424,0.02204 3.2919158,1.094796 1.8960004,2.376182 1.9958514,3.017819 2.0207474,12.985204 0.01253,5.016 0.150041,9.320982 0.305583,9.56663 0.155542,0.245645 0.513337,0.358164 0.7951,0.250042 C 12.730912,39.406598 12.8,38.611062 12.8,33.677706 c 0,-6.143784 0.127433,-6.728822 1.927993,-8.851326 0.435604,-0.51349 1.658044,-1.95349 2.716534,-3.2 1.05849,-1.246509 2.527336,-3.062408 3.264102,-4.035332 C 22.794759,14.836245 28.101732,9.542193 30.4,7.923273 34.195283,5.2498422 37.221302,3.7348637 43.04,1.5950466 43.392,1.4655992 44.082618,1.19783 44.574704,1.0000039 c 0.78495,-0.3155598 0.991043,-0.26334838 1.68,0.4256108 L 47.04,2.2109091 V 53.542301 104.87369 l -0.663226,0.84315 c -0.690499,0.87783 -1.09671,1.04103 -1.393971,0.56006 z M 58.583226,105.71684 57.92,104.87369 V 53.542301 2.2109091 L 58.701859,1.4290503 59.483718,0.64719149 60.968387,1.2835957 C 61.784957,1.6336181 62.639203,1.92 62.866714,1.92 c 0.414278,0 2.438518,0.8515214 6.159942,2.591255 1.092659,0.51081 2.068442,0.928745 2.168406,0.928745 0.381024,0 7.370474,5.635412 8.778996,7.078277 1.326992,1.359345 2.413024,2.650135 3.141436,3.733708 0.439242,0.653408 1.132538,1.548015 1.54066,1.988015 0.408121,0.44 1.179865,1.269302 1.714985,1.842894 0.880624,0.943934 1.663482,1.934699 4.668861,5.908806 l 0.96,1.269439 0.16,6.125744 c 0.140586,5.382435 0.224643,6.138109 0.692723,6.227642 0.483776,0.09253 0.544205,-0.686301 0.657651,-8.476314 C 93.65281,21.357449 94.03232,18.900097 95.715818,16.85772 96.683923,15.683239 96.693504,15.68 99.198362,15.68 h 2.511768 l 1.12604,1.315521 c 0.71587,0.836338 1.24948,1.891124 1.46493,2.89575 0.47975,2.236977 0.47174,73.867052 -0.008,74.920787 -0.61856,1.35758 -1.8826,1.827942 -4.912387,1.827942 -3.108842,0 -4.799866,-0.529616 -5.311034,-1.663373 C 93.88665,94.571482 93.634326,91.432 93.508598,88 93.316938,82.768266 93.202442,81.76 92.8,81.76 c -0.405357,0 -0.505018,0.997658 -0.640877,6.415411 -0.179222,7.146938 -0.379622,7.884688 -2.242998,8.257363 -0.553971,0.110794 -1.463722,0.39641 -2.021674,0.634701 -0.557949,0.238291 -1.878451,0.69704 -2.934451,1.01944 -1.056,0.322403 -2.0568,0.704736 -2.224,0.849635 -0.1672,0.144896 -0.6712,0.266612 -1.12,0.270477 -0.4488,0.0039 -1.408704,0.276186 -2.13312,0.605155 -0.724413,0.328978 -1.804413,0.703698 -2.4,0.832728 -0.595584,0.12902 -1.65888,0.50293 -2.36288,0.83089 -0.704,0.32798 -1.928,0.72727 -2.72,0.88732 -1.349859,0.27279 -2.496502,0.64476 -7.686787,2.49356 -1.147735,0.40882 -2.380211,0.74332 -2.738839,0.74332 -0.358627,0 -0.931574,0.21142 -1.273212,0.46982 -0.844157,0.63849 -0.956148,0.61548 -1.717936,-0.35298 z"
       id="path916"
       inkscape:connector-curvature="0" />
    <path
       style="fill:#000000;stroke-width:0.31999999"
       d="m 44.96,105.92 c -0.108774,-0.176 -0.508458,-0.32 -0.888186,-0.32 -0.608985,0 -2.273241,-0.50411 -4.231814,-1.28183 -1.642573,-0.65225 -5.585776,-1.91799 -5.970358,-1.91645 C 33.633338,102.40267 32.36,101.99401 31.04,101.49358 27.719442,100.23474 24.463902,99.163158 23.602625,99.045526 23.205181,98.991245 21.44,98.41889 19.68,97.773626 17.92,97.128362 15.853336,96.375814 15.087413,96.101296 13.003091,95.35425 12.8,94.610947 12.8,87.729459 12.8,83.025536 12.713971,81.926966 12.32,81.6 c -0.382949,-0.317821 -0.577051,-0.317821 -0.96,0 -0.397828,0.330166 -0.48,1.510704 -0.48,6.895955 v 6.497594 l -0.843155,0.663225 C 9.3025136,96.2344 8.755271,96.319082 5.7968451,96.312883 2.9447247,96.306909 2.2717104,96.207203 1.6,95.691114 L 0.8,95.076458 V 57.378227 19.68 l 0.7465636,-1.459614 c 0.9761656,-1.908512 1.4651466,-2.171739 4.1816575,-2.251059 2.6403223,-0.0771 3.157336,0.236438 4.3863669,2.660035 0.749447,1.47788 0.766202,1.6948 0.803273,10.4 0.04207,9.88019 0.135482,10.810638 1.085282,10.810638 0.607921,0 0.644127,-0.276957 0.796857,-6.095517 0.139177,-5.302219 0.240028,-6.218438 0.774916,-7.04 0.776876,-1.193248 2.383397,-3.222918 3.250349,-4.106476 0.365896,-0.372904 1.808693,-2.11973 3.206215,-3.881835 C 27.019262,9.9054275 32.998438,5.4161245 42.210112,2.0639447 l 3.330115,-1.21184672 0.752781,0.87516242 0.752784,0.8751624 -0.0829,51.1452222 c -0.08069,49.783885 -0.09912,51.163145 -0.692493,51.818785 -0.673379,0.74405 -1.012521,0.83555 -1.310403,0.35357 z m 13.821693,-0.25183 C 58.282534,105.11661 58.243357,101.3634 58.238058,53.5896 58.231443,-6.0511776 57.792621,0.34167779 61.80047,1.6915267 64.395923,2.5656786 68.601824,4.3628298 69.591203,5.0204518 69.938362,5.2512032 70.400438,5.44 70.618038,5.44 71.734531,5.44 82.56,14.771773 82.56,15.734211 c 0,0.141569 1.045466,1.447286 2.323254,2.901594 2.721994,3.098017 4.47433,5.250459 5.916746,7.267695 l 1.04,1.454454 v 5.50019 C 91.84,38.389309 92.082387,40 92.914758,40 93.65152,40 93.75105,38.928378 93.755632,30.946509 93.760528,22.38949 94.177504,19.257564 95.585738,17.2 L 96.40704,16 h 2.616611 c 2.436809,0 2.674529,0.06047 3.459509,0.88 1.93935,2.024729 1.83684,-0.239101 1.83684,40.565002 V 94.75056 l -0.84673,0.78472 c -0.7901,0.732237 -1.07783,0.78472 -4.302153,0.78472 -3.1904,0 -3.524291,-0.05919 -4.353274,-0.771661 L 93.92,94.776678 93.821568,88.372224 c -0.07837,-5.099427 -0.192486,-6.482512 -0.56,-6.78752 -0.35977,-0.298582 -0.57031,-0.292822 -0.954608,0.02611 -0.417942,0.346861 -0.481238,1.345622 -0.415546,6.556979 0.09682,7.680263 0.255412,7.353744 -4.269072,8.789194 -1.816288,0.576243 -3.878342,1.303837 -4.582342,1.61688 -0.704,0.31304 -1.856,0.666867 -2.56,0.786281 -0.704,0.119412 -1.42967,0.340688 -1.612598,0.491722 -0.182928,0.15104 -0.902928,0.41205 -1.6,0.58003 -0.697072,0.16798 -2.275402,0.65941 -3.507402,1.09206 -1.232,0.43266 -3.536,1.18531 -5.12,1.67257 -1.584,0.48725 -3.744,1.21519 -4.8,1.61762 -1.056,0.40244 -2.28,0.79737 -2.72,0.87762 -0.44,0.0803 -1.025085,0.24152 -1.300192,0.35836 -0.298752,0.12688 -0.716822,-0.0269 -1.038115,-0.38197 z"
       id="path914"
       inkscape:connector-curvature="0" />
    <path
       style="fill:#000000;stroke-width:0.31999999"
       d="m 45.083613,105.77694 c -0.07868,-0.0787 -0.570682,-0.22008 -1.093335,-0.31422 -0.522652,-0.0941 -1.742278,-0.4742 -2.710278,-0.84459 -0.968,-0.37038 -2.192,-0.78657 -2.72,-0.92488 -0.528,-0.1383 -1.752,-0.55778 -2.72,-0.93219 -0.968,-0.3744 -2.013955,-0.68081 -2.324342,-0.6809 -0.310388,-9e-5 -0.814388,-0.1354 -1.12,-0.30068 C 31.498594,101.29431 24.143677,98.88 23.562744,98.88 23.270459,98.88 22.78127,98.739869 22.475658,98.568598 22.170046,98.397328 20.192,97.676323 18.08,96.966368 15.759453,96.186307 14.018413,95.409152 13.68,95.00232 13.192386,94.416118 13.119435,93.578797 13.11563,88.52455 13.11043,81.657926 13.03308,81.208826 11.878175,81.342781 L 11.04,81.44 10.88,88.047331 C 10.677476,96.410739 10.932533,96 5.9416061,96 3.2381597,96 2.2114064,95.880227 1.671202,95.501856 L 0.96,95.003709 V 57.561178 20.118644 L 1.6461339,18.523683 C 2.4856833,16.572098 3.4710598,16 5.9929069,16 c 2.3116499,0 2.9732797,0.438619 3.9618649,2.626466 0.7388532,1.635163 0.7707432,2.026642 0.9252282,11.35814 0.167885,10.140898 0.284947,10.916876 1.528808,10.134165 0.481273,-0.302845 0.571488,-1.137373 0.711192,-6.57887 l 0.16,-6.232028 0.96,-1.226069 c 0.528,-0.674337 1.464,-1.842559 2.08,-2.596048 0.616,-0.753489 2.268965,-2.78203 3.673256,-4.507868 C 27.499055,9.7534458 33.982512,4.9444854 42.805827,2.0571672 47.224829,0.61110477 46.72,-6.013184 46.72,53.418394 c 0,45.712755 -0.05234,51.153926 -0.498144,51.790406 -0.481565,0.68753 -0.839968,0.86642 -1.138243,0.56814 z M 58.7532,105.23029 C 58.287469,104.56537 58.24,99.772915 58.24,53.418394 c 0,-50.8598662 0.0028,-51.0817167 0.64711,-51.664828 0.628311,-0.5686139 0.714298,-0.5640951 2.96,0.1555552 4.312653,1.382019 9.218314,3.8620318 12.419732,6.2786836 C 77.179805,10.386713 82.56,15.486432 82.56,16.04863 c 0,0.144639 1.044,1.454088 2.32,2.909888 2.463859,2.811041 4.287123,5.032367 5.845302,7.121482 l 0.954698,1.28 0.16,6.14512 c 0.161802,6.214291 0.34848,7.118016 1.387949,6.719133 0.393561,-0.151024 0.495424,-1.617536 0.619753,-8.92249 0.16458,-9.670139 0.52865,-12.234376 2.013402,-14.18099 C 96.699917,16.021036 96.759594,16 99.040746,16 c 2.294554,0 2.339374,0.01616 3.447504,1.242722 0.75694,0.837836 1.23823,1.781288 1.47724,2.895751 0.24754,1.154265 0.35451,12.601613 0.35451,37.939434 V 94.36431 l -0.72,0.835626 c -0.68937,0.800074 -0.87285,0.838275 -4.31239,0.897846 -3.459684,0.05992 -3.622436,0.03219 -4.405607,-0.750659 -0.800157,-0.799827 -0.816973,-0.917965 -1.047606,-7.36 L 93.6,81.44 H 92.8 92 l -0.16,6.606406 c -0.181795,7.506311 -0.176874,7.491712 -2.781405,8.252052 -0.846227,0.24704 -1.754595,0.551027 -2.018595,0.675529 -0.264,0.124503 -1.344,0.485738 -2.4,0.802743 -1.056,0.317004 -2.0568,0.694921 -2.224,0.83982 -0.1672,0.144896 -0.676752,0.26345 -1.132339,0.26345 -0.455587,0 -1.361226,0.27168 -2.012531,0.603738 -0.651309,0.332054 -1.719056,0.704072 -2.372778,0.826712 -0.653722,0.12264 -1.722067,0.49514 -2.374102,0.82779 -0.652036,0.33264 -1.810733,0.70028 -2.574884,0.81697 -0.764153,0.11669 -1.533366,0.31018 -1.709366,0.42998 -0.176,0.11979 -1.184,0.48058 -2.24,0.80175 -1.056,0.32117 -2.687709,0.87297 -3.626016,1.22622 -0.93831,0.35326 -2.23431,0.74677 -2.88,0.87448 -0.645693,0.1277 -1.411043,0.33189 -1.700784,0.45376 -0.353549,0.14872 -0.695571,-0.0194 -1.04,-0.51111 z"
       id="path912"
       inkscape:connector-curvature="0" />
    <path
       style="fill:#000000;stroke-width:0.31999999"
       d="m 44.32,105.37911 c -0.938262,-0.2248 -3.107152,-0.94806 -6.691034,-2.23128 -1.744067,-0.62446 -3.472067,-1.17307 -3.84,-1.21912 C 33.421037,101.88265 32.184,101.48704 31.04,101.04957 29.896,100.6121 27.664,99.846531 26.08,99.348307 24.496,98.85008 21.832,97.976272 20.16,97.406509 18.488,96.836746 16.510319,96.193098 15.765154,95.976179 13.337525,95.269498 13.300511,95.156784 13.12,87.921386 12.978946,82.267549 12.893688,81.46639 12.4,81.155699 c -0.407775,-0.256627 -0.712225,-0.256483 -1.12,6.4e-4 -0.498495,0.314183 -0.569538,1.06817 -0.646838,6.865018 C 10.522978,96.284016 10.693254,96 5.8496739,96 2.7453413,96 2.4797408,95.948832 1.7389774,95.208067 L 0.94704576,94.416138 1.0335229,57.208067 1.12,20 1.8099002,18.507368 C 2.6810346,16.622627 3.2658861,16.32 6.0371725,16.32 c 2.0779219,0 2.2842883,0.0634 2.864432,0.88 1.5685275,2.207834 1.6561685,2.838131 1.6962565,12.19908 0.02082,4.862507 0.130237,9.27292 0.243142,9.80092 0.172537,0.806864 0.357916,0.96 1.16214,0.96 H 12.96 l 0.16,-6.08 c 0.178231,-6.772781 0.09104,-6.467217 2.77356,-9.720349 C 16.85488,23.193843 18.734631,20.872 20.070784,19.2 23.144569,15.353607 28.719372,9.7798067 31.133354,8.1394202 35.061824,5.4698835 38.327475,3.8412093 42.97311,2.2345916 l 2.493111,-0.862202 0.626889,0.79696 c 0.616544,0.7838061 0.626813,1.6294232 0.622173,51.2338054 -0.0037,39.928371 -0.08875,50.602935 -0.408038,51.234005 -0.418003,0.82619 -0.893939,1.00388 -1.987245,0.74195 z M 58.946099,105.2181 C 58.647853,104.91985 58.56,93.184266 58.56,53.641197 58.56,7.729167 58.61144,2.3935562 59.058816,1.89921 59.528998,1.3796616 59.69889,1.3983757 62.018816,2.2252628 65.156378,3.3435805 69.189923,5.0673875 69.584,5.4583795 69.7512,5.6242707 70.074342,5.76 70.302096,5.76 71.481152,5.76 82.56,15.343467 82.56,16.363377 c 0,0.147528 1.044,1.459341 2.32,2.915141 6.834512,7.797555 6.451238,6.976142 6.64,14.230596 0.138413,5.319532 0.236358,6.225398 0.726003,6.714576 0.43864,0.438217 0.690669,0.486969 1.12,0.216646 0.49745,-0.313213 0.573459,-1.308896 0.744663,-9.754577 C 94.313555,20.677135 94.501117,19.375786 96.040941,17.293062 96.725206,16.367545 96.871616,16.32 99.037405,16.32 c 2.158005,0 2.330795,0.05545 3.305165,1.060749 0.56547,0.583412 1.16971,1.554461 1.34277,2.157887 C 103.88341,20.229269 104,34.351792 104,57.654662 v 37.018887 l -0.84316,0.663225 C 102.43226,95.906733 101.86628,96 99.13223,96 96.042544,96 95.923786,95.973024 95.015386,95.064614 L 94.08,94.129232 V 88.163578 C 94.08,82.030835 93.893875,80.96 92.827923,80.96 c -1.214099,0 -1.335091,0.665203 -1.271152,6.988848 0.05152,5.095811 -0.02144,6.220093 -0.445699,6.867594 -0.395149,0.603072 -1.555702,1.109747 -5.24919,2.291689 -5.98946,1.916669 -6.444058,2.071322 -7.670244,2.609386 -0.554598,0.243366 -1.221011,0.442483 -1.480921,0.442483 -0.259907,0 -1.030144,0.2384 -1.711639,0.52978 -0.681491,0.29138 -1.959078,0.71228 -2.839078,0.93534 -1.671405,0.42365 -5.365562,1.66008 -8.64,2.89179 -2.523683,0.94931 -4.086234,1.18886 -4.573901,0.70119 z"
       id="path910"
       inkscape:connector-curvature="0" />
    <path
       style="fill:#000000;stroke-width:0.31999999"
       d="m 44.16,104.95801 c -0.616,-0.13661 -2.992,-0.92322 -5.28,-1.74801 -2.288,-0.82479 -4.448,-1.57214 -4.8,-1.66076 -0.965766,-0.24317 -5.489571,-1.681451 -7.84,-2.492619 -1.144,-0.39481 -4.170504,-1.394864 -6.725564,-2.222339 C 16.959375,96.006803 14.700384,95.225648 14.494455,95.098378 13.668805,94.588096 13.44,92.883606 13.44,87.243168 13.44,83.13137 13.326589,81.294589 13.056,81.024 12.44753,80.41553 10.946696,80.557453 10.571259,81.258963 10.375291,81.625133 10.24,84.435021 10.24,88.138963 10.24,95.937446 10.386008,95.68 5.9631549,95.68 3.4158698,95.68 2.8398269,95.58051 2.1231548,95.016774 L 1.28,94.353549 V 57.794854 C 1.28,25.99061 1.3433571,21.022814 1.767176,19.595661 2.4485215,17.301322 3.3837178,16.64 5.9468694,16.64 c 1.908537,0 2.0631927,0.05766 2.7895229,1.04 0.4229296,0.572 0.8960759,1.328 1.0514362,1.68 0.1553603,0.352 0.3624205,5.032 0.4601345,10.4 0.09771,5.368 0.293199,10.006518 0.434411,10.307818 0.346478,0.73927 1.310424,1.004182 2.105539,0.578652 C 13.406745,40.31528 13.44,40.005366 13.44,34.569574 c 0,-3.150351 0.139055,-6.093654 0.309012,-6.540674 0.169957,-0.447019 1.469799,-2.220394 2.888539,-3.940832 C 18.05629,22.367631 19.994956,19.952 20.945698,18.72 23.630104,15.241463 28.362633,10.564282 31.392566,8.3953094 34.621206,6.0840915 38.879194,3.9422077 42.747923,2.6832526 45.440458,1.8070529 45.520694,1.7998017 45.954778,2.393445 46.330605,2.9074198 46.4,10.845175 46.4,53.32033 c 0,31.919548 -0.114109,50.61814 -0.31208,51.13884 -0.171645,0.45146 -0.423645,0.80427 -0.56,0.78403 C 45.391565,105.223 44.776,105.09462 44.16,104.95801 Z m 14.917779,0.0931 C 58.968998,104.94233 58.88,81.760813 58.88,53.536624 c 0,-44.8505821 0.05926,-51.3394517 0.470326,-51.4971916 0.61785,-0.2370907 5.540282,1.4796566 9.057703,3.1589625 1.535539,0.7331056 4.015907,2.273375 5.511929,3.4228214 3.057098,2.3488737 7.392317,6.5769487 8.718471,8.5029937 0.483136,0.701685 1.454,1.892819 2.157478,2.646966 0.703479,0.754148 2.432186,2.817241 3.841571,4.584652 L 91.2,27.569304 l 0.03786,5.495349 c 0.04582,6.650441 0.157469,7.299821 1.325712,7.710672 1.614173,0.567673 1.660163,0.321696 1.867927,-9.990497 C 94.633466,20.7605 94.784845,19.658653 96.231955,17.68 c 0.730247,-0.998476 0.848327,-1.04 2.95744,-1.04 h 2.196825 l 1.06689,1.346981 1.06689,1.34698 0.0898,37.133018 c 0.0494,20.423162 0.0152,37.438791 -0.0759,37.812512 -0.26321,1.079181 -1.73332,1.478016 -4.986881,1.352925 C 94.313888,95.469667 94.4,95.629328 94.4,87.94351 c 0,-3.569209 -0.136333,-6.320326 -0.331258,-6.684547 -0.392684,-0.733737 -1.966636,-0.840358 -2.522272,-0.170861 -0.259209,0.31233 -0.353465,2.327629 -0.311081,6.651162 0.0381,3.886662 -0.0661,6.437885 -0.27905,6.831898 -0.250403,0.463318 -2.26351,1.246156 -7.648099,2.974128 -4.019533,1.28991 -7.884291,2.60257 -8.588349,2.91703 -0.704061,0.31445 -1.784061,0.67318 -2.4,0.79717 -1.147257,0.23094 -5.255891,1.55629 -8.959891,2.89024 -2.356,0.84848 -3.990966,1.19263 -4.282221,0.90138 z"
       id="path908"
       inkscape:connector-curvature="0" />
  </g>
</svg>
