<?xml version="1.0" encoding="UTF-8" standalone="no"?>
<!-- Created with Inkscape (http://www.inkscape.org/) -->

<svg
   xmlns:dc="http://purl.org/dc/elements/1.1/"
   xmlns:cc="http://creativecommons.org/ns#"
   xmlns:rdf="http://www.w3.org/1999/02/22-rdf-syntax-ns#"
   xmlns:svg="http://www.w3.org/2000/svg"
   xmlns="http://www.w3.org/2000/svg"
   xmlns:sodipodi="http://sodipodi.sourceforge.net/DTD/sodipodi-0.dtd"
   xmlns:inkscape="http://www.inkscape.org/namespaces/inkscape"
   version="1.1"
   id="svg272"
   width="60.799999"
   height="60.799999"
   viewBox="0 0 60.799999 60.799999"
   sodipodi:docname="stone.svg"
   inkscape:version="0.92.3 (2405546, 2018-03-11)">
  <metadata
     id="metadata278">
    <rdf:RDF>
      <cc:Work
         rdf:about="">
        <dc:format>image/svg+xml</dc:format>
        <dc:type
           rdf:resource="http://purl.org/dc/dcmitype/StillImage" />
        <dc:title></dc:title>
      </cc:Work>
    </rdf:RDF>
  </metadata>
  <defs
     id="defs276" />
  <sodipodi:namedview
     pagecolor="#ffffff"
     bordercolor="#666666"
     borderopacity="1"
     objecttolerance="10"
     gridtolerance="10"
     guidetolerance="10"
     inkscape:pageopacity="0"
     inkscape:pageshadow="2"
     inkscape:window-width="1493"
     inkscape:window-height="982"
     id="namedview274"
     showgrid="false"
     inkscape:zoom="10.932243"
     inkscape:cx="42.519371"
     inkscape:cy="30.51931"
     inkscape:window-x="0"
     inkscape:window-y="0"
     inkscape:window-maximized="0"
     inkscape:current-layer="svg272" />
  <g
     id="g282"
     transform="matrix(1.0107403,0,0,1.0107403,-0.36626317,-1.2227952)">
    <path
       style="fill:#000000;stroke-width:0.31999999"
       d="M 30.879999,49.247298 C 28.944,49.103055 25.162416,48.81486 22.476479,48.60687 19.790543,48.398879 16.308791,48.325647 14.739252,48.44413 8.6948443,48.900422 4.326287,47.232745 1.5590131,43.412636 0.81100514,42.380041 0.63999999,41.815039 0.63999999,40.37622 c 0,-1.696115 0.0933378,-1.891929 2.30323151,-4.831987 1.2667774,-1.685328 2.7720254,-3.568234 3.3449959,-4.184234 1.386528,-1.490655 3.2479491,-5.594451 3.8235796,-8.429683 0.635917,-3.132174 0.983218,-3.891848 2.313024,-5.059433 1.90464,-1.672297 4.13574,-2.500387 7.628218,-2.831273 1.730823,-0.163982 4.217212,-0.590979 5.525309,-0.94888 1.308098,-0.357902 2.62393,-0.65073 2.924073,-0.65073 0.300142,0 1.498269,-0.445755 2.662504,-0.990566 3.084536,-1.443428 4.101061,-1.492942 7.608136,-0.370579 1.64281,0.525744 4.206147,1.221765 5.696304,1.546712 2.653459,0.578619 2.764823,0.64171 5.395907,3.056923 1.477591,1.35636 3.282372,3.245304 4.010624,4.197653 0.72825,0.952349 2.15561,2.724195 3.171907,3.937435 2.5561,3.051432 3.131508,5.049575 3.202,11.119122 0.05962,5.13304 -0.208832,6.315987 -1.775843,7.825414 -1.799453,1.733335 -6.755747,3.889322 -10.181932,4.429143 -1.656621,0.261014 -4.248461,0.684758 -5.759642,0.941654 -2.947648,0.501095 -6.052982,0.531578 -11.652397,0.114387 z"
       id="path290"
       inkscape:connector-curvature="0" />
    <path
       style="fill:#000000;stroke-width:0.31999999"
       d="M 34.853334,49.14901 C 34.632511,48.932066 22.716643,48.254598 15.2,48.031631 8.9265679,47.845542 7.9944645,47.747289 6.6397564,47.129286 4.5475241,46.174838 1.751471,43.458018 1.0965685,41.74318 0.38121356,39.870051 0.66236018,39.173622 3.7373859,35.201612 5.1138236,33.42367 6.693276,31.372082 7.2472802,30.642529 8.5450827,28.933489 10.1002,25.118278 10.71897,22.125339 c 0.624519,-3.020745 1.252979,-3.862735 3.910748,-5.239487 1.769583,-0.916663 2.646532,-1.158594 4.74977,-1.310358 1.418719,-0.102371 3.990483,-0.552736 5.715033,-1.000811 C 26.81907,14.126607 28.452405,13.76 28.724155,13.76 c 0.271749,0 1.246156,-0.355785 2.165348,-0.790632 3.285159,-1.554129 4.13466,-1.63219 7.275034,-0.668501 1.542493,0.473346 4.168128,1.198283 5.834745,1.61097 2.983476,0.738769 3.072727,0.789033 5.787296,3.259252 1.516397,1.379901 3.463037,3.444911 4.32586,4.588911 0.862825,1.144 2.210246,2.83372 2.994265,3.754934 1.711917,2.011478 2.380726,3.936148 2.86511,8.245065 0.417584,3.714736 0.161098,6.651341 -0.73422,8.406311 -0.797722,1.56366 -0.839463,1.595324 -4.677594,3.548374 -2.669219,1.358243 -3.730781,1.709718 -6.4,2.118986 -1.76,0.269859 -4.436422,0.70568 -5.947603,0.968492 -2.534153,0.440717 -7.047011,0.653415 -7.359062,0.346848 z"
       id="path288"
       inkscape:connector-curvature="0" />
    <path
       style="fill:#000000;stroke-width:0.31999999"
       d="M 30.879999,48.614598 C 28.944,48.473826 25.175241,48.186502 22.50498,47.976095 19.798491,47.762838 16.39765,47.691506 14.820123,47.814914 9.6898478,48.216249 6.4489791,47.318191 3.6212163,44.71165 1.3312389,42.600822 0.50272601,40.520547 1.3221222,38.938963 c 0.5140654,-0.99224 3.711696,-5.241191 5.1853759,-6.890228 1.6444122,-1.840084 3.6613269,-6.210272 4.2775789,-9.268525 0.67482,-3.348909 1.064337,-3.985201 3.253808,-5.315234 1.915532,-1.163625 4.173362,-1.779738 6.564791,-1.79139 C 21.327654,15.670058 23.288,15.312944 24.96,14.88 c 1.672,-0.432945 3.31662,-0.790058 3.654711,-0.793586 0.338091,-0.0035 1.53093,-0.452766 2.650753,-0.998307 2.86314,-1.394826 3.93259,-1.466263 7.013383,-0.468475 1.429367,0.462934 3.969991,1.173177 5.645837,1.578318 2.984317,0.721469 3.101021,0.785424 5.673933,3.109335 1.444816,1.304993 3.291398,3.298736 4.103513,4.430539 0.812116,1.131803 2.019904,2.612132 2.683978,3.289619 2.064451,2.106153 2.856787,4.209543 3.436496,9.122752 0.462838,3.922688 0.02634,6.877238 -1.294349,8.761404 -0.675226,0.963303 -5.602637,3.574151 -8.052557,4.266743 -0.921635,0.260547 -3.043699,0.62574 -4.715699,0.811545 -1.672,0.185802 -3.616,0.476653 -4.32,0.646333 -1.472784,0.354976 -5.493936,0.346742 -10.56,-0.02163 z"
       id="path286"
       inkscape:connector-curvature="0" />
    <path
       style="fill:#000000;stroke-width:0.31999999"
       d="M 33.439999,48.464614 C 31.688961,48.138626 19.943123,47.558895 14.72,47.540662 9.0141797,47.520748 8.7349352,47.48949 7.0015964,46.676745 4.8108025,45.649506 2.7251541,43.818233 1.8968266,42.194575 1.192439,40.813862 1.1231472,39.931007 1.6429395,38.959766 2.1501048,38.012118 5.9641532,32.999683 7.0604924,31.839999 8.407028,30.415663 10.502806,25.675042 11.166251,22.552827 c 0.675381,-3.178381 1.348311,-4.075836 4.046951,-5.397231 1.287743,-0.630546 2.567176,-0.928864 4.962616,-1.157103 1.775151,-0.169138 3.339261,-0.376567 3.4758,-0.460952 0.136538,-0.08439 1.67262,-0.46203 3.413516,-0.839209 1.740895,-0.377179 3.671424,-0.947949 4.290065,-1.268377 2.757162,-1.428088 3.561245,-1.465953 7.16505,-0.33741 1.822064,0.570585 4.485673,1.298865 5.919129,1.6184 2.44457,0.544924 2.737568,0.703783 4.722144,2.560255 2.576077,2.409795 4.440669,4.535413 5.104461,5.819045 0.273242,0.528395 1.188688,1.648969 2.034323,2.490164 1.151683,1.145639 1.706768,2.042645 2.211975,3.574518 0.916108,2.777785 1.416582,7.506458 1.039241,9.819152 -0.593219,3.635824 -1.114749,4.261514 -5.252432,6.301498 -2.926966,1.443072 -3.451366,1.582473 -10.299091,2.737869 -2.225168,0.375446 -9.335072,0.679209 -10.56,0.451168 z"
       id="path284"
       inkscape:connector-curvature="0" />
  </g>
</svg>
