<?xml version="1.0" encoding="UTF-8" standalone="no"?>
<!-- Created with Inkscape (http://www.inkscape.org/) -->

<svg
   xmlns:dc="http://purl.org/dc/elements/1.1/"
   xmlns:cc="http://creativecommons.org/ns#"
   xmlns:rdf="http://www.w3.org/1999/02/22-rdf-syntax-ns#"
   xmlns:svg="http://www.w3.org/2000/svg"
   xmlns="http://www.w3.org/2000/svg"
   xmlns:sodipodi="http://sodipodi.sourceforge.net/DTD/sodipodi-0.dtd"
   xmlns:inkscape="http://www.inkscape.org/namespaces/inkscape"
   version="1.1"
   id="svg527"
   width="14"
   height="14"
   viewBox="0 0 14 14"
   sodipodi:docname="stone14.svg"
   inkscape:version="0.92.3 (2405546, 2018-03-11)">
  <metadata
     id="metadata533">
    <rdf:RDF>
      <cc:Work
         rdf:about="">
        <dc:format>image/svg+xml</dc:format>
        <dc:type
           rdf:resource="http://purl.org/dc/dcmitype/StillImage" />
        <dc:title></dc:title>
      </cc:Work>
    </rdf:RDF>
  </metadata>
  <defs
     id="defs531" />
  <sodipodi:namedview
     pagecolor="#ffffff"
     bordercolor="#666666"
     borderopacity="1"
     objecttolerance="10"
     gridtolerance="10"
     guidetolerance="10"
     inkscape:pageopacity="0"
     inkscape:pageshadow="2"
     inkscape:window-width="1144"
     inkscape:window-height="821"
     id="namedview529"
     showgrid="false"
     inkscape:zoom="32"
     inkscape:cx="9.4758326"
     inkscape:cy="9.9639887"
     inkscape:window-x="0"
     inkscape:window-y="0"
     inkscape:window-maximized="1"
     inkscape:current-layer="svg527" />
  <path
     style="fill:#000000;stroke-width:0.0543025"
     d="M 3.5609845,12.054662 C 2.8459291,11.957954 1.5145574,11.432126 1.2649457,11.147835 1.1306879,10.994923 0.95031024,10.682563 0.46234114,9.7579582 0.39141214,9.6235602 0.26746134,9.2814542 0.18689513,8.9977232 0.00270951,8.3490652 -0.05351564,7.3109321 0.07311611,6.8968932 0.11707571,6.7531622 0.20482683,6.4522941 0.26812154,6.2282961 0.65684084,4.8526091 0.67348294,4.8217271 1.3097792,4.2953071 1.5606771,4.0877341 1.8430823,3.7911552 1.9710004,3.6008992 2.3188401,3.0835512 2.495829,2.9029652 2.846092,2.7080182 c 0.2960505,-0.164774 0.3846179,-0.185216 1.0064121,-0.232282 0.3749859,-0.02838 0.817122,-0.0847 0.982524,-0.1251571 0.2798819,-0.06845 0.6343398,-0.115864 1.8755016,-0.2508689 0.2687974,-0.02924 0.7244005,-0.08019 1.0124515,-0.1132301 0.5146503,-0.05903 0.533215,-0.05712 1.0709557,0.1099401 0.5222134,0.162239 0.5640524,0.186832 0.9152874,0.538001 0.4875237,0.487429 1.1784467,1.4004459 1.3990797,1.8488039 0.154707,0.314388 0.246608,0.543609 0.539429,1.345482 0.112,0.306706 0.826172,0.994059 1.504636,1.448136 0.24504,0.163998 0.324596,0.255308 0.401159,0.460426 0.05253,0.140722 0.180619,0.4100941 0.284647,0.598605 0.170381,0.308748 0.185528,0.370004 0.152694,0.617523 -0.04257,0.320914 -0.538398,1.2760679 -0.805958,1.5525839 -0.132116,0.136539 -0.298581,0.216805 -0.716713,0.345586 -0.299545,0.09226 -0.635733,0.214052 -0.747086,0.270654 -0.111354,0.0566 -0.538986,0.165604 -0.950293,0.242227 -0.41131,0.07662 -1.0166337,0.201657 -1.3451637,0.277852 -0.3285305,0.07619 -0.8294711,0.157658 -1.1132017,0.181027 -0.2837306,0.02337 -0.7113628,0.06811 -0.9502938,0.09942 -0.914405,0.11983 -3.2827985,0.202022 -3.8011753,0.131915 z"
     id="path537"
     inkscape:connector-curvature="0" />
</svg>
