<?xml version="1.0" encoding="UTF-8" standalone="no"?>
<!-- Created with Inkscape (http://www.inkscape.org/) -->

<svg
   xmlns:dc="http://purl.org/dc/elements/1.1/"
   xmlns:cc="http://creativecommons.org/ns#"
   xmlns:rdf="http://www.w3.org/1999/02/22-rdf-syntax-ns#"
   xmlns:svg="http://www.w3.org/2000/svg"
   xmlns="http://www.w3.org/2000/svg"
   xmlns:sodipodi="http://sodipodi.sourceforge.net/DTD/sodipodi-0.dtd"
   xmlns:inkscape="http://www.inkscape.org/namespaces/inkscape"
   version="1.1"
   id="svg445"
   width="64"
   height="64"
   viewBox="0 0 64 64"
   sodipodi:docname="stone.svg"
   inkscape:version="0.92.3 (2405546, 2018-03-11)">
  <metadata
     id="metadata451">
    <rdf:RDF>
      <cc:Work
         rdf:about="">
        <dc:format>image/svg+xml</dc:format>
        <dc:type
           rdf:resource="http://purl.org/dc/dcmitype/StillImage" />
        <dc:title></dc:title>
      </cc:Work>
    </rdf:RDF>
  </metadata>
  <defs
     id="defs449" />
  <sodipodi:namedview
     pagecolor="#ffffff"
     bordercolor="#666666"
     borderopacity="1"
     objecttolerance="10"
     gridtolerance="10"
     guidetolerance="10"
     inkscape:pageopacity="0"
     inkscape:pageshadow="2"
     inkscape:window-width="1493"
     inkscape:window-height="982"
     id="namedview447"
     showgrid="false"
     inkscape:zoom="7.34375"
     inkscape:cx="21.562037"
     inkscape:cy="19.500095"
     inkscape:window-x="0"
     inkscape:window-y="0"
     inkscape:window-maximized="0"
     inkscape:current-layer="svg445" />
  <g
     id="g455"
     transform="translate(0.13617)">
    <path
       style="fill:#000000;stroke-width:0.31999999"
       d="M 11.909236,63.53375 C 10.510392,62.761363 2.5467425,54.971344 1.7283137,53.5748 0.31792454,51.168154 0.02341363,49.108467 0.01605594,41.6 0.00765579,33.027715 0.3155987,31.976971 4.6582992,25.76 7.3939805,21.843624 10.36563,19.170728 14.087388,17.278861 16.581525,16.011026 21.849513,12.744127 23.48699,11.449775 25.549523,9.8194371 32.078726,5.9779587 35.377773,4.4537952 36.810707,3.791777 39.26327,2.8596525 40.827914,2.3824072 42.392557,1.9051619 43.962358,1.3310706 44.316358,1.1066488 44.670362,0.88222707 45.788,0.53121286 46.8,0.32661731 c 1.964234,-0.39710783 4.663942,-0.0527577 6.344048,0.80918839 1.109043,0.5689726 2.950803,2.6465434 3.392218,3.8265418 2.515696,6.7249985 3.609552,10.5109585 3.619004,12.5257905 0.0026,0.554476 0.592704,2.282476 1.311338,3.84 1.7592,3.812788 2.285907,6.592699 2.446394,12.911862 0.14232,5.603808 0.10886,5.871462 -1.660224,13.28 -1.209565,5.065386 -2.129232,7.713222 -3.113735,8.964813 -1.425085,1.811702 -8.612605,6.055117 -12.121763,7.156525 -1.716112,0.538633 -34.117524,0.439337 -35.108044,-0.107588 z"
       id="path463"
       inkscape:connector-curvature="0" />
    <path
       style="fill:#000000;stroke-width:0.31999999"
       d="M 10.72,62.116448 C 7.4246291,59.359706 2.4223491,54.112928 1.6668496,52.620806 0.32053693,49.961818 0,47.779834 0,41.274086 V 35.12055 L 1.170637,32.520275 C 2.61,29.323092 6.331632,23.705098 8.1757485,21.945699 9.6793347,20.511187 11.942637,19.01459 17.76,15.608164 c 2.112,-1.236707 4.992,-3.080078 6.4,-4.09638 C 29.300616,7.8012602 35.205402,4.6658906 40.126182,3.0339346 41.904784,2.44407 44.28487,1.5763573 45.415267,1.1056842 c 1.583178,-0.65920222 2.428461,-0.82479775 3.68,-0.7209322 2.419184,0.20076883 5.086967,1.5399036 6.09137,3.0576566 1.521942,2.2998106 4.102579,10.0609304 4.49471,13.5175914 0.148701,1.310812 0.687594,3.085861 1.457248,4.8 0.671709,1.496 1.444115,3.790599 1.716455,5.099109 0.272342,1.30851 0.641369,2.52531 0.82006,2.704 0.382125,0.382127 0.407082,7.672497 0.03353,9.796891 -0.63751,3.625571 -2.742035,11.911904 -3.581152,14.10039 -0.512857,1.337575 -1.321603,2.783088 -1.807763,3.231117 -1.552806,1.431005 -6.466678,4.459552 -9.580909,5.904967 L 45.714835,64 29.337418,63.995158 12.96,63.99032 Z"
       id="path461"
       inkscape:connector-curvature="0" />
    <path
       style="fill:#000000;stroke-width:0.31999999"
       d="M 10.551113,61.562368 C 3.1827379,54.937274 2.0884041,53.572042 0.78629098,49.380298 0.09277411,47.147741 0.00908962,46.293226 0.00480191,41.400406 L 0,35.920816 1.32897,32.920406 C 2.7638657,29.680852 5.7240051,25.039068 7.7717107,22.81757 9.2092864,21.257985 12.027171,19.191058 14.88,17.60362 18.596452,15.535625 21.626084,13.649438 24.16,11.826085 29.316915,8.1152768 35.220928,4.9800822 40.135725,3.3425338 41.909075,2.751675 44.28487,1.8861209 45.415267,1.41908 c 2.547747,-1.05264205 4.5832,-0.96547875 7.185485,0.307701 1.328867,0.6501541 2.004038,1.2305136 2.579146,2.216963 1.736121,2.977873 4.318992,11.383544 4.334726,14.106898 0.0029,0.511853 0.587315,2.193956 1.298573,3.738007 0.711257,1.54405 1.423296,3.606717 1.582304,4.583703 0.159008,0.976987 0.532173,2.288566 0.829254,2.91462 0.46161,0.97277 0.513728,1.846014 0.358439,6.005655 -0.165636,4.436775 -0.320932,5.422013 -1.755408,11.136871 -0.86553,3.448227 -1.994266,7.119136 -2.508298,8.157577 -0.835754,1.688378 -1.255344,2.102592 -3.967046,3.916199 C 53.684598,59.618739 51.096,61.127434 49.6,61.855926 48.104,62.584419 46.689715,63.364858 46.457142,63.59023 46.124666,63.912416 42.531962,64 29.648256,64 h -16.38603 z"
       id="path459"
       inkscape:connector-curvature="0" />
    <path
       style="fill:#000000;stroke-width:0.31999999"
       d="M 13.215901,63.58849 C 13.075156,63.362157 12.528,62.849046 12,62.448243 10.025154,60.949139 2.7990588,53.557773 2.2546488,52.48 1.9434913,51.864 1.3089037,50.021571 0.84445398,48.385715 0.10348227,45.775907 0,44.829773 0,40.664896 0,36.836141 0.09281151,35.841338 0.48,35.52 0.744,35.300899 0.96,34.936304 0.96,34.709786 0.96,33.8152 4.269824,27.84643 6.226961,25.211612 8.2726112,22.457634 10.53844,20.485658 13.76,18.655525 18.698306,15.850129 21.605883,14.048498 24,12.310482 29.499764,8.3179123 36.075066,4.8733235 41.105808,3.3492992 c 1.576195,-0.4774959 3.38152,-1.1369776 4.011834,-1.465515 3.67159,-1.91374052 8.889443,-0.324231 10.309104,3.1404532 C 57.870262,10.987638 59.2,15.643241 59.2,18.234937 c 0,0.49425 0.517853,1.989084 1.150781,3.321853 0.632928,1.33277 1.433469,3.615716 1.778976,5.073214 0.345507,1.457498 0.790102,3.324273 0.987987,4.14839 1.038266,4.323971 -2.085152,20.807577 -4.669379,24.642313 -0.857667,1.272691 -5.281399,4.24993 -9.282432,6.247216 -1.609264,0.803335 -3.041088,1.656685 -3.181834,1.896343 -0.367574,0.625888 -32.379333,0.649552 -32.768198,0.02422 z"
       id="path457"
       inkscape:connector-curvature="0" />
  </g>
</svg>
