<?xml version="1.0" encoding="UTF-8" standalone="no"?>
<!-- Created with Inkscape (http://www.inkscape.org/) -->

<svg
   xmlns:dc="http://purl.org/dc/elements/1.1/"
   xmlns:cc="http://creativecommons.org/ns#"
   xmlns:rdf="http://www.w3.org/1999/02/22-rdf-syntax-ns#"
   xmlns:svg="http://www.w3.org/2000/svg"
   xmlns="http://www.w3.org/2000/svg"
   xmlns:sodipodi="http://sodipodi.sourceforge.net/DTD/sodipodi-0.dtd"
   xmlns:inkscape="http://www.inkscape.org/namespaces/inkscape"
   version="1.1"
   id="svg382"
   width="72.959999"
   height="72.959999"
   viewBox="0 0 72.959999 72.959999"
   sodipodi:docname="stone.svg"
   inkscape:version="0.92.3 (2405546, 2018-03-11)">
  <metadata
     id="metadata388">
    <rdf:RDF>
      <cc:Work
         rdf:about="">
        <dc:format>image/svg+xml</dc:format>
        <dc:type
           rdf:resource="http://purl.org/dc/dcmitype/StillImage" />
        <dc:title></dc:title>
      </cc:Work>
    </rdf:RDF>
  </metadata>
  <defs
     id="defs386" />
  <sodipodi:namedview
     pagecolor="#ffffff"
     bordercolor="#666666"
     borderopacity="1"
     objecttolerance="10"
     gridtolerance="10"
     guidetolerance="10"
     inkscape:pageopacity="0"
     inkscape:pageshadow="2"
     inkscape:window-width="1493"
     inkscape:window-height="982"
     id="namedview384"
     showgrid="false"
     inkscape:zoom="9.1102026"
     inkscape:cx="47.094536"
     inkscape:cy="37.586227"
     inkscape:window-x="0"
     inkscape:window-y="0"
     inkscape:window-maximized="0"
     inkscape:current-layer="svg382" />
  <g
     id="g392"
     transform="translate(-0.32930069,-0.10976708)">
    <path
       style="fill:#000000;stroke-width:0.31999999"
       d="m 25.44,72.547692 c -0.176,-0.213383 -1.34167,-1.539904 -2.590377,-2.947831 -1.248707,-1.407923 -2.860483,-3.351862 -3.581724,-4.319862 -0.721241,-0.968 -2.193255,-2.84 -3.271142,-4.16 -1.077888,-1.32 -2.331186,-3.048 -2.785108,-3.84 -0.934354,-1.630256 -2.984243,-4.970752 -4.2218987,-6.88 -0.4563629,-0.704 -1.4079174,-2.504 -2.1145664,-4 -0.7066486,-1.496 -2.1710729,-4.376 -3.2542761,-6.4 C 0.77019893,34.673356 0.63999676,33.972476 0.64001724,23.953809 L 0.64003449,15.52 2.1600172,12.8 C 3.249198,10.850918 4.5416137,9.2064725 6.7199999,6.997966 9.3683586,4.3129884 10.153032,3.725775 12.810791,2.4398954 16.74233,0.53773494 18.660246,0.18136081 22.664704,0.60890841 26.536542,1.0222965 28.526644,1.625757 30.741564,3.0580625 31.697703,3.6763622 33.272,4.4010623 34.24,4.6685071 c 0.968,0.2674448 3.055999,0.9260419 4.639999,1.4635491 1.584,0.5375069 4.68,1.4485456 6.88,2.0245299 3.193591,0.8361178 5.11857,1.6090854 9.54841,3.8341249 3.586253,1.801319 6.144656,3.314235 7.234425,4.278085 0.927309,0.820162 2.20201,1.886549 2.832669,2.369749 1.245894,0.95458 4.121837,5.740262 5.535034,9.210515 0.463843,1.139017 1.064694,3.22294 1.335222,4.63094 0.654854,3.408272 0.876864,11.787199 0.398506,15.039999 -1.154426,7.850013 -3.26416,15.741482 -4.648087,17.386183 -1.799465,2.138543 -9.207536,6.767433 -12.338899,7.709891 C 53.951062,73.129599 25.867548,73.066047 25.44,72.547692 Z"
       id="path400"
       inkscape:connector-curvature="0" />
    <path
       style="fill:#000000;stroke-width:0.31999999"
       d="m 25.92,72.673068 c 0,-0.157811 -1.028142,-1.417811 -2.28476,-2.8 -1.256617,-1.382189 -3.046579,-3.521069 -3.977691,-4.753069 -0.931113,-1.232 -2.577075,-3.32 -3.657693,-4.64 -1.080617,-1.32 -2.263378,-2.976 -2.628356,-3.68 -0.364979,-0.704 -1.527097,-2.648 -2.582485,-4.32 C 7.9287548,47.94863 1.9522799,36.006758 1.4241187,33.767568 1.0959681,32.376342 0.96814379,29.62703 0.96472994,23.886794 L 0.95999999,15.933589 2.16,13.648904 C 4.6679423,8.874022 8.6981829,4.910887 13.271187,2.7227241 17.479521,0.70905465 18.863071,0.43751523 22.472623,0.9168245 26.445668,1.4444016 28.33602,2.0294382 30.418108,3.3758361 31.376148,3.9953603 32.952,4.722526 33.92,4.9917603 c 0.968,0.2692339 3.234694,0.9818806 5.0371,1.5836594 1.802407,0.6017789 4.898407,1.5156951 6.88,2.0309248 2.7476,0.7143971 4.932295,1.6010855 9.202899,3.7351175 5.465479,2.731113 7.142039,3.874317 10.527648,7.178538 1.684358,1.643867 5.223002,8.361046 5.815926,11.04 0.194768,0.88 0.589514,2.392 0.877213,3.36 0.862371,2.901567 0.743719,11.374124 -0.221833,15.839999 -2.194093,10.148144 -3.351399,13.874269 -4.753028,15.303146 -1.472592,1.501212 -5.521619,4.223932 -9.090777,6.112982 l -3.370435,1.783872 H 40.372358 C 32.061228,72.959999 25.92,72.838073 25.92,72.673068 Z"
       id="path398"
       inkscape:connector-curvature="0" />
    <path
       style="fill:#000000;stroke-width:0.31999999"
       d="m 25.880416,72.239999 c -0.210156,-0.396 -1.346795,-1.8 -2.525865,-3.12 -1.17907,-1.32 -2.632191,-3.066352 -3.229157,-3.880781 C 19.528427,64.42479 17.888,62.310473 16.48,60.540735 15.072,58.770998 12.84,55.49941 11.52,53.270543 7.9886316,47.307699 2.3139032,36.05758 1.7607465,33.92288 1.3945015,32.509494 1.2800041,30.135116 1.2800172,23.953809 L 1.2800345,15.84 2.7983994,13.12 C 3.8793558,11.183574 5.1468966,9.5653704 7.198382,7.5027717 9.6311551,5.0568198 10.553514,4.3726399 13.12,3.1102841 c 4.189934,-2.060868 5.717592,-2.36869595 9.387401,-1.8915909 3.84893,0.5003925 5.798227,1.1110734 7.914163,2.4793691 0.956139,0.6182999 2.530436,1.3456781 3.498436,1.6163965 0.968,0.2707184 3.487999,1.0535315 5.599999,1.7395846 2.112,0.6860535 5.208,1.5949392 6.88,2.0197462 2.190983,0.5566656 4.656957,1.5832764 8.829699,3.6758954 3.184333,1.596935 5.992333,3.147954 6.24,3.44671 0.247664,0.298755 1.391914,1.294673 2.542778,2.213151 1.827171,1.458226 2.347584,2.139914 4.104541,5.376535 1.106636,2.038616 2.276182,4.612727 2.598992,5.720247 1.705376,5.850939 1.733011,6.035579 1.786025,11.933671 0.02848,3.168 -0.05818,5.904 -0.192576,6.08 -0.134393,0.176 -0.698169,2.531258 -1.252835,5.233911 -1.19487,5.82208 -2.353123,9.69831 -3.364963,11.261228 -0.877581,1.355536 -5.354362,4.61664 -9.131661,6.651943 -1.496,0.806083 -2.910285,1.65175 -3.142857,1.87926 -0.333034,0.325789 -3.474503,0.413658 -14.788739,0.413658 H 26.262517 Z"
       id="path396"
       inkscape:connector-curvature="0" />
    <path
       style="fill:#000000;stroke-width:0.31999999"
       d="m 26.24,72.462633 c 0,-0.273549 -1.332,-2.063658 -2.96,-3.978016 -5.012399,-5.894055 -8.56801,-10.521408 -9.923849,-12.91512 -0.713245,-1.259223 -2.030161,-3.441498 -2.92648,-4.849498 -0.8963191,-1.408 -2.1311393,-3.64 -2.7440449,-4.96 -0.6129056,-1.32 -1.8799372,-3.792998 -2.8156255,-5.495548 C 1.7831997,34.647798 1.7892009,34.676908 1.663858,24.711814 L 1.5540732,15.983629 2.749022,13.831814 C 5.4495394,8.9688338 8.9892565,5.5088866 13.539417,3.2845875 c 3.752075,-1.8341628 5.579417,-2.1808031 9.109652,-1.7280686 3.500757,0.4489539 5.804145,1.2216217 7.925738,2.658675 0.897262,0.6077568 2.447081,1.2800383 3.487801,1.5129417 1.030147,0.2305366 3.255484,0.8933088 4.945193,1.4728269 1.689709,0.579518 4.753155,1.5038777 6.807658,2.0541324 4.529862,1.2132271 13.354607,5.4598241 15.62454,7.5187581 0.792,0.718381 1.990298,1.666147 2.662887,2.106147 2.232483,1.460471 6.205439,8.989422 6.923295,13.12 0.19882,1.144 0.571261,2.622915 0.827652,3.286476 0.529462,1.370291 0.613731,6.979664 0.159747,10.633523 -0.390851,3.145728 -2.091757,10.984487 -3.114135,14.351706 -0.476672,1.569939 -1.257996,3.332803 -1.753475,3.956281 -1.242512,1.563498 -5.966963,4.775763 -10.663424,7.25032 -0.878601,0.462931 -1.382601,0.843898 -1.12,0.846592 0.421565,0.0043 0.421268,0.04121 -0.0026,0.315101 C 55.06861,72.8283 49.252726,72.952124 40.559987,72.9551 27.820126,72.959458 26.24,72.905119 26.24,72.462633 Z"
       id="path394"
       inkscape:connector-curvature="0" />
  </g>
</svg>
