<?xml version="1.0" encoding="UTF-8" standalone="no"?>
<!-- Created with Inkscape (http://www.inkscape.org/) -->

<svg
   xmlns:dc="http://purl.org/dc/elements/1.1/"
   xmlns:cc="http://creativecommons.org/ns#"
   xmlns:rdf="http://www.w3.org/1999/02/22-rdf-syntax-ns#"
   xmlns:svg="http://www.w3.org/2000/svg"
   xmlns="http://www.w3.org/2000/svg"
   xmlns:sodipodi="http://sodipodi.sourceforge.net/DTD/sodipodi-0.dtd"
   xmlns:inkscape="http://www.inkscape.org/namespaces/inkscape"
   version="1.1"
   id="svg30"
   width="82.879997"
   height="82.879997"
   viewBox="0 0 82.879997 82.879997"
   sodipodi:docname="swing_gate.svg"
   inkscape:version="0.92.3 (2405546, 2018-03-11)">
  <metadata
     id="metadata36">
    <rdf:RDF>
      <cc:Work
         rdf:about="">
        <dc:format>image/svg+xml</dc:format>
        <dc:type
           rdf:resource="http://purl.org/dc/dcmitype/StillImage" />
        <dc:title></dc:title>
      </cc:Work>
    </rdf:RDF>
  </metadata>
  <defs
     id="defs34" />
  <sodipodi:namedview
     pagecolor="#ffffff"
     bordercolor="#666666"
     borderopacity="1"
     objecttolerance="10"
     gridtolerance="10"
     guidetolerance="10"
     inkscape:pageopacity="0"
     inkscape:pageshadow="2"
     inkscape:window-width="1920"
     inkscape:window-height="1137"
     id="namedview32"
     showgrid="false"
     inkscape:zoom="8.0115833"
     inkscape:cx="69.360506"
     inkscape:cy="30.69541"
     inkscape:window-x="-8"
     inkscape:window-y="-8"
     inkscape:window-maximized="1"
     inkscape:current-layer="svg30" />
  <g
     id="g40"
     transform="translate(3.2213987e-7,0.49927731)">
    <path
       style="fill:#000000;stroke-width:0.31999999"
       d="M 0.38399999,81.855997 C 0.11134207,81.583338 0,79.64546 0,75.172576 0,68.508462 0.15595306,67.663431 1.5684201,66.6741 L 2.2399999,66.203706 V 35.298981 c 0,-23.012239 0.097502,-31.2301613 0.3817898,-32.1790292 C 2.831774,2.4190864 3.4188511,1.4303797 3.926405,0.9228256 4.7390709,0.11015978 5.07914,0 6.7752167,0 9.1157744,0 10.254446,0.69002039 11.003603,2.562349 11.41974,3.6023787 11.52,5.1202472 11.52,10.380303 c 0,3.590044 0.08741,6.75513 0.194236,7.033525 0.170882,0.445311 1.299765,0.506171 9.388888,0.506171 h 9.194653 l 1.969489,0.984165 c 2.327075,1.162854 3.766841,2.791386 5.228496,5.913994 0.955053,2.040334 1.050259,2.535539 1.165433,6.061841 0.107879,3.302918 0.02838,4.130918 -0.568412,5.92 -1.282813,3.84566 -3.82944,6.787951 -6.833886,7.895654 -0.685479,0.252729 -4.018258,0.383622 -10.184661,0.4 -8.048267,0.02138 -9.189445,0.08606 -9.36,0.530518 C 11.607406,45.904565 11.52,50.591905 11.52,56.042484 v 9.910144 l 1.104334,1.023683 c 0.607385,0.563027 1.255385,1.429059 1.44,1.924519 0.186329,0.500054 0.335665,3.351311 0.335665,6.408796 0,4.467232 -0.09413,5.642349 -0.498145,6.219168 -0.486166,0.694102 -0.650065,0.711203 -6.8159995,0.711203 -4.4872202,0 -6.4291207,-0.111267 -6.70185451,-0.384 z M 69.302733,81.535347 c -0.409708,-0.58494 -0.502735,-1.736953 -0.502735,-6.225721 0,-3.057485 0.149337,-5.908742 0.335663,-6.408796 0.184618,-0.49546 0.832618,-1.361492 1.44,-1.924519 l 1.104336,-1.023683 v -9.910144 c 0,-5.450579 -0.0874,-10.137919 -0.194236,-10.416313 -0.171053,-0.445753 -1.326484,-0.506387 -9.68,-0.507958 -5.547024,-9.6e-4 -9.980678,-0.139235 -10.67768,-0.33281 -1.673715,-0.464832 -3.715299,-2.114848 -5.14007,-4.154224 -4.375219,-6.262566 -3.085955,-16.917522 2.527462,-20.887906 2.452989,-1.735003 2.727946,-1.772674 13.130288,-1.798929 8.48598,-0.02142 9.66912,-0.08521 9.84,-0.530516 0.106832,-0.278395 0.194236,-3.443481 0.194236,-7.033525 0,-5.2600558 0.10026,-6.7779243 0.516397,-7.817954 C 72.945553,0.69002039 74.084221,0 76.424781,0 c 1.696077,0 2.036144,0.11015978 2.84881,0.9228256 0.507555,0.5075541 1.094633,1.4962608 1.304617,2.1971262 0.284272,0.9488193 0.381789,9.1578712 0.381789,32.1394642 v 30.865167 l 0.791523,0.688221 c 0.435338,0.378518 0.872119,1.016486 0.970627,1.417706 0.09851,0.401219 0.138324,3.681487 0.08848,7.289487 l -0.09063,6.56 -6.457264,0.08655 c -6.374393,0.08544 -6.463718,0.07734 -6.96,-0.631204 z"
       id="path54"
       inkscape:connector-curvature="0" />
    <path
       style="fill:#000000;stroke-width:0.31999999"
       d="M 1.28,82.017923 C 0.12879203,81.606493 0,80.929392 0,75.288557 0,69.230049 0.2436337,68.062986 1.7088042,67.102967 L 2.5449247,66.555121 2.6324623,34.95756 C 2.7289655,0.12378698 2.5990684,2.302568 4.6767611,0.6682547 5.9843761,-0.36031525 8.2948861,-0.25747377 9.4339814,0.87999997 9.9186716,1.364 10.47586,2.1199999 10.672179,2.5599999 10.883088,3.0327016 11.096807,6.3711447 11.194561,10.72 l 0.165439,7.359999 9.599999,0.16 c 9.245115,0.154085 9.656057,0.187607 11.116397,0.906802 3.936403,1.938617 6.323603,6.684595 6.323603,12.571919 0,4.47949 -1.459559,8.203525 -4.177632,10.659138 -2.456515,2.219315 -2.59346,2.244326 -13.262368,2.42214 l -9.599999,0.16 -0.08423,10.7752 -0.08423,10.7752 1.000431,0.712371 c 1.644756,1.171168 1.888022,2.220176 1.888022,8.141497 0,5.205613 -0.01469,5.31951 -0.785454,6.090275 -0.773873,0.773875 -0.864704,0.785085 -6.1599997,0.760192 C 4.1785454,82.200839 1.5439999,82.112275 1.28,82.017923 Z m 68.625453,-0.563382 c -0.770768,-0.770765 -0.785456,-0.884662 -0.785456,-6.090275 0,-5.921321 0.243268,-6.970329 1.888023,-8.141497 l 1.000432,-0.712371 -0.08423,-10.7752 -0.08423,-10.7752 -10.079999,-0.16 c -9.704809,-0.154044 -10.135606,-0.187392 -11.57392,-0.89592 -3.006141,-1.480857 -5.260934,-4.844697 -6.191558,-9.236946 -0.578854,-2.732005 -0.578854,-3.562262 0,-6.294266 0.930624,-4.392251 3.185417,-7.756089 6.191558,-9.236946 1.438314,-0.708529 1.869111,-0.741876 11.57392,-0.895921 l 10.079999,-0.16 0.16,-7.535159 C 72.17114,2.4849864 72.207274,2.3043242 73.978308,0.65435694 74.9512,-0.252032 77.362656,-0.24465811 78.523236,0.66825486 80.600656,2.3023546 80.471024,0.13402195 80.567619,34.864258 l 0.08762,31.504258 1.112377,1.018899 1.112378,1.018899 v 6.604762 6.604761 l -0.820832,0.31208 c -0.451456,0.171645 -3.194003,0.31208 -6.094544,0.31208 -5.172585,0 -5.288777,-0.01507 -6.059168,-0.785456 z"
       id="path52"
       inkscape:connector-curvature="0" />
    <path
       style="fill:#000000;stroke-width:0.31999999"
       d="m 0.61445659,81.254455 c -0.63257637,-0.632576 -0.6603154,-0.945632 -0.55999999,-6.32 0.11441083,-6.129526 0.31759462,-6.898038 2.0300306,-7.678278 L 2.8799999,66.893719 2.8817845,35.76686 C 2.8830234,14.159063 2.9909713,4.2531486 3.2347688,3.3750156 4.0771045,0.34101132 6.8935866,-0.88966672 8.9789594,0.86505869 10.738874,2.3459294 10.88,3.0857257 10.88,10.830539 c 0,5.317497 0.09925,7.093467 0.410879,7.352095 0.264053,0.219145 3.780332,0.376084 9.839999,0.439182 l 9.429121,0.09818 1.76,0.991611 c 3.60016,2.028386 5.463686,5.648856 5.687302,11.049326 0.213098,5.146391 -1.119174,8.940397 -4.043254,11.514275 -2.30418,2.028221 -3.383557,2.204787 -13.478128,2.204787 -6.447271,0 -8.941791,0.103872 -9.221919,0.384 -0.283268,0.283268 -0.384,3.175047 -0.384,11.023715 v 10.639715 l 1.095393,0.835498 c 0.602466,0.459523 1.250466,1.280339 1.44,1.824035 0.191786,0.55016 0.344607,3.308851 0.344607,6.220787 0,6.966086 0.479465,6.512249 -6.8800002,6.512249 -5.2449754,0 -5.6421934,-0.04219 -6.26554321,-0.665542 z m 69.46554041,0.02554 c -0.589948,-0.589949 -0.64,-1.066666 -0.64,-6.095891 0,-5.994422 0.153162,-6.63614 1.88881,-7.913689 l 0.99119,-0.729578 v -10.64642 c 0,-7.853881 -0.100723,-10.747142 -0.384,-11.030419 -0.281382,-0.281382 -2.91711,-0.384 -9.862994,-0.384 -10.694032,0 -11.426518,-0.11816 -13.826038,-2.2303 -1.757437,-1.546957 -2.967978,-3.765677 -3.773959,-6.91704 -0.792185,-3.097418 -0.794572,-4.518569 -0.01274,-7.575575 0.824839,-3.225087 1.687965,-4.833424 3.586087,-6.68225 2.45495,-2.391186 3.161852,-2.514834 14.377484,-2.514834 8.374566,0 9.530832,-0.06033 9.70192,-0.506171 0.106832,-0.278395 0.194236,-3.59502 0.194236,-7.370278 0,-7.5857532 0.146442,-8.3420937 1.90104,-9.81849131 2.085373,-1.75472541 4.901856,-0.52404737 5.744192,2.50995691 0.243792,0.8781135 0.351744,10.7799144 0.352982,32.3767654 l 0.0019,31.111781 0.950516,0.49153 c 0.52278,0.270342 1.09878,0.768573 1.28,1.107181 0.192976,0.360579 0.329484,3.146665 0.329484,6.724607 v 6.108957 l -0.820832,0.31208 c -0.451456,0.171645 -3.187455,0.31208 -6.079999,0.31208 -4.832503,0 -5.311091,-0.05192 -5.899168,-0.64 z"
       id="path50"
       inkscape:connector-curvature="0" />
    <path
       style="fill:#000000;stroke-width:0.31999999"
       d="M 0.78116144,81.145882 C 0.23465033,80.746339 0.14634519,80.204813 0.04637907,76.639863 -0.14026064,69.984001 0.10087281,69.050772 2.5053745,67.12313 L 3.1999999,66.56626 V 35.192853 c 0,-25.8628277 0.077066,-31.5542746 0.4387587,-32.4031311 C 4.7113422,0.27247802 7.1537921,-0.5822419 8.821655,0.97599996 10.618162,2.6544306 10.708819,3.1023492 10.826203,10.88 c 0.06541,4.333702 0.240734,7.359238 0.440414,7.599999 0.251533,0.303283 2.58961,0.4 9.669734,0.4 h 9.337987 l 1.648576,0.82152 c 2.698454,1.344696 4.658451,4.119295 5.67975,8.040335 1.617491,6.209962 -1.052105,13.466993 -5.762665,15.665232 -1.560218,0.728096 -1.831131,0.74674 -10.896,0.749786 -6.799937,0.0022 -9.399107,0.106234 -9.679999,0.387126 -0.283588,0.283588 -0.384,3.225146 -0.384,11.249155 v 10.865155 l 1.28,1.18169 1.28,1.181689 v 5.905155 c 0,4.16623 -0.113079,6.018233 -0.384,6.289155 -0.594697,0.594698 -11.4502961,0.532688 -12.27483856,-0.07012 z m 69.36283556,0.07012 c -0.270921,-0.270922 -0.384,-2.122925 -0.384,-6.289155 v -5.905155 l 1.28,-1.181689 1.28,-1.18169 v -10.86516 c 0,-8.024009 -0.100412,-10.965567 -0.384,-11.249155 -0.281766,-0.281766 -2.986723,-0.384832 -10.159999,-0.387126 -9.567747,-0.0032 -9.810083,-0.01904 -11.376,-0.749786 -2.825101,-1.318368 -5.005251,-4.43438 -5.854115,-8.367087 -0.616339,-2.855431 -0.631597,-3.365685 -0.178701,-5.975494 0.789533,-4.549672 2.869581,-7.827998 5.936403,-9.356261 l 1.662074,-0.828245 h 9.817987 c 7.464124,0 9.897523,-0.0959 10.149734,-0.4 0.19968,-0.240761 0.375008,-3.266297 0.440413,-7.599999 0.117385,-7.7776508 0.208041,-8.2255694 2.00455,-9.90400004 1.667862,-1.55824186 4.11031,-0.70352194 5.182896,1.81372194 0.361648,0.84875 0.438758,6.5185789 0.438758,32.2610351 0,20.916585 0.109405,31.43574 0.331258,31.850277 0.182192,0.340429 0.53174,0.618964 0.776774,0.618964 0.245034,0 0.743968,0.37942 1.108742,0.843155 0.61618,0.783344 0.663226,1.259228 0.663226,6.708739 0,5.471628 -0.04157,5.887836 -0.618963,6.196847 -0.907549,0.485703 -11.625241,0.439053 -12.117037,-0.05274 z"
       id="path48"
       inkscape:connector-curvature="0" />
    <path
       style="fill:#000000;stroke-width:0.31999999"
       d="M 1.0312019,81.101853 C 0.34244159,80.619424 0.31999999,80.427405 0.31999999,75.016468 v -5.587239 l 1.43999991,-1.379763 1.44,-1.379763 0.00179,-31.01485 C 3.2029336,15.681206 3.3190751,4.2241477 3.5280268,3.4718674 4.2716024,0.79479962 7.0425239,-0.50828193 8.7796918,1.0021661 10.346742,2.3646985 10.56,3.5823493 10.56,11.167293 c 0,5.222206 0.101814,7.07884 0.401843,7.327843 0.252452,0.209515 3.970127,0.372829 10,0.439289 9.127074,0.100597 9.660979,0.139791 10.878156,0.798567 1.906365,1.031787 3.516915,2.876876 4.702236,5.387007 1.021136,2.162436 1.057764,2.378507 1.057764,6.24 0,4.858585 -0.689757,7.096329 -2.968621,9.630976 -2.699139,3.002092 -2.668681,2.995177 -13.671379,3.103788 -8.463018,0.08354 -9.647373,0.157111 -9.999999,0.621162 -0.301481,0.396745 -0.4,3.154809 -0.4,11.198073 v 10.67168 l 1.36,1.255024 1.36,1.255023 0.101512,5.68777 c 0.130422,7.307488 0.596143,6.816502 -6.4657612,6.816502 -4.1643735,0 -5.3120547,-0.09716 -5.8845489,-0.498144 z m 69.6090131,0.287622 c -0.832698,-0.232534 -0.934477,-1.092873 -0.822403,-6.951817 l 0.102185,-5.341993 1.36,-1.254992 1.36,-1.254995 v -10.67168 c 0,-8.041408 -0.09859,-10.802275 -0.4,-11.201552 -0.354752,-0.469936 -1.54022,-0.540198 -10.479999,-0.621161 -9.682387,-0.08769 -10.13191,-0.119059 -11.396022,-0.795354 -4.185984,-2.239488 -6.819274,-8.424815 -5.92271,-13.911844 0.71118,-4.352483 2.990697,-8.044557 5.958732,-9.651203 1.222013,-0.661495 1.736522,-0.697628 11.356966,-0.79758 6.383501,-0.06632 10.224691,-0.227293 10.48,-0.439182 0.301549,-0.250263 0.403033,-2.095673 0.403033,-7.328829 0,-7.5849437 0.213258,-8.8025945 1.780308,-10.1651269 1.737167,-1.51044803 4.508089,-0.20736648 5.251667,2.4697013 0.208796,0.7517312 0.326838,12.2328846 0.331142,32.2081316 0.0037,17.071999 0.112477,31.194843 0.241782,31.384098 0.129306,0.189254 0.692839,0.610243 1.252298,0.935526 0.559459,0.325283 1.097494,0.890439 1.195632,1.255901 0.303286,1.12943 0.195357,11.195967 -0.125491,11.704473 -0.24794,0.392947 -1.306189,0.489594 -5.835101,0.532899 -3.042729,0.02909 -5.784137,-0.01744 -6.092019,-0.103421 z"
       id="path46"
       inkscape:connector-curvature="0" />
    <path
       style="fill:#000000;stroke-width:0.31999999"
       d="M 0.87111706,80.636339 C 0.4033196,80.089991 0.31999999,79.274989 0.31999999,75.245504 c 0,-5.209423 0.28373957,-6.322002 1.86935121,-7.32997 0.4678568,-0.297415 0.9564437,-0.68808 1.0857485,-0.868144 0.129305,-0.180068 0.237305,-14.408016 0.24,-31.61767 C 3.5204508,1.2604513 3.4288722,2.9287474 5.3940875,1.2 6.5950756,0.1435227 7.2537463,0.11021187 8.3302871,1.0515081 10.096101,2.5954851 10.069353,2.4597587 10.24,10.741927 c 0.088,4.270992 0.279672,7.885282 0.425939,8.031756 0.146267,0.146474 4.682267,0.338316 10.08,0.426316 9.30482,0.151698 9.88161,0.196158 11.115888,0.856827 6.878354,3.681761 7.906428,16.096609 1.78846,21.597188 -0.871811,0.783834 -2.156485,1.59634 -2.854827,1.805568 -0.852127,0.255303 -4.270338,0.380416 -10.393405,0.380416 -8.097725,0 -9.173077,0.05953 -9.562873,0.52936 C 10.485781,44.795323 10.4,47.040609 10.4,55.864769 v 10.966054 l 1.36,1.255431 1.36,1.255433 v 5.585155 c 0,3.917344 -0.114669,5.699824 -0.384,5.969155 -0.268687,0.268685 -2.025086,0.384 -5.8488831,0.384 -5.0792401,0 -5.5037737,-0.04542 -6.01599984,-0.643658 z M 70.479997,80.914202 c -0.28936,-0.290954 -0.4,-1.947078 -0.4,-5.98736 v -5.585155 l 1.36,-1.25568 1.36,-1.255677 V 55.864196 c 0,-8.824383 -0.08578,-11.069455 -0.43918,-11.495164 -0.390624,-0.470538 -1.501085,-0.529034 -10.042877,-0.529034 -6.493884,0 -10.014841,-0.123184 -10.873404,-0.380416 -1.663866,-0.498505 -4.244931,-2.845891 -5.198669,-4.727999 -2.818617,-5.562272 -2.126918,-12.490689 1.666163,-16.689176 2.396128,-2.652228 2.443597,-2.661823 14.061987,-2.842408 5.661709,-0.088 10.413708,-0.279726 10.56,-0.426059 0.146288,-0.146333 0.33798,-3.746333 0.42598,-8 0.17306,-8.3652599 0.253415,-8.7476886 2.090976,-9.95170547 C 76.12626,0.11768005 76.658512,0.19066409 77.805911,1.2 c 1.965715,1.7291886 1.874086,0.05231 1.874086,34.297103 0,24.702898 0.08489,31.425266 0.4,31.676219 0.22,0.17521 0.904,0.74474 1.52,1.265623 l 1.12,0.947062 0.08675,5.386995 c 0.05069,3.14793 -0.04398,5.586502 -0.227776,5.866995 -0.4284,0.653779 -11.472556,0.90408 -12.098976,0.274205 z"
       id="path44"
       inkscape:connector-curvature="0" />
    <path
       style="fill:#000000;stroke-width:0.31999999"
       d="M 1.344,80.575997 C 1.0778352,80.309831 0.95999997,78.64512 0.95999997,75.151053 c 0,-4.797507 0.28812413,-6.671055 1.02591023,-6.671055 0.1557493,0 0.6366351,-0.353456 1.0686351,-0.785456 L 3.8399999,66.909089 V 35.524268 C 3.8399999,1.7343564 3.7954834,2.6598812 5.4773992,1.4818215 6.5552961,0.72683313 7.5359175,0.83801642 8.6364835,1.8399999 9.9707027,3.0547075 10.24,4.8423595 10.24,12.484494 c 0,4.796541 0.100247,6.400339 0.416466,6.662777 0.272462,0.226123 3.794531,0.377983 10.185893,0.439183 l 9.769425,0.09354 1.552464,0.960308 c 5.928813,3.667389 7.033498,14.464242 2.05953,20.129276 -0.534758,0.609056 -1.714147,1.477059 -2.620864,1.928895 l -1.648576,0.82152 h -9.497987 c -7.643805,0 -9.568894,0.08544 -9.861205,0.437652 -0.259772,0.313004 -0.339285,3.752265 -0.279183,12.075782 L 10.4,67.671559 l 0.877426,0.420448 c 1.464685,0.70185 1.630276,1.413446 1.640501,7.049737 0.0077,4.219181 -0.07956,5.278067 -0.454227,5.515098 -0.720375,0.455737 -10.6553503,0.383504 -11.1197,-0.08084 z m 69.180877,0.0072 c -0.384451,-0.622054 -0.244422,-10.641881 0.159264,-11.396176 0.198554,-0.370998 0.755847,-0.863743 1.238429,-1.094988 l 0.877427,-0.420448 0.08404,-11.638128 c 0.0601,-8.323516 -0.01939,-11.762777 -0.279181,-12.075782 -0.292899,-0.352921 -2.291623,-0.438256 -10.324035,-0.440777 -9.758521,-0.0032 -9.99336,-0.01827 -11.563148,-0.749293 -5.975879,-2.782826 -7.832423,-12.836817 -3.546948,-19.20827 0.84568,-1.257318 1.866637,-2.28875 2.883357,-2.912941 l 1.574083,-0.966363 10.253581,-0.09697 c 6.236963,-0.05899 10.405084,-0.22271 10.640335,-0.417951 0.276135,-0.229169 0.416954,-2.443864 0.492336,-7.743026 0.0787,-5.5321087 0.217623,-7.6257602 0.545572,-8.2220491 1.202924,-2.1871906 2.643855,-2.78195665 4.162614,-1.7181784 1.681913,1.1780597 1.637398,0.2525349 1.637398,34.0424465 v 31.384821 l 0.769536,0.705453 c 0.423245,0.388 0.963245,0.87856 1.2,1.090131 1.180179,1.054636 1.230464,1.326832 1.230464,6.660703 0,3.197226 -0.118608,5.239088 -0.297888,5.128288 -0.16384,-0.101261 -0.388339,-0.03776 -0.498886,0.141114 -0.298973,0.483747 -10.93767,0.434896 -11.238346,-0.05161 z"
       id="path42"
       inkscape:connector-curvature="0" />
  </g>
</svg>
