<?xml version="1.0" encoding="UTF-8" standalone="no"?>
<!-- Created with Inkscape (http://www.inkscape.org/) -->

<svg
   xmlns:dc="http://purl.org/dc/elements/1.1/"
   xmlns:cc="http://creativecommons.org/ns#"
   xmlns:rdf="http://www.w3.org/1999/02/22-rdf-syntax-ns#"
   xmlns:svg="http://www.w3.org/2000/svg"
   xmlns="http://www.w3.org/2000/svg"
   xmlns:sodipodi="http://sodipodi.sourceforge.net/DTD/sodipodi-0.dtd"
   xmlns:inkscape="http://www.inkscape.org/namespaces/inkscape"
   version="1.1"
   id="svg1287"
   width="64.32"
   height="64.32"
   viewBox="0 0 64.32 64.32"
   sodipodi:docname="swing_gate.svg"
   inkscape:version="0.92.3 (2405546, 2018-03-11)">
  <metadata
     id="metadata1293">
    <rdf:RDF>
      <cc:Work
         rdf:about="">
        <dc:format>image/svg+xml</dc:format>
        <dc:type
           rdf:resource="http://purl.org/dc/dcmitype/StillImage" />
        <dc:title></dc:title>
      </cc:Work>
    </rdf:RDF>
  </metadata>
  <defs
     id="defs1291" />
  <sodipodi:namedview
     pagecolor="#ffffff"
     bordercolor="#666666"
     borderopacity="1"
     objecttolerance="10"
     gridtolerance="10"
     guidetolerance="10"
     inkscape:pageopacity="0"
     inkscape:pageshadow="2"
     inkscape:window-width="1920"
     inkscape:window-height="1137"
     id="namedview1289"
     showgrid="false"
     inkscape:zoom="5.1889677"
     inkscape:cx="51.573217"
     inkscape:cy="22.131876"
     inkscape:window-x="-8"
     inkscape:window-y="-8"
     inkscape:window-maximized="1"
     inkscape:current-layer="svg1287" />
  <path
     style="fill:#000000;stroke-width:0.31999999"
     d="M 16.8,59.696962 C 12.752,57.422752 9.188,55.255982 8.88,54.881922 8.35791,54.247862 8.32069,52.638962 8.33018,31.117266 8.33818,13.322801 8.43079,7.9139259 8.73501,7.5143479 9.40934,6.6286499 23.72542,0.83271696 25.23879,0.83271696 H 26.56 L 26.568,20.032717 c 0.004,10.56 0.008,23.375995 0.008,28.479995 0,5.104 -0.003,10.648 -0.008,12.32 l -0.008,3.04 -1.2,-0.0204 c -0.92349,-0.0157 -2.89591,-0.97319 -8.56,-4.15533 z m 22.55238,1.13575 c -0.004,-1.672 -0.008,-7.216 -0.008,-12.32 0,-5.104 0.003,-17.919995 0.008,-28.479995 l 0.008,-19.20000004 h 1.32121 c 1.51337,0 15.82945,5.79593294 16.50378,6.68163094 0.30422,0.399587 0.39699,5.8121021 0.40483,23.6205251 l 0.0102,23.102149 -0.72,0.77589 c -0.396,0.42674 -3.99624,2.59476 -8.00054,4.81784 -5.43658,3.01825 -7.56406,4.04196 -8.4,4.04196 H 39.3604 l -0.008,-3.04 z"
     id="path1297"
     inkscape:connector-curvature="0" />
</svg>
