<?xml version="1.0" encoding="UTF-8" standalone="no"?>
<!-- Created with Inkscape (http://www.inkscape.org/) -->

<svg
   xmlns:dc="http://purl.org/dc/elements/1.1/"
   xmlns:cc="http://creativecommons.org/ns#"
   xmlns:rdf="http://www.w3.org/1999/02/22-rdf-syntax-ns#"
   xmlns:svg="http://www.w3.org/2000/svg"
   xmlns="http://www.w3.org/2000/svg"
   xmlns:sodipodi="http://sodipodi.sourceforge.net/DTD/sodipodi-0.dtd"
   xmlns:inkscape="http://www.inkscape.org/namespaces/inkscape"
   version="1.1"
   id="svg1337"
   width="64"
   height="64"
   viewBox="0 0 64 64"
   sodipodi:docname="swing_gate.svg"
   inkscape:version="0.92.3 (2405546, 2018-03-11)">
  <metadata
     id="metadata1343">
    <rdf:RDF>
      <cc:Work
         rdf:about="">
        <dc:format>image/svg+xml</dc:format>
        <dc:type
           rdf:resource="http://purl.org/dc/dcmitype/StillImage" />
        <dc:title></dc:title>
      </cc:Work>
    </rdf:RDF>
  </metadata>
  <defs
     id="defs1341" />
  <sodipodi:namedview
     pagecolor="#ffffff"
     bordercolor="#666666"
     borderopacity="1"
     objecttolerance="10"
     gridtolerance="10"
     guidetolerance="10"
     inkscape:pageopacity="0"
     inkscape:pageshadow="2"
     inkscape:window-width="1920"
     inkscape:window-height="1137"
     id="namedview1339"
     showgrid="false"
     inkscape:zoom="10.429825"
     inkscape:cx="46.858038"
     inkscape:cy="32.680021"
     inkscape:window-x="-8"
     inkscape:window-y="-8"
     inkscape:window-maximized="1"
     inkscape:current-layer="svg1337" />
  <g
     id="g1347"
     transform="translate(0.43003887,0.25473588)">
    <path
       style="fill:#000000;stroke-width:0.31999999"
       d="M 22.08,63.375933 C 21.64,63.231037 18.184,61.341402 14.4,59.176739 L 7.52,55.240995 4.24,55.11137 0.96,54.981744 v -26.9847 C 0.96,13.155459 1.0474064,0.78456659 1.1542364,0.506172 1.3130447,0.09232422 1.9196538,0 4.48,0 8.1245504,0 8,-0.11914684 8,3.3672864 8,4.662505 8.1355821,5.8060234 8.3012938,5.9084387 8.4670051,6.0108541 11.588022,4.8414957 15.236888,3.3098646 21.221137,0.79794288 22.077385,0.522872 23.975594,0.50254029 L 26.08,0.48 V 32 63.52 l -1.6,0.05969 c -0.88,0.03283 -1.96,-0.05886 -2.4,-0.203757 z m 15.844067,-0.05265 C 37.831078,63.079478 37.792125,48.84 37.837501,31.68 l 0.0825,-31.2 2.104406,0.0225402 c 1.898208,0.0203318 2.754458,0.29540259 8.738708,2.8073243 3.648864,1.5316311 6.769881,2.7009895 6.935593,2.5985741 C 55.864419,5.8060234 56,4.662505 56,3.3672864 56,-0.10360376 55.896621,0 59.36,0 61.774448,0 62.367942,0.0948934 62.525763,0.506172 62.632595,0.78456659 62.72,13.155073 62.72,27.996186 v 26.983843 l -3.12,0.131385 -3.12,0.131389 -7.2,4.101559 c -6.656701,3.792057 -7.350422,4.113654 -9.193434,4.261881 -1.516044,0.12193 -2.03392,0.05417 -2.162499,-0.28296 z"
       id="path1361"
       inkscape:connector-curvature="0" />
    <path
       style="fill:#000000;stroke-width:0.31999999"
       d="M 15.700033,59.684035 C 11.751052,57.486253 8.3742525,55.542253 8.1960339,55.364035 8.0178154,55.185814 6.4896,55.04 4.8,55.04 2.8373333,55.04 1.5893333,54.901334 1.344,54.656 1.0514858,54.363485 0.96,47.927594 0.96,27.642172 c 0,-14.646405 0.0874064,-26.85760541 0.1942364,-27.136 0.2870251,-0.74797542 6.3645022,-0.74797542 6.6515271,0 C 7.9125936,0.78456659 8,2.2245666 8,3.7061718 8,5.1877773 8.1048701,6.4 8.2330442,6.4 8.3612186,6.4 11.637219,5.0735997 15.513044,3.4524438 21.138929,1.0992843 22.882652,0.50237827 24.16,0.49244384 L 25.76,0.48 l 0.08156,31.6 0.08156,31.6 h -1.52156 c -1.350865,0 -2.327045,-0.448288 -8.701527,-3.995965 z M 38.158438,32.08 38.24,0.48 l 1.6,0.0124438 c 1.277347,0.009934 3.021072,0.6068405 8.646957,2.96 C 52.362781,5.0735997 55.638781,6.4 55.766957,6.4 55.89513,6.4 56,5.1877773 56,3.7061718 56,2.2245666 56.0874,0.78456659 56.194237,0.506172 c 0.286387,-0.74631523 6.045139,-0.74631523 6.331526,0 0.106832,0.27839459 0.194237,12.489595 0.194237,27.136 0,20.285422 -0.09148,26.721313 -0.384,27.013828 -0.239802,0.239802 -1.429178,0.384 -3.167296,0.384 -2.65847,0 -2.874454,0.0549 -4.816,1.224198 -1.117987,0.673309 -4.559955,2.617309 -7.648819,4.32 C 41.842339,63.264051 40.885498,63.68 39.582323,63.68 H 38.07688 Z"
       id="path1359"
       inkscape:connector-curvature="0" />
    <path
       style="fill:#000000;stroke-width:0.31999999"
       d="m 22.4,63.266541 c -0.44,-0.234135 -4.060706,-2.25289 -8.046014,-4.486122 L 7.1079725,54.72 H 4.1939862 1.28 V 27.36 0 h 3.2 3.2 v 3.1811146 c 0,1.7496131 0.1185021,3.2543529 0.2633376,3.3438662 C 8.0881734,6.6144941 11.436173,5.3193997 15.383338,3.646993 19.330502,1.9745861 23.236447,0.52268298 24.063215,0.42054147 25.452335,0.24892535 25.580449,0.29271065 25.751129,0.99741482 25.852713,1.4168367 25.896266,15.656 25.847914,32.64 L 25.76,63.52 24.48,63.60612 c -0.704,0.04737 -1.64,-0.105444 -2.08,-0.339581 z m 15.92,0.231021 C 37.976899,63.148416 38.029482,1.2152666 38.37334,0.67217862 c 0.521065,-0.82296398 2.879206,-0.1371982 10.243321,2.97883708 3.947165,1.6701942 7.295165,2.9634784 7.44,2.8739651 C 56.201498,6.4354675 56.32,4.9307277 56.32,3.1811146 V 0 h 3.04 3.04 v 27.36 27.36 h -2.757606 -2.757607 l -7.722393,4.356746 C 43.297203,62.385715 41.093686,63.470566 40,63.587642 c -0.792,0.08478 -1.548,0.04424 -1.68,-0.09008 z"
       id="path1357"
       inkscape:connector-curvature="0" />
    <path
       style="fill:#000000;stroke-width:0.31999999"
       d="M 20.8,62.291459 C 19.48,61.534122 15.922943,59.526218 12.89543,57.829453 L 7.3908595,54.744426 4.4154298,54.652211 1.44,54.56 1.3582029,27.28 1.2764059,0 H 4.4782029 7.68 v 3.36 c 0,2.0599459 0.1256819,3.36 0.3248259,3.36 C 8.18348,6.72 11.661587,5.3294989 15.733951,3.6299971 23.039577,0.5811735 25.036958,0.04897943 25.621878,0.99539949 25.907738,1.4579311 26.021846,62.40225 25.738236,63.141325 25.359126,64.12927 23.422203,63.795926 20.8,62.291459 Z m 17.461763,0.849866 C 37.978154,62.40225 38.092262,1.4579311 38.378122,0.99539949 38.963043,0.04897943 40.960422,0.5811735 48.266048,3.6299971 52.338413,5.3294989 55.816518,6.72 55.995174,6.72 56.194317,6.72 56.32,5.4199459 56.32,3.36 V 0 h 3.041798 3.041796 l -0.0818,27.28 -0.0818,27.28 -3.072726,0.16 c -1.689997,0.088 -3.273997,0.319539 -3.52,0.514531 -0.246,0.194995 -3.714093,2.174995 -7.706877,4.4 -7.489543,4.173607 -9.186778,4.788554 -9.678634,3.506794 z"
       id="path1355"
       inkscape:connector-curvature="0" />
    <path
       style="fill:#000000;stroke-width:0.31999999"
       d="m 21.76,62.743395 c -0.792,-0.49064 -4.310624,-2.496617 -7.819165,-4.457734 L 7.5616701,54.72 H 4.8048352 C 3.0872967,54.72 1.9032362,54.575235 1.664,54.336 1.3714069,54.043408 1.28,47.530666 1.28,26.976 V 0 h 3.2 3.2 v 3.3411146 c 0,1.8376131 0.108,3.4010617 0.24,3.4743308 0.132,0.073269 3.622576,-1.292864 7.756836,-3.0358508 5.624693,-2.371347 7.79956,-3.14521991 8.64,-3.07433079 L 25.44,0.8 25.52157,32.24 25.60314,63.68 24.401572,63.65773 C 23.676072,63.644288 22.629459,63.282019 21.76,62.743395 Z M 38.478432,32.24 38.56,0.8 39.683165,0.70526381 c 0.840438,-0.0708891 3.015305,0.70298379 8.64,3.07433079 C 52.457424,5.5225814 55.948,6.8887142 56.08,6.8154454 56.212,6.7421763 56.32,5.1787277 56.32,3.3411146 V 0 h 3.04 3.04 v 26.976 c 0,20.554666 -0.09141,27.067408 -0.384,27.36 -0.235648,0.235648 -1.388422,0.384 -2.983904,0.384 h -2.599904 l -6.056096,3.391229 c -3.330851,1.865177 -6.894416,3.881177 -7.91903,4.48 C 41.318883,63.256426 40.16672,63.68 39.495498,63.68 h -1.098634 z"
       id="path1353"
       inkscape:connector-curvature="0" />
    <path
       style="fill:#000000;stroke-width:0.31999999"
       d="m 15.52,58.997962 -8,-4.551789 -2.96,-0.0231 L 1.6,54.4 V 27.706172 C 1.6,13.024567 1.5125936,0.78456659 1.4057636,0.506172 1.2367466,0.06572083 1.6210698,-4.6703472e-5 4.3657635,-3.597024e-4 L 7.52,-7.194048e-4 7.4109043,3.3585184 c -0.08576,2.6406893 -0.014387,3.3955802 0.3336631,3.5291402 0.2435174,0.093446 3.9064256,-1.2740487 8.1397966,-3.0388781 4.23337,-1.7648292 7.971222,-3.20657548 8.306336,-3.2038804 1.469328,0.0118166 1.417082,-1.22561412 1.330901,31.5218679 L 25.44,63.173789 24.48,63.36177 c -0.815425,0.159673 -2.164792,-0.497514 -8.96,-4.363808 z m 24,4.363289 -0.96,-0.16751 -0.0816,-31.016995 C 38.392218,-0.58130275 38.339965,0.65671674 39.809299,0.6449001 c 0.335114,-0.002694 4.072967,1.4390512 8.306336,3.2038804 4.233373,1.7648294 7.896279,3.1323245 8.139799,3.0388781 0.348051,-0.13356 0.41942,-0.8884509 0.33366,-3.5291402 L 56.48,-7.194048e-4 59.474237,-3.597024e-4 C 62.07303,-4.750511e-5 62.442819,0.06684889 62.274237,0.506172 62.167405,0.78456659 62.08,13.024567 62.08,27.706172 V 54.4 h -2.707114 -2.70711 l -8.09289,4.564381 C 41.8296,62.767587 40.319907,63.500826 39.52,63.361251 Z"
       id="path1351"
       inkscape:connector-curvature="0" />
    <path
       style="fill:#000000;stroke-width:0.31999999"
       d="M 16.32,59.160989 C 12.536,57.03336 8.9381325,55.019744 8.3247389,54.686285 7.4855933,54.230102 6.5546957,54.08 4.5647389,54.08 H 1.92 V 27.36 C 1.92,9.76 1.8107784,0.64 1.6,0.64 1.424,0.64 1.28,0.496 1.28,0.32 1.28,0.128 2.56,0 4.48,0 c 1.92,0 3.2,0.128 3.2,0.32 0,0.176 -0.144,0.32 -0.32,0.32 -0.347696,0 -0.442175,4.791496 -0.1183085,6 0.1061239,0.396 0.3561578,0.71924 0.5556304,0.718311 0.199473,-9.28e-4 3.8162181,-1.4472569 8.0372111,-3.214063 4.494685,-1.8813668 8.008268,-3.17340026 8.48,-3.1183111 L 25.12,1.12 25.20159,32.08 25.28318,63.04 24.241589,63.0347 C 23.509221,63.030979 21.157509,61.880973 16.32,59.160989 Z M 38.79841,32.08 38.88,1.12 39.685469,1.0259369 c 0.471731,-0.0550892 3.985312,1.2369443 8.48,3.1183111 4.220992,1.7668061 7.837737,3.2131344 8.037209,3.214063 C 56.40215,7.359239 56.652186,7.036 56.758307,6.64 57.082176,5.431496 56.987696,0.64 56.64,0.64 56.464,0.64 56.32,0.496 56.32,0.32 56.32,0.12912281 57.546666,0 59.36,0 c 1.813334,0 3.04,0.12912281 3.04,0.32 0,0.176 -0.144,0.32 -0.32,0.32 -0.210778,0 -0.32,9.12 -0.32,26.72 v 26.72 l -2.48,0.0019 C 57.835299,54.0832 56.466032,54.261482 56,54.509299 55.56,54.74327 51.949187,56.758384 47.975971,58.987328 42.93847,61.813376 40.443952,63.04 39.734381,63.04 h -1.017565 z"
       id="path1349"
       inkscape:connector-curvature="0" />
  </g>
</svg>
