<?xml version="1.0" encoding="UTF-8" standalone="no"?>
<!-- Created with Inkscape (http://www.inkscape.org/) -->

<svg
   xmlns:dc="http://purl.org/dc/elements/1.1/"
   xmlns:cc="http://creativecommons.org/ns#"
   xmlns:rdf="http://www.w3.org/1999/02/22-rdf-syntax-ns#"
   xmlns:svg="http://www.w3.org/2000/svg"
   xmlns="http://www.w3.org/2000/svg"
   xmlns:sodipodi="http://sodipodi.sourceforge.net/DTD/sodipodi-0.dtd"
   xmlns:inkscape="http://www.inkscape.org/namespaces/inkscape"
   version="1.1"
   id="svg64"
   width="46.080002"
   height="46.080002"
   viewBox="0 0 46.080002 46.080002"
   sodipodi:docname="swing_gate.svg"
   inkscape:version="0.92.3 (2405546, 2018-03-11)">
  <metadata
     id="metadata70">
    <rdf:RDF>
      <cc:Work
         rdf:about="">
        <dc:format>image/svg+xml</dc:format>
        <dc:type
           rdf:resource="http://purl.org/dc/dcmitype/StillImage" />
        <dc:title></dc:title>
      </cc:Work>
    </rdf:RDF>
  </metadata>
  <defs
     id="defs68" />
  <sodipodi:namedview
     pagecolor="#ffffff"
     bordercolor="#666666"
     borderopacity="1"
     objecttolerance="10"
     gridtolerance="10"
     guidetolerance="10"
     inkscape:pageopacity="0"
     inkscape:pageshadow="2"
     inkscape:window-width="1920"
     inkscape:window-height="1137"
     id="namedview66"
     showgrid="false"
     inkscape:zoom="10.199652"
     inkscape:cx="46.804961"
     inkscape:cy="13.745276"
     inkscape:window-x="-8"
     inkscape:window-y="-8"
     inkscape:window-maximized="1"
     inkscape:current-layer="svg64" />
  <g
     id="g78"
     transform="matrix(1,0,0,1.232062,0.09804244,-5.6000721)">
    <path
       style="fill:#000000;stroke-width:0.32000002"
       d="M 0.46956927,41.52821 C 0.38282411,41.302155 0.3496844,35.87732 0.39592543,29.473019 l 0.0840746,-11.644185 0.85616267,-0.6391 c 1.3051934,-0.974288 3.7569735,-1.094739 5.4638978,-0.268432 0.7711017,0.373285 1.5292784,0.678699 1.6848365,0.678699 0.1555581,0 7.573002,-2.808 16.483208,-6.240001 8.910207,-3.4319997 16.635148,-6.2399998 17.16654,-6.2399998 0.971898,0 1.886061,0.7090535 2.062829,1.6000001 0.16433,0.8282288 -0.341443,2.2090743 -0.921251,2.5151822 -0.30592,0.1615107 -7.756221,3.0629265 -16.556222,6.4475905 -8.8,3.384663 -16.177188,6.223002 -16.39375,6.307419 -0.9121005,0.35554 -1.1846852,2.595483 -1.354417,11.129809 l -0.1718336,8.640001 -4.0863564,0.08961 c -3.0985418,0.06795 -4.12448233,-0.0098 -4.24407472,-0.321401 z m 40.64156573,0.0041 c -0.08804,-0.229434 -0.122064,-5.168058 -0.0756,-10.97472 l 0.08447,-10.557553 h 2.24 2.24 v 10.88 10.880001 l -2.164394,0.09472 c -1.554589,0.06803 -2.209494,-0.02282 -2.324473,-0.322435 z"
       id="path84"
       inkscape:connector-curvature="0" />
    <path
       style="fill:#000000;stroke-width:0.32000002"
       d="M 0.32000001,29.951352 V 18.283581 L 1.320884,17.570889 c 1.5275339,-1.0877 3.6337425,-1.157936 5.4494449,-0.181723 l 1.4903284,0.801275 16.5477307,-6.37522 C 33.90964,8.3088496 41.688706,5.4400002 42.095202,5.4400002 c 1.640118,0 2.418394,2.3719073 1.084774,3.3060098 -0.363014,0.254265 -7.887014,3.235387 -16.72,6.624715 -8.832987,3.389329 -16.296836,6.366076 -16.5863314,6.614994 -0.8911479,0.766239 -1.0162653,1.886275 -1.2080481,10.814282 l -0.1855961,8.640001 -4.0800002,0.08956 -4.08000019,0.08956 z M 41.425359,41.197234 C 41.340354,40.975711 41.308872,36.18771 41.3554,30.557232 l 0.0846,-10.237231 2.16,-0.09462 2.16,-0.09462 v 10.73462 10.734621 h -2.09004 c -1.384502,0 -2.142217,-0.135965 -2.244601,-0.402768 z"
       id="path82"
       inkscape:connector-curvature="0" />
    <path
       style="fill:#000000;stroke-width:0.32000002"
       d="m 0.32490011,30.000001 c -0.002695,-6.468 0.10309991,-11.727977 0.23509991,-11.688837 0.13200001,0.03914 0.63051368,-0.189828 1.10780828,-0.508815 1.5013694,-1.003402 3.212437,-1.034787 5.0154918,-0.092 L 8.2727693,18.54146 15.416385,15.802822 C 19.345374,14.296575 26.304001,11.621645 30.880001,9.8585371 41.704891,5.687767 42.145279,5.5441522 42.818184,5.965382 c 0.5968,0.3735876 0.85249,1.6535732 0.452288,2.264164 -0.140425,0.2142499 -7.017728,2.9902 -15.282895,6.168778 -8.265167,3.178577 -15.80084,6.087013 -16.74594,6.463191 -2.6674302,1.061715 -2.7308082,1.31375 -2.9216366,11.618486 l -0.16,8.640001 H 4.4800002 c -2.0832668,0 -3.78200881,0.138845 -3.91510008,0.32 -0.12930497,0.176 -0.23730497,-4.972 -0.24000001,-11.440001 z M 45.440588,41.360002 c 3.2e-4,-0.132 -0.82768,-0.24 -1.840001,-0.24 h -1.840585 v -10.240001 -10.24 h 1.76 c 0.968,0 1.865795,-0.144 1.995101,-0.32 0.129305,-0.176 0.237305,4.54 0.24,10.48 0.0026,5.940001 -0.0671,10.800001 -0.155101,10.800001 -0.088,0 -0.159738,-0.108 -0.159414,-0.24 z"
       id="path80"
       inkscape:connector-curvature="0" />
  </g>
</svg>
