<?xml version="1.0" encoding="UTF-8" standalone="no"?>
<!-- Created with Inkscape (http://www.inkscape.org/) -->

<svg
   xmlns:dc="http://purl.org/dc/elements/1.1/"
   xmlns:cc="http://creativecommons.org/ns#"
   xmlns:rdf="http://www.w3.org/1999/02/22-rdf-syntax-ns#"
   xmlns:svg="http://www.w3.org/2000/svg"
   xmlns="http://www.w3.org/2000/svg"
   xmlns:sodipodi="http://sodipodi.sourceforge.net/DTD/sodipodi-0.dtd"
   xmlns:inkscape="http://www.inkscape.org/namespaces/inkscape"
   version="1.1"
   id="svg1225"
   width="163.84"
   height="163.84"
   viewBox="0 0 163.84 163.84"
   sodipodi:docname="swing_gate.svg"
   inkscape:version="0.92.3 (2405546, 2018-03-11)">
  <metadata
     id="metadata1231">
    <rdf:RDF>
      <cc:Work
         rdf:about="">
        <dc:format>image/svg+xml</dc:format>
        <dc:type
           rdf:resource="http://purl.org/dc/dcmitype/StillImage" />
        <dc:title></dc:title>
      </cc:Work>
    </rdf:RDF>
  </metadata>
  <defs
     id="defs1229" />
  <sodipodi:namedview
     pagecolor="#ffffff"
     bordercolor="#666666"
     borderopacity="1"
     objecttolerance="10"
     gridtolerance="10"
     guidetolerance="10"
     inkscape:pageopacity="0"
     inkscape:pageshadow="2"
     inkscape:window-width="1198"
     inkscape:window-height="859"
     id="namedview1227"
     showgrid="false"
     inkscape:zoom="2.8808594"
     inkscape:cx="84.669498"
     inkscape:cy="91.283436"
     inkscape:window-x="0"
     inkscape:window-y="0"
     inkscape:window-maximized="0"
     inkscape:current-layer="svg1225" />
  <path
     style="fill:#000000;stroke-width:0.31999999"
     d="m 1.7666627,161.23711 c -0.42034,-0.42033 -0.85515997,-1.24883 -0.96626997,-1.84111 -0.11111,-0.59227 -0.15665,-5.68436 -0.10121,-11.31575 0.0962,-9.76896 0.13243,-10.29764 0.78967997,-11.51889 0.86559,-1.60841 1.8686,-2.55104 3.39147,-3.18733 l 1.19159,-0.49788 0.084,-61.037404 0.084,-61.03739 0.76921,-1.9100802 c 1.05198,-2.6122499 3.4800403,-5.0349699 5.5746303,-5.5623999 2.77057,-0.69764 4.78952,0.0116 6.97454,2.45007 2.68209,2.9932099 2.65267,2.7968199 2.83808,18.9424101 l 0.16354,14.24 4.88,0.0883 c 2.684,0.0486 4.88,0.21871 4.88,0.37805 0,0.16556 4.83435,0.33342 11.28,0.39167 l 11.28,0.10194 2.22921,1.0723 c 2.3603,1.13535 5.41905,3.94506 7.4733,6.86484 2.40524,3.41864 4.47532,9.02249 5.34673,14.47396 0.3085,1.92989 0.68462,3.6457 0.83583,3.8129 0.36005,0.39812 0.35811,10.19672 -0.002,10.592 -0.15237,0.1672 -0.45547,1.456 -0.67356,2.864 -1.29918,8.38765 -4.46029,15.189 -8.95573,19.268881 -1.99242,1.808243 -2.15596,1.927613 -3.89985,2.846593 l -1.71383,0.90314 -14.24,0.214 c -7.832,0.1177 -15.284,0.23052 -16.56,0.2507 l -2.3199,0.0367 v 14.84245 14.84245 l 1.76042,0.86129 c 1.34703,0.65904 1.96698,1.21266 2.64,2.35755 l 0.87958,1.49626 0.0951,11.23753 0.0951,11.23753 -0.84352,1.00247 -0.84353,1.00247 H 14.357173 2.5310727 Z M 138.10844,161.01681 137.28,160.03226 v -10.61757 c 0,-5.92278 0.13764,-11.09747 0.31127,-11.70291 0.52909,-1.84482 1.67799,-3.20288 3.44873,-4.07659 l 1.68,-0.82893 v -14.84245 -14.84245 l -2.48,-0.0367 c -1.364,-0.0202 -8.888,-0.133 -16.72,-0.2507 l -14.24,-0.214 -1.71383,-0.90314 c -1.74389,-0.91898 -1.90743,-1.03835 -3.89985,-2.846593 -4.495437,-4.079871 -7.656547,-10.881221 -8.955737,-19.268871 -0.21809,-1.408 -0.52119,-2.6968 -0.67356,-2.864 -0.3602,-0.39528 -0.36214,-10.19388 -0.002,-10.592 0.15122,-0.1672 0.52734,-1.88301 0.83583,-3.8129 0.87142,-5.45147 2.9415,-11.05532 5.346727,-14.47396 2.05287,-2.91781 5.11276,-5.73049 7.42015,-6.82068 1.88277,-0.88956 2.62532,-1.05107 5.50922,-1.19826 1.83337,-0.0936 3.33329,-0.29182 3.33329,-0.44057 0,-0.14875 5.868,-0.30807 13.04,-0.35404 l 13.03996,-0.0836 0.16715,-14.24 c 0.18961,-16.1535802 0.16359,-15.9770202 2.78391,-18.8914501 2.28363,-2.53994 4.35293,-3.27963 7.06172,-2.52428 2.07212,0.57783 4.51253,3.03923 5.53801,5.5856499 l 0.76921,1.9100802 0.084,61.03739 0.084,61.037404 1.19159,0.49788 c 0.65538,0.27383 1.53124,0.815 1.94637,1.2026 1.64919,1.53984 1.65396,1.5815 1.65396,14.43069 v 11.99775 l -0.7112,0.49815 c -0.61232,0.42888 -2.34353,0.49814 -12.45156,0.49814 h -11.74035 z"
     id="path1235"
     inkscape:connector-curvature="0" />
</svg>
