<?xml version="1.0" encoding="UTF-8" standalone="no"?>
<!-- Created with Inkscape (http://www.inkscape.org/) -->

<svg
   xmlns:dc="http://purl.org/dc/elements/1.1/"
   xmlns:cc="http://creativecommons.org/ns#"
   xmlns:rdf="http://www.w3.org/1999/02/22-rdf-syntax-ns#"
   xmlns:svg="http://www.w3.org/2000/svg"
   xmlns="http://www.w3.org/2000/svg"
   xmlns:sodipodi="http://sodipodi.sourceforge.net/DTD/sodipodi-0.dtd"
   xmlns:inkscape="http://www.inkscape.org/namespaces/inkscape"
   version="1.1"
   id="svg138"
   width="83.839996"
   height="83.839996"
   viewBox="0 0 83.839996 83.839996"
   sodipodi:docname="swing_gate.svg"
   inkscape:version="0.92.3 (2405546, 2018-03-11)">
  <metadata
     id="metadata144">
    <rdf:RDF>
      <cc:Work
         rdf:about="">
        <dc:format>image/svg+xml</dc:format>
        <dc:type
           rdf:resource="http://purl.org/dc/dcmitype/StillImage" />
        <dc:title></dc:title>
      </cc:Work>
    </rdf:RDF>
  </metadata>
  <defs
     id="defs142" />
  <sodipodi:namedview
     pagecolor="#ffffff"
     bordercolor="#666666"
     borderopacity="1"
     objecttolerance="10"
     gridtolerance="10"
     guidetolerance="10"
     inkscape:pageopacity="0"
     inkscape:pageshadow="2"
     inkscape:window-width="1920"
     inkscape:window-height="1137"
     id="namedview140"
     showgrid="false"
     inkscape:zoom="7.9279628"
     inkscape:cx="37.966956"
     inkscape:cy="39.296951"
     inkscape:window-x="-8"
     inkscape:window-y="-8"
     inkscape:window-maximized="1"
     inkscape:current-layer="svg138" />
  <g
     id="g148"
     transform="translate(0.12613595,-0.25227198)">
    <path
       style="fill:#000000;stroke-width:0.31999999"
       d="m 72.149737,83.119996 c -0.08259,-0.22 -0.186076,-8.608 -0.229958,-18.639999 l -0.07978,-18.239999 -10.08,-0.16 -10.079999,-0.16 -1.716551,-0.950752 c -2.859264,-1.583667 -4.703033,-4.346656 -5.823164,-8.726333 -0.78185,-3.057004 -0.779463,-4.478156 0.01274,-7.575574 1.086531,-4.248345 3.215299,-7.325063 6.153775,-8.8941 1.326586,-0.708347 1.715408,-0.738672 11.453203,-0.89324 l 10.08,-0.16 0.16,-7.36 c 0.134073,-6.1674255 0.249702,-7.5239368 0.713606,-8.3717444 0.915312,-1.6727803 2.036669,-2.34825463 3.898345,-2.34825463 1.97377,0 2.820125,0.52248783 3.792333,2.34114603 l 0.715715,1.3388538 0.08491,39.5999982 0.08491,39.599998 h -4.494956 c -3.302538,0 -4.534791,-0.106112 -4.645127,-0.4 z M 2.6350695,43.759998 2.7199999,4.3199998 3.4357157,2.981146 C 4.4079217,1.1624878 5.2542794,0.63999997 7.228047,0.63999997 c 1.861677,0 2.983034,0.67547433 3.898346,2.34825463 0.463903,0.8478076 0.579532,2.2043189 0.713606,8.3717444 l 0.16,7.36 9.6,0.16 c 10.346087,0.172435 10.169148,0.143985 12.746899,2.049578 1.366105,1.009889 3.327071,4.155151 4.050134,6.49615 0.872979,2.826381 0.876368,7.271187 0.0077,10.083644 -0.736675,2.385078 -2.698544,5.554377 -4.036678,6.521049 -2.64933,1.913888 -2.420237,1.877114 -12.768035,2.049578 l -9.6,0.16 -0.0826,18.479999 -0.0826,18.479999 H 7.1924697 2.5501391 Z"
       id="path162"
       inkscape:connector-curvature="0" />
    <path
       style="fill:#000000;stroke-width:0.31999999"
       d="m 72.242553,64.719997 -0.08256,-18.799999 -10.08,-0.16 c -9.74935,-0.154752 -10.12974,-0.184496 -11.596396,-0.9068 -3.102826,-1.528096 -5.315434,-4.989238 -6.23335,-9.750732 -0.479159,-2.485524 -0.479069,-2.893514 0.0013,-5.287956 0.93943,-4.68379 2.896851,-7.767234 6.033743,-9.504704 l 1.714724,-0.949807 10.079999,-0.16 10.08,-0.16 0.16,-7.36 c 0.169417,-7.7932475 0.225155,-8.0882837 1.858969,-9.8399991 1.142112,-1.22453436 3.411222,-1.25082886 4.831213,-0.055984 2.023328,1.7025167 1.949817,0.084633 1.949817,42.9140621 v 38.821918 h -4.317443 -4.31744 z M 3.0933332,82.986662 C 2.9759999,82.86933 2.8799999,65.471466 2.8799999,44.324743 2.8799999,1.9061538 2.8076077,3.4855925 4.829817,1.7840156 6.249809,0.58917104 8.5189164,0.61546554 9.6610306,1.8399999 11.294843,3.5917153 11.350581,3.8867515 11.519999,11.679999 l 0.16,7.36 9.6,0.16 9.6,0.16 1.714815,0.949807 c 2.779328,1.53942 4.96288,4.636331 5.785811,8.205962 0.416368,1.806071 0.416368,6.12239 0,7.928461 -0.8263,3.584246 -3.42703,7.148399 -6.220627,8.525017 -1.161938,0.572573 -2.165458,0.64551 -10.879999,0.790752 l -9.6,0.16 -0.08258,18.639999 -0.08258,18.639999 H 7.4107545 c -2.2572485,0 -4.2000881,-0.096 -4.3174213,-0.213334 z"
       id="path160"
       inkscape:connector-curvature="0" />
    <path
       style="fill:#000000;stroke-width:0.31999999"
       d="m 72.639997,64.863997 c 0,-14.083555 -0.09412,-18.750114 -0.384,-19.039999 -0.281412,-0.281411 -2.920839,-0.384 -9.879766,-0.384 -10.537654,0 -11.185462,-0.0979 -13.548425,-2.04743 -2.842317,-2.345021 -4.885235,-7.643223 -4.532461,-11.754701 0.428877,-4.998463 2.706854,-9.19727 5.966665,-10.997868 l 1.737988,-0.96 10.071759,-0.09722 c 7.37543,-0.07119 10.136902,-0.199697 10.315097,-0.48 0.13384,-0.210528 0.245549,-3.520514 0.248243,-7.355526 0.0044,-6.2048314 0.07163,-7.1035008 0.610848,-8.1599993 0.88352,-1.7311039 1.700755,-2.343871 3.152701,-2.3639094 1.642137,-0.022663 2.414739,0.4160831 3.332749,1.8926097 L 80.479996,4.3200018 80.564906,43.92 80.649816,83.519998 H 76.644908 72.639997 Z M 3.3488565,82.806348 C 3.2614661,82.57861 3.2282229,64.826019 3.2749822,43.356142 3.3548139,6.7011965 3.3945659,4.2567438 3.926659,3.2830136 4.697187,1.8729475 5.8280573,1.2010772 7.3945193,1.222696 c 1.5023964,0.020735 2.3066454,0.6151004 3.1995317,2.3645557 0.539215,1.0564985 0.606488,1.9551679 0.610849,8.1599993 0.0027,3.835012 0.114202,7.144672 0.247793,7.354801 0.177055,0.278494 2.842942,0.408602 9.8351,0.48 l 9.592206,0.09795 1.737987,0.96 c 2.261875,1.249375 4.26991,3.936502 5.179507,6.931149 0.89334,2.941128 0.747958,8.154485 -0.301975,10.82885 -0.997053,2.539667 -2.806374,4.733869 -4.85552,5.88839 l -1.759999,0.99161 -9.495252,0.09739 c -7.259462,0.07446 -9.575805,0.194454 -9.837357,0.509603 -0.231872,0.279389 -0.368735,6.331536 -0.424748,18.782607 l -0.08264,18.370396 -3.7661251,0.09021 C 4.4215275,83.198524 3.469196,83.119932 3.3488565,82.806348 Z"
       id="path158"
       inkscape:connector-curvature="0" />
    <path
       style="fill:#000000;stroke-width:0.31999999"
       d="M 72.702064,64.729837 C 72.635885,52.03418 72.493478,45.809031 72.26288,45.531175 71.998502,45.212622 69.710006,45.119998 62.103645,45.119998 h -9.817987 l -1.648576,-0.82152 C 49.730366,43.846641 48.528871,42.953464 47.967095,42.313636 46.45603,40.592625 45.08402,37.397377 44.694187,34.691419 43.863102,28.922591 46.478411,22.733873 50.619396,20.670332 l 1.666262,-0.830333 9.777168,-0.0049 c 5.377443,-0.0027 9.944985,-0.111662 10.150089,-0.242148 0.260874,-0.165966 0.405283,-2.447924 0.480646,-7.595099 0.09123,-6.2306606 0.192439,-7.5128475 0.660688,-8.3695975 1.673389,-3.06178391 4.789629,-3.14461028 6.287258,-0.1671085 0.564694,1.1226979 0.601379,3.0576188 0.770089,40.618852 l 0.177149,39.439998 -3.894374,-0.0013 -3.894374,-0.0013 -0.09793,-18.787484 z M 3.5199998,43.837406 c 0,-38.3436485 0.011705,-39.0858469 0.6357158,-40.3090081 1.1521961,-2.2584914 3.2215282,-2.9220786 4.9275227,-1.5801433 1.8240727,1.434816 1.9473247,2.0403087 2.0624627,10.1321194 0.10432,7.331556 0.116021,7.442674 0.800083,7.597545 0.381819,0.08644 4.870215,0.194275 9.974215,0.239625 l 9.28,0.08245 1.489756,0.875765 c 1.779658,1.046187 3.167581,2.721356 4.355363,5.256749 0.822586,1.755858 0.87488,2.135276 0.87488,6.347485 0,4.347191 -0.02944,4.542112 -0.992845,6.575159 -1.283206,2.707897 -2.636787,4.223033 -4.684239,5.243321 l -1.648576,0.82152 -9.297169,0.0049 c -5.113443,0.0026 -9.475988,0.118464 -9.694543,0.257264 -0.307443,0.195248 -0.416073,4.448809 -0.48,18.795097 l -0.08263,18.542741 -3.7599993,0.09016 -3.7599999,0.09015 z"
       id="path156"
       inkscape:connector-curvature="0" />
    <path
       style="fill:#000000;stroke-width:0.31999999"
       d="m 72.965049,64.746983 c -0.0099,-12.677158 -0.124313,-18.90511 -0.352304,-19.17982 -0.256771,-0.309389 -2.765219,-0.430797 -10.475183,-0.506986 l -10.137564,-0.100179 -1.476112,-0.86777 c -2.977619,-1.750467 -5.045888,-5.181324 -5.746435,-9.53223 -0.884426,-5.492931 1.854937,-11.758407 6.042889,-13.821301 1.452883,-0.715658 1.808841,-0.741858 11.412566,-0.840023 6.338809,-0.06479 10.059683,-0.22314 10.319999,-0.439183 0.306605,-0.254461 0.408826,-2.085675 0.414119,-7.418674 0.0062,-6.2548035 0.07769,-7.2364563 0.612796,-8.4149989 0.690778,-1.5214149 1.538935,-2.0898182 3.118375,-2.0898182 1.213606,0 2.122806,0.6640287 2.934563,2.1432444 0.479081,0.8730028 0.541853,4.5630897 0.687238,40.4007917 l 0.16,39.44004 -3.750131,-4.2e-5 -3.750128,-3.8e-5 z M 3.7333333,82.666662 C 3.3599758,82.293305 3.4853362,6.057681 3.8615352,4.7029435 c 0.51963,-1.8712494 1.8413564,-3.1669436 3.230572,-3.1669436 1.6291615,0 2.4714997,0.5556489 3.1680688,2.0898182 0.535102,1.1785426 0.606588,2.1601954 0.612796,8.4149989 0.0052,5.280528 0.10909,7.165522 0.408454,7.413972 0.25145,0.208685 3.92776,0.372767 9.84,0.439182 9.102473,0.102252 9.491974,0.132332 10.93823,0.844726 2.662502,1.31149 4.838608,4.374286 5.697494,8.019024 0.252205,1.070258 0.347386,2.909663 0.252509,4.879938 -0.136534,2.835414 -0.273789,3.40809 -1.328115,5.541373 -1.419888,2.872947 -3.415952,4.77039 -5.746363,5.462447 -1.260217,0.374247 -3.537207,0.478519 -10.449262,0.478519 -6.447271,0 -8.941791,0.103872 -9.22192,0.384 -0.289808,0.289808 -0.384,4.920889 -0.384,18.879999 V 82.879996 H 7.4133331 c -1.9066668,0 -3.5626667,-0.096 -3.6799998,-0.213334 z"
       id="path154"
       inkscape:connector-curvature="0" />
    <path
       style="fill:#000000;stroke-width:0.31999999"
       d="m 74.812537,83.282745 c 1.106896,-0.06267 2.834896,-0.06215 3.84,0.0013 1.005101,0.0633 0.09946,0.114569 -2.012541,0.113939 -2.112,-6.4e-4 -2.934358,-0.05242 -1.827459,-0.115088 z M 73.207488,64.186506 c -0.04812,-10.281421 -0.207184,-18.81342 -0.353472,-18.959999 -0.146291,-0.14658 -4.898291,-0.338509 -10.56,-0.426509 -9.844294,-0.153011 -10.35173,-0.190871 -11.615046,-0.866621 -2.951711,-1.57888 -4.97486,-5.009075 -5.657859,-9.592758 -0.28232,-1.894688 -0.248297,-2.734036 0.193306,-4.768998 0.904608,-4.168543 2.53872,-6.755106 5.289139,-8.371939 l 1.496442,-0.879683 10.334188,-0.09649 10.334188,-0.09649 0.305811,-0.804343 c 0.168196,-0.442388 0.305812,-3.896705 0.305812,-7.676259 0,-6.1447114 0.06501,-6.9993463 0.614332,-8.0761078 0.9952,-1.9507512 2.806938,-2.4835043 4.34129,-1.2765832 1.84872,1.4542027 1.764377,-0.5389833 1.764377,41.695992 V 82.879996 H 76.647488 73.294979 Z M 3.8399998,43.82972 c 0,-42.0609425 -0.084062,-40.0820098 1.7643772,-41.535992 1.5343513,-1.2069211 3.3460904,-0.674168 4.3412894,1.2765832 0.5493226,1.0767615 0.6143326,1.9313964 0.6143326,8.0761078 0,3.779554 0.136853,7.231864 0.304116,7.671801 l 0.304116,0.799885 9.881827,0.100947 9.881828,0.100947 1.568276,0.970115 c 3.447907,2.132833 5.259836,5.987566 5.259836,11.189884 0,5.28729 -1.865984,9.212688 -5.353996,11.262992 l -1.526003,0.897008 -9.81406,0.16 c -5.397734,0.088 -9.933733,0.279926 -10.08,0.426505 -0.146267,0.14658 -0.305337,8.606579 -0.353489,18.8 L 10.5449,82.559996 H 7.1924499 3.8399998 Z"
       id="path152"
       inkscape:connector-curvature="0" />
    <path
       style="fill:#000000;stroke-width:0.31999999"
       d="m 74.959996,83.283519 c 1.012,-0.0635 2.668,-0.0635 3.68,0 1.012,0.0635 0.184,0.115463 -1.84,0.115463 -2.024,0 -2.852,-0.05196 -1.84,-0.115463 z M 73.529862,64.208944 C 73.458163,49.312225 73.35456,45.434993 73.017357,45.028875 72.650246,44.58674 71.23831,44.506727 62.271443,44.419927 l -10.323269,-0.09993 -1.545277,-0.96 c -3.938771,-2.44695 -6.175606,-8.979865 -4.848429,-14.160348 0.694602,-2.711292 1.896912,-4.978498 3.428189,-6.464549 2.193878,-2.129089 2.971449,-2.255102 13.915161,-2.255102 8.591523,0 9.712547,-0.05861 10.102998,-0.528232 0.334278,-0.40206 0.477398,-2.345821 0.59918,-8.137799 0.149216,-7.0966325 0.205344,-7.6703813 0.832688,-8.5117675 1.44593,-1.9392638 3.458579,-1.708805 4.65313,0.5328067 0.569552,1.0687887 0.594182,2.7301698 0.594182,40.0799988 v 38.96499 H 76.649862 73.619728 Z M 4.1599998,43.755006 c 0,-37.1939417 0.024669,-38.8512827 0.5941837,-39.9199988 C 5.9944551,1.5075926 8.0720044,1.3575572 9.5101,3.491547 c 0.702427,1.0423309 0.729967,1.3372646 0.731684,7.835775 9.92e-4,3.713972 0.15175,7.292677 0.335041,7.952677 l 0.333257,1.2 h 9.206878 c 10.694807,0 11.59584,0.150953 13.800482,2.312044 0.762998,0.747925 1.829254,2.297685 2.369462,3.44391 0.875501,1.857665 0.995142,2.472466 1.101411,5.65981 0.09146,2.743333 -0.0075,3.972507 -0.425197,5.279998 -0.643501,2.01442 -2.355123,4.672803 -3.59807,5.588298 -2.125554,1.56558 -1.999244,1.548096 -12.396045,1.715939 l -9.910996,0.16 -0.404287,0.8 c -0.311395,0.616189 -0.40537,4.97254 -0.409003,18.959999 L 10.24,82.559996 H 7.1999997 4.1599998 Z"
       id="path150"
       inkscape:connector-curvature="0" />
  </g>
</svg>
