<?xml version="1.0" encoding="UTF-8" standalone="no"?>
<!-- Created with Inkscape (http://www.inkscape.org/) -->

<svg
   xmlns:dc="http://purl.org/dc/elements/1.1/"
   xmlns:cc="http://creativecommons.org/ns#"
   xmlns:rdf="http://www.w3.org/1999/02/22-rdf-syntax-ns#"
   xmlns:svg="http://www.w3.org/2000/svg"
   xmlns="http://www.w3.org/2000/svg"
   xmlns:sodipodi="http://sodipodi.sourceforge.net/DTD/sodipodi-0.dtd"
   xmlns:inkscape="http://www.inkscape.org/namespaces/inkscape"
   version="1.1"
   id="svg121"
   width="14"
   height="14"
   viewBox="0 0 14 14"
   sodipodi:docname="millwater2.svg"
   inkscape:version="0.92.3 (2405546, 2018-03-11)">
  <metadata
     id="metadata127">
    <rdf:RDF>
      <cc:Work
         rdf:about="">
        <dc:format>image/svg+xml</dc:format>
        <dc:type
           rdf:resource="http://purl.org/dc/dcmitype/StillImage" />
        <dc:title></dc:title>
      </cc:Work>
    </rdf:RDF>
  </metadata>
  <defs
     id="defs125" />
  <sodipodi:namedview
     pagecolor="#ffffff"
     bordercolor="#666666"
     borderopacity="1"
     objecttolerance="10"
     gridtolerance="10"
     guidetolerance="10"
     inkscape:pageopacity="0"
     inkscape:pageshadow="2"
     inkscape:window-width="1920"
     inkscape:window-height="1137"
     id="namedview123"
     showgrid="false"
     inkscape:zoom="9.4940473"
     inkscape:cx="51.627982"
     inkscape:cy="50.400002"
     inkscape:window-x="-8"
     inkscape:window-y="-8"
     inkscape:window-maximized="1"
     inkscape:current-layer="svg121" />
  <path
     style="fill:#000000;stroke-width:0.04566079"
     d="m 8.6176083,13.979737 c -0.011389,-0.0108 -0.1344046,-0.0303 -0.2733722,-0.0435 -0.416186,-0.0393 -1.2715472,-0.27101 -1.8908096,-0.5123 C 5.755682,13.152114 4.9230168,12.727308 3.5358988,11.935531 1.65784,10.863519 0.96586791,10.61246 0.27579113,10.752709 0.13939174,10.78043 0.01791119,10.793747 0.0058342,10.782302 -0.04097897,10.737939 0.20132676,10.436723 0.46733064,10.208603 1.0823644,9.6811649 1.698413,9.5381259 2.5366788,9.7281259 c 0.4824499,0.109352 1.3102261,0.4721291 2.1963599,0.9625661 2.755096,1.524829 3.8082157,1.912321 5.3402683,1.964934 1.294746,0.04446 2.21989,-0.199384 3.478908,-0.916964 0.218118,-0.124316 0.413152,-0.226068 0.433408,-0.226116 0.121511,-2.77e-4 -0.551116,0.678595 -1.115643,1.126006 -0.855008,0.677635 -1.923977,1.156255 -2.9315581,1.312575 -0.2980486,0.0462 -1.2797688,0.0675 -1.3208136,0.0286 z M 6.1508487,10.060634 c -0.084638,-0.03236 -0.075458,-0.6607721 0.015171,-1.0383771 0.1052633,-0.438581 0.090342,-0.479744 -0.210127,-0.579664 -0.1394732,-0.04638 -0.336106,-0.125088 -0.4369619,-0.174906 -0.1008544,-0.04982 -0.2051416,-0.07783 -0.231747,-0.06224 -0.026607,0.01558 -0.1396243,0.160965 -0.2511525,0.323073 -0.1115282,0.162108 -0.3306929,0.413745 -0.4870329,0.559195 l -0.2842556,0.26445 -0.7748402,-0.729419 c -0.4261618,-0.40118 -0.7748398,-0.760896 -0.7748398,-0.799369 0,-0.10539 0.4487979,-0.498258 0.8325622,-0.728805 0.1870334,-0.112361 0.3400608,-0.225091 0.3400608,-0.250511 0,-0.02542 -0.050391,-0.140565 -0.1119797,-0.255877 -0.061588,-0.115312 -0.139463,-0.29675 -0.1730543,-0.403196 -0.033591,-0.106446 -0.088788,-0.203616 -0.1226608,-0.215934 -0.033873,-0.01232 -0.2118744,0.0098 -0.3955588,0.04908 -0.1836844,0.03931 -0.5213476,0.07147 -0.7503625,0.07147 H 1.9176789 v -1.066792 -1.066792 h 0.4163908 c 0.2290149,0 0.5666781,0.03216 0.7503625,0.07147 0.1836844,0.03931 0.3616856,0.06139 0.3955588,0.04908 0.033873,-0.01232 0.08907,-0.109488 0.1226608,-0.215934 0.033591,-0.106445 0.1114667,-0.287884 0.1730543,-0.403196 0.061589,-0.115312 0.1119797,-0.230456 0.1119797,-0.255877 0,-0.02542 -0.1530274,-0.13815 -0.3400608,-0.250511 -0.3837643,-0.230547 -0.8325622,-0.623415 -0.8325622,-0.728806 0,-0.03847 0.348678,-0.398188 0.7748398,-0.799368 l 0.7748402,-0.72941895 0.283338,0.264454 C 4.7039166,1.1033629 4.930504,1.3623839 5.0516096,1.5335149 c 0.1252802,0.17703 0.2504284,0.307584 0.2903401,0.302881 0.038581,-0.0045 0.2495577,-0.07867 0.4688382,-0.164725 C 6.2706116,1.4912229 6.2759647,1.4814539 6.1660195,1.0233669 6.1254295,0.85424495 6.0922175,0.55480095 6.0922175,0.35793695 V 1.9482422e-6 H 7.2413883 8.3905592 V 0.35793695 c 0,0.196864 -0.03321,0.496308 -0.073802,0.66542995 -0.1099437,0.458087 -0.1045907,0.467856 0.3552315,0.648304 0.2192806,0.08605 0.430259,0.160178 0.4688397,0.164725 0.03991,0.0047 0.1650585,-0.125851 0.2903386,-0.302881 0.1211056,-0.171131 0.3476946,-0.430152 0.5035289,-0.57560195 l 0.2833381,-0.264454 0.77484,0.72941895 c 0.426162,0.40118 0.77484,0.760896 0.77484,0.799368 0,0.105391 -0.448798,0.498259 -0.832562,0.728806 -0.187034,0.112361 -0.340061,0.225091 -0.340061,0.250511 0,0.02542 0.05039,0.140565 0.11198,0.255877 0.06159,0.115312 0.139463,0.296751 0.173054,0.403196 0.03359,0.106446 0.08879,0.203617 0.122662,0.215934 0.03387,0.01232 0.211874,-0.0098 0.395558,-0.04908 0.183684,-0.03931 0.521347,-0.07147 0.750363,-0.07147 h 0.41639 v 1.066792 1.066792 h -0.41639 c -0.229016,0 -0.566679,-0.03216 -0.750363,-0.07147 -0.183684,-0.03931 -0.361685,-0.0614 -0.395558,-0.04908 -0.03387,0.01232 -0.08907,0.109488 -0.122662,0.215934 -0.03359,0.106446 -0.111465,0.287884 -0.173054,0.403196 -0.06159,0.115312 -0.11198,0.230456 -0.11198,0.255877 0,0.02542 0.153027,0.13815 0.340061,0.250511 0.383764,0.230547 0.832562,0.623415 0.832562,0.728805 0,0.03847 -0.348678,0.398189 -0.77484,0.799369 l -0.77484,0.729419 -0.2842542,-0.264454 C 9.7774398,8.9422609 9.558275,8.6906239 9.4467468,8.5285159 9.3352186,8.3664079 9.2221997,8.2210249 9.1955944,8.2054429 c -0.026607,-0.01558 -0.1308927,0.01243 -0.2317485,0.06224 -0.1008559,0.04982 -0.2974872,0.128524 -0.4369605,0.174906 -0.3004686,0.09992 -0.3153902,0.141083 -0.2101282,0.579664 0.100485,0.41867 0.1002651,1.0042321 -4.398e-4,1.0408351 -0.088394,0.03214 -2.0809387,0.02988 -2.1655156,-0.0025 z M 8.0308145,7.4256869 c 0.461974,-0.150622 0.7565853,-0.324507 1.0881973,-0.642272 0.5303335,-0.508188 0.7725052,-1.048425 0.7725052,-1.723305 0,-0.45289 -0.068008,-0.74548 -0.2644544,-1.137756 -0.5582948,-1.114835 -1.9865705,-1.682867 -3.224868,-1.282546 -0.844749,0.273093 -1.4809162,0.901162 -1.7353036,1.713213 -0.099805,0.318598 -0.1001992,1.018933 -7.329e-4,1.33958 0.1743324,0.562109 0.6009533,1.116641 1.110829,1.443884 0.2254104,0.14467 0.738779,0.330561 1.0422788,0.377409 0.325639,0.05027 0.9194584,0.007 1.2115705,-0.08821 z"
     id="path131"
     inkscape:connector-curvature="0" />
</svg>
