<?xml version="1.0" encoding="UTF-8" standalone="no"?>
<!-- Created with Inkscape (http://www.inkscape.org/) -->

<svg
   xmlns:dc="http://purl.org/dc/elements/1.1/"
   xmlns:cc="http://creativecommons.org/ns#"
   xmlns:rdf="http://www.w3.org/1999/02/22-rdf-syntax-ns#"
   xmlns:svg="http://www.w3.org/2000/svg"
   xmlns="http://www.w3.org/2000/svg"
   xmlns:sodipodi="http://sodipodi.sourceforge.net/DTD/sodipodi-0.dtd"
   xmlns:inkscape="http://www.inkscape.org/namespaces/inkscape"
   version="1.1"
   id="svg30"
   width="14"
   height="14"
   viewBox="0 0 14 14"
   sodipodi:docname="watermill14.svg"
   inkscape:version="0.92.3 (2405546, 2018-03-11)">
  <metadata
     id="metadata36">
    <rdf:RDF>
      <cc:Work
         rdf:about="">
        <dc:format>image/svg+xml</dc:format>
        <dc:type
           rdf:resource="http://purl.org/dc/dcmitype/StillImage" />
        <dc:title></dc:title>
      </cc:Work>
    </rdf:RDF>
  </metadata>
  <defs
     id="defs34" />
  <sodipodi:namedview
     pagecolor="#ffffff"
     bordercolor="#666666"
     borderopacity="1"
     objecttolerance="10"
     gridtolerance="10"
     guidetolerance="10"
     inkscape:pageopacity="0"
     inkscape:pageshadow="2"
     inkscape:window-width="1920"
     inkscape:window-height="1137"
     id="namedview32"
     showgrid="false"
     inkscape:zoom="22.656249"
     inkscape:cx="6.9999999"
     inkscape:cy="21.120001"
     inkscape:window-x="-8"
     inkscape:window-y="-8"
     inkscape:window-maximized="1"
     inkscape:current-layer="svg30" />
  <path
     style="fill:#000000;stroke-width:0.11092869"
     d="m 0,12.104857 v -1.895143 l 0.84114648,-0.05042 C 2.170552,10.079615 3.1722589,9.5027883 3.7974925,8.4569023 c 0.2912886,-0.487266 0.2912886,-2.214417 0,-2.701683 C 3.1722589,4.7093343 2.170552,4.1325073 0.84114648,4.0528253 L 0,4.0024083 V 2.0542343 0.10606132 h 0.75192078 c 0.88354102,0 0.85637772,-0.04271 0.90139002,1.41736498 l 0.028983,0.940093 0.7386052,0.244199 c 0.4062328,0.134309 0.7951906,0.295926 0.8643506,0.359149 0.2436855,0.222767 0.4995851,0.108522 1.1851616,-0.529109 1.0122313,-0.94144 1.0305444,-0.945976 1.6338871,-0.404671 0.2798701,0.251093 0.5088549,0.507749 0.5088549,0.570346 0,0.0626 -0.317043,0.398682 -0.70454,0.746857 -0.9808587,0.881321 -0.9779216,0.872789 -0.5710735,1.658965 0.1909979,0.369077 0.3473097,0.752891 0.3473601,0.852923 1.516e-4,0.300717 0.3912995,0.401458 1.5587373,0.401458 h 1.1098191 v 0.742425 0.742424 H 7.3168276 c -1.1576213,0 -1.6317912,0.1148 -1.6319275,0.395102 -5.04e-5,0.103527 -0.1563622,0.490203 -0.3473601,0.859279 -0.4068481,0.786177 -0.4097852,0.777644 0.5710735,1.6589657 0.387497,0.348173 0.70454,0.684259 0.70454,0.746856 0,0.0626 -0.2289848,0.319253 -0.5088549,0.570345 C 5.5009559,12.620339 5.4826428,12.615803 4.4704115,11.674362 3.7970088,11.048055 3.5281005,10.923251 3.3004445,11.131364 3.2396415,11.186944 2.8506839,11.3489 2.436094,11.491258 L 1.6822941,11.750093 1.6493621,12.875047 1.6164301,14 H 0.80821632 0 Z M 12.23438,9.8205133 c -0.194596,-0.07749 -0.501509,-0.301342 -0.682027,-0.497459 l -0.328216,-0.356578 0.07929,-1.333329 c 0.15693,-2.639071 -0.493842,-4.066582 -2.9547171,-6.481365 L 7.1749429,3.2153321e-7 h 0.5705736 c 0.7039972,0 1.0045711,0.18510299846679 2.6694565,1.64393897846679 2.082102,1.824418 3.027996,3.462648 3.503296,6.067493 0.11942,0.65447 0.112248,0.850125 -0.04985,1.359842 -0.161923,0.50918 -0.24677,0.617317 -0.586031,0.746901 -0.479793,0.1832607 -0.593004,0.1835137 -1.048013,0.0024 z M 0.25766057,8.5913983 c -0.2587537,-0.09981 -0.26373495,-0.132138 -0.23204041,-1.505759 l 0.03239139,-1.403756 0.37553819,-0.09831 c 0.50716166,-0.132762 1.33555786,0.158075 1.66879506,0.58589 0.3428655,0.440175 0.4115092,1.126591 0.1609364,1.609305 -0.3345718,0.644533 -1.36210405,1.060865 -2.00561918,0.81263 z"
     id="path40"
     inkscape:connector-curvature="0"
     inkscape:export-xdpi="96"
     inkscape:export-ydpi="96" />
</svg>
