<?xml version="1.0" encoding="UTF-8" standalone="no"?>
<!-- Created with Inkscape (http://www.inkscape.org/) -->

<svg
   xmlns:dc="http://purl.org/dc/elements/1.1/"
   xmlns:cc="http://creativecommons.org/ns#"
   xmlns:rdf="http://www.w3.org/1999/02/22-rdf-syntax-ns#"
   xmlns:svg="http://www.w3.org/2000/svg"
   xmlns="http://www.w3.org/2000/svg"
   xmlns:sodipodi="http://sodipodi.sourceforge.net/DTD/sodipodi-0.dtd"
   xmlns:inkscape="http://www.inkscape.org/namespaces/inkscape"
   version="1.1"
   id="svg66"
   width="14"
   height="14"
   viewBox="0 0 14 14"
   sodipodi:docname="windpump.svg"
   inkscape:version="0.92.3 (2405546, 2018-03-11)">
  <metadata
     id="metadata72">
    <rdf:RDF>
      <cc:Work
         rdf:about="">
        <dc:format>image/svg+xml</dc:format>
        <dc:type
           rdf:resource="http://purl.org/dc/dcmitype/StillImage" />
        <dc:title></dc:title>
      </cc:Work>
    </rdf:RDF>
  </metadata>
  <defs
     id="defs70" />
  <sodipodi:namedview
     pagecolor="#ffffff"
     bordercolor="#666666"
     borderopacity="1"
     objecttolerance="10"
     gridtolerance="10"
     guidetolerance="10"
     inkscape:pageopacity="0"
     inkscape:pageshadow="2"
     inkscape:window-width="1920"
     inkscape:window-height="1137"
     id="namedview68"
     showgrid="false"
     inkscape:zoom="13.555713"
     inkscape:cx="31.439806"
     inkscape:cy="15.534985"
     inkscape:window-x="-8"
     inkscape:window-y="-8"
     inkscape:window-maximized="1"
     inkscape:current-layer="svg66" />
  <path
     style="fill:#000000;stroke-width:0.09850842"
     d="m 4.4703132,13.869826 c 0,-0.262907 1.296458,-5.3542819 1.407093,-5.5258549 0.104451,-0.161982 0.230533,-0.177296 1.459644,-0.177296 1.277468,0 1.35308,0.01018 1.499193,0.201923 0.116838,0.153322 1.4730508,5.2931119 1.4730508,5.5825819 0,0.03137 -0.3284418,0.04509 -0.7298728,0.03049 -0.701633,-0.02551 -0.731167,-0.03583 -0.763324,-0.266764 -0.05516,-0.396189 -0.222631,-0.440972 -1.546033,-0.413443 l -1.224144,0.02546 -0.0957,0.336539 L 5.8545102,14 h -0.692098 c -0.532637,0 -0.692099,-0.02999 -0.692099,-0.130182 z m 3.849526,-2.00002 c -0.0401,-0.283149 -0.112442,-0.547634 -0.160768,-0.587742 -0.04833,-0.04011 -0.423648,-0.06084 -0.834051,-0.04608 l -0.746186,0.02684 -0.134828,0.448718 c -0.07415,0.246795 -0.112175,0.499199 -0.08449,0.560898 0.03525,0.07855 0.347558,0.112179 1.041781,0.112179 h 0.991445 z m -0.4354,-1.489471 c 0.06972,-0.15078 -0.260703,-1.5111149 -0.394905,-1.6258399 -0.06286,-0.05374 -0.142985,-0.04936 -0.216734,0.01185 -0.138685,0.115105 -0.541859,1.5577679 -0.464408,1.6617779 0.09233,0.123995 1.01558,0.08299 1.076047,-0.04779 z m 0.913645,-2.9738809 c -0.07001,-0.07001 -0.330356,-0.599978 -0.578556,-1.177709 -0.718854,-1.673265 -1.068771,-1.649057 -1.154112,0.07984 l -0.05406,1.095264 -1.054261,0.02569 c -0.747251,0.01821 -1.05426,-0.0047 -1.05426,-0.07873 0,-0.144628 0.612183,-1.188602 1.055987,-1.800806 0.307815,-0.424615 0.348225,-0.538432 0.246935,-0.695513 -0.06661,-0.103299 -0.187861,-0.187816 -0.269446,-0.187816 -0.08158,0 -0.505633,0.292789 -0.942327,0.650641 -0.971651,0.796227 -1.288386,0.949888 -1.63793,0.794626 -0.421157,-0.187071 -1.26458,-0.823888 -1.26458,-0.954806 0,-0.11461 0.763173,-0.339735 2.720557,-0.802525 0.611957,-0.144687 0.85239,-0.348342 0.629336,-0.533071 -0.073,-0.06046 -0.68861,-0.09717 -1.629383,-0.09717 -1.226369,0 -1.5314298,-0.02543 -1.6146242,-0.134615 -0.1314172,-0.172467 -0.1339768,-1.349827 -0.00331,-1.52126 0.08197,-0.107541 0.3727202,-0.02345 1.6685582,0.482599 0.88115,0.344104 1.642953,0.589374 1.737275,0.559333 0.333087,-0.106084 0.151533,-0.365509 -0.80518,-1.150527 -0.53524,-0.439184 -0.973164,-0.856268 -0.973164,-0.926853 0,-0.240484 1.264089,-1.087165 1.518181,-1.016869 0.0678,0.01876 0.35273,0.557771 0.633185,1.19781 0.372999,0.851237 0.562881,1.172173 0.707162,1.195234 0.321941,0.05146 0.381953,-0.153413 0.383695,-1.309852 l 0.0016,-1.099359 h 1.189422 c 0.654182,0 1.189422,0.01707 1.189422,0.03793 0,0.05452 -1.065814,1.748583 -1.311773,2.084999 -0.18949,0.259179 -0.192424,0.29531 -0.03462,0.426282 0.255642,0.212174 0.352664,0.183819 0.968946,-0.283182 0.847566,-0.64226 1.4278698,-1.01007 1.5866278,-1.005641 0.226465,0.0063 1.543387,1.068699 1.431292,1.154645 -0.05469,0.04193 -0.634676,0.204239 -1.288858,0.360683 -1.6906158,0.404303 -1.8010468,0.446265 -1.7626028,0.66976 0.03067,0.178327 0.103645,0.190405 1.2760218,0.211215 1.85268,0.03289 1.730068,-0.03208 1.730068,0.91665 0,0.440377 -0.0411,0.821766 -0.09133,0.847531 -0.1177,0.06037 -0.919102,-0.198469 -2.0397638,-0.658819 -0.488181,-0.200537 -0.934794,-0.364613 -0.992472,-0.364613 -0.126983,0 -0.444704,0.253395 -0.444704,0.354669 0,0.03994 0.412855,0.366772 0.917455,0.726295 0.5046,0.359522 0.9474778,0.732184 0.9841718,0.828138 0.04871,0.127383 -0.06026,0.282754 -0.4038418,0.575775 -0.62172,0.530233 -0.996796,0.698143 -1.170798,0.524133 z"
     id="path76"
     inkscape:connector-curvature="0" />
</svg>
