<?xml version="1.0" encoding="UTF-8" standalone="no"?>
<!-- Created with Inkscape (http://www.inkscape.org/) -->

<svg
   xmlns:dc="http://purl.org/dc/elements/1.1/"
   xmlns:cc="http://creativecommons.org/ns#"
   xmlns:rdf="http://www.w3.org/1999/02/22-rdf-syntax-ns#"
   xmlns:svg="http://www.w3.org/2000/svg"
   xmlns="http://www.w3.org/2000/svg"
   xmlns:sodipodi="http://sodipodi.sourceforge.net/DTD/sodipodi-0.dtd"
   xmlns:inkscape="http://www.inkscape.org/namespaces/inkscape"
   version="1.1"
   id="svg167"
   width="41.599998"
   height="41.599998"
   viewBox="0 0 41.599998 41.599998"
   sodipodi:docname="xassembly.svg"
   inkscape:version="0.92.3 (2405546, 2018-03-11)">
  <metadata
     id="metadata173">
    <rdf:RDF>
      <cc:Work
         rdf:about="">
        <dc:format>image/svg+xml</dc:format>
        <dc:type
           rdf:resource="http://purl.org/dc/dcmitype/StillImage" />
        <dc:title></dc:title>
      </cc:Work>
    </rdf:RDF>
  </metadata>
  <defs
     id="defs171" />
  <sodipodi:namedview
     pagecolor="#ffffff"
     bordercolor="#666666"
     borderopacity="1"
     objecttolerance="10"
     gridtolerance="10"
     guidetolerance="10"
     inkscape:pageopacity="0"
     inkscape:pageshadow="2"
     inkscape:window-width="1210"
     inkscape:window-height="989"
     id="namedview169"
     showgrid="false"
     inkscape:zoom="11.796445"
     inkscape:cx="21.01167"
     inkscape:cy="15.422768"
     inkscape:window-x="0"
     inkscape:window-y="0"
     inkscape:window-maximized="1"
     inkscape:current-layer="svg167" />
  <path
     style="fill:#BF0000;stroke-width:0.31999999"
     d="m 16.31195,38.580056 -0.09201,-2.96 -2.24,-0.0963 c -1.232,-0.05296 -2.343318,-0.199482 -2.469597,-0.325597 -0.321163,-0.320749 8.676196,-8.538105 9.348556,-8.538105 0.558868,0 9.150612,7.736278 9.240011,8.319999 0.02738,0.178765 -1.04733,0.390618 -2.43498,0.48 l -2.483989,0.16 -0.09201,2.96 -0.09201,2.96 H 20.699942 16.403958 Z M 6.0734026,27.860057 l -0.09346,-2.48 -2.9600003,-0.09201 -2.95999994,-0.09201 v -4.295983 -4.295983 l 2.95999994,-0.09201 2.9599998,-0.09201 0.09346,-2.48 c 0.051404,-1.364 0.2204563,-2.48 0.3756736,-2.48 0.2705795,0 6.0564833,6.075919 7.8511913,8.244726 0.475486,0.5746 0.795318,1.2226 0.710737,1.44 -0.220808,0.567551 -8.2767642,9.195274 -8.5858954,9.195274 -0.1420352,0 -0.300303,-1.116 -0.3517065,-2.48 z M 30.791652,25.787665 c -2.294441,-2.503815 -4.17171,-4.710084 -4.17171,-4.90282 0,-0.428741 8.258499,-9.424788 8.652089,-9.424788 0.154544,0 0.323046,1.116 0.374451,2.48 l 0.09346,2.48 2.96,0.09201 2.96,0.09201 v 4.295983 4.295983 l -2.96,0.09201 -2.96,0.09201 -0.09346,2.48 c -0.05141,1.364 -0.226134,2.48 -0.388291,2.48 -0.162157,0 -2.172099,-2.048577 -4.466539,-4.552392 z M 18.778409,23.167616 c -1.008965,-1.008965 -1.28718,-2.207704 -0.790616,-3.406515 0.839006,-2.02554 3.045216,-2.521886 4.767597,-1.072598 0.796329,0.670067 0.984552,1.072419 0.984552,2.104615 0,2.672612 -3.15398,4.182049 -4.961533,2.374498 z M 15.950433,10.896233 c -2.436229,-2.2418965 -4.452229,-4.2201755 -4.48,-4.3961755 -0.02805,-0.177773 1.016211,-0.391114 2.349508,-0.48 l 2.4,-0.16 0.09201,-2.96 0.09201,-2.95999999 h 4.295984 4.295983 l 0.09201,2.95999999 0.09201,2.96 2.48,0.09346 c 1.364,0.0514 2.48,0.220743 2.48,0.37631 0,0.421791 -8.918451,8.6508485 -9.370761,8.6464055 -0.214082,-0.0021 -2.382519,-1.838104 -4.818748,-4.080001 z"
     id="path179"
     inkscape:connector-curvature="0" />
</svg>
