<?xml version="1.0" encoding="UTF-8" standalone="no"?>
<!-- Created with Inkscape (http://www.inkscape.org/) -->

<svg
   xmlns:dc="http://purl.org/dc/elements/1.1/"
   xmlns:cc="http://creativecommons.org/ns#"
   xmlns:rdf="http://www.w3.org/1999/02/22-rdf-syntax-ns#"
   xmlns:svg="http://www.w3.org/2000/svg"
   xmlns="http://www.w3.org/2000/svg"
   xmlns:sodipodi="http://sodipodi.sourceforge.net/DTD/sodipodi-0.dtd"
   xmlns:inkscape="http://www.inkscape.org/namespaces/inkscape"
   version="1.1"
   id="svg30"
   width="141.599998"
   height="141.599998"
   viewBox="0 0 41.599998 41.599998"
   sodipodi:docname="xassembly2.svg"
   inkscape:version="0.92.3 (2405546, 2018-03-11)">
  <metadata
     id="metadata36">
    <rdf:RDF>
      <cc:Work
         rdf:about="">
        <dc:format>image/svg+xml</dc:format>
        <dc:type
           rdf:resource="http://purl.org/dc/dcmitype/StillImage" />
        <dc:title></dc:title>
      </cc:Work>
    </rdf:RDF>
  </metadata>
  <defs
     id="defs34" />
  <sodipodi:namedview
     pagecolor="#ffffff"
     bordercolor="#666666"
     borderopacity="1"
     objecttolerance="10"
     gridtolerance="10"
     guidetolerance="10"
     inkscape:pageopacity="0"
     inkscape:pageshadow="2"
     inkscape:window-width="1338"
     inkscape:window-height="823"
     id="namedview32"
     showgrid="false"
     inkscape:zoom="8.0229426"
     inkscape:cx="3.2038113"
     inkscape:cy="22.241563"
     inkscape:window-x="0"
     inkscape:window-y="0"
     inkscape:window-maximized="0"
     inkscape:current-layer="svg30" />
  <g
     id="g42">

    <path
       style="fill:#BF0000;stroke-width:0.31999999"
       d="m 17.359999,41.121332 c -0.239123,-0.271596 -0.4,-1.360662 -0.4,-2.707827 v -2.253507 h -2.693828 c -4.3317206,0 -4.6024041,-0.363824 -2.026172,-2.72336 0.924,-0.846281 3.149561,-2.895527 4.945691,-4.553884 1.79613,-1.658357 3.468243,-2.967395 3.715808,-2.908975 0.643243,0.151794 10.138501,8.980104 10.138501,9.426373 0,0.596643 -0.830399,0.759846 -3.866172,0.759846 h -2.853828 v 2.262858 c 0,1.534476 -0.147148,2.410003 -0.457143,2.72 -0.640964,0.640963 -5.935009,0.62344 -6.502857,-0.02154 z M 5.6402644,30.549536 C 5.5301188,30.262501 5.4399997,28.743432 5.4399997,27.173827 V 24.319999 H 3.1771427 C 0.21765953,24.319999 0,24.089812 0,20.959999 c 0,-3.129813 0.21765953,-3.36 3.1771427,-3.36 h 2.262857 v -3.160817 c 0,-4.436785 0.2417475,-4.5402986 3.2760124,-1.402757 3.6586879,3.783219 6.9639869,7.560443 6.9639869,7.958292 0,0.52087 -8.7415878,9.865268 -9.3359331,9.979728 C 6.0671207,31.02778 5.75041,30.836571 5.6402644,30.549536 Z M 30.405912,26.178749 c -2.480087,-2.673687 -4.467999,-5.061361 -4.417581,-5.305943 0.153353,-0.743934 8.694135,-9.939359 9.257431,-9.967004 0.75591,-0.0371 0.914236,0.627969 0.914236,3.840369 v 2.853828 h 2.262858 c 2.959481,0 3.177142,0.230187 3.177142,3.36 0,3.129813 -0.217661,3.36 -3.177142,3.36 h -2.262858 v 2.853828 c 0,3.10503 -0.160777,3.866172 -0.816652,3.866172 -0.235501,0 -2.457344,-2.187563 -4.937434,-4.86125 z M 19.269245,24.170874 c -1.364306,-0.608983 -2.368157,-2.689688 -1.96905,-4.081294 0.367404,-1.281065 0.894972,-1.8631 2.172953,-2.397295 1.472516,-0.615511 2.706466,-0.26778 3.908694,1.101482 0.872435,0.993649 0.9855,1.321528 0.83714,2.427638 -0.330039,2.460618 -2.777562,3.919059 -4.949737,2.949469 z M 15.439999,11.163099 c -2.684,-2.4819404 -4.88,-4.6975704 -4.88,-4.9236225 0,-0.6379443 0.781151,-0.7994768 3.866172,-0.7994768 h 2.853828 V 3.1771427 C 17.279999,0.19118297 17.491814,0 20.799999,0 c 3.308185,0 3.52,0.19118297 3.52,3.1771427 0,1.5853009 0.11977,2.2693985 0.4,2.2847038 0.22,0.012016 1.552,0.00956 2.96,-0.00546 2.518344,-0.026861 3.553676,0.2429804 3.319003,0.8650434 -0.209695,0.5558499 -9.895024,9.3586511 -10.29446,9.3564271 -0.211499,-0.0012 -2.580543,-2.032819 -5.264543,-4.514758 z"
       id="path56"
       inkscape:connector-curvature="0" />
    <path
       style="fill:#BF0000;stroke-width:0.31999999"
       d="m 17.474236,41.093825 c -0.10683,-0.278393 -0.194237,-1.569181 -0.194237,-2.868412 v -2.36224 l -3.09406,-0.09159 c -1.737098,-0.05142 -3.141485,-0.234819 -3.202195,-0.418172 -0.152893,-0.461763 9.150701,-8.953414 9.809507,-8.953414 0.651057,0 9.96642,8.501145 9.818163,8.959999 -0.0573,0.177341 -1.554079,0.360656 -3.357404,0.411194 l -3.254011,0.0912 v 2.362633 c 0,3.479568 0.104129,3.374976 -3.36,3.374976 -2.414447,0 -3.007941,-0.09489 -3.165763,-0.506173 z M 5.9733332,30.506665 c -0.1173335,-0.117333 -0.2133335,-1.629333 -0.2133335,-3.36 v -3.146666 h -2.373828 c -3.45634086,0 -3.3861717,0.063 -3.3861717,-3.04 0,-3.102996 -0.07016916,-3.04 3.3861717,-3.04 h 2.373828 v -3.36 c 0,-2.512307 0.103081,-3.36 0.4085824,-3.36 0.7018329,0 9.1914169,9.035955 9.1914169,9.782956 0,0.386512 -8.5914681,9.737044 -8.9466031,9.737044 -0.1247012,0 -0.3227296,-0.096 -0.4400627,-0.213334 z M 30.590992,26.025822 c -2.393046,-2.599766 -4.350993,-4.886294 -4.350993,-5.081174 0,-0.557713 8.681769,-9.783979 9.081804,-9.651391 0.224666,0.07446 0.392192,1.331769 0.449389,3.372731 l 0.0912,3.254011 h 2.362633 c 3.443766,0 3.374976,-0.06196 3.374976,3.04 0,3.101963 0.06879,3.04 -3.374976,3.04 h -2.362633 l -0.0912,3.254011 c -0.05885,2.099868 -0.222074,3.297397 -0.460198,3.376335 -0.202954,0.06728 -2.326954,-2.004757 -4.720002,-4.604523 z M 19.162071,23.839011 c -0.46086,-0.250451 -1.082218,-0.970168 -1.380795,-1.599373 -0.447062,-0.942113 -0.478636,-1.338632 -0.178907,-2.246819 0.474427,-1.43753 1.717151,-2.39282 3.112785,-2.39282 1.598028,0 3.284845,1.72541 3.284845,3.36 0,0.919843 -0.242739,1.426739 -1.088,2.272 -1.198861,1.198861 -2.325316,1.381203 -3.749928,0.607012 z M 15.679999,11.066742 c -2.552,-2.3584624 -4.64,-4.4813052 -4.64,-4.7174281 0,-0.3252313 0.795202,-0.4514233 3.28,-0.5205087 l 3.28,-0.091195 V 3.3749771 C 17.599999,-0.08754672 17.516991,0 20.799999,0 c 3.284067,0 3.2,-0.08895768 3.2,3.3861717 v 2.373828 h 3.181114 c 1.749613,0 3.260879,0.1290615 3.358369,0.2868029 0.260321,0.4212086 -9.132752,9.3152844 -9.832992,9.3106244 -0.21257,-0.0014 -2.474491,-1.932223 -5.026491,-4.290685 z"
       id="path54"
       inkscape:connector-curvature="0" />
    <path
       style="fill:#BF0000;stroke-width:0.31999999"
       d="m 17.599999,38.943998 c 0,-1.63911 -0.14702,-2.803021 -0.384,-3.04 -0.240966,-0.240966 -1.441658,-0.384 -3.223463,-0.384 -2.145776,0 -2.814187,-0.09994 -2.736,-0.409072 0.12627,-0.499238 9.095137,-8.870927 9.503721,-8.870927 0.394877,0 9.639742,8.619481 9.639742,8.987647 0,0.160794 -1.3392,0.292352 -2.976,0.292352 -1.888,0 -3.116387,0.140387 -3.36,0.384 -0.23698,0.236979 -0.384,1.40089 -0.384,3.04 v 2.656 h -3.04 -3.04 z M 6.0799997,27.423999 c 0,-1.888 -0.1403872,-3.116387 -0.384,-3.36 -0.2369798,-0.23698 -1.4008889,-0.384 -3.0399998,-0.384 H 0 v -2.72 -2.72 h 2.6559999 c 1.6391109,0 2.80302,-0.14702 3.0399998,-0.384 0.2464218,-0.246422 0.384,-1.507555 0.384,-3.52 0,-1.7248 0.1196954,-3.136 0.2659898,-3.136 0.2704454,0 8.3341975,8.682027 8.7747815,9.447574 0.264742,0.460007 -0.741453,1.710807 -5.3607715,6.663966 -1.5839999,1.698477 -3.0599998,3.088212 -3.2799998,3.0883 -0.2913376,1.16e-4 -0.4,-0.808288 -0.4,-2.97584 z M 30.706752,26.054261 c -2.192714,-2.390156 -4.101142,-4.548786 -4.24095,-4.796956 -0.178501,-0.316851 0.679125,-1.474937 2.879999,-3.888979 4.453257,-4.88458 5.411801,-5.848327 5.816751,-5.848327 0.237638,0 0.357446,0.997487 0.357446,2.976 0,1.888 0.140387,3.116387 0.384,3.36 0.236979,0.23698 1.40089,0.384 3.04,0.384 h 2.656 v 2.72 2.72 h -2.656 c -1.63911,0 -2.803021,0.14702 -3.04,0.384 -0.243613,0.243613 -0.384,1.472 -0.384,3.36 0,2.218342 -0.105206,2.976 -0.413244,2.976 -0.227287,0 -2.207287,-1.955582 -4.400002,-4.345738 z M 18.428445,23.015447 c -1.096006,-1.30253 -1.096006,-2.808366 0,-4.110896 0.682279,-0.810842 1.064932,-0.984552 2.168798,-0.984552 2.417168,0 3.810447,1.795075 3.089294,3.980189 -0.483773,1.465847 -1.416477,2.099811 -3.089294,2.099811 -1.103866,0 -1.486519,-0.17371 -2.168798,-0.984552 z M 15.92608,11.160964 C 13.414736,8.8426901 11.313441,6.751088 11.256536,6.51296 c -0.08137,-0.340512 0.537,-0.4329603 2.896,-0.4329603 1.906249,0 3.13942,-0.1399565 3.383463,-0.384 0.23698,-0.2369798 0.384,-1.4008889 0.384,-3.0399998 V 0 h 2.88 2.88 v 2.6559999 c 0,1.6391109 0.14702,2.80302 0.384,3.0399998 0.243613,0.2436128 1.472,0.384 3.36,0.384 1.6368,0 2.976,0.1166931 2.976,0.2593178 0,0.3165606 -8.550529,8.3102805 -9.342532,8.7341485 -0.463993,0.248321 -1.383633,-0.452871 -5.131387,-3.912502 z"
       id="path52"
       inkscape:connector-curvature="0" />
    <path
       style="fill:#BF0000;stroke-width:0.31999999"
       d="m 17.532007,38.639998 -0.09201,-2.96 -2.87759,-0.09359 c -1.582674,-0.05147 -2.981993,-0.197994 -3.109597,-0.325597 -0.323763,-0.323763 8.671569,-8.540812 9.34976,-8.540812 0.597763,0 9.052062,7.6627 9.21861,8.355446 0.07731,0.321558 -0.640026,0.442537 -3.04,0.51271 l -3.141183,0.09184 -0.09201,2.96 -0.09201,2.96 H 20.639999 17.624016 Z M 6.0111943,27.119999 5.9199997,23.839999 2.9599999,23.747991 0,23.655982 v -2.695983 -2.695983 l 2.9599999,-0.09201 2.9599998,-0.09201 0.091195,-3.28 c 0.050157,-1.804 0.2144841,-3.28 0.3651712,-3.28 0.2648239,0 6.0994661,6.118423 7.8623251,8.244726 0.476385,0.5746 0.796952,1.2226 0.712371,1.44 -0.22181,0.570129 -8.277485,9.195274 -8.5881611,9.195274 -0.1432813,0 -0.3015491,-1.476 -0.3517062,-3.28 z M 30.761207,25.867638 c -2.310664,-2.517869 -4.201208,-4.733742 -4.201208,-4.924163 0,-0.420332 8.277718,-9.423476 8.664182,-9.423476 0.150384,0 0.314467,1.476 0.364624,3.28 l 0.09119,3.28 2.96,0.09201 2.96,0.09201 v 2.695983 2.695983 l -2.96,0.09201 -2.96,0.09201 -0.09303,3.037027 c -0.05116,1.670365 -0.212621,3.156622 -0.35879,3.302791 -0.146173,0.14617 -2.156311,-1.79431 -4.466974,-4.312179 z M 18.757153,23.14988 c -1.080574,-1.080574 -1.335954,-2.105672 -0.829302,-3.328837 0.839006,-2.02554 3.045215,-2.521886 4.767596,-1.072598 0.796329,0.670067 0.984552,1.072419 0.984552,2.104615 0,2.7209 -3.067556,4.15211 -4.922846,2.29682 z M 15.904334,10.956735 c -2.428616,-2.2422042 -4.40989,-4.2207353 -4.402831,-4.3967353 0.0072,-0.1791571 1.3873,-0.3904214 3.135666,-0.48 l 3.12283,-0.16 0.09201,-2.9599998 L 17.944016,0 h 2.855983 2.855983 l 0.09201,2.9599999 0.09201,2.9599998 3.12,0.091588 c 1.716,0.050373 3.12,0.2197126 3.12,0.37631 0,0.4227072 -8.916894,8.6526433 -9.370761,8.6488373 -0.214082,-0.0018 -2.376288,-1.837795 -4.804904,-4.08 z"
       id="path50"
       inkscape:connector-curvature="0" />
    <path
       style="fill:#BF0000;stroke-width:0.31999999"
       d="m 17.599999,38.559998 v -3.04 h -2.861114 c -1.573613,0 -2.942877,-0.132294 -3.042808,-0.293987 -0.207357,-0.33551 8.733957,-8.736116 9.150336,-8.59699 0.598525,0.199988 9.175819,8.40556 9.031103,8.639717 -0.08541,0.138191 -1.51479,0.25126 -3.176403,0.25126 h -3.021114 v 3.04 3.04 h -3.04 -3.04 z M 6.2999997,29.873332 c -0.121,-0.121 -0.22,-1.564 -0.22,-3.206667 V 23.679999 H 3.0399999 0 v -2.72 -2.72 h 3.028412 3.028412 l 0.091588,-3.12 c 0.053913,-1.836587 0.2251526,-3.12 0.4162857,-3.12 0.178584,0 2.1642153,1.982724 4.4125143,4.406052 2.857886,3.080372 4.01184,4.539157 3.835302,4.848443 -0.309361,0.541982 -7.7735251,8.631182 -8.0759104,8.752171 -0.1191321,0.04767 -0.3156038,-0.01233 -0.4366039,-0.133333 z M 31.007603,25.914053 c -2.182182,-2.315316 -4.080487,-4.409092 -4.218455,-4.652836 -0.170352,-0.300955 0.335211,-1.087881 1.575416,-2.452195 4.310151,-4.74147 6.562334,-6.977809 6.848887,-6.800709 0.168602,0.104201 0.306547,1.548959 0.306547,3.210572 v 3.021114 h 3.04 3.04 v 2.72 2.72 h -3.04 -3.04 l -0.0049,2.8 c -0.0026,1.54 -0.125273,2.989836 -0.272396,3.221859 -0.19314,0.304595 -1.370375,-0.748307 -4.235099,-3.787805 z M 19.115129,23.361925 c -1.236217,-0.972408 -1.576144,-2.278192 -0.928603,-3.567098 1.039156,-2.068402 3.081746,-2.395646 4.721032,-0.75636 1.280906,1.280906 0.825919,3.626486 -0.873967,4.505531 -1.199842,0.620462 -1.958364,0.57314 -2.918462,-0.182073 z M 16.020158,10.853823 C 13.545319,8.5462063 11.600847,6.528071 11.69911,6.3690778 11.79737,6.2100848 13.237272,6.0799997 14.898885,6.0799997 h 3.021114 V 3.0399999 0 h 2.88 2.88 v 3.0399999 c 0,2.9303365 0.02597,3.0410862 0.72,3.0701131 0.396,0.016563 1.715075,0.052562 2.931279,0.08 1.216203,0.027437 2.261883,0.1989267 2.323733,0.3810867 0.103416,0.3045804 -7.642276,7.6428393 -8.680407,8.2238063 -0.323657,0.181128 -1.751807,-0.954943 -4.954446,-3.941183 z"
       id="path48"
       inkscape:connector-curvature="0" />
    <path
       style="fill:#BF0000;stroke-width:0.31999999"
       d="m 17.873135,38.87276 c 0.148361,-3.576464 0.05977,-3.672762 -3.378985,-3.672762 -1.489116,0 -2.659484,-0.12447 -2.600817,-0.276604 0.189361,-0.491044 8.310044,-7.879855 8.778478,-7.987323 0.249152,-0.05716 2.192099,1.52684 4.317661,3.52 2.125563,1.993159 4.068479,3.739083 4.317593,3.879828 1.046435,0.591219 0.292351,0.864099 -2.387884,0.864099 -2.115329,0 -2.941008,0.120724 -3.233136,0.472714 -0.2639,0.317981 -0.355285,1.365462 -0.279182,3.200048 l 0.113136,2.727331 h -2.88 -2.88 z M 6.3999997,26.945848 c 0,-2.138851 -0.1201178,-2.967174 -0.4727152,-3.259803 C 5.609305,23.422145 4.5618231,23.33076 2.7272385,23.406863 L -9.2695269e-5,23.519999 v -2.56 -2.56 L 2.7272385,18.513135 c 1.8345846,0.0761 2.8820665,-0.01528 3.200046,-0.279182 0.3519933,-0.292128 0.4727152,-1.117807 0.4727152,-3.233136 0,-1.56245 0.1203469,-2.840818 0.2674374,-2.840818 0.5087258,0 8.0525619,8.306293 8.0525619,8.866436 0,0.353374 -7.5218531,8.520848 -7.9914534,8.677381 C 6.520113,29.773294 6.3999997,28.765007 6.3999997,26.945848 Z M 30.752789,25.519999 c -2.128705,-2.332 -3.870917,-4.390996 -3.871582,-4.575546 -0.0015,-0.411448 7.669483,-8.784454 8.047911,-8.784454 0.148986,0 0.27088,1.278368 0.27088,2.840818 0,2.115329 0.120724,2.941008 0.472714,3.233136 0.317981,0.2639 1.365462,0.355285 3.200048,0.279182 l 2.727331,-0.113136 v 2.56 2.56 L 38.87276,23.406863 c -1.834586,-0.0761 -2.882067,0.01528 -3.200048,0.279182 -0.35199,0.292128 -0.472714,1.117807 -0.472714,3.233136 0,1.56245 -0.129788,2.840818 -0.288419,2.840818 -0.15863,0 -2.030086,-1.908 -4.15879,-4.24 z M 19.060761,23.175046 c -0.898564,-0.898563 -1.203653,-1.779478 -0.997279,-2.879545 0.37063,-1.975628 2.761498,-2.723097 4.453362,-1.392276 1.155465,0.908888 1.183747,2.865273 0.0577,3.991319 -0.920163,0.920163 -2.729672,1.064614 -3.513784,0.280502 z M 16.159999,10.875143 c -2.288,-2.1103466 -4.208,-3.9805773 -4.266666,-4.1560684 -0.06562,-0.1962973 0.99672,-0.3190749 2.760817,-0.3190749 2.138851,0 2.967174,-0.1201178 3.259803,-0.4727152 0.2639,-0.3179795 0.355285,-1.3654614 0.279182,-3.200046 l -0.113136,-2.727331195269 2.72,-1.15238061e-4 2.72,-1.1523785e-4 L 23.410535,2.8162029 c -0.08252,2.1231441 3.52e-4,2.9076762 0.336663,3.1867792 0.24537,0.203639 1.720939,0.4122752 3.279041,0.4636352 l 2.832913,0.093382 -4.387891,4.0799997 c -2.41334,2.244 -4.559649,4.078231 -4.769576,4.076068 -0.209928,-0.0022 -2.253686,-1.730578 -4.541686,-3.840924 z"
       id="path46"
       inkscape:connector-curvature="0" />
    <path
       style="fill:#BF0000;stroke-width:0.31999999"
       d="m 17.599999,41.279998 c 0,-0.176 0.144,-0.32 0.32,-0.32 0.409633,0 0.416405,-4.791485 0.0077,-5.44 -0.214292,-0.340019 -1.081057,-0.526659 -2.972201,-0.64 l -2.66969,-0.16 4.064461,-3.759999 c 3.830997,-3.544026 4.793213,-4.178676 5.239827,-3.45604 0.103321,0.167178 1.90636,1.895178 4.006751,3.839999 l 3.818894,3.53604 h -2.685009 c -3.498989,0 -3.690723,0.184052 -3.690723,3.542858 0,1.478096 0.133573,2.537142 0.32,2.537142 0.176,0 0.32,0.144 0.32,0.32 0,0.190877 -1.226667,0.32 -3.04,0.32 -1.813333,0 -3.04,-0.129123 -3.04,-0.32 z M 6.7199997,26.813967 c 0,-3.592542 -0.1703165,-3.773968 -3.542857,-3.773968 -1.4780952,0 -2.53714273,0.133573 -2.53714273,0.32 0,0.176 -0.14399999,0.32 -0.31999999,0.32 C 0.1317647,23.679999 0,22.559999 0,20.959999 c 0,-1.6 0.1317647,-2.72 0.31999998,-2.72 0.176,0 0.31999999,0.144 0.31999999,0.32 0,0.186427 1.05904753,0.32 2.53714273,0.32 3.373001,0 3.5420723,-0.18039 3.545497,-3.782857 l 0.00264,-2.777143 2.4308587,2.56 c 3.2394786,3.411579 5.2438606,5.759285 5.2438606,6.142064 0,0.251819 -3.990266,4.725158 -7.0727942,7.929047 C 6.729089,29.572774 6.7199997,29.540783 6.7199997,26.813967 Z M 31.039999,25.461062 c -2.024,-2.209622 -3.71985,-4.199462 -3.768556,-4.421867 -0.04871,-0.222404 1.607294,-2.258111 3.68,-4.523793 l 3.768555,-4.119422 0.16,2.934641 c 0.116042,2.128387 0.291872,3.01774 0.64,3.237109 0.64856,0.408686 5.44,0.401876 5.44,-0.0077 0,-0.176 0.144,-0.32 0.32,-0.32 0.188237,0 0.32,1.12 0.32,2.72 0,1.6 -0.131763,2.72 -0.32,2.72 -0.176,0 -0.32,-0.144 -0.32,-0.32 0,-0.409607 -4.79144,-0.416417 -5.44,-0.0077 -0.347491,0.218969 -0.524169,1.106329 -0.64,3.214378 l -0.16,2.911911 z M 18.903225,22.516844 c -1.438495,-1.82875 -0.430851,-3.956845 1.873548,-3.956845 2.287908,0 3.30438,2.479144 1.729829,4.219002 -0.831368,0.918652 -2.786437,0.776415 -3.603377,-0.262157 z m -1.943226,-11.22512 c -1.848,-1.7074038 -3.718528,-3.434525 -4.15673,-3.8380476 l -0.79673,-0.7336767 h 2.773873 c 3.598858,0 3.779587,-0.1694096 3.779587,-3.542857 0,-1.4780952 -0.133573,-2.53714273 -0.32,-2.53714273 -0.176,0 -0.32,-0.14399999 -0.32,-0.31999999 C 17.919999,0.13037036 19.093333,0 20.799999,0 c 1.706666,0 2.88,0.13037036 2.88,0.31999998 0,0.176 -0.144,0.31999999 -0.32,0.31999999 -0.409633,0 -0.416405,4.79148333 -0.0077,5.43999973 0.216374,0.3433235 1.091676,0.5255587 3.074008,0.64 l 2.771495,0.16 -4.063337,3.7599993 c -2.234837,2.068 -4.232346,3.759122 -4.438909,3.758048 -0.206564,-0.0011 -1.88757,-1.398919 -3.73557,-3.106323 z"
       id="path44"
       inkscape:connector-curvature="0" />
  </g>
</svg>
