<?xml version="1.0" encoding="UTF-8" standalone="no"?>
<!-- Created with Inkscape (http://www.inkscape.org/) -->

<svg
   xmlns:dc="http://purl.org/dc/elements/1.1/"
   xmlns:cc="http://creativecommons.org/ns#"
   xmlns:rdf="http://www.w3.org/1999/02/22-rdf-syntax-ns#"
   xmlns:svg="http://www.w3.org/2000/svg"
   xmlns="http://www.w3.org/2000/svg"
   xmlns:sodipodi="http://sodipodi.sourceforge.net/DTD/sodipodi-0.dtd"
   xmlns:inkscape="http://www.inkscape.org/namespaces/inkscape"
   version="1.1"
   id="svg167"
   width="80"
   height="80"
   viewBox="-40 0 79.999999 79.999999"
   sodipodi:docname="xassembly2.svg"
   inkscape:version="0.92.3 (2405546, 2018-03-11)">
  <metadata
     id="metadata173">
    <rdf:RDF>
      <cc:Work
         rdf:about="">
        <dc:format>image/svg+xml</dc:format>
        <dc:type
           rdf:resource="http://purl.org/dc/dcmitype/StillImage" />
        <dc:title></dc:title>
      </cc:Work>
    </rdf:RDF>
  </metadata>
  <defs
     id="defs171" />
  <sodipodi:namedview
     pagecolor="#ffffff"
     bordercolor="#666666"
     borderopacity="1"
     objecttolerance="10"
     gridtolerance="10"
     guidetolerance="10"
     inkscape:pageopacity="0"
     inkscape:pageshadow="2"
     inkscape:window-width="1210"
     inkscape:window-height="989"
     id="namedview169"
     showgrid="false"
     inkscape:zoom="4.1706731"
     inkscape:cx="35.351675"
     inkscape:cy="45.724871"
     inkscape:window-x="0"
     inkscape:window-y="0"
     inkscape:window-maximized="1"
     inkscape:current-layer="svg167"
     viewbox-x="-40" />
  <path
     style="fill:#bf0000;stroke-width:0.61669964"
     d="m -8.7162398,74.40513 -0.1773204,-5.704472 -4.3168978,-0.185589 c -2.374293,-0.102065 -4.516011,-0.384436 -4.759375,-0.627485 -0.618939,-0.618145 16.7206474,-16.454515 18.01640979,-16.454515 1.07704381,0 17.63493221,14.909244 17.80721921,16.034184 0.05277,0.344513 -2.018399,0.752794 -4.692659,0.92505 l -4.7871071,0.308351 -0.177321,5.704471 -0.1773211,5.704469 H -0.25976226 -8.5389233 Z m -19.7315892,-20.659433 -0.180113,-4.779423 -5.704472,-0.177322 -5.70447,-0.177318 v -8.279159 -8.279158 l 5.70447,-0.177321 5.70447,-0.177322 0.180114,-4.779422 c 0.09906,-2.628679 0.424862,-4.779421 0.723996,-4.779421 0.521457,0 11.67197,11.709427 15.130707,15.889123 0.916348,1.107361 1.532726,2.356176 1.369721,2.775147 -0.425538,1.093779 -15.950866,17.721004 -16.546617,17.721004 -0.273729,0 -0.578741,-2.150738 -0.677807,-4.779421 z M 19.18884,49.751811 c -4.421814,-4.825318 -8.039661,-9.077208 -8.039661,-9.448646 0,-0.826266 15.915665,-18.163321 16.674186,-18.163321 0.297833,0 0.622569,2.150738 0.721635,4.779421 l 0.180115,4.779423 5.704472,0.177319 5.70447,0.177321 v 8.279159 8.279158 l -5.70447,0.177321 -5.704472,0.177321 -0.180115,4.779421 c -0.09905,2.62868 -0.435802,4.779422 -0.748308,4.779422 -0.312508,0 -4.186039,-3.947991 -8.607852,-8.773307 z M -3.962914,44.702488 c -1.9444634,-1.944461 -2.4806355,-4.254655 -1.5236643,-6.564988 1.6169208,-3.903592 5.86869806,-4.860144 9.1880469,-2.067096 1.5346736,1.291345 1.8974154,2.066751 1.8974154,4.055985 0,5.150621 -6.07830706,8.059587 -9.561798,4.576099 z M -9.4129501,21.053249 c -4.6950679,-4.320553 -8.5802749,-8.133064 -8.6337959,-8.47225 -0.05404,-0.342602 1.958428,-0.753749 4.52794,-0.925047 l 4.6252478,-0.308351 0.1773203,-5.7044703 0.1773205,-5.70447116 h 8.27916034 8.27915966 l 0.1773211,5.70447116 0.1773199,5.7044703 4.7794204,0.180113 c 2.628682,0.09905 4.779421,0.425415 4.779421,0.725221 0,0.81287 -17.18751337,16.671795 -18.05919938,16.663234 -0.41257596,-0.0039 -4.59155762,-3.542367 -9.28662442,-7.862921 z"
     id="path179"
     inkscape:connector-curvature="0" />
</svg>
