<?xml version="1.0" encoding="UTF-8" standalone="no"?>
<!-- Created with Inkscape (http://www.inkscape.org/) -->

<svg
   xmlns:dc="http://purl.org/dc/elements/1.1/"
   xmlns:cc="http://creativecommons.org/ns#"
   xmlns:rdf="http://www.w3.org/1999/02/22-rdf-syntax-ns#"
   xmlns:svg="http://www.w3.org/2000/svg"
   xmlns="http://www.w3.org/2000/svg"
   xmlns:sodipodi="http://sodipodi.sourceforge.net/DTD/sodipodi-0.dtd"
   xmlns:inkscape="http://www.inkscape.org/namespaces/inkscape"
   version="1.1"
   id="svg189"
   width="41.599998"
   height="41.599998"
   viewBox="0 0 41.599998 41.599998"
   sodipodi:docname="yassembly.svg"
   inkscape:version="0.92.3 (2405546, 2018-03-11)">
  <metadata
     id="metadata195">
    <rdf:RDF>
      <cc:Work
         rdf:about="">
        <dc:format>image/svg+xml</dc:format>
        <dc:type
           rdf:resource="http://purl.org/dc/dcmitype/StillImage" />
        <dc:title></dc:title>
      </cc:Work>
    </rdf:RDF>
  </metadata>
  <defs
     id="defs193" />
  <sodipodi:namedview
     pagecolor="#ffffff"
     bordercolor="#666666"
     borderopacity="1"
     objecttolerance="10"
     gridtolerance="10"
     guidetolerance="10"
     inkscape:pageopacity="0"
     inkscape:pageshadow="2"
     inkscape:window-width="1210"
     inkscape:window-height="989"
     id="namedview191"
     showgrid="false"
     inkscape:zoom="15.977894"
     inkscape:cx="20.648663"
     inkscape:cy="21.17433"
     inkscape:window-x="0"
     inkscape:window-y="0"
     inkscape:window-maximized="1"
     inkscape:current-layer="svg189" />
  <g
     id="g199"
     transform="translate(0.0625861,0.06258663)">
    <path
       style="fill:#bf0000;stroke-width:0.31999999"
       d="m 17.447945,40.879998 c -0.09033,-0.396 -0.201079,-1.656 -0.246096,-2.8 l -0.08185,-2.08 -3.12,-0.09159 c -2.426939,-0.07124 -3.12,-0.191734 -3.12,-0.542419 0,-0.247955 2.178472,-2.471558 4.841048,-4.941341 3.419378,-3.171783 4.973306,-4.416496 5.29141,-4.238475 1.021772,0.571812 9.707542,8.80445 9.707542,9.201102 0,0.326522 -0.79125,0.45233 -3.28,0.521527 l -3.28,0.09119 -0.08185,2.08 c -0.145948,3.708886 0.03855,3.52 -3.43815,3.52 -2.877948,0 -3.035936,-0.03563 -3.192054,-0.72 z M 5.9292656,30.676418 c -0.08723,-0.24003 -0.1969993,-1.804419 -0.2439324,-3.476419 l -0.085333,-3.04 -2.0799999,-0.08185 C -0.1536618,23.933588 0,24.069707 0,20.959999 0,17.850291 -0.1536618,17.98641 3.5199998,17.841849 l 2.0799999,-0.08185 0.091043,-3.461337 c 0.072668,-2.762767 0.1810896,-3.440885 0.537216,-3.36 0.6838946,0.15533 9.1317403,9.440124 9.1317403,10.036444 0,0.51232 -7.4240166,8.836383 -8.65235,9.701312 -0.5234121,0.36856 -0.6444447,0.36856 -0.7783834,0 z m 28.9034304,-0.03522 c -1.50631,-1.226065 -8.592697,-9.226656 -8.592697,-9.701231 0,-0.309157 0.756,-1.368117 1.68,-2.353245 0.924,-0.985127 2.854767,-3.045736 4.290595,-4.579129 1.435824,-1.533394 2.803824,-2.8284 3.04,-2.877791 0.3299,-0.06899 0.466479,0.68878 0.589404,3.270197 l 0.16,3.36 2.08,0.08185 c 3.673661,0.144561 3.52,0.0084 3.52,3.11815 0,3.109708 0.153661,2.973589 -3.52,3.11815 l -2.08,0.08185 -0.09251,3.19651 c -0.05088,1.758081 -0.202617,3.306621 -0.337197,3.441199 -0.134579,0.134579 -0.466495,0.06415 -0.737593,-0.15651 z M 18.949373,23.820574 c -0.392166,-0.274685 -0.940951,-0.940178 -1.219522,-1.478875 -1.668789,-3.227083 2.600675,-6.312727 5.276306,-3.813313 0.838992,0.783736 0.993842,1.162604 0.993842,2.431613 0,1.269009 -0.15485,1.647877 -0.993842,2.431613 -1.142307,1.067075 -2.882972,1.251131 -4.056784,0.428962 z M 15.567758,11.139995 C 13.02305,8.7969977 10.927287,6.6330371 10.910507,6.3311943 c -0.02664,-0.4791559 0.385761,-0.5603789 3.249492,-0.64 l 3.28,-0.091195 0.08185,-2.0799999 C 17.667137,-0.17213473 17.50683,0 20.799999,0 c 3.293169,0 3.132862,-0.17213473 3.27815,3.5199998 l 0.08185,2.0799999 3.28,0.091195 c 2.502401,0.069575 3.28,0.1940544 3.28,0.5250681 0,0.5782086 -9.150948,8.9559272 -9.922124,9.0837322 -0.405987,0.06728 -2.116958,-1.293612 -5.230117,-4.16 z"
       id="path203"
       inkscape:connector-curvature="0" />
    <path
       style="fill:#bf0000;stroke-width:0.31999999"
       d="m 17.852227,38.960043 c 0.05073,-1.452022 -0.05159,-2.856045 -0.227368,-3.120045 -0.230822,-0.346669 -1.138928,-0.524444 -3.269267,-0.64 l -2.94967,-0.16 4.566553,-4.159999 c 2.511605,-2.288 4.679954,-4.16 4.818553,-4.16 0.1386,0 2.276114,1.872 4.750031,4.16 l 4.498031,4.159999 -3.0322,0.16 c -2.204216,0.116311 -3.119465,0.291072 -3.351774,0.64 -0.175766,0.264 -0.278071,1.668023 -0.227345,3.120045 l 0.09223,2.640048 h -2.88 -2.88 z M 6.3999997,27.222856 c 0,-3.790874 -0.1670278,-3.961479 -3.7335435,-3.813497 l -2.666548895269,0.11064 v -2.56 -2.56 L 2.6664562,18.510639 c 3.5761566,0.148382 3.7851976,-0.05915 3.7054213,-3.678708 -0.032623,-1.480139 0.014138,-2.764613 0.1039107,-2.854387 0.1608854,-0.160885 7.3030748,7.290119 8.1581068,8.510848 0.405846,0.579426 0.115163,0.974097 -3.763444,5.109766 -2.3117935,2.465012 -4.2633787,4.481841 -4.3368561,4.481841 -0.073478,0 -0.1335952,-1.285715 -0.1335952,-2.857143 z m 24.4005413,-1.593914 -4.239458,-4.578213 0.944249,-1.165365 c 0.519338,-0.640951 2.455996,-2.749365 4.303685,-4.685365 l 3.359436,-3.52 0.01578,2.937143 c 0.02083,3.880948 0.175712,4.041773 3.749315,3.893497 l 2.66655,-0.11064 v 2.56 2.56 l -2.640048,-0.09223 c -1.452025,-0.05073 -2.856048,0.05158 -3.120048,0.227345 -0.351101,0.233754 -0.522966,1.156413 -0.64,3.435806 l -0.16,3.116233 z M 19.634239,23.689584 c -2.398906,-0.992184 -2.134247,-4.953529 0.372989,-5.582805 1.080925,-0.271295 2.843381,0.583022 3.308433,1.603698 0.564013,1.237874 0.440052,1.957376 -0.515662,2.993052 -0.976617,1.058327 -2.125679,1.416231 -3.16576,0.986055 z m -3.614257,-12.889585 -4.577535,-4.2399993 3.091431,-0.16 c 2.257208,-0.116824 3.177668,-0.289528 3.411004,-0.64 0.175766,-0.264 0.278071,-1.6680207 0.227345,-3.1200462 L 18.079999,-9.2695269e-5 h 2.72 2.72 L 23.409359,2.6664562 c -0.147054,3.5441617 0.03962,3.7335435 3.680164,3.7335435 1.524002,0 2.676823,0.1298214 2.617142,0.2947216 -0.102137,0.282206 -8.80841,8.3452777 -9.010991,8.3452777 -0.05399,0 -2.158047,-1.908 -4.675692,-4.24 z"
       id="path201"
       inkscape:connector-curvature="0" />
  </g>
</svg>
