<?xml version="1.0" encoding="UTF-8" standalone="no"?>
<!-- Created with Inkscape (http://www.inkscape.org/) -->

<svg
   xmlns:dc="http://purl.org/dc/elements/1.1/"
   xmlns:cc="http://creativecommons.org/ns#"
   xmlns:rdf="http://www.w3.org/1999/02/22-rdf-syntax-ns#"
   xmlns:svg="http://www.w3.org/2000/svg"
   xmlns="http://www.w3.org/2000/svg"
   xmlns:sodipodi="http://sodipodi.sourceforge.net/DTD/sodipodi-0.dtd"
   xmlns:inkscape="http://www.inkscape.org/namespaces/inkscape"
   version="1.1"
   id="svg185"
   width="158.39999"
   height="158.39999"
   viewBox="0 0 158.39999 158.39999"
   sodipodi:docname="zassembly.svg"
   inkscape:version="0.92.3 (2405546, 2018-03-11)">
  <metadata
     id="metadata191">
    <rdf:RDF>
      <cc:Work
         rdf:about="">
        <dc:format>image/svg+xml</dc:format>
        <dc:type
           rdf:resource="http://purl.org/dc/dcmitype/StillImage" />
        <dc:title></dc:title>
      </cc:Work>
    </rdf:RDF>
  </metadata>
  <defs
     id="defs189" />
  <sodipodi:namedview
     pagecolor="#ffffff"
     bordercolor="#666666"
     borderopacity="1"
     objecttolerance="10"
     gridtolerance="10"
     guidetolerance="10"
     inkscape:pageopacity="0"
     inkscape:pageshadow="2"
     inkscape:window-width="1600"
     inkscape:window-height="1110"
     id="namedview187"
     showgrid="false"
     inkscape:zoom="4.0756851"
     inkscape:cx="86.139388"
     inkscape:cy="84.555522"
     inkscape:window-x="-4"
     inkscape:window-y="-4"
     inkscape:window-maximized="0"
     inkscape:current-layer="svg185" />
  <path
     style="fill:#BF0000;stroke-width:0.32305694"
     d="m 66.541025,150.78168 c -0.120874,-0.12088 -0.21977,-6.34492 -0.21977,-13.83123 0,-10.15595 -0.09843,-13.70988 -0.387668,-13.99914 -0.283877,-0.28388 -2.921869,-0.38767 -9.853237,-0.38767 -5.222276,0 -9.465568,-0.12722 -9.465568,-0.2838 0,-0.3864 30.016976,-32.991066 30.372713,-32.991066 0.358421,0 30.361985,32.597106 30.361985,32.986506 0,0.16257 -4.14031,0.28836 -9.490619,0.28836 -7.535647,0 -9.564586,0.0892 -9.849694,0.43266 -0.247895,0.29869 -0.385164,4.67441 -0.443375,14.13374 l -0.0843,13.70108 -10.360345,0.0852 c -5.698179,0.0468 -10.459231,-0.0137 -10.580114,-0.13461 z M 133.35557,74.787162 c -2.8429,-1.027028 -12.03791,-4.312042 -20.43335,-7.300036 -8.91272,-3.172094 -15.264442,-5.597964 -15.264442,-5.829842 0,-0.218422 4.042522,-9.318787 8.983372,-20.22303 5.72943,-12.644597 9.14893,-19.825903 9.44045,-19.825903 0.28993,0 1.76,3.03986 4.01968,8.31198 1.95942,4.571588 3.71875,8.46391 3.90962,8.649607 0.24306,0.236467 4.11487,-1.268296 12.92228,-5.022205 7.97825,-3.400496 12.7292,-5.263378 12.9964,-5.095981 0.53537,0.335392 8.46544,18.933294 8.18613,19.198389 -0.1143,0.108479 -5.85796,2.579864 -12.76371,5.491966 -6.90573,2.912103 -12.62054,5.458897 -12.69957,5.659541 -0.079,0.200645 1.46426,4.145961 3.42953,8.767362 1.96527,4.621411 3.57322,8.564109 3.57322,8.761557 0,0.618503 -0.97961,0.378502 -6.29961,-1.543405 z M 18.831885,76.00751 c 0,-0.197448 1.607956,-4.140146 3.573222,-8.761556 1.965277,-4.621402 3.509903,-8.566718 3.43252,-8.767363 C 25.760195,58.277947 24.188634,57.481063 22.34517,56.707738 7.9014253,50.648648 0.66313173,47.465132 0.5276356,47.112034 0.32761691,46.590794 7.9853898,28.487126 8.5575035,28.128695 c 0.2671884,-0.167394 5.0182755,1.695542 12.9963785,5.095981 8.807421,3.753909 12.679218,5.258672 12.922278,5.022205 0.190876,-0.185696 1.950214,-4.078018 3.909635,-8.649607 2.259682,-5.27212 3.729753,-8.31198 4.019666,-8.31198 0.291529,0 3.711026,7.181306 9.440461,19.825903 8.084287,17.841681 9.312631,20.71774 8.848347,20.71774 -0.0743,0 -9.320768,3.270951 -20.547774,7.268779 -11.227016,3.997829 -20.615666,7.268781 -20.863683,7.268781 -0.248007,0 -0.450927,-0.161549 -0.450927,-0.358987 z"
     id="path195"
     inkscape:connector-curvature="0" />
</svg>
