<?xml version="1.0" encoding="UTF-8" standalone="no"?>
<!-- Created with Inkscape (http://www.inkscape.org/) -->

<svg
   xmlns:dc="http://purl.org/dc/elements/1.1/"
   xmlns:cc="http://creativecommons.org/ns#"
   xmlns:rdf="http://www.w3.org/1999/02/22-rdf-syntax-ns#"
   xmlns:svg="http://www.w3.org/2000/svg"
   xmlns="http://www.w3.org/2000/svg"
   xmlns:sodipodi="http://sodipodi.sourceforge.net/DTD/sodipodi-0.dtd"
   xmlns:inkscape="http://www.inkscape.org/namespaces/inkscape"
   width="210mm"
   height="297mm"
   viewBox="0 0 210 297"
   version="1.1"
   id="svg8"
   inkscape:version="0.92.3 (2405546, 2018-03-11)">
  <defs
     id="defs2" />
  <sodipodi:namedview
     id="base"
     pagecolor="#ffffff"
     bordercolor="#666666"
     borderopacity="1.0"
     inkscape:pageopacity="0.0"
     inkscape:pageshadow="2"
     inkscape:zoom="5.6"
     inkscape:cx="577.03228"
     inkscape:cy="624.64807"
     inkscape:document-units="mm"
     inkscape:current-layer="layer1"
     showgrid="false"
     inkscape:window-width="1920"
     inkscape:window-height="1137"
     inkscape:window-x="-8"
     inkscape:window-y="-8"
     inkscape:window-maximized="1" />
  <metadata
     id="metadata5">
    <rdf:RDF>
      <cc:Work
         rdf:about="">
        <dc:format>image/svg+xml</dc:format>
        <dc:type
           rdf:resource="http://purl.org/dc/dcmitype/StillImage" />
        <dc:title></dc:title>
      </cc:Work>
    </rdf:RDF>
  </metadata>
  <g
     inkscape:label="Ebene 1"
     inkscape:groupmode="layer"
     id="layer1">
    <path
       style="fill:#000000;stroke-width:0.26458332"
       d="m 158.45878,179.17486 c -1.78967,-0.35375 -4.03007,-1.06707 -5.95313,-1.89541 -2.54918,-1.09804 -3.16797,-3.08045 -1.45219,-4.65231 l 0.92907,-0.85114 -0.004,-34.52339 c -0.003,-26.44623 -0.0776,-34.54802 -0.31872,-34.62864 -0.6447,-0.21554 -1.53545,-1.34672 -1.53545,-1.9499 0,-1.324593 2.42977,-2.805702 5.76085,-3.51163 2.50729,-0.531347 10.98022,-0.516298 13.28915,0.0236 3.28501,0.768141 6.3039,2.099734 6.99397,3.08495 0.77064,1.10025 0.4813,2.74214 -0.55251,3.13519 -0.34656,0.13177 -0.75979,0.56913 -0.91828,0.97192 -0.20653,0.52487 -0.22588,9.8398 -0.0683,32.87923 0.12092,17.68078 0.19282,33.03984 0.15979,34.13125 -0.0599,1.97844 -0.0575,1.98597 0.80066,2.51699 1.9036,1.17796 0.94847,3.1478 -2.07882,4.28732 -3.55438,1.33793 -10.84498,1.81356 -15.05212,0.98197 z m 4.56406,-0.30287 c -0.40018,-0.0606 -1.05503,-0.0606 -1.45521,0 -0.40018,0.0606 -0.0728,0.11022 0.7276,0.11022 0.80037,0 1.12779,-0.0496 0.72761,-0.11022 z m 6.38495,-1.00675 c 2.98107,-0.44858 4.3255,-0.90147 5.24758,-1.76772 l 0.59339,-0.55746 -0.66956,-0.62053 c -0.36826,-0.34129 -0.78249,-0.62053 -0.92051,-0.62053 -0.15697,0 -0.2505,-13.20418 -0.24973,-35.25573 l 0.001,-35.25573 0.79253,-0.84555 c 1.0101,-1.07768 0.99891,-1.63363 -0.0514,-2.55529 -2.19256,-1.923847 -11.01406,-3.260264 -15.82491,-2.397384 -3.66464,0.657294 -5.37639,1.163317 -6.20812,1.835229 l -0.78416,0.633485 0.63184,0.67257 c 0.34752,0.36991 0.78969,0.67256 0.9826,0.67256 0.28953,0 0.35076,6.14758 0.35076,35.21766 v 35.21765 l -0.79375,1.00219 c -0.43656,0.55121 -0.79375,1.12979 -0.79375,1.28573 0,0.15594 0.36132,0.65316 0.80294,1.10493 1.30406,1.33403 6.30743,2.53904 11.2356,2.70598 2.10587,0.0713 1.97197,0.0825 5.65735,-0.47206 z m 4.71584,-6.01364 c -0.0631,-0.32742 -0.11467,-0.0595 -0.11467,0.59531 0,0.65485 0.0516,0.92274 0.11467,0.59532 0.0631,-0.32743 0.0631,-0.86321 0,-1.19063 z m -21.4235,-4.63021 c -0.0545,-0.69122 -0.0991,-0.12567 -0.0991,1.25677 0,1.38245 0.0446,1.948 0.0991,1.25678 0.0545,-0.69123 0.0545,-1.82232 0,-2.51355 z m 21.51359,-1.42402 c -0.0192,-2.51564 -0.0894,-4.6283 -0.15589,-4.69481 -0.0665,-0.0665 -0.12093,2.06189 -0.12093,4.72977 0,2.66788 0.0701,4.78055 0.15589,4.69481 0.0857,-0.0857 0.14015,-2.21414 0.12093,-4.72977 z m -0.10159,-6.38119 c -0.0734,-0.1819 -0.13345,-0.0331 -0.13345,0.33073 0,0.36381 0.0601,0.51263 0.13345,0.33073 0.0734,-0.1819 0.0734,-0.47955 0,-0.66146 z m -21.43125,-23.8125 c -0.0734,-0.1819 -0.13345,-0.0331 -0.13345,0.33073 0,0.36381 0.0601,0.51263 0.13345,0.33073 0.0734,-0.1819 0.0734,-0.47955 0,-0.66146 z m 0.006,-1.30638 c -0.0845,-0.21106 -0.14716,-0.14837 -0.15985,0.15986 -0.0115,0.27891 0.0511,0.43518 0.13896,0.34726 0.0879,-0.0879 0.0973,-0.31612 0.0209,-0.50712 z m 0,-3.43958 c -0.0845,-0.21106 -0.14716,-0.14837 -0.15985,0.15985 -0.0115,0.27892 0.0511,0.43519 0.13896,0.34727 0.0879,-0.0879 0.0973,-0.31612 0.0209,-0.50712 z m 0.0107,-2.92695 c -0.0587,-0.47294 -0.10671,-0.086 -0.10671,0.85989 0,0.94589 0.048,1.33284 0.10671,0.8599 0.0587,-0.47294 0.0587,-1.24685 0,-1.71979 z m 0.002,-3.83056 c -0.0573,-0.54895 -0.1051,-0.16465 -0.10627,0.854 -0.001,1.01864 0.0457,1.46778 0.10414,0.99808 0.0584,-0.46969 0.0594,-1.30313 0.002,-1.85208 z m 0.005,-12.17673 c -0.045,-2.00091 -0.0817,-0.36381 -0.0817,3.63802 0,4.00182 0.0368,5.63893 0.0817,3.63802 0.045,-2.00091 0.045,-5.27513 0,-7.27604 z m 23.26628,-10.43451 c -0.0845,-0.21107 -0.14715,-0.14837 -0.15985,0.15985 -0.0115,0.27892 0.051,0.43519 0.13897,0.34727 0.0879,-0.0879 0.0973,-0.31612 0.0209,-0.50712 z"
       id="path3737"
       inkscape:connector-curvature="0" />
    <path
       style="stroke-width:0.25253814"
       d="m 576.73696,432.40407 c 0,-2.15289 0.0387,-3.03362 0.0861,-1.95717 0.0473,1.07644 0.0473,2.8379 0,3.91434 -0.0473,1.07644 -0.0861,0.19572 -0.0861,-1.95717 z"
       id="path3761"
       inkscape:connector-curvature="0"
       transform="scale(0.26458333)" />
    <path
       style="stroke-width:0.25253814"
       d="m 577.00488,436.69722 c 0,-6.87535 0.0325,-9.688 0.0722,-6.25032 0.0397,3.43767 0.0397,9.06296 0,12.50064 -0.0397,3.43767 -0.0722,0.62503 -0.0722,-6.25032 z"
       id="path3763"
       inkscape:connector-curvature="0"
       transform="scale(0.26458333)" />
    <path
       style="stroke-width:0.25253814"
       d="m 664.68901,385.07718 c -0.23815,-0.62062 -0.21238,-1.35724 0.0532,-1.52139 0.29173,-0.1803 0.49371,0.89217 0.28181,1.49627 -0.15428,0.4398 -0.17531,0.44138 -0.33504,0.0251 z"
       id="path3765"
       inkscape:connector-curvature="0"
       transform="scale(0.26458333)" />
    <path
       style="stroke-width:0.25253814"
       d=""
       id="path3767"
       inkscape:connector-curvature="0"
       transform="scale(0.26458333)" />
    <path
       style="stroke-width:0.25253814"
       d="m 664.811,384.42182 c 0,-0.34724 0.0573,-0.48929 0.12737,-0.31567 0.0701,0.17362 0.0701,0.45773 0,0.63135 -0.07,0.17362 -0.12737,0.0316 -0.12737,-0.31568 z"
       id="path3769"
       inkscape:connector-curvature="0"
       transform="scale(0.26458333)" />
    <path
       style="stroke-width:0.08928572"
       d="m 664.59111,383.49313 c 0,-0.0405 0.0248,-0.1382 0.0551,-0.21713 0.0426,-0.11108 0.083,-0.12035 0.17857,-0.041 0.17139,0.14224 0.15438,0.23031 -0.0551,0.28508 -0.0982,0.0257 -0.17857,0.0136 -0.17857,-0.0269 z"
       id="path3771"
       inkscape:connector-curvature="0"
       transform="scale(0.26458333)" />
    <path
       style="fill:none;stroke:#000000;stroke-width:0.26458332px;stroke-linecap:butt;stroke-linejoin:miter;stroke-opacity:1"
       d="m 175.83973,101.46589 c 0.005,-0.007 0.007,-0.0259 0.0137,-0.0213 0.007,0.005 -0.0191,0.0149 -0.0137,0.0213 0.0439,0.0401 0.0879,0.0803 0.13181,0.12042 0,0.008 -0.004,0.0166 0,0.0236 0.036,0.072 0.0187,-0.0432 0.0472,0.0709 0.004,0.0153 0,0.0315 0,0.0472 0,0.0394 0,0.0787 0,0.11812 0,0.0315 0,0.063 0,0.0945 0,0.008 0.006,0.0181 0,0.0236 -0.006,0.006 -0.018,0.006 -0.0236,0 -0.006,-0.006 0.004,-0.0166 0,-0.0236 -0.01,-0.0199 -0.0373,-0.0273 -0.0472,-0.0472 -0.007,-0.0141 0.007,-0.0332 0,-0.0473 -0.005,-0.01 -0.0201,-0.0131 -0.0236,-0.0236 -0.005,-0.0149 0,-0.0315 0,-0.0472 0,-0.072 0.0101,-0.14583 -0.0236,-0.21262 -0.0172,-0.034 -0.0609,-0.13492 -0.0609,-0.0968 0,0.0821 0.0438,0.15827 0.0609,0.23853 0.003,0.0154 0,0.0315 0,0.0473 0,0.0236 0.003,0.0474 0,0.0709 -0.005,0.0399 -0.0192,0.0782 -0.0236,0.11812 -0.003,0.0313 0.008,0.0639 0,0.0945 -0.009,0.0342 -0.0334,0.0621 -0.0472,0.0945 -0.01,0.0229 -0.0176,0.0467 -0.0236,0.0709 -0.002,0.008 0.004,0.0166 0,0.0236 -0.005,0.01 -0.0187,0.0136 -0.0236,0.0236 -0.004,0.007 0.006,0.0181 0,0.0236 -0.006,0.006 -0.0201,0.007 -0.0236,0 -0.0133,-0.0266 0.0236,-0.14151 0.0236,-0.14174 0.002,-0.008 -0.004,-0.0166 0,-0.0236 0.005,-0.01 0.0186,-0.0136 0.0236,-0.0236 0.004,-0.007 -0.006,-0.0181 0,-0.0236 0.006,-0.006 0.018,0.006 0.0236,0 0.0111,-0.0111 -0.007,-0.0332 0,-0.0473 0.01,-0.0199 0.0446,-0.0251 0.0472,-0.0472 0.003,-0.0265 -0.008,-0.0529 -0.0114,-0.0793 0.0126,-0.14914 0.0113,-0.0888 0.0113,-0.18069 0,-0.0236 -0.0223,-0.0786 0,-0.0709 0.0255,0.009 0.0139,0.052 0.0209,0.078"
       id="path3773"
       inkscape:connector-curvature="0" />
    <path
       style="fill:none;stroke:#000000;stroke-width:0.26458332px;stroke-linecap:butt;stroke-linejoin:miter;stroke-opacity:1"
       d="m 152.70458,111.92348 c -5.3e-4,-0.0581 -0.006,-1.42736 0,0"
       id="path3775"
       inkscape:connector-curvature="0" />
    <path
       style="fill:none;stroke:#000000;stroke-width:0.26458332px;stroke-linecap:butt;stroke-linejoin:miter;stroke-opacity:1"
       d="m 152.70458,111.92348 c -8e-4,-0.0124 -0.0146,-0.0366 -0.002,-0.0373 0.0124,-7.9e-4 1.5e-4,0.025 0.002,0.0373 0.0137,0.0823 0.0324,0.16371 0.0451,0.24616 0.002,0.0156 -0.007,0.0332 0,0.0473 0.01,0.0199 0.0373,0.0273 0.0472,0.0472 0.007,0.0141 0,0.0315 0,0.0472 0,0.0157 0,0.0315 0,0.0473 0,0.0787 0,0.15749 0,0.23623 0,0.26774 0,0.53547 0,0.8032 0,0.45672 0,0.91345 0,1.37017 0,0.0213 -0.007,0.12736 0,0.14174 0.01,0.0199 0.0373,0.0273 0.0472,0.0473 0.003,0.006 0.003,0.22872 0,0.23623 -0.0536,0.11924 -0.11883,0.2329 -0.17825,0.34935"
       id="path3777"
       inkscape:connector-curvature="0" />
    <path
       style="fill:none;stroke:#000000;stroke-width:0.26458332px;stroke-linecap:butt;stroke-linejoin:miter;stroke-opacity:1"
       d="m 152.66587,115.5428 0.0838,4.70608"
       id="path3779"
       inkscape:connector-curvature="0" />
    <path
       id="path3783"
       d="m 152.88104,111.81816 c 0.0311,0.15655 0.0568,0.314 0.0736,0.47272 0.0203,0.10613 0.0341,0.21359 0.0548,0.31958 0.0279,0.10342 0.0392,0.20976 0.0467,0.31628 0.003,0.11369 0.0256,0.22549 0.0389,0.33817 0.0202,0.0843 0.0409,0.16785 0.0517,0.254 0.01,0.0923 0.01,0.18525 0.0105,0.27798 2.5e-4,0.0945 -3e-5,0.18904 -1.7e-4,0.28356 0.005,0.0861 -0.0186,0.16933 -0.0319,0.25353 -0.0143,0.0875 -0.0403,0.17179 -0.0701,0.25496 -0.0244,0.0838 -0.0379,0.17024 -0.0568,0.25545 -0.0201,0.0908 -0.0254,0.18361 -0.0287,0.27621 -0.002,0.0942 -0.002,0.18852 -0.002,0.28279 1.6e-4,0.0945 2.7e-4,0.18903 2.7e-4,0.28354 -1e-4,0.0483 0.0159,0.0904 0.0355,0.1334 0,0 -0.61292,0.3463 -0.61292,0.3463 v 0 c -0.024,-0.0519 -0.0449,-0.10272 -0.0484,-0.16075 -5e-5,-0.0945 -1.2e-4,-0.189 -2.7e-4,-0.28351 -1.5e-4,-0.0949 -5.2e-4,-0.18982 0.001,-0.28472 0.002,-0.0961 0.006,-0.19259 0.0231,-0.2874 0.0175,-0.0877 0.0384,-0.17407 0.0526,-0.26236 0.0252,-0.0815 0.0603,-0.15873 0.0759,-0.24339 0.01,-0.0824 0.0355,-0.16246 0.0369,-0.24522 1.2e-4,-0.0944 2.7e-4,-0.18878 2.7e-4,-0.28317 -2.7e-4,-0.0903 -2.1e-4,-0.18081 -0.007,-0.27092 -0.009,-0.0867 -0.028,-0.17076 -0.0507,-0.25482 -0.0117,-0.114 -0.0353,-0.22668 -0.0403,-0.34117 -0.006,-0.10335 -0.0147,-0.20676 -0.0425,-0.30692 -0.0247,-0.10794 -0.0322,-0.21955 -0.0564,-0.32782 -0.0133,-0.1561 -0.0342,-0.31173 -0.0715,-0.46408 0,0 0.6182,-0.33222 0.6182,-0.33222 z"
       inkscape:connector-curvature="0"
       style="stroke-width:0.26458332" />
    <path
       id="path3785"
       d="m 152.87304,123.68975 c -0.004,0.16834 -0.002,0.33675 -8e-4,0.50512 0.001,0.11676 8e-4,0.23352 8e-4,0.35028 -0.005,0.10186 0.003,0.20161 0.0192,0.30194 0.017,0.0969 0.0188,0.19497 0.0373,0.29153 0.0125,0.0958 0.0408,0.188 0.061,0.28217 0.0252,0.0728 0.0438,0.14732 0.0712,0.21928 0.0311,0.081 0.0393,0.16737 0.0447,0.25323 0.004,0.0939 0.004,0.18801 0.004,0.28203 -1.8e-4,0.0946 -2.7e-4,0.18926 -5.3e-4,0.28389 -5e-5,0.0473 -6e-5,0.0945 -8e-5,0.14179 0,0 -0.6259,0.31889 -0.6259,0.31889 v 0 c 1e-5,-0.0473 3e-5,-0.0945 6e-5,-0.14182 7e-5,-0.0946 2.1e-4,-0.18928 5.3e-4,-0.28391 1.4e-4,-0.0928 7.9e-4,-0.18563 -0.002,-0.27839 -0.004,-0.0788 -0.008,-0.15869 -0.0354,-0.23356 -0.0289,-0.0756 -0.0484,-0.1535 -0.0756,-0.22981 -0.0186,-0.0948 -0.0491,-0.18673 -0.0611,-0.28286 -0.0196,-0.0973 -0.0249,-0.19525 -0.0382,-0.29354 -0.0171,-0.104 -0.0317,-0.20661 -0.0236,-0.3125 1.5e-4,-0.11706 -2.6e-4,-0.23411 7.9e-4,-0.35117 10e-4,-0.16807 0.003,-0.33619 -7.9e-4,-0.50424 0,0 0.6248,-0.31835 0.6248,-0.31835 z"
       inkscape:connector-curvature="0"
       style="stroke-width:0.26458332" />
    <path
       id="path3787"
       d="m 152.87707,127.70265 c 0.0109,0.16953 0.0462,0.3362 0.0692,0.50432 0.016,0.1039 0.0119,0.20941 0.0325,0.31252 0.0205,0.0844 0.0285,0.17068 0.0332,0.25714 0.004,0.0936 0.004,0.18727 0.004,0.28092 -7e-5,0.0946 -2.1e-4,0.18916 -2.7e-4,0.28373 -6e-5,0.0945 -7e-5,0.18903 -7e-5,0.28354 0.003,0.091 -0.005,0.18274 0.004,0.27346 0.0179,0.0823 0.0303,0.16525 0.0372,0.24918 0.006,0.0933 0.006,0.18675 0.007,0.28017 1.2e-4,0.0946 -7e-5,0.1892 -1.6e-4,0.2838 -9e-5,0.0945 -1.1e-4,0.18904 -1.2e-4,0.28356 0,0.0945 0,0.18898 0,0.28348 0,0.0945 0,0.18899 0,0.28348 0,0.063 0,0.12599 0,0.18899 0,0 -0.62589,0.31891 -0.62589,0.31891 v 0 c 0,-0.063 0,-0.126 0,-0.18899 0,-0.0945 0,-0.18899 0,-0.28348 0,-0.0945 -1e-5,-0.18899 0,-0.28349 1e-5,-0.0945 1e-5,-0.18907 9e-5,-0.28361 8e-5,-0.0945 2.4e-4,-0.18906 2.5e-4,-0.28358 -1.4e-4,-0.0919 -2e-5,-0.18377 -0.005,-0.27554 -0.005,-0.0827 -0.0154,-0.16467 -0.0354,-0.24522 -0.0152,-0.0931 -0.004,-0.18815 -0.008,-0.28221 0,-0.0945 0,-0.18906 6e-5,-0.28358 6e-5,-0.0946 1.7e-4,-0.18913 2.6e-4,-0.28369 4e-5,-0.0926 2.6e-4,-0.1852 -0.002,-0.27775 -0.003,-0.083 -0.009,-0.16617 -0.0284,-0.24724 -0.0226,-0.10546 -0.0205,-0.21212 -0.0315,-0.31923 -0.0197,-0.16902 -0.0519,-0.33611 -0.0718,-0.50504 0,0 0.62157,-0.32455 0.62157,-0.32455 z"
       inkscape:connector-curvature="0"
       style="stroke-width:0.26458332" />
    <path
       id="path3789"
       d="m 152.87304,127.70575 c -0.005,0.20451 -0.003,0.40912 -0.002,0.61367 7.9e-4,0.13491 0.002,0.26981 0.003,0.40472 2.1e-4,0.0668 1.2e-4,0.0337 2.6e-4,0.0994 0,0 -0.6257,0.31881 -0.6257,0.31881 v 0 c 1.3e-4,-0.0659 5e-5,-0.0326 2.5e-4,-0.0996 5.3e-4,-0.13579 0.002,-0.27157 0.003,-0.40736 0.001,-0.20373 0.002,-0.40753 -0.002,-0.61123 0,0 0.6248,-0.31835 0.6248,-0.31835 z"
       inkscape:connector-curvature="0"
       style="stroke-width:0.26458332" />
    <path
       id="path3791"
       d="m 152.87304,127.46951 c -0.004,0.16835 -0.002,0.33676 -8e-4,0.50512 0,0 -0.62307,0.31747 -0.62307,0.31747 v 0 c 0.001,-0.16807 0.003,-0.33619 -8e-4,-0.50424 0,0 0.62481,-0.31835 0.62481,-0.31835 z"
       inkscape:connector-curvature="0"
       style="stroke-width:0.26458332" />
    <path
       id="path3793"
       d="m 152.87304,134.17859 c -0.0112,0.15865 0.008,0.31588 0.0262,0.47304 0.013,0.10404 0.0181,0.20874 0.0206,0.31347 0.002,0.0942 0.001,0.18845 0.001,0.28267 -0.002,0.0941 0.02,0.18628 0.032,0.27915 0.0113,0.0952 0.0133,0.19114 0.0147,0.28689 7.9e-4,0.0946 5.3e-4,0.18926 5.3e-4,0.28389 0.0113,0.0776 -0.0228,0.17179 0.0124,0.24439 0,0 -0.61292,0.34751 -0.61292,0.34751 v 0 c -0.0406,-0.0857 -0.0225,-0.18062 -0.0254,-0.27307 1.1e-4,-0.0944 2.6e-4,-0.18872 -9e-5,-0.28309 -7.9e-4,-0.0934 -0.002,-0.187 -0.0111,-0.28005 -0.011,-0.0958 -0.0349,-0.19036 -0.036,-0.28677 1.1e-4,-0.0938 5.3e-4,-0.18761 -5.3e-4,-0.28141 -0.002,-0.10311 -0.005,-0.20626 -0.0157,-0.30887 -0.0165,-0.15948 -0.0353,-0.31869 -0.0307,-0.4794 0,0 0.6248,-0.31835 0.6248,-0.31835 z"
       inkscape:connector-curvature="0"
       style="stroke-width:0.26458332" />
    <path
       id="path3795"
       d="m 152.88877,134.15999 c 0.0101,0.0259 0.0201,0.0517 0.0302,0.0776 0,0 -0.60896,0.34084 -0.60896,0.34084 v 0 c -0.0107,-0.0247 -0.0215,-0.0494 -0.0323,-0.0742 0,0 0.61105,-0.34425 0.61105,-0.34425 z"
       inkscape:connector-curvature="0"
       style="stroke-width:0.26458332" />
    <path
       id="path3797"
       d="m 152.92829,133.83528 c 0.0311,0.15654 0.0568,0.31399 0.0736,0.47272 0.005,0.0974 0.0317,0.1913 0.0462,0.2873 0.002,0.0148 0.003,0.0296 0.005,0.0445 0,0 -0.62301,0.32558 -0.62301,0.32558 v 0 c -0.001,-0.014 -0.003,-0.0281 -0.004,-0.0421 -0.0127,-0.0977 -0.0413,-0.19286 -0.0448,-0.29162 -0.0132,-0.1561 -0.0342,-0.31172 -0.0715,-0.46408 0,0 0.61821,-0.33221 0.61821,-0.33221 z"
       inkscape:connector-curvature="0"
       style="stroke-width:0.26458332" />
    <path
       id="path3799"
       d="m 152.82982,166.77593 c 0.0131,0.16888 0.0271,0.33766 0.0363,0.50681 0.0148,0.13178 0.0334,0.26299 0.0445,0.3952 0.008,0.1037 0.01,0.20773 0.0104,0.31169 2.6e-4,0.0946 1.3e-4,0.18914 1e-5,0.28372 -0.001,0.0921 0.0206,0.18252 0.0321,0.27362 0.0112,0.0969 0.0133,0.19453 0.0147,0.29199 8e-4,0.0948 5.3e-4,0.18964 5.3e-4,0.28447 -1.2e-4,0.0945 -1.7e-4,0.18894 -2e-4,0.28341 -0.005,0.0868 0.002,0.17077 0.0186,0.25563 0.0105,0.0801 0.0252,0.15814 0.045,0.23636 0.0116,0.0547 0.006,0.027 0.0157,0.0831 0,0 -0.62161,0.32883 -0.62161,0.32883 v 0 c -0.007,-0.0521 -0.003,-0.0264 -0.0129,-0.0773 -0.0195,-0.0794 -0.0392,-0.15743 -0.0464,-0.23924 -0.0181,-0.0893 -0.032,-0.17677 -0.0242,-0.26851 2e-5,-0.0945 6e-5,-0.18898 1.7e-4,-0.28347 1.2e-4,-0.0946 2.7e-4,-0.18913 -6e-5,-0.2837 -7.9e-4,-0.0952 -0.002,-0.19056 -0.0111,-0.28539 -0.0105,-0.094 -0.0343,-0.18657 -0.0361,-0.28098 1.1e-4,-0.0945 2.7e-4,-0.18893 2.7e-4,-0.2834 -2.4e-4,-0.10269 -5.3e-4,-0.20545 -0.007,-0.308 -0.009,-0.13325 -0.0257,-0.2655 -0.0442,-0.39774 -0.006,-0.16787 -0.0158,-0.33576 -0.0363,-0.50257 0,0 0.62157,-0.32455 0.62157,-0.32455 z"
       inkscape:connector-curvature="0"
       style="stroke-width:0.26458332" />
    <path
       id="path3801"
       d="m 174.33503,159.34554 c 0.0515,0.15189 0.0765,0.31052 0.11521,0.46552 0.03,0.0952 0.0479,0.1927 0.0569,0.2919 0.0145,0.1111 0.0393,0.22029 0.0621,0.32986 0.0242,0.11831 0.0311,0.23918 0.0357,0.35957 0.003,0.0998 0.003,0.19961 0.003,0.29943 0,0 -0.6259,0.31877 -0.6259,0.31877 v 0 c 2.7e-4,-0.0993 8e-4,-0.19855 -7.9e-4,-0.29782 -0.003,-0.11689 -0.007,-0.23427 -0.0294,-0.34941 -0.0224,-0.11226 -0.0494,-0.22341 -0.068,-0.33642 -0.006,-0.096 -0.0211,-0.19069 -0.0494,-0.28295 -0.0375,-0.15333 -0.0554,-0.31194 -0.11377,-0.45998 0,0 0.61457,-0.33847 0.61457,-0.33847 z"
       inkscape:connector-curvature="0"
       style="stroke-width:0.26458332" />
    <path
       id="path3803"
       d="m 174.32319,159.03052 c 0.006,0.15515 0.0254,0.30942 0.037,0.46424 0.009,0.12316 0.01,0.24671 0.01,0.37013 5.3e-4,0.12983 2.5e-4,0.25966 5.3e-4,0.38948 2.6e-4,0.10556 5.3e-4,0.21111 5.3e-4,0.31667 8e-5,0.0948 8e-5,0.1897 9e-5,0.28455 0,0.0943 0,0.18869 -1e-5,0.28304 0,0.0945 0,0.18895 0,0.28343 0,0.0945 0,0.18899 0,0.28349 0,0.0945 0,0.18899 0,0.28348 0,0.0945 0,0.18899 0,0.28348 0,0.0945 0,0.18899 0,0.28349 -0.008,0.0896 0.0128,0.17613 0.026,0.26395 0.0141,0.0994 0.0179,0.19979 0.0202,0.30002 0.002,0.0955 0.001,0.19106 0.001,0.28659 -1.2e-4,0.0945 -1.9e-4,0.18895 -2.4e-4,0.28342 -3e-5,0.0945 -3e-5,0.18895 -3e-5,0.28343 -0.003,0.0829 0.0203,0.16331 0.0323,0.24476 0.0119,0.0911 0.0134,0.18298 0.0147,0.27466 0.002,0.0884 -0.005,0.17657 0.0111,0.26388 0.0196,0.0847 0.0278,0.171 0.0326,0.25755 0.004,0.0938 0.004,0.1878 0.004,0.28172 -3e-5,0.0946 -1.8e-4,0.18919 -2.5e-4,0.28378 -7e-5,0.0945 -7e-5,0.18902 -8e-5,0.28353 0,0.0945 0,0.18899 0,0.28348 0,0.0945 0,0.18899 0,0.28348 0,0.0157 0,0.0315 0,0.0472 0,0 -0.62589,0.31891 -0.62589,0.31891 v 0 c 0,-0.0157 0,-0.0315 0,-0.0473 0,-0.0945 -1e-5,-0.18898 -1e-5,-0.28348 0,-0.0945 0,-0.18899 0,-0.28348 1e-5,-0.0945 1e-5,-0.18905 6e-5,-0.28358 7e-5,-0.0946 1.8e-4,-0.18914 2.7e-4,-0.2837 1e-5,-0.0928 2.6e-4,-0.1857 -0.003,-0.2785 -0.004,-0.0833 -0.009,-0.16683 -0.0285,-0.24831 -0.019,-0.0914 -0.018,-0.18243 -0.0163,-0.27561 -7.9e-4,-0.0889 -0.002,-0.17799 -0.0112,-0.26646 -0.0111,-0.0849 -0.0371,-0.16792 -0.0362,-0.25372 0,-0.0945 0,-0.18897 2e-5,-0.28345 3e-5,-0.0945 9e-5,-0.18898 2.2e-4,-0.28347 1.3e-4,-0.0951 5.3e-4,-0.19027 -5.3e-4,-0.2854 -0.002,-0.0975 -0.004,-0.19524 -0.0161,-0.2921 -0.0131,-0.091 -0.039,-0.18014 -0.0309,-0.27299 0,-0.0945 0,-0.18899 0,-0.28348 0,-0.0945 0,-0.18899 0,-0.28349 0,-0.0945 0,-0.18899 0,-0.28348 0,-0.0945 0,-0.18899 0,-0.28349 0,-0.0945 0,-0.18896 0,-0.28343 0,-0.0943 -1e-5,-0.18869 -1e-5,-0.28303 1e-5,-0.0949 0,-0.18978 1.1e-4,-0.28467 1.4e-4,-0.10582 5.3e-4,-0.21164 7.9e-4,-0.31746 5.3e-4,-0.12987 5.3e-4,-0.25974 5.3e-4,-0.38962 -0.001,-0.12206 -0.002,-0.24419 -0.008,-0.36613 -0.009,-0.15628 -0.0237,-0.31211 -0.0404,-0.46776 0,0 0.6248,-0.31835 0.6248,-0.31835 z"
       inkscape:connector-curvature="0"
       style="stroke-width:0.26458332" />
    <path
       id="path3805"
       d="m 174.37043,166.68454 c -0.004,0.16834 -0.002,0.33675 -7.9e-4,0.50512 7.9e-4,0.10955 0.001,0.2191 0.001,0.32865 0.002,0.0978 -0.004,0.19579 0.004,0.29337 0.01,0.10493 0.0323,0.20721 0.056,0.30962 0.0238,0.10734 0.0289,0.2176 0.0329,0.32712 0.003,0.099 0.003,0.19798 0.002,0.29698 -1.5e-4,0.0945 -2.7e-4,0.1891 -2.7e-4,0.28366 -5e-5,0.0944 -5e-5,0.18885 -6e-5,0.28327 0,0.0945 0,0.18898 10e-6,0.28347 -0.003,0.0829 0.0203,0.16331 0.0323,0.24476 0.0127,0.0956 0.0133,0.19215 0.0143,0.28841 0.01,0.0912 0.0284,0.18096 0.0381,0.27225 0.008,0.0935 0.009,0.18741 0.01,0.2812 -5.3e-4,0.0349 0.001,0.0696 8e-4,0.10445 0,0 -0.63865,0.30138 -0.63865,0.30138 v 0 c 0.0246,-0.0197 0.007,-0.0587 0.012,-0.0865 -2.6e-4,-0.0918 -5.3e-4,-0.18375 -0.007,-0.27539 -0.008,-0.0936 -0.0255,-0.18551 -0.0398,-0.27825 -0.001,-0.0933 -0.002,-0.18677 -0.0116,-0.27962 -0.0111,-0.0849 -0.0371,-0.16792 -0.0362,-0.25373 0,-0.0945 0,-0.18898 0,-0.28347 0,-0.0944 0,-0.18887 4e-5,-0.28331 5e-5,-0.0946 1.4e-4,-0.18916 2.6e-4,-0.28374 2.3e-4,-0.0984 7.9e-4,-0.19689 -7.9e-4,-0.29532 -0.003,-0.10536 -0.006,-0.21145 -0.0269,-0.31503 -0.0233,-0.10532 -0.049,-0.20957 -0.0594,-0.31731 -0.0128,-0.0993 -0.007,-0.1994 -0.008,-0.29939 1.8e-4,-0.11 5.3e-4,-0.22 0.001,-0.33001 0.001,-0.16807 0.003,-0.33619 -8e-4,-0.50424 0,0 0.6248,-0.31835 0.6248,-0.31835 z"
       inkscape:connector-curvature="0"
       style="stroke-width:0.26458332" />
    <path
       id="path3807"
       d="m 174.37043,166.49555 c -0.005,0.19128 -0.003,0.38264 -0.002,0.57395 -0.005,0.10667 0.0197,0.21082 0.0344,0.3157 0.002,0.0149 0.003,0.0299 0.005,0.0448 0,0 -0.62301,0.3254 -0.62301,0.3254 v 0 c -0.001,-0.0143 -0.003,-0.0286 -0.004,-0.043 -0.0133,-0.10854 -0.0406,-0.21611 -0.0341,-0.32617 10e-4,-0.19079 0.003,-0.38162 -0.002,-0.57238 0,0 0.6248,-0.31835 0.6248,-0.31835 z"
       inkscape:connector-curvature="0"
       style="stroke-width:0.26458332" />
    <path
       id="path3809"
       d="m 174.38616,171.72137 c 0.0676,0.17791 0.11447,0.36275 0.14801,0.54985 0.0205,0.11411 0.0192,0.23018 0.0377,0.34444 0.0184,0.0948 0.0272,0.19078 0.0321,0.28706 0.004,0.0946 0.004,0.18926 0.004,0.2839 -1e-5,0.0157 -2e-5,0.0315 -3e-5,0.0472 0,0 -0.62592,0.31886 -0.62592,0.31886 v 0 c 1e-5,-0.0157 3e-5,-0.0315 5e-5,-0.0472 5e-5,-0.0937 2.6e-4,-0.18744 -0.002,-0.28112 -0.004,-0.0937 -0.01,-0.1874 -0.0277,-0.27967 -0.0199,-0.11495 -0.0201,-0.23057 -0.0343,-0.34633 -0.0278,-0.18203 -0.0683,-0.36335 -0.14223,-0.5328 0,0 0.61105,-0.34425 0.61105,-0.34425 z"
       inkscape:connector-curvature="0"
       style="stroke-width:0.26458332" />
    <path
       id="path3811"
       d="m 174.41768,171.45649 c -0.004,0.1779 -0.002,0.35587 -10e-4,0.53379 1.5e-4,0.0234 2.6e-4,0.0467 5.3e-4,0.0701 0,0 -0.62318,0.31752 -0.62318,0.31752 v 0 c 1.5e-4,-0.0235 2.7e-4,-0.047 5.3e-4,-0.0705 0.001,-0.17749 0.002,-0.35502 -10e-4,-0.53249 0,0 0.6248,-0.31835 0.6248,-0.31835 z"
       inkscape:connector-curvature="0"
       style="stroke-width:0.26458332" />
    <path
       id="path3813"
       d="m 162.8038,179.27751 c -0.17722,-0.0196 -0.35508,-0.0324 -0.53313,-0.0411 -0.1229,-0.005 -0.24594,-0.006 -0.36894,-0.006 -0.10461,-1e-5 -0.20921,5.3e-4 -0.31381,2.7e-4 -0.10946,0.004 -0.21624,0.001 -0.32397,-0.0176 -0.10215,-0.007 -0.19488,-0.0377 -0.2869,-0.0801 -0.0489,-0.0222 -0.10149,-0.0302 -0.15422,-0.0368 0,0 0.57554,-0.40382 0.57554,-0.40382 v 0 c 0.0566,0.0116 0.11228,0.026 0.16443,0.0516 0.0879,0.0382 0.1805,0.0538 0.27531,0.0652 0.10531,0.0139 0.21133,0.008 0.31734,0.009 0.10456,-5.3e-4 0.20912,-2.6e-4 0.31368,2.5e-4 0.12301,0.001 0.24605,0.003 0.36883,0.011 0.17776,0.0115 0.35514,0.0297 0.53315,0.0362 0,0 -0.56731,0.41218 -0.56731,0.41218 z"
       inkscape:connector-curvature="0"
       style="stroke-width:0.26458332" />
  </g>
</svg>
